<svg xmlns="http://www.w3.org/2000/svg" viewBox="0 0 700 350" width="700" height="350">
  <style>
    text { font-family: monospace; font-size: 11px; fill: #333; }
    .title { font-size: 13px; font-weight: bold; }
    .axis-label { font-size: 11px; }
    .grid { stroke: #e0e0e0; stroke-width: 0.5; }
    .tick { font-size: 9px; fill: #666; }
  </style>
  <rect width="700" height="350" fill="white"/>
  <text x="350" y="13" text-anchor="middle" class="title">Realistic Hover -- Altitude (noisy sensors)</text>
  <line x1="55" y1="305.0" x2="670" y2="305.0" class="grid"/>
  <text x="50" y="308.0" text-anchor="end" class="tick">0.951</text>
  <line x1="55" y1="247.00000000000006" x2="670" y2="247.00000000000006" class="grid"/>
  <text x="50" y="250.00000000000006" text-anchor="end" class="tick">0.969</text>
  <line x1="55" y1="189.00000000000014" x2="670" y2="189.00000000000014" class="grid"/>
  <text x="50" y="192.00000000000014" text-anchor="end" class="tick">0.986</text>
  <line x1="55" y1="130.99999999999986" x2="670" y2="130.99999999999986" class="grid"/>
  <text x="50" y="133.99999999999986" text-anchor="end" class="tick">1</text>
  <line x1="55" y1="72.99999999999991" x2="670" y2="72.99999999999991" class="grid"/>
  <text x="50" y="75.99999999999991" text-anchor="end" class="tick">1.02</text>
  <line x1="55" y1="15.0" x2="670" y2="15.0" class="grid"/>
  <text x="50" y="18.0" text-anchor="end" class="tick">1.04</text>
  <line x1="55.0" y1="15" x2="55.0" y2="305" class="grid"/>
  <text x="55.0" y="319" text-anchor="middle" class="tick">0</text>
  <line x1="157.5" y1="15" x2="157.5" y2="305" class="grid"/>
  <text x="157.5" y="319" text-anchor="middle" class="tick">5</text>
  <line x1="260.0" y1="15" x2="260.0" y2="305" class="grid"/>
  <text x="260.0" y="319" text-anchor="middle" class="tick">10</text>
  <line x1="362.5" y1="15" x2="362.5" y2="305" class="grid"/>
  <text x="362.5" y="319" text-anchor="middle" class="tick">15</text>
  <line x1="465.0" y1="15" x2="465.0" y2="305" class="grid"/>
  <text x="465.0" y="319" text-anchor="middle" class="tick">20</text>
  <line x1="567.5" y1="15" x2="567.5" y2="305" class="grid"/>
  <text x="567.5" y="319" text-anchor="middle" class="tick">25</text>
  <line x1="670.0" y1="15" x2="670.0" y2="305" class="grid"/>
  <text x="670.0" y="319" text-anchor="middle" class="tick">30</text>
  <line x1="55" y1="15" x2="55" y2="305" stroke="#333" stroke-width="1"/>
  <line x1="55" y1="305" x2="670" y2="305" stroke="#333" stroke-width="1"/>
  <text x="362" y="345" text-anchor="middle" class="axis-label">time [s]</text>
  <text x="12" y="160" text-anchor="middle" class="axis-label" transform="rotate(-90,12,160)">z [m]</text>
  <line x1="55" y1="143.91233277985074" x2="670" y2="143.91233277985074" stroke="#888" stroke-width="1" stroke-dasharray="6,3"/>
  <text x="672" y="146.91233277985074" class="tick" fill="#888">z_ref=1.0</text>
  <polyline points="55.0,143.9 56.3,143.9 57.8,143.8 59.3,144.1 60.7,146.4 62.3,151.4 63.7,156.7 65.2,163.2 66.7,170.0 68.2,177.6 69.7,182.6 71.2,185.9 72.6,187.6 74.2,188.3 75.6,188.3 77.1,186.1 78.3,183.0 79.5,178.4 80.6,173.5 81.9,168.0 83.1,163.0 84.2,159.1 85.3,155.1 86.5,151.0 87.6,147.3 88.6,144.7 89.7,142.6 90.8,141.6 91.9,141.0 92.9,140.3 94.1,138.3 95.2,134.9 96.2,130.8 97.2,125.8 98.4,119.2 99.5,111.5 100.5,104.0 101.6,95.2 102.7,86.7 103.8,77.4 104.8,69.7 105.9,62.0 107.1,54.8 108.1,48.8 109.1,44.0 110.2,41.2 111.4,41.4 112.4,44.0 113.5,49.0 114.6,54.9 115.7,61.7 116.7,68.2 117.8,74.6 119.0,79.6 120.0,82.5 121.0,83.7 122.1,84.5 123.3,85.6 124.3,87.1 125.4,89.4 126.4,92.0 127.6,95.5 128.6,99.2 129.7,103.8 130.8,108.9 131.9,113.8 132.9,119.2 134.0,126.8 135.2,136.2 136.2,145.6 137.3,156.4 138.3,165.9 139.5,175.7 140.5,182.9 141.5,187.6 142.5,190.6 143.6,193.6 144.5,196.4 145.5,198.7 146.4,200.0 147.5,200.7 148.5,200.8 149.5,201.1 150.5,201.4 151.5,201.7 152.5,202.4 153.4,203.1 154.4,204.3 155.4,206.1 156.4,207.8 157.4,208.7 158.3,207.8 159.3,205.4 160.4,201.7 161.4,197.1 162.4,191.8 163.3,186.2 164.4,179.1 165.3,172.5 166.3,165.2 167.3,157.7 168.3,150.2 169.3,140.4 170.2,130.4 171.2,118.8 172.3,107.7 173.3,97.1 174.3,86.2 175.2,76.4 176.3,66.3 177.2,58.9 178.2,52.3 179.2,47.0 180.2,43.4 181.2,40.0 182.1,37.5 183.1,35.5 184.1,35.0 185.2,35.7 186.2,36.9 187.1,38.1 188.1,39.4 189.1,41.1 190.1,43.9 191.1,48.0 192.0,53.2 193.1,61.0 194.0,69.7 195.0,80.9 196.0,93.6 197.1,107.5 198.1,121.9 199.0,134.3 200.0,146.8 201.0,157.4 202.0,168.2 203.0,178.3 203.9,186.5 205.0,194.1 205.9,198.9 206.9,201.7 207.9,202.4 209.0,201.6 210.0,199.9 210.9,198.0 211.9,196.7 212.8,196.5 213.9,197.1 214.9,198.3 215.8,199.9 216.8,202.0 217.8,204.3 218.8,207.6 219.8,211.8 220.8,216.5 221.9,221.4 222.8,226.1 223.8,232.1 224.7,238.4 225.9,247.0 227.0,255.9 228.2,264.8 229.2,270.3 230.2,273.2 231.2,274.8 232.1,275.6 233.1,276.7 234.2,277.4 235.2,277.8 236.2,277.2 237.1,275.5 238.2,271.8 239.3,265.4 240.3,257.8 241.3,249.5 242.4,241.4 243.4,233.9 244.4,226.9 245.3,220.7 246.4,213.8 247.3,207.0 248.3,198.7 249.3,190.1 250.3,181.7 251.3,171.4 252.2,161.4 253.2,151.0 254.3,142.5 255.3,135.7 256.3,130.2 257.2,126.2 258.3,122.9 259.2,120.9 260.2,120.2 261.2,121.2 262.2,123.6 263.2,127.3 264.1,131.9 265.1,138.3 266.2,145.8 267.2,154.2 268.2,163.0 269.1,170.9 270.1,180.0 271.1,188.2 272.1,196.6 273.1,205.0 274.0,212.6 275.1,220.8 276.0,227.4 277.0,234.1 278.0,239.9 279.1,244.3 280.1,246.9 281.0,248.2 282.0,249.2 283.0,250.0 284.0,250.5 285.0,250.8 285.9,250.7 287.0,250.1 287.9,249.2 288.9,248.2 289.9,246.5 291.0,243.8 292.0,240.2 292.9,236.4 293.9,231.9 294.9,227.5 295.9,222.5 296.9,217.5 297.8,213.0 298.8,207.9 299.8,202.8 300.8,196.6 301.8,190.0 302.8,184.0 303.9,179.3 304.8,176.2 305.8,173.8 306.7,171.8 307.8,169.9 308.8,168.9 309.7,168.1 310.7,166.6 311.7,164.7 312.7,162.5 313.7,160.7 314.7,159.5 315.8,159.0 316.7,158.9 317.7,158.9 318.6,158.5 319.7,157.5 320.7,155.4 321.6,152.5 322.6,148.6 323.6,145.5 324.6,143.6 325.6,143.6 326.6,145.3 327.6,148.0 328.6,150.7 329.6,154.9 330.5,159.7 331.5,165.8 332.6,172.5 333.5,179.4 334.5,188.1 335.4,196.4 336.5,205.7 337.5,214.0 338.5,220.8 339.5,226.8 340.5,231.2 341.5,235.1 342.4,237.9 343.4,240.5 344.5,242.8 345.4,244.5 346.4,246.0 347.3,246.7 348.4,246.9 349.4,247.3 350.4,248.3 351.4,250.2 352.4,252.7 353.4,255.8 354.3,258.3 355.3,259.5 356.3,258.6 357.3,255.7 358.3,251.0 359.2,246.0 360.2,240.4 361.3,234.9 362.3,228.9 363.3,222.1 364.2,215.8 365.3,209.0 366.2,203.7 367.2,198.6 368.2,193.5 369.2,189.2 370.2,185.4 371.1,182.5 372.1,179.0 373.2,175.0 374.2,171.1 375.2,168.0 376.1,165.8 377.2,163.8 378.1,161.9 379.1,159.0 380.1,155.1 381.1,150.6 382.1,145.1 383.0,140.3 384.0,135.0 385.1,129.6 386.1,124.5 387.1,120.4 388.0,118.0 389.0,116.7 390.0,115.8 391.0,114.8 392.0,114.1 392.9,114.1 394.0,114.8 394.9,115.1 395.9,114.4 396.9,113.3 398.0,112.6 399.0,113.0 399.9,114.5 400.9,116.9 401.9,119.1 402.9,121.3 403.9,123.5 404.8,125.1 405.9,126.2 406.8,126.4 407.8,125.9 408.8,124.9 409.9,124.2 410.9,124.2 411.8,124.4 412.8,124.0 413.8,123.3 414.8,123.1 415.8,123.7 416.7,125.1 417.7,127.5 418.7,130.2 419.7,134.2 420.7,139.2 421.7,144.4 422.8,148.7 423.7,151.7 424.7,154.7 425.6,157.7 426.7,161.3 427.7,164.9 428.6,166.9 429.6,167.9 430.6,167.9 431.6,167.5 432.6,168.2 433.6,170.3 434.7,172.9 435.6,175.4 436.6,178.4 437.5,182.0 438.6,187.7 439.6,195.3 440.5,203.3 441.5,212.6 442.5,220.5 443.5,228.0 444.5,233.9 445.5,238.1 446.5,240.0 447.5,240.0 448.5,238.5 449.4,235.8 450.4,232.0 451.5,227.7 452.4,223.4 453.4,218.8 454.3,215.0 455.4,210.7 456.4,205.9 457.4,200.7 458.4,196.0 459.4,191.9 460.4,187.3 461.3,182.5 462.3,175.8 463.4,167.8 464.3,159.7 465.3,150.0 466.2,141.3 467.3,132.2 468.3,124.5 469.3,118.1 470.3,113.0 471.3,109.7 472.3,106.8 473.2,104.7 474.2,102.7 475.2,101.1 476.2,99.3 477.2,97.1 478.1,95.2 479.1,94.2 480.2,94.5 481.2,95.9 482.2,98.5 483.1,101.4 484.2,104.8 485.1,107.8 486.1,111.3 487.1,114.9 488.1,117.9 489.1,121.0 490.0,124.0 491.0,127.4 492.1,130.5 493.1,133.3 494.1,136.2 495.0,139.0 496.2,142.1 497.3,144.5 498.2,145.9 499.2,147.7 500.3,150.2 501.2,153.8 502.2,159.8 503.1,166.8 504.2,175.5 505.2,184.6 506.2,193.9 507.2,203.3 508.2,212.2 509.2,222.4 510.1,231.5 511.1,241.6 512.1,251.3 513.1,259.3 514.1,266.9 515.0,272.5 516.0,276.9 517.1,279.6 518.1,281.7 519.1,282.6 520.0,282.5 521.1,281.5 522.0,280.6 523.0,280.3 524.0,280.8 525.0,282.0 526.0,283.7 526.9,284.7 527.9,285.0 529.0,284.5 530.0,283.9 531.0,283.5 531.9,282.8 533.0,281.2 533.9,278.8 534.9,275.5 535.9,272.0 536.9,269.1 537.9,266.0 539.1,262.2 540.2,258.4 541.3,255.3 542.3,253.3 543.3,252.5 544.3,252.7 545.4,253.7 546.3,254.7 547.3,254.7 548.2,253.4 549.3,251.5 550.3,249.6 551.2,248.9 552.2,249.5 553.2,250.7 554.2,252.4 555.2,253.9 556.2,254.1 557.2,252.8 558.2,250.9 559.2,248.9 560.1,247.1 561.1,245.0 562.2,242.9 563.1,241.1 564.1,239.2 565.0,237.5 566.1,235.1 567.1,232.4 568.1,229.6 569.1,227.4 570.1,226.0 571.1,224.5 572.0,222.8 573.0,220.6 574.1,218.2 575.0,215.4 576.0,211.5 576.9,206.7 578.0,199.6 579.0,191.1 580.0,182.1 581.0,173.8 582.0,167.7 583.0,162.2 583.9,158.0 584.9,153.9 585.9,150.3 586.9,147.4 587.9,143.9 588.8,140.5 589.8,137.2 590.9,134.6 591.9,133.3 592.9,133.1 593.8,133.4 594.9,133.2 595.8,132.5 596.8,131.1 597.8,129.6 598.8,127.9 599.8,126.7 600.7,126.9 601.7,128.7 602.8,132.1 603.8,136.3 604.8,140.6 605.7,144.1 606.8,147.1 607.7,149.2 608.7,151.4 609.7,154.4 610.7,157.8 611.7,161.7 612.6,164.9 613.6,167.8 614.6,169.4 615.7,169.7 616.7,168.5 617.6,166.1 618.6,162.5 619.6,159.0 620.6,155.4 621.6,152.6 622.5,151.0 623.6,151.3 624.5,153.2 625.5,157.1 626.5,162.8 627.6,170.1 628.6,178.2 629.5,185.5 630.5,193.8 631.5,201.7 632.5,210.8 633.5,219.4 634.4,226.3 635.5,232.5 636.4,237.2 637.4,241.5 638.4,244.8 639.5,247.1 640.5,248.3 641.4,248.4 642.4,247.9 643.3,247.0 644.4,245.9 645.4,244.8 646.3,244.1 647.3,243.6 648.3,242.9 649.3,241.3 650.3,238.7 651.3,234.9 652.4,229.7 653.3,223.8 654.3,216.0 655.2,208.9 656.3,201.7 657.3,195.9 658.2,192.6 659.2,191.2 660.2,191.4 661.2,192.6 662.2,194.1 663.2,195.6 664.3,196.0 665.2,195.4 666.2,194.3 667.1,193.2 668.2,192.7 669.2,193.1" fill="none" stroke="#2196F3" stroke-width="1.5" opacity="0.9"/>
  <line x1="610" y1="30" x2="625" y2="30" stroke="#2196F3" stroke-width="2"/>
  <text x="630" y="34" class="tick">altitude</text>
</svg>
