<svg xmlns="http://www.w3.org/2000/svg" viewBox="0 0 700 350" width="700" height="350">
  <style>
    text { font-family: monospace; font-size: 11px; fill: #333; }
    .title { font-size: 13px; font-weight: bold; }
    .axis-label { font-size: 11px; }
    .grid { stroke: #e0e0e0; stroke-width: 0.5; }
    .tick { font-size: 9px; fill: #666; }
  </style>
  <rect width="700" height="350" fill="white"/>
  <text x="350" y="13" text-anchor="middle" class="title">Realistic Hover -- Battery Voltage</text>
  <line x1="55" y1="305.0" x2="670" y2="305.0" class="grid"/>
  <text x="50" y="308.0" text-anchor="end" class="tick">4.14</text>
  <line x1="55" y1="246.99999999998812" x2="670" y2="246.99999999998812" class="grid"/>
  <text x="50" y="249.99999999998812" text-anchor="end" class="tick">4.14</text>
  <line x1="55" y1="189.00000000000594" x2="670" y2="189.00000000000594" class="grid"/>
  <text x="50" y="192.00000000000594" text-anchor="end" class="tick">4.14</text>
  <line x1="55" y1="130.99999999999406" x2="670" y2="130.99999999999406" class="grid"/>
  <text x="50" y="133.99999999999406" text-anchor="end" class="tick">4.14</text>
  <line x1="55" y1="73.00000000001188" x2="670" y2="73.00000000001188" class="grid"/>
  <text x="50" y="76.00000000001188" text-anchor="end" class="tick">4.14</text>
  <line x1="55" y1="15.0" x2="670" y2="15.0" class="grid"/>
  <text x="50" y="18.0" text-anchor="end" class="tick">4.14</text>
  <line x1="55.0" y1="15" x2="55.0" y2="305" class="grid"/>
  <text x="55.0" y="319" text-anchor="middle" class="tick">0</text>
  <line x1="157.5" y1="15" x2="157.5" y2="305" class="grid"/>
  <text x="157.5" y="319" text-anchor="middle" class="tick">5</text>
  <line x1="260.0" y1="15" x2="260.0" y2="305" class="grid"/>
  <text x="260.0" y="319" text-anchor="middle" class="tick">10</text>
  <line x1="362.5" y1="15" x2="362.5" y2="305" class="grid"/>
  <text x="362.5" y="319" text-anchor="middle" class="tick">15</text>
  <line x1="465.0" y1="15" x2="465.0" y2="305" class="grid"/>
  <text x="465.0" y="319" text-anchor="middle" class="tick">20</text>
  <line x1="567.5" y1="15" x2="567.5" y2="305" class="grid"/>
  <text x="567.5" y="319" text-anchor="middle" class="tick">25</text>
  <line x1="670.0" y1="15" x2="670.0" y2="305" class="grid"/>
  <text x="670.0" y="319" text-anchor="middle" class="tick">30</text>
  <line x1="55" y1="15" x2="55" y2="305" stroke="#333" stroke-width="1"/>
  <line x1="55" y1="305" x2="670" y2="305" stroke="#333" stroke-width="1"/>
  <text x="362" y="345" text-anchor="middle" class="axis-label">time [s]</text>
  <text x="12" y="160" text-anchor="middle" class="axis-label" transform="rotate(-90,12,160)">V_batt [V]</text>
  <polyline points="55.0,85.6 56.3,86.2 57.8,79.1 59.3,61.5 60.7,53.7 62.3,87.0 63.7,73.4 65.2,83.6 66.7,81.4 68.2,118.9 69.7,115.0 71.2,107.3 72.6,102.0 74.2,99.2 75.6,117.7 77.1,114.5 78.3,113.9 79.5,106.6 80.6,93.1 81.9,89.9 83.1,74.6 84.2,100.7 85.3,95.0 86.5,85.1 87.6,78.1 88.6,76.4 89.7,77.0 90.8,81.2 91.9,103.6 92.9,120.1 94.1,126.5 95.2,122.5 96.2,115.0 97.2,118.8 98.4,121.2 99.5,107.1 100.5,109.7 101.6,111.0 102.7,95.5 103.8,78.9 104.8,80.4 105.9,87.6 107.1,93.7 108.1,67.0 109.1,47.5 110.2,37.2 111.4,48.2 112.4,54.6 113.5,68.9 114.6,96.3 115.7,93.4 116.7,115.1 117.8,127.3 119.0,145.0 120.0,144.2 121.0,111.6 122.1,98.5 123.3,89.2 124.3,91.7 125.4,90.4 126.4,94.8 127.6,94.8 128.6,96.5 129.7,94.4 130.8,98.1 131.9,95.2 132.9,74.6 134.0,63.6 135.2,91.0 136.2,97.6 137.3,118.4 138.3,120.6 139.5,147.4 140.5,172.8 141.5,148.8 142.5,105.1 143.6,103.4 144.5,130.6 145.5,131.5 146.4,128.6 147.5,127.3 148.5,105.3 149.5,110.1 150.5,109.3 151.5,100.5 152.5,109.8 153.4,103.6 154.4,95.4 155.4,109.6 156.4,139.2 157.4,160.9 158.3,150.6 159.3,140.1 160.4,138.1 161.4,128.1 162.4,139.5 163.3,137.3 164.4,119.4 165.3,117.3 166.3,116.8 167.3,140.1 168.3,153.6 169.3,152.7 170.2,127.0 171.2,106.5 172.3,99.4 173.3,126.4 174.3,121.1 175.2,95.7 176.3,66.6 177.2,73.9 178.2,90.9 179.2,81.0 180.2,105.9 181.2,102.1 182.1,98.8 183.1,84.0 184.1,90.0 185.2,104.7 186.2,120.1 187.1,123.6 188.1,102.9 189.1,98.0 190.1,90.5 191.1,80.5 192.0,68.6 193.1,73.3 194.0,81.7 195.0,89.2 196.0,90.5 197.1,108.6 198.1,143.1 199.0,155.9 200.0,144.8 201.0,146.6 202.0,144.6 203.0,148.2 203.9,164.0 205.0,180.5 205.9,195.2 206.9,174.4 207.9,165.3 209.0,146.0 210.0,138.4 210.9,109.0 211.9,94.5 212.8,109.8 213.9,113.4 214.9,106.9 215.8,123.7 216.8,116.8 217.8,106.0 218.8,107.7 219.8,120.0 220.8,125.3 221.9,121.3 222.8,113.9 223.8,103.4 224.7,108.9 225.9,126.6 227.0,143.2 228.2,176.8 229.2,190.1 230.2,179.9 231.2,142.2 232.1,128.5 233.1,140.1 234.2,141.8 235.2,156.0 236.2,170.1 237.1,174.6 238.2,184.7 239.3,179.2 240.3,148.8 241.3,127.5 242.4,118.6 243.4,124.9 244.4,134.8 245.3,132.6 246.4,155.5 247.3,158.1 248.3,143.9 249.3,152.2 250.3,164.8 251.3,162.9 252.2,119.7 253.2,88.7 254.3,95.3 255.3,106.5 256.3,115.5 257.2,106.3 258.3,114.4 259.2,100.8 260.2,94.1 261.2,101.1 262.2,113.3 263.2,109.2 264.1,105.2 265.1,114.7 266.2,118.8 267.2,131.3 268.2,144.3 269.1,131.9 270.1,142.6 271.1,163.7 272.1,144.2 273.1,142.2 274.0,149.0 275.1,165.3 276.0,161.7 277.0,165.6 278.0,178.5 279.1,188.0 280.1,178.9 281.0,154.6 282.0,146.6 283.0,160.7 284.0,151.5 285.0,153.3 285.9,163.9 287.0,154.9 287.9,149.3 288.9,162.4 289.9,172.8 291.0,169.6 292.0,164.0 292.9,157.6 293.9,154.4 294.9,157.4 295.9,151.4 296.9,147.8 297.8,154.4 298.8,163.0 299.8,164.3 300.8,163.7 301.8,133.8 302.8,121.3 303.9,116.3 304.8,125.5 305.8,147.0 306.7,145.1 307.8,131.4 308.8,150.0 309.7,173.4 310.7,169.1 311.7,156.9 312.7,140.8 313.7,139.4 314.7,139.8 315.8,141.6 316.7,151.5 317.7,164.7 318.6,171.0 319.7,180.5 320.7,188.9 321.6,172.9 322.6,143.7 323.6,117.1 324.6,109.4 325.6,115.8 326.6,134.8 327.6,150.0 328.6,125.3 329.6,130.4 330.5,140.7 331.5,142.3 332.6,135.2 333.5,129.5 334.5,148.4 335.4,156.9 336.5,184.9 337.5,199.6 338.5,177.8 339.5,189.4 340.5,189.4 341.5,183.4 342.4,175.2 343.4,169.4 344.5,176.0 345.4,167.0 346.4,183.7 347.3,181.5 348.4,156.5 349.4,148.2 350.4,145.4 351.4,144.2 352.4,151.0 353.4,177.2 354.3,205.1 355.3,211.0 356.3,230.9 357.3,204.4 358.3,184.1 359.2,169.4 360.2,158.4 361.3,182.1 362.3,189.6 363.3,170.7 364.2,163.7 365.3,142.9 366.2,148.2 367.2,165.8 368.2,164.5 369.2,142.5 370.2,150.8 371.1,178.1 372.1,184.4 373.2,168.6 374.2,149.7 375.2,154.6 376.1,158.9 377.2,175.8 378.1,188.3 379.1,198.2 380.1,201.0 381.1,188.3 382.1,166.5 383.0,170.8 384.0,175.9 385.1,168.5 386.1,147.9 387.1,136.5 388.0,138.9 389.0,167.2 390.0,177.9 391.0,172.1 392.0,151.5 392.9,157.5 394.0,185.9 394.9,203.9 395.9,188.0 396.9,162.8 398.0,153.7 399.0,140.2 399.9,156.4 400.9,176.5 401.9,188.3 402.9,177.9 403.9,186.1 404.8,197.7 405.9,200.1 406.8,198.6 407.8,191.8 408.8,175.6 409.9,154.5 410.9,178.1 411.8,198.2 412.8,191.0 413.8,166.4 414.8,160.9 415.8,157.9 416.7,160.8 417.7,168.2 418.7,157.6 419.7,157.6 420.7,173.2 421.7,208.5 422.8,210.6 423.7,190.1 424.7,175.5 425.6,173.9 426.7,181.3 427.7,224.3 428.6,218.3 429.6,207.6 430.6,200.1 431.6,160.1 432.6,147.1 433.6,173.2 434.7,186.4 435.6,179.6 436.6,164.0 437.5,143.8 438.6,136.2 439.6,156.3 440.5,178.4 441.5,199.1 442.5,225.6 443.5,224.1 444.5,232.0 445.5,247.8 446.5,240.9 447.5,228.6 448.5,225.9 449.4,211.8 450.4,204.5 451.5,201.1 452.4,187.5 453.4,183.5 454.3,192.5 455.4,202.6 456.4,209.6 457.4,173.9 458.4,191.8 459.4,193.7 460.4,214.3 461.3,231.5 462.3,226.6 463.4,218.7 464.3,213.2 465.3,195.1 466.2,180.5 467.3,159.0 468.3,165.5 469.3,162.5 470.3,162.6 471.3,174.0 472.3,186.7 473.2,187.2 474.2,185.4 475.2,210.7 476.2,204.2 477.2,193.1 478.1,170.7 479.1,164.7 480.2,171.2 481.2,172.1 482.2,181.6 483.1,196.3 484.2,204.8 485.1,192.2 486.1,198.3 487.1,206.9 488.1,209.4 489.1,196.8 490.0,195.1 491.0,211.4 492.1,211.9 493.1,199.7 494.1,193.5 495.0,206.4 496.2,223.2 497.3,216.9 498.2,196.5 499.2,191.1 500.3,164.5 501.2,148.1 502.2,156.3 503.1,183.6 504.2,196.9 505.2,197.3 506.2,206.3 507.2,194.0 508.2,194.5 509.2,208.9 510.1,211.2 511.1,212.6 512.1,229.4 513.1,240.1 514.1,242.3 515.0,258.4 516.0,250.1 517.1,223.7 518.1,234.3 519.1,237.5 520.0,231.9 521.1,207.7 522.0,191.9 523.0,188.9 524.0,188.2 525.0,197.9 526.0,230.7 526.9,229.5 527.9,232.1 529.0,213.1 530.0,206.4 531.0,222.8 531.9,237.8 533.0,241.1 533.9,229.0 534.9,219.3 535.9,202.4 536.9,213.1 537.9,213.6 539.1,226.4 540.2,201.5 541.3,189.0 542.3,182.7 543.3,195.6 544.3,196.1 545.4,209.1 546.3,251.4 547.3,254.7 548.2,231.7 549.3,218.1 550.3,186.1 551.2,183.5 552.2,200.6 553.2,207.6 554.2,222.3 555.2,251.6 556.2,259.6 557.2,236.6 558.2,215.7 559.2,221.7 560.1,221.0 561.1,222.3 562.2,220.4 563.1,216.3 564.1,223.4 565.0,235.1 566.1,227.2 567.1,226.8 568.1,206.2 569.1,203.4 570.1,220.7 571.1,233.8 572.0,231.7 573.0,226.6 574.1,243.7 575.0,246.2 576.0,256.2 576.9,274.7 578.0,259.0 579.0,238.3 580.0,207.6 581.0,182.7 582.0,193.3 583.0,207.1 583.9,210.3 584.9,219.6 585.9,219.4 586.9,229.7 587.9,239.0 588.8,217.4 589.8,212.1 590.9,192.6 591.9,203.7 592.9,215.9 593.8,241.3 594.9,246.7 595.8,245.3 596.8,231.9 597.8,241.2 598.8,213.7 599.8,196.2 600.7,188.0 601.7,192.0 602.8,212.0 603.8,230.8 604.8,241.2 605.7,258.8 606.8,249.3 607.7,239.4 608.7,211.7 609.7,210.9 610.7,229.8 611.7,243.4 612.6,251.1 613.6,266.9 614.6,265.7 615.7,274.0 616.7,274.7 617.6,259.0 618.6,245.6 619.6,228.7 620.6,215.1 621.6,211.7 622.5,182.9 623.6,190.9 624.5,193.9 625.5,193.5 626.5,199.1 627.6,217.0 628.6,245.2 629.5,232.8 630.5,222.8 631.5,231.5 632.5,254.8 633.5,265.2 634.4,276.3 635.5,264.0 636.4,267.7 637.4,261.9 638.4,261.5 639.5,273.3 640.5,267.3 641.4,253.7 642.4,257.9 643.3,242.5 644.4,246.6 645.4,234.4 646.3,233.3 647.3,251.0 648.3,265.1 649.3,269.6 650.3,273.9 651.3,278.7 652.4,279.8 653.3,277.5 654.3,246.8 655.2,229.3 656.3,214.3 657.3,187.2 658.2,186.7 659.2,206.3 660.2,225.7 661.2,238.4 662.2,250.0 663.2,278.7 664.3,275.3 665.2,260.2 666.2,255.1 667.1,229.9 668.2,225.5 669.2,232.5" fill="none" stroke="#2196F3" stroke-width="1.5" opacity="0.9"/>
  <line x1="610" y1="30" x2="625" y2="30" stroke="#2196F3" stroke-width="2"/>
  <text x="630" y="34" class="tick">V_batt</text>
</svg>
