<svg xmlns="http://www.w3.org/2000/svg" viewBox="0 0 700 350" width="700" height="350">
  <style>
    text { font-family: monospace; font-size: 11px; fill: #333; }
    .title { font-size: 13px; font-weight: bold; }
    .axis-label { font-size: 11px; }
    .grid { stroke: #e0e0e0; stroke-width: 0.5; }
    .tick { font-size: 9px; fill: #666; }
  </style>
  <rect width="700" height="350" fill="white"/>
  <text x="350" y="13" text-anchor="middle" class="title">Realistic Hover -- Motor Forces</text>
  <line x1="55" y1="305.0" x2="670" y2="305.0" class="grid"/>
  <text x="50" y="308.0" text-anchor="end" class="tick">0.259</text>
  <line x1="55" y1="246.99999999999972" x2="670" y2="246.99999999999972" class="grid"/>
  <text x="50" y="249.99999999999972" text-anchor="end" class="tick">0.264</text>
  <line x1="55" y1="189.00000000000014" x2="670" y2="189.00000000000014" class="grid"/>
  <text x="50" y="192.00000000000014" text-anchor="end" class="tick">0.268</text>
  <line x1="55" y1="130.99999999999986" x2="670" y2="130.99999999999986" class="grid"/>
  <text x="50" y="133.99999999999986" text-anchor="end" class="tick">0.273</text>
  <line x1="55" y1="73.00000000000028" x2="670" y2="73.00000000000028" class="grid"/>
  <text x="50" y="76.00000000000028" text-anchor="end" class="tick">0.277</text>
  <line x1="55" y1="15.0" x2="670" y2="15.0" class="grid"/>
  <text x="50" y="18.0" text-anchor="end" class="tick">0.282</text>
  <line x1="55.0" y1="15" x2="55.0" y2="305" class="grid"/>
  <text x="55.0" y="319" text-anchor="middle" class="tick">0</text>
  <line x1="157.5" y1="15" x2="157.5" y2="305" class="grid"/>
  <text x="157.5" y="319" text-anchor="middle" class="tick">5</text>
  <line x1="260.0" y1="15" x2="260.0" y2="305" class="grid"/>
  <text x="260.0" y="319" text-anchor="middle" class="tick">10</text>
  <line x1="362.5" y1="15" x2="362.5" y2="305" class="grid"/>
  <text x="362.5" y="319" text-anchor="middle" class="tick">15</text>
  <line x1="465.0" y1="15" x2="465.0" y2="305" class="grid"/>
  <text x="465.0" y="319" text-anchor="middle" class="tick">20</text>
  <line x1="567.5" y1="15" x2="567.5" y2="305" class="grid"/>
  <text x="567.5" y="319" text-anchor="middle" class="tick">25</text>
  <line x1="670.0" y1="15" x2="670.0" y2="305" class="grid"/>
  <text x="670.0" y="319" text-anchor="middle" class="tick">30</text>
  <line x1="55" y1="15" x2="55" y2="305" stroke="#333" stroke-width="1"/>
  <line x1="55" y1="305" x2="670" y2="305" stroke="#333" stroke-width="1"/>
  <text x="362" y="345" text-anchor="middle" class="axis-label">time [s]</text>
  <text x="12" y="160" text-anchor="middle" class="axis-label" transform="rotate(-90,12,160)">force [N]</text>
  <line x1="55" y1="167.8996301080248" x2="670" y2="167.8996301080248" stroke="#888" stroke-width="1" stroke-dasharray="6,3"/>
  <text x="672" y="170.8996301080248" class="tick" fill="#888">mg/4</text>
  <polyline points="55.0,168.2 56.3,168.0 57.8,181.2 59.3,213.6 60.7,228.1 62.3,169.2 63.7,194.2 65.2,176.5 66.7,181.2 68.2,114.6 69.7,122.3 71.2,137.0 72.6,147.2 74.2,153.0 75.6,120.5 77.1,126.9 78.3,128.6 79.5,142.3 80.6,166.8 81.9,173.3 83.1,201.4 84.2,155.0 85.3,165.8 86.5,184.1 87.6,197.0 88.6,200.7 89.7,200.0 90.8,193.0 91.9,153.5 92.9,124.4 94.1,113.4 95.2,121.2 96.2,135.1 97.2,128.7 98.4,125.0 99.5,150.7 100.5,146.6 101.6,144.8 102.7,173.1 103.8,203.3 104.8,201.3 105.9,188.8 107.1,178.4 108.1,226.7 109.1,262.2 110.2,281.2 111.4,261.9 112.4,250.9 113.5,225.9 114.6,177.2 115.7,182.8 116.7,144.5 117.8,123.3 119.0,91.9 120.0,93.8 121.0,152.9 122.1,176.9 123.3,194.1 124.3,190.2 125.4,193.1 126.4,185.6 127.6,186.1 128.6,183.6 129.7,187.9 130.8,181.7 131.9,187.4 132.9,224.7 134.0,245.0 135.2,196.4 136.2,185.2 137.3,148.3 138.3,145.0 139.5,97.4 140.5,52.3 141.5,95.9 142.5,174.7 143.6,178.2 144.5,130.0 145.5,128.8 146.4,134.4 147.5,137.3 148.5,177.3 149.5,169.0 150.5,171.1 151.5,187.2 152.5,170.9 153.4,182.6 154.4,197.7 155.4,172.8 156.4,120.3 157.4,81.7 158.3,100.7 159.3,119.9 160.4,124.1 161.4,142.5 162.4,122.4 163.3,126.8 164.4,159.5 165.3,163.8 166.3,165.1 167.3,123.8 168.3,100.1 169.3,102.1 170.2,148.7 171.2,185.9 172.3,199.1 173.3,151.1 174.3,161.1 175.2,207.1 176.3,259.8 177.2,247.1 178.2,217.2 179.2,235.4 180.2,191.3 181.2,198.4 182.1,204.8 183.1,231.8 184.1,221.5 185.2,195.6 186.2,168.6 187.1,162.6 188.1,200.4 189.1,209.5 190.1,223.4 191.1,241.9 192.0,263.6 193.1,255.7 194.0,241.0 195.0,228.0 196.0,226.2 197.1,194.1 198.1,132.8 199.0,110.2 200.0,130.8 201.0,127.9 202.0,131.9 203.0,126.0 203.9,98.2 205.0,69.1 205.9,43.1 206.9,81.0 207.9,97.7 209.0,132.9 210.0,147.0 210.9,200.2 211.9,226.6 212.8,199.7 213.9,193.6 214.9,205.9 215.8,176.0 216.8,188.9 217.8,208.8 218.8,206.3 219.8,184.7 220.8,175.5 221.9,183.3 222.8,197.0 223.8,216.2 224.7,206.9 225.9,175.6 227.0,146.5 228.2,86.8 229.2,63.3 230.2,82.1 231.2,150.2 232.1,175.2 233.1,154.9 234.2,152.3 235.2,127.3 236.2,102.7 237.1,94.9 238.2,77.4 239.3,87.7 240.3,142.8 241.3,181.5 242.4,198.0 243.4,187.0 244.4,169.8 245.3,174.2 246.4,133.7 247.3,129.4 248.3,155.3 249.3,141.0 250.3,118.8 251.3,122.6 252.2,200.8 253.2,256.7 254.3,245.3 255.3,225.7 256.3,210.1 257.2,227.0 258.3,212.9 259.2,237.6 260.2,250.3 261.2,238.3 262.2,216.7 263.2,224.5 264.1,232.2 265.1,215.6 266.2,208.7 267.2,186.6 268.2,163.9 269.1,186.7 270.1,167.9 271.1,130.5 272.1,166.1 273.1,170.0 274.0,158.3 275.1,129.6 276.0,136.5 277.0,129.9 278.0,107.2 279.1,90.8 280.1,107.5 281.0,151.5 282.0,166.3 283.0,141.6 284.0,158.6 285.0,156.0 285.9,137.4 287.0,153.8 287.9,164.6 288.9,141.4 289.9,123.3 291.0,129.5 292.0,139.9 292.9,151.9 293.9,158.1 294.9,153.3 295.9,164.5 296.9,171.4 297.8,160.1 298.8,145.0 299.8,143.2 300.8,144.6 301.8,198.7 302.8,221.7 303.9,231.1 304.8,215.0 305.8,177.0 306.7,180.8 307.8,206.0 308.8,173.1 309.7,131.5 310.7,139.7 311.7,162.0 312.7,191.4 313.7,194.5 314.7,194.2 315.8,191.3 316.7,174.0 317.7,150.9 318.6,140.1 319.7,123.5 320.7,108.9 321.6,138.2 322.6,191.0 323.6,239.1 324.6,253.3 325.6,242.3 326.6,208.7 327.6,181.9 328.6,226.6 329.6,218.0 330.5,200.0 331.5,197.6 332.6,210.8 333.5,221.5 334.5,188.1 335.4,173.3 336.5,123.4 337.5,97.5 338.5,137.2 339.5,116.9 340.5,117.4 341.5,128.6 342.4,143.8 343.4,154.6 344.5,143.2 345.4,159.9 346.4,130.5 347.3,134.8 348.4,180.2 349.4,195.4 350.4,201.1 351.4,203.6 352.4,191.8 353.4,145.4 354.3,95.9 355.3,85.7 356.3,50.5 357.3,98.5 358.3,135.5 359.2,162.1 360.2,182.3 361.3,140.5 362.3,127.4 363.3,161.8 364.2,174.9 365.3,212.6 366.2,203.4 367.2,172.4 368.2,175.2 369.2,215.1 370.2,200.7 371.1,152.2 372.1,141.5 373.2,170.4 374.2,204.5 375.2,196.3 376.1,189.0 377.2,159.2 378.1,137.2 379.1,119.9 380.1,115.4 381.1,138.6 382.1,178.1 383.0,171.0 384.0,162.4 385.1,176.0 386.1,213.5 387.1,234.4 388.0,230.5 389.0,180.3 390.0,161.6 391.0,172.4 392.0,209.9 392.9,199.6 394.0,149.0 394.9,117.3 395.9,146.2 396.9,191.8 398.0,208.7 399.0,233.3 399.9,204.7 400.9,169.1 401.9,148.5 402.9,167.5 403.9,153.4 404.8,133.0 405.9,129.1 406.8,132.4 407.8,145.0 408.8,174.7 409.9,212.9 410.9,171.1 411.8,135.5 412.8,148.9 413.8,193.4 414.8,203.6 415.8,209.5 416.7,204.8 417.7,192.1 418.7,211.3 419.7,212.0 420.7,184.4 421.7,121.5 422.8,118.3 423.7,155.6 424.7,182.2 425.6,185.6 426.7,172.8 427.7,96.1 428.6,107.4 429.6,127.2 430.6,141.0 431.6,213.1 432.6,236.9 433.6,190.5 434.7,167.3 435.6,180.1 436.6,208.5 437.5,245.2 438.6,259.2 439.6,223.6 440.5,184.5 441.5,147.9 442.5,100.7 443.5,104.0 444.5,90.4 445.5,62.5 446.5,75.4 447.5,97.8 448.5,103.2 449.4,128.9 450.4,142.5 451.5,149.1 452.4,173.9 453.4,181.6 454.3,165.8 455.4,148.2 456.4,136.2 457.4,200.7 458.4,169.0 459.4,166.1 460.4,129.6 461.3,99.2 462.3,108.5 463.4,123.3 464.3,133.5 465.3,166.4 466.2,193.0 467.3,232.1 468.3,221.0 469.3,226.7 470.3,226.9 471.3,206.9 472.3,184.9 473.2,184.4 474.2,188.0 475.2,143.1 476.2,155.3 477.2,175.6 478.1,216.1 479.1,227.6 480.2,216.4 481.2,215.1 482.2,198.5 483.1,172.6 484.2,157.9 485.1,180.8 486.1,170.4 487.1,155.5 488.1,151.5 489.1,174.5 490.0,178.1 491.0,149.2 492.1,149.0 493.1,171.2 494.1,182.8 495.0,160.2 496.2,130.6 497.3,142.5 498.2,179.5 499.2,189.8 500.3,237.9 501.2,267.7 502.2,253.4 503.1,204.9 504.2,181.5 505.2,181.3 506.2,165.6 507.2,188.0 508.2,187.7 509.2,162.4 510.1,158.8 511.1,156.6 512.1,127.1 513.1,108.2 514.1,105.0 515.0,76.5 516.0,91.8 517.1,139.7 518.1,121.0 519.1,115.8 520.0,126.5 521.1,170.3 522.0,199.0 523.0,204.9 524.0,206.5 525.0,189.7 526.0,131.2 526.9,133.8 527.9,129.8 529.0,164.2 530.0,176.8 531.0,147.9 531.9,121.5 533.0,116.0 533.9,138.2 534.9,156.0 535.9,186.8 536.9,168.1 537.9,167.6 539.1,145.3 540.2,190.5 541.3,213.4 542.3,225.1 543.3,202.5 544.3,202.1 545.4,179.2 546.3,103.8 547.3,98.3 548.2,140.1 549.3,165.1 550.3,222.7 551.2,227.9 552.2,197.8 553.2,185.7 554.2,159.7 555.2,107.8 556.2,93.8 557.2,135.5 558.2,173.5 559.2,163.3 560.1,165.0 561.1,163.1 562.2,166.9 563.1,174.7 564.1,162.6 565.0,141.9 566.1,156.5 567.1,157.9 568.1,195.2 569.1,200.8 570.1,170.1 571.1,147.2 572.0,151.4 573.0,160.9 574.1,130.9 575.0,126.7 576.0,109.3 576.9,76.7 578.0,105.3 579.0,142.9 580.0,198.3 581.0,243.6 582.0,224.8 583.0,200.8 583.9,195.5 584.9,179.2 585.9,179.9 586.9,162.0 587.9,145.9 588.8,185.0 589.8,195.1 590.9,230.4 591.9,211.0 592.9,189.6 593.8,144.4 594.9,135.1 595.8,138.2 596.8,162.8 597.8,146.7 598.8,196.3 599.8,228.2 600.7,243.4 601.7,236.6 602.8,201.3 603.8,168.1 604.8,149.8 605.7,118.7 606.8,136.3 607.7,154.5 608.7,204.6 609.7,206.6 610.7,173.1 611.7,149.2 612.6,135.7 613.6,107.9 614.6,110.7 615.7,96.3 616.7,95.4 617.6,124.0 618.6,148.6 619.6,179.3 620.6,204.2 621.6,210.8 622.5,262.8 623.6,248.9 624.5,244.1 625.5,245.3 626.5,235.7 627.6,204.0 628.6,153.9 629.5,176.7 630.5,195.1 631.5,179.8 632.5,138.5 633.5,120.3 634.4,101.0 635.5,123.6 636.4,117.3 637.4,128.3 638.4,129.4 639.5,108.8 640.5,119.9 641.4,144.7 642.4,137.8 643.3,165.9 644.4,159.1 645.4,181.4 646.3,183.7 647.3,152.4 648.3,127.6 649.3,120.0 650.3,112.8 651.3,104.8 652.4,103.1 653.3,107.9 654.3,163.3 655.2,195.2 656.3,222.7 657.3,271.7 658.2,272.9 659.2,238.2 660.2,204.1 661.2,181.6 662.2,161.3 663.2,110.2 664.3,117.0 665.2,144.5 666.2,154.0 667.1,199.8 668.2,208.0 669.2,196.1" fill="none" stroke="#2196F3" stroke-width="1.5" opacity="0.9"/>
  <polyline points="55.0,168.2 56.3,167.6 57.8,180.9 59.3,213.3 60.7,228.1 62.3,169.1 63.7,194.2 65.2,176.7 66.7,181.4 68.2,114.7 69.7,122.4 71.2,137.0 72.6,147.2 74.2,152.9 75.6,120.4 77.1,126.8 78.3,128.4 79.5,142.2 80.6,166.9 81.9,173.3 83.1,201.2 84.2,155.1 85.3,165.8 86.5,183.9 87.6,197.2 88.6,200.7 89.7,200.1 90.8,192.9 91.9,153.4 92.9,124.3 94.1,113.4 95.2,121.2 96.2,135.1 97.2,128.8 98.4,125.0 99.5,150.8 100.5,146.6 101.6,144.9 102.7,173.0 103.8,203.3 104.8,201.3 105.9,188.8 107.1,178.3 108.1,226.7 109.1,262.3 110.2,281.2 111.4,262.0 112.4,250.9 113.5,225.9 114.6,177.1 115.7,182.9 116.7,144.6 117.8,123.2 119.0,91.9 120.0,93.9 121.0,152.9 122.1,176.8 123.3,194.2 124.3,190.2 125.4,193.0 126.4,185.6 127.6,186.1 128.6,183.5 129.7,187.8 130.8,181.8 131.9,187.5 132.9,224.8 134.0,245.1 135.2,196.4 136.2,185.1 137.3,148.5 138.3,145.0 139.5,97.4 140.5,52.2 141.5,95.8 142.5,174.7 143.6,178.2 144.5,130.0 145.5,128.8 146.4,134.4 147.5,137.3 148.5,177.3 149.5,169.1 150.5,171.0 151.5,187.3 152.5,171.0 153.4,182.6 154.4,197.7 155.4,172.8 156.4,120.2 157.4,81.7 158.3,100.6 159.3,119.8 160.4,124.1 161.4,142.6 162.4,122.4 163.3,126.9 164.4,159.5 165.3,163.7 166.3,164.9 167.3,123.7 168.3,100.1 169.3,102.1 170.2,148.7 171.2,186.0 172.3,199.1 173.3,151.2 174.3,161.1 175.2,207.1 176.3,259.7 177.2,247.2 178.2,217.3 179.2,235.4 180.2,191.3 181.2,198.4 182.1,204.7 183.1,231.7 184.1,221.6 185.2,195.8 186.2,168.6 187.1,162.5 188.1,200.2 189.1,209.4 190.1,223.5 191.1,241.9 192.0,263.6 193.1,255.6 194.0,241.0 195.0,228.1 196.0,226.2 197.1,194.3 198.1,132.9 199.0,110.4 200.0,130.7 201.0,127.8 202.0,132.0 203.0,126.0 203.9,98.2 205.0,69.0 205.9,43.1 206.9,81.0 207.9,97.7 209.0,132.9 210.0,147.2 210.9,200.2 211.9,226.5 212.8,199.6 213.9,193.6 214.9,205.9 215.8,176.0 216.8,188.9 217.8,208.7 218.8,206.2 219.8,184.7 220.8,175.6 221.9,183.2 222.8,196.9 223.8,216.4 224.7,206.9 225.9,175.6 227.0,146.3 228.2,86.8 229.2,63.4 230.2,82.1 231.2,150.3 232.1,175.3 233.1,154.9 234.2,152.3 235.2,127.3 236.2,102.7 237.1,94.9 238.2,77.4 239.3,87.9 240.3,142.7 241.3,181.5 242.4,198.0 243.4,187.0 244.4,169.8 245.3,174.3 246.4,133.7 247.3,129.4 248.3,155.4 249.3,140.9 250.3,118.8 251.3,122.7 252.2,200.7 253.2,256.6 254.3,245.3 255.3,225.7 256.3,210.1 257.2,227.1 258.3,213.0 259.2,237.6 260.2,250.3 261.2,238.2 262.2,216.8 263.2,224.5 264.1,232.2 265.1,215.5 266.2,208.6 267.2,186.7 268.2,164.0 269.1,186.7 270.1,167.9 271.1,130.5 272.1,166.1 273.1,170.1 274.0,158.3 275.1,129.5 276.0,136.4 277.0,129.9 278.0,107.3 279.1,90.7 280.1,107.6 281.0,151.6 282.0,166.4 283.0,141.7 284.0,158.6 285.0,155.9 285.9,137.3 287.0,153.8 287.9,164.4 288.9,141.5 289.9,123.3 291.0,129.5 292.0,139.9 292.9,151.9 293.9,158.2 294.9,153.2 295.9,164.5 296.9,171.4 297.8,160.1 298.8,144.9 299.8,143.1 300.8,144.7 301.8,198.7 302.8,221.6 303.9,231.1 304.8,215.1 305.8,177.0 306.7,180.9 307.8,205.9 308.8,173.2 309.7,131.5 310.7,139.6 311.7,162.0 312.7,191.4 313.7,194.4 314.7,194.2 315.8,191.4 316.7,174.1 317.7,150.9 318.6,140.2 319.7,123.6 320.7,108.9 321.6,138.1 322.6,191.0 323.6,239.1 324.6,253.3 325.6,242.2 326.6,208.7 327.6,181.9 328.6,226.6 329.6,218.0 330.5,199.9 331.5,197.5 332.6,210.9 333.5,221.5 334.5,188.0 335.4,173.2 336.5,123.6 337.5,97.6 338.5,137.2 339.5,117.1 340.5,117.5 341.5,128.6 342.4,143.7 343.4,154.6 344.5,143.3 345.4,159.8 346.4,130.5 347.3,134.9 348.4,180.2 349.4,195.4 350.4,201.1 351.4,203.5 352.4,191.8 353.4,145.4 354.3,95.8 355.3,85.6 356.3,50.5 357.3,98.6 358.3,135.5 359.2,162.1 360.2,182.4 361.3,140.3 362.3,127.4 363.3,161.8 364.2,174.9 365.3,212.7 366.2,203.4 367.2,172.3 368.2,175.2 369.2,215.1 370.2,200.7 371.1,152.3 372.1,141.4 373.2,170.3 374.2,204.5 375.2,196.3 376.1,189.0 377.2,159.3 378.1,137.2 379.1,120.0 380.1,115.5 381.1,138.6 382.1,178.2 383.0,171.0 384.0,162.4 385.1,176.0 386.1,213.5 387.1,234.4 388.0,230.5 389.0,180.3 390.0,161.6 391.0,172.3 392.0,209.8 392.9,199.5 394.0,149.0 394.9,117.1 395.9,146.3 396.9,191.9 398.0,208.6 399.0,233.4 399.9,204.7 400.9,169.2 401.9,148.4 402.9,167.5 403.9,153.4 404.8,133.0 405.9,129.2 406.8,132.4 407.8,145.0 408.8,174.6 409.9,212.8 410.9,171.0 411.8,135.3 412.8,148.8 413.8,193.3 414.8,203.6 415.8,209.5 416.7,204.8 417.7,192.1 418.7,211.5 419.7,212.0 420.7,184.5 421.7,121.7 422.8,118.4 423.7,155.7 424.7,182.2 425.6,185.5 426.7,172.7 427.7,96.2 428.6,107.3 429.6,127.1 430.6,140.9 431.6,213.0 432.6,236.8 433.6,190.6 434.7,167.4 435.6,180.0 436.6,208.5 437.5,245.2 438.6,259.3 439.6,223.6 440.5,184.6 441.5,148.0 442.5,100.8 443.5,104.0 444.5,90.4 445.5,62.5 446.5,75.3 447.5,97.8 448.5,103.3 449.4,128.9 450.4,142.5 451.5,149.0 452.4,173.9 453.4,181.6 454.3,165.8 455.4,148.3 456.4,136.2 457.4,200.7 458.4,169.0 459.4,166.2 460.4,129.7 461.3,99.2 462.3,108.6 463.4,123.2 464.3,133.4 465.3,166.4 466.2,193.1 467.3,232.0 468.3,221.0 469.3,226.8 470.3,227.0 471.3,207.0 472.3,184.8 473.2,184.4 474.2,188.0 475.2,143.1 476.2,155.3 477.2,175.6 478.1,216.1 479.1,227.5 480.2,216.3 481.2,215.0 482.2,198.5 483.1,172.6 484.2,158.0 485.1,181.0 486.1,170.5 487.1,155.5 488.1,151.5 489.1,174.5 490.0,178.2 491.0,149.2 492.1,148.9 493.1,171.3 494.1,183.0 495.0,160.2 496.2,130.7 497.3,142.5 498.2,179.3 499.2,189.6 500.3,237.7 501.2,267.8 502.2,253.3 503.1,204.8 504.2,181.5 505.2,181.3 506.2,165.7 507.2,188.2 508.2,187.8 509.2,162.6 510.1,158.8 511.1,156.7 512.1,127.0 513.1,108.2 514.1,104.9 515.0,76.3 516.0,91.7 517.1,139.6 518.1,121.1 519.1,115.9 520.0,126.3 521.1,170.2 522.0,198.9 523.0,204.9 524.0,206.6 525.0,189.7 526.0,131.2 526.9,133.9 527.9,129.8 529.0,164.3 530.0,176.9 531.0,148.0 531.9,121.5 533.0,115.8 533.9,138.0 534.9,155.9 535.9,186.7 536.9,168.1 537.9,167.6 539.1,145.3 540.2,190.6 541.3,213.4 542.3,225.2 543.3,202.5 544.3,202.1 545.4,179.1 546.3,103.9 547.3,98.4 548.2,140.2 549.3,164.9 550.3,222.9 551.2,227.9 552.2,197.6 553.2,185.6 554.2,159.7 555.2,107.8 556.2,93.9 557.2,135.5 558.2,173.6 559.2,163.3 560.1,164.9 561.1,163.0 562.2,167.0 563.1,174.7 564.1,162.5 565.0,142.0 566.1,156.6 567.1,157.7 568.1,195.2 569.1,200.8 570.1,170.1 571.1,147.2 572.0,151.4 573.0,161.0 574.1,130.9 575.0,126.7 576.0,109.4 576.9,76.7 578.0,105.2 579.0,142.8 580.0,198.3 581.0,243.5 582.0,224.9 583.0,200.8 583.9,195.4 584.9,179.3 585.9,180.0 586.9,162.0 587.9,145.9 588.8,185.0 589.8,195.0 590.9,230.4 591.9,211.0 592.9,189.7 593.8,144.4 594.9,135.3 595.8,138.3 596.8,162.8 597.8,146.6 598.8,196.2 599.8,228.2 600.7,243.3 601.7,236.5 602.8,201.2 603.8,168.0 604.8,149.8 605.7,118.7 606.8,136.3 607.7,154.4 608.7,204.6 609.7,206.7 610.7,173.0 611.7,149.2 612.6,135.8 613.6,108.0 614.6,110.7 615.7,96.2 616.7,95.4 617.6,124.0 618.6,148.5 619.6,179.3 620.6,204.2 621.6,210.8 622.5,262.7 623.6,248.9 624.5,243.9 625.5,245.2 626.5,235.5 627.6,204.0 628.6,153.9 629.5,176.7 630.5,195.1 631.5,179.8 632.5,138.8 633.5,120.3 634.4,101.0 635.5,123.5 636.4,117.3 637.4,128.2 638.4,129.4 639.5,108.9 640.5,120.0 641.4,144.8 642.4,137.8 643.3,165.9 644.4,159.0 645.4,181.3 646.3,183.6 647.3,152.4 648.3,127.6 649.3,120.1 650.3,112.8 651.3,104.8 652.4,103.2 653.3,107.9 654.3,163.3 655.2,195.3 656.3,222.6 657.3,271.6 658.2,273.0 659.2,238.2 660.2,203.9 661.2,181.6 662.2,161.2 663.2,110.4 664.3,117.0 665.2,144.5 666.2,154.1 667.1,199.8 668.2,208.1 669.2,196.1" fill="none" stroke="#F44336" stroke-width="1.5" opacity="0.9"/>
  <polyline points="55.0,168.2 56.3,167.7 57.8,180.9 59.3,213.3 60.7,228.0 62.3,169.1 63.7,194.2 65.2,176.6 66.7,181.4 68.2,114.7 69.7,122.4 71.2,137.0 72.6,147.3 74.2,152.9 75.6,120.3 77.1,126.9 78.3,128.5 79.5,142.2 80.6,166.9 81.9,173.4 83.1,201.3 84.2,155.0 85.3,165.8 86.5,184.0 87.6,197.1 88.6,200.7 89.7,200.1 90.8,193.0 91.9,153.5 92.9,124.3 94.1,113.4 95.2,121.3 96.2,135.1 97.2,128.7 98.4,125.0 99.5,150.8 100.5,146.5 101.6,144.8 102.7,173.0 103.8,203.3 104.8,201.2 105.9,188.7 107.1,178.4 108.1,226.7 109.1,262.3 110.2,281.2 111.4,261.9 112.4,251.0 113.5,225.9 114.6,177.2 115.7,182.9 116.7,144.5 117.8,123.3 119.0,91.9 120.0,93.9 121.0,152.8 122.1,176.9 123.3,194.1 124.3,190.1 125.4,193.1 126.4,185.6 127.6,186.0 128.6,183.6 129.7,187.8 130.8,181.8 131.9,187.5 132.9,224.8 134.0,245.1 135.2,196.4 136.2,185.1 137.3,148.5 138.3,145.0 139.5,97.4 140.5,52.3 141.5,95.8 142.5,174.8 143.6,178.2 144.5,129.9 145.5,128.8 146.4,134.4 147.5,137.3 148.5,177.3 149.5,169.1 150.5,171.1 151.5,187.3 152.5,171.0 153.4,182.7 154.4,197.6 155.4,173.0 156.4,120.1 157.4,81.6 158.3,100.7 159.3,119.9 160.4,124.1 161.4,142.5 162.4,122.5 163.3,126.9 164.4,159.5 165.3,163.8 166.3,165.0 167.3,123.7 168.3,100.1 169.3,102.1 170.2,148.7 171.2,186.0 172.3,199.1 173.3,151.1 174.3,161.1 175.2,207.1 176.3,259.7 177.2,247.2 178.2,217.3 179.2,235.4 180.2,191.2 181.2,198.4 182.1,204.7 183.1,231.7 184.1,221.6 185.2,195.7 186.2,168.6 187.1,162.7 188.1,200.2 189.1,209.4 190.1,223.4 191.1,241.9 192.0,263.5 193.1,255.6 194.0,241.1 195.0,228.0 196.0,226.2 197.1,194.3 198.1,133.0 199.0,110.3 200.0,130.7 201.0,127.9 202.0,132.0 203.0,126.0 203.9,98.0 205.0,69.0 205.9,43.2 206.9,80.9 207.9,97.8 209.0,132.9 210.0,147.2 210.9,200.2 211.9,226.5 212.8,199.6 213.9,193.6 214.9,205.9 215.8,176.0 216.8,188.9 217.8,208.7 218.8,206.2 219.8,184.6 220.8,175.6 221.9,183.2 222.8,196.9 223.8,216.4 224.7,206.9 225.9,175.6 227.0,146.4 228.2,86.8 229.2,63.3 230.2,82.1 231.2,150.3 232.1,175.3 233.1,154.8 234.2,152.3 235.2,127.4 236.2,102.7 237.1,94.8 238.2,77.4 239.3,87.8 240.3,142.8 241.3,181.6 242.4,197.9 243.4,187.1 244.4,169.8 245.3,174.3 246.4,133.8 247.3,129.5 248.3,155.3 249.3,141.0 250.3,118.8 251.3,122.7 252.2,200.6 253.2,256.6 254.3,245.2 255.3,225.7 256.3,210.1 257.2,227.0 258.3,213.0 259.2,237.7 260.2,250.3 261.2,238.0 262.2,216.7 263.2,224.6 264.1,232.2 265.1,215.5 266.2,208.6 267.2,186.8 268.2,163.8 269.1,186.7 270.1,168.0 271.1,130.5 272.1,166.1 273.1,170.1 274.0,158.3 275.1,129.5 276.0,136.4 277.0,129.9 278.0,107.3 279.1,90.7 280.1,107.5 281.0,151.6 282.0,166.4 283.0,141.6 284.0,158.5 285.0,155.9 285.9,137.3 287.0,153.9 287.9,164.4 288.9,141.5 289.9,123.3 291.0,129.5 292.0,139.9 292.9,151.9 293.9,158.2 294.9,153.3 295.9,164.5 296.9,171.4 297.8,160.0 298.8,145.0 299.8,143.0 300.8,144.6 301.8,198.8 302.8,221.7 303.9,231.0 304.8,215.0 305.8,177.1 306.7,180.9 307.8,206.0 308.8,173.1 309.7,131.5 310.7,139.7 311.7,161.9 312.7,191.4 313.7,194.5 314.7,194.2 315.8,191.4 316.7,174.1 317.7,150.9 318.6,140.1 319.7,123.5 320.7,108.9 321.6,138.2 322.6,191.0 323.6,239.0 324.6,253.3 325.6,242.2 326.6,208.7 327.6,181.9 328.6,226.6 329.6,218.0 330.5,199.9 331.5,197.5 332.6,210.9 333.5,221.5 334.5,188.0 335.4,173.3 336.5,123.4 337.5,97.7 338.5,137.3 339.5,116.9 340.5,117.5 341.5,128.6 342.4,143.7 343.4,154.6 344.5,143.3 345.4,159.7 346.4,130.5 347.3,134.9 348.4,180.2 349.4,195.4 350.4,201.0 351.4,203.5 352.4,191.8 353.4,145.4 354.3,95.8 355.3,85.7 356.3,50.5 357.3,98.6 358.3,135.5 359.2,162.0 360.2,182.4 361.3,140.5 362.3,127.3 363.3,161.7 364.2,174.9 365.3,212.6 366.2,203.5 367.2,172.4 368.2,175.2 369.2,215.1 370.2,200.9 371.1,152.3 372.1,141.4 373.2,170.3 374.2,204.5 375.2,196.2 376.1,189.0 377.2,159.3 378.1,137.1 379.1,120.1 380.1,115.5 381.1,138.7 382.1,178.2 383.0,170.9 384.0,162.4 385.1,175.9 386.1,213.4 387.1,234.5 388.0,230.5 389.0,180.2 390.0,161.6 391.0,172.3 392.0,209.8 392.9,199.5 394.0,148.9 394.9,117.2 395.9,146.3 396.9,191.9 398.0,208.6 399.0,233.4 399.9,204.7 400.9,169.1 401.9,148.5 402.9,167.6 403.9,153.4 404.8,133.0 405.9,129.2 406.8,132.3 407.8,145.0 408.8,174.6 409.9,212.8 410.9,171.0 411.8,135.4 412.8,148.7 413.8,193.4 414.8,203.7 415.8,209.5 416.7,204.7 417.7,192.1 418.7,211.4 419.7,212.0 420.7,184.5 421.7,121.7 422.8,118.4 423.7,155.7 424.7,182.2 425.6,185.5 426.7,172.8 427.7,96.2 428.6,107.2 429.6,127.1 430.6,140.9 431.6,213.1 432.6,236.9 433.6,190.4 434.7,167.3 435.6,180.1 436.6,208.5 437.5,245.2 438.6,259.3 439.6,223.7 440.5,184.6 441.5,147.9 442.5,100.7 443.5,104.1 444.5,90.4 445.5,62.5 446.5,75.4 447.5,97.9 448.5,103.2 449.4,128.8 450.4,142.5 451.5,149.0 452.4,173.9 453.4,181.7 454.3,165.9 455.4,148.2 456.4,136.1 457.4,200.8 458.4,169.0 459.4,166.2 460.4,129.6 461.3,99.2 462.3,108.7 463.4,123.2 464.3,133.4 465.3,166.3 466.2,193.0 467.3,232.1 468.3,221.0 469.3,226.8 470.3,227.0 471.3,207.0 472.3,184.8 473.2,184.3 474.2,188.1 475.2,143.0 476.2,155.2 477.2,175.6 478.1,216.2 479.1,227.5 480.2,216.3 481.2,215.1 482.2,198.6 483.1,172.6 484.2,158.0 485.1,180.9 486.1,170.5 487.1,155.6 488.1,151.4 489.1,174.5 490.0,178.1 491.0,149.3 492.1,148.9 493.1,171.2 494.1,183.1 495.0,160.3 496.2,130.6 497.3,142.5 498.2,179.4 499.2,189.6 500.3,237.8 501.2,267.6 502.2,253.3 503.1,204.9 504.2,181.5 505.2,181.3 506.2,165.7 507.2,188.2 508.2,187.8 509.2,162.6 510.1,158.8 511.1,156.7 512.1,127.0 513.1,108.1 514.1,104.9 515.0,76.4 516.0,91.7 517.1,139.5 518.1,121.1 519.1,115.9 520.0,126.3 521.1,170.2 522.0,199.0 523.0,204.9 524.0,206.6 525.0,189.6 526.0,131.3 526.9,133.9 527.9,129.8 529.0,164.2 530.0,176.9 531.0,147.9 531.9,121.6 533.0,115.9 533.9,138.0 534.9,156.0 535.9,186.7 536.9,168.1 537.9,167.6 539.1,145.4 540.2,190.5 541.3,213.4 542.3,225.2 543.3,202.5 544.3,202.1 545.4,179.1 546.3,103.8 547.3,98.4 548.2,140.2 549.3,165.1 550.3,222.7 551.2,227.8 552.2,197.6 553.2,185.7 554.2,159.6 555.2,107.8 556.2,93.8 557.2,135.6 558.2,173.6 559.2,163.3 560.1,164.9 561.1,163.1 562.2,167.0 563.1,174.7 564.1,162.5 565.0,142.0 566.1,156.7 567.1,157.8 568.1,195.2 569.1,200.8 570.1,170.1 571.1,147.2 572.0,151.4 573.0,161.0 574.1,130.9 575.0,126.8 576.0,109.4 576.9,76.7 578.0,105.2 579.0,142.8 580.0,198.3 581.0,243.5 582.0,224.9 583.0,200.8 583.9,195.4 584.9,179.3 585.9,180.0 586.9,162.1 587.9,145.8 588.8,185.0 589.8,195.0 590.9,230.3 591.9,211.0 592.9,189.6 593.8,144.4 594.9,135.3 595.8,138.2 596.8,162.8 597.8,146.6 598.8,196.3 599.8,228.2 600.7,243.3 601.7,236.5 602.8,201.2 603.8,168.1 604.8,149.8 605.7,118.7 606.8,136.4 607.7,154.5 608.7,204.6 609.7,206.6 610.7,173.0 611.7,149.3 612.6,135.8 613.6,107.9 614.6,110.6 615.7,96.3 616.7,95.4 617.6,124.0 618.6,148.5 619.6,179.3 620.6,204.2 621.6,210.8 622.5,262.8 623.6,248.8 624.5,244.0 625.5,245.3 626.5,235.6 627.6,203.9 628.6,153.9 629.5,176.7 630.5,195.1 631.5,179.8 632.5,138.7 633.5,120.5 634.4,101.0 635.5,123.5 636.4,117.3 637.4,128.2 638.4,129.5 639.5,108.9 640.5,119.9 641.4,144.8 642.4,137.8 643.3,165.9 644.4,159.0 645.4,181.3 646.3,183.6 647.3,152.4 648.3,127.6 649.3,120.1 650.3,112.7 651.3,104.8 652.4,103.2 653.3,107.9 654.3,163.3 655.2,195.3 656.3,222.7 657.3,271.7 658.2,272.9 659.2,238.2 660.2,204.0 661.2,181.7 662.2,161.3 663.2,110.2 664.3,117.0 665.2,144.5 666.2,154.1 667.1,199.8 668.2,208.0 669.2,196.0" fill="none" stroke="#4CAF50" stroke-width="1.5" opacity="0.9"/>
  <polyline points="55.0,168.2 56.3,168.1 57.8,181.4 59.3,213.5 60.7,228.1 62.3,169.2 63.7,194.2 65.2,176.6 66.7,181.1 68.2,114.6 69.7,122.4 71.2,137.0 72.6,147.2 74.2,153.0 75.6,120.4 77.1,126.9 78.3,128.6 79.5,142.3 80.6,166.9 81.9,173.3 83.1,201.3 84.2,155.1 85.3,165.7 86.5,184.0 87.6,197.1 88.6,200.7 89.7,200.0 90.8,193.0 91.9,153.5 92.9,124.4 94.1,113.5 95.2,121.2 96.2,135.2 97.2,128.6 98.4,125.0 99.5,150.8 100.5,146.6 101.6,144.8 102.7,173.0 103.8,203.4 104.8,201.3 105.9,188.8 107.1,178.3 108.1,226.7 109.1,262.3 110.2,281.2 111.4,261.9 112.4,250.9 113.5,225.9 114.6,177.1 115.7,182.9 116.7,144.6 117.8,123.2 119.0,91.9 120.0,93.9 121.0,152.8 122.1,176.9 123.3,194.2 124.3,190.1 125.4,193.1 126.4,185.7 127.6,186.0 128.6,183.6 129.7,187.9 130.8,181.7 131.9,187.5 132.9,224.8 134.0,245.0 135.2,196.4 136.2,185.1 137.3,148.4 138.3,145.0 139.5,97.4 140.5,52.3 141.5,95.8 142.5,174.8 143.6,178.2 144.5,129.9 145.5,128.8 146.4,134.4 147.5,137.3 148.5,177.3 149.5,169.1 150.5,171.0 151.5,187.2 152.5,170.9 153.4,182.6 154.4,197.7 155.4,172.9 156.4,120.3 157.4,81.6 158.3,100.7 159.3,120.0 160.4,124.1 161.4,142.5 162.4,122.4 163.3,126.9 164.4,159.5 165.3,163.7 166.3,165.1 167.3,123.8 168.3,100.1 169.3,102.1 170.2,148.6 171.2,186.0 172.3,199.1 173.3,151.2 174.3,161.1 175.2,207.1 176.3,259.8 177.2,247.0 178.2,217.2 179.2,235.5 180.2,191.2 181.2,198.4 182.1,204.9 183.1,231.8 184.1,221.4 185.2,195.7 186.2,168.5 187.1,162.7 188.1,200.3 189.1,209.5 190.1,223.4 191.1,241.9 192.0,263.6 193.1,255.7 194.0,241.0 195.0,228.0 196.0,226.2 197.1,194.2 198.1,132.9 199.0,110.2 200.0,130.8 201.0,127.9 202.0,131.9 203.0,126.0 203.9,98.1 205.0,69.1 205.9,43.2 206.9,80.9 207.9,97.8 209.0,132.9 210.0,147.0 210.9,200.1 211.9,226.6 212.8,199.7 213.9,193.6 214.9,205.8 215.8,176.0 216.8,188.9 217.8,208.8 218.8,206.3 219.8,184.7 220.8,175.6 221.9,183.3 222.8,196.9 223.8,216.3 224.7,206.8 225.9,175.6 227.0,146.5 228.2,86.8 229.2,63.3 230.2,82.0 231.2,150.3 232.1,175.3 233.1,154.9 234.2,152.2 235.2,127.4 236.2,102.7 237.1,95.0 238.2,77.4 239.3,87.8 240.3,142.7 241.3,181.5 242.4,198.0 243.4,187.0 244.4,169.8 245.3,174.2 246.4,133.7 247.3,129.4 248.3,155.4 249.3,141.0 250.3,118.8 251.3,122.6 252.2,200.7 253.2,256.7 254.3,245.3 255.3,225.8 256.3,210.0 257.2,227.0 258.3,212.9 259.2,237.7 260.2,250.3 261.2,238.2 262.2,216.8 263.2,224.5 264.1,232.2 265.1,215.6 266.2,208.7 267.2,186.7 268.2,163.9 269.1,186.6 270.1,167.9 271.1,130.5 272.1,166.0 273.1,170.0 274.0,158.3 275.1,129.6 276.0,136.5 277.0,130.0 278.0,107.2 279.1,90.7 280.1,107.6 281.0,151.6 282.0,166.3 283.0,141.6 284.0,158.6 285.0,155.9 285.9,137.5 287.0,153.9 287.9,164.4 288.9,141.4 289.9,123.4 291.0,129.4 292.0,139.9 292.9,151.9 293.9,158.1 294.9,153.2 295.9,164.5 296.9,171.5 297.8,160.1 298.8,145.0 299.8,143.1 300.8,144.7 301.8,198.8 302.8,221.7 303.9,231.1 304.8,215.0 305.8,176.9 306.7,180.9 307.8,205.9 308.8,173.1 309.7,131.5 310.7,139.8 311.7,162.1 312.7,191.4 313.7,194.4 314.7,194.2 315.8,191.4 316.7,174.0 317.7,150.9 318.6,140.1 319.7,123.5 320.7,108.9 321.6,138.2 322.6,191.0 323.6,239.1 324.6,253.3 325.6,242.3 326.6,208.7 327.6,182.0 328.6,226.6 329.6,218.1 330.5,200.0 331.5,197.5 332.6,210.7 333.5,221.5 334.5,188.1 335.4,173.2 336.5,123.5 337.5,97.6 338.5,137.2 339.5,116.9 340.5,117.4 341.5,128.6 342.4,143.8 343.4,154.6 344.5,143.3 345.4,159.8 346.4,130.5 347.3,134.9 348.4,180.2 349.4,195.4 350.4,201.0 351.4,203.6 352.4,191.9 353.4,145.4 354.3,95.8 355.3,85.8 356.3,50.6 357.3,98.5 358.3,135.4 359.2,162.1 360.2,182.3 361.3,140.3 362.3,127.4 363.3,161.7 364.2,174.8 365.3,212.7 366.2,203.5 367.2,172.4 368.2,175.2 369.2,215.1 370.2,200.7 371.1,152.2 372.1,141.4 373.2,170.3 374.2,204.6 375.2,196.2 376.1,189.0 377.2,159.3 378.1,137.2 379.1,119.9 380.1,115.4 381.1,138.6 382.1,178.2 383.0,170.9 384.0,162.3 385.1,176.1 386.1,213.5 387.1,234.4 388.0,230.5 389.0,180.3 390.0,161.6 391.0,172.3 392.0,209.9 392.9,199.6 394.0,149.0 394.9,117.2 395.9,146.3 396.9,191.9 398.0,208.6 399.0,233.3 399.9,204.6 400.9,169.1 401.9,148.5 402.9,167.6 403.9,153.4 404.8,132.9 405.9,129.1 406.8,132.5 407.8,144.9 408.8,174.7 409.9,212.9 410.9,171.1 411.8,135.5 412.8,148.9 413.8,193.3 414.8,203.7 415.8,209.5 416.7,204.8 417.7,192.1 418.7,211.4 419.7,211.9 420.7,184.4 421.7,121.6 422.8,118.3 423.7,155.6 424.7,182.3 425.6,185.5 426.7,172.8 427.7,96.2 428.6,107.3 429.6,127.1 430.6,141.1 431.6,213.2 432.6,236.8 433.6,190.5 434.7,167.3 435.6,180.3 436.6,208.5 437.5,245.2 438.6,259.3 439.6,223.6 440.5,184.6 441.5,147.9 442.5,100.7 443.5,104.2 444.5,90.3 445.5,62.5 446.5,75.3 447.5,97.9 448.5,103.2 449.4,129.0 450.4,142.5 451.5,149.0 452.4,173.9 453.4,181.7 454.3,165.8 455.4,148.2 456.4,136.1 457.4,200.7 458.4,169.0 459.4,166.1 460.4,129.6 461.3,99.2 462.3,108.6 463.4,123.3 464.3,133.4 465.3,166.4 466.2,193.1 467.3,232.2 468.3,221.0 469.3,226.7 470.3,227.0 471.3,207.0 472.3,184.9 473.2,184.4 474.2,188.1 475.2,143.1 476.2,155.2 477.2,175.6 478.1,216.2 479.1,227.5 480.2,216.3 481.2,215.1 482.2,198.6 483.1,172.6 484.2,157.8 485.1,180.8 486.1,170.5 487.1,155.5 488.1,151.4 489.1,174.5 490.0,178.1 491.0,149.3 492.1,148.9 493.1,171.1 494.1,182.9 495.0,160.2 496.2,130.6 497.3,142.5 498.2,179.6 499.2,189.8 500.3,237.9 501.2,267.7 502.2,253.3 503.1,204.9 504.2,181.5 505.2,181.3 506.2,165.6 507.2,188.1 508.2,187.7 509.2,162.3 510.1,158.8 511.1,156.6 512.1,127.1 513.1,108.3 514.1,105.0 515.0,76.5 516.0,91.8 517.1,139.6 518.1,121.0 519.1,115.9 520.0,126.4 521.1,170.2 522.0,199.0 523.0,205.0 524.0,206.5 525.0,189.6 526.0,131.2 526.9,133.8 527.9,129.7 529.0,164.2 530.0,176.8 531.0,147.9 531.9,121.5 533.0,116.0 533.9,138.1 534.9,156.0 535.9,186.8 536.9,168.1 537.9,167.7 539.1,145.4 540.2,190.4 541.3,213.4 542.3,225.3 543.3,202.5 544.3,202.1 545.4,179.2 546.3,103.8 547.3,98.2 548.2,140.1 549.3,164.9 550.3,222.8 551.2,227.9 552.2,197.7 553.2,185.7 554.2,159.7 555.2,107.8 556.2,93.9 557.2,135.6 558.2,173.5 559.2,163.2 560.1,164.9 561.1,163.1 562.2,167.0 563.1,174.7 564.1,162.5 565.0,141.9 566.1,156.6 567.1,157.8 568.1,195.3 569.1,200.8 570.1,170.1 571.1,147.2 572.0,151.4 573.0,160.9 574.1,130.9 575.0,126.7 576.0,109.3 576.9,76.7 578.0,105.3 579.0,142.9 580.0,198.3 581.0,243.5 582.0,224.9 583.0,200.8 583.9,195.5 584.9,179.2 585.9,179.9 586.9,162.0 587.9,145.9 588.8,185.0 589.8,195.1 590.9,230.4 591.9,211.0 592.9,189.6 593.8,144.4 594.9,135.2 595.8,138.1 596.8,162.9 597.8,146.7 598.8,196.3 599.8,228.3 600.7,243.4 601.7,236.5 602.8,201.3 603.8,168.0 604.8,149.8 605.7,118.7 606.8,136.4 607.7,154.5 608.7,204.6 609.7,206.5 610.7,173.1 611.7,149.2 612.6,135.7 613.6,107.9 614.6,110.6 615.7,96.3 616.7,95.4 617.6,124.0 618.6,148.6 619.6,179.4 620.6,204.2 621.6,210.9 622.5,262.8 623.6,248.9 624.5,244.1 625.5,245.3 626.5,235.6 627.6,204.1 628.6,153.9 629.5,176.7 630.5,195.1 631.5,179.8 632.5,138.4 633.5,120.3 634.4,101.1 635.5,123.5 636.4,117.4 637.4,128.2 638.4,129.5 639.5,108.8 640.5,119.8 641.4,144.7 642.4,137.8 643.3,166.0 644.4,159.0 645.4,181.4 646.3,183.7 647.3,152.5 648.3,127.6 649.3,120.0 650.3,112.8 651.3,104.8 652.4,103.2 653.3,107.9 654.3,163.2 655.2,195.3 656.3,222.6 657.3,271.7 658.2,272.9 659.2,238.1 660.2,204.0 661.2,181.8 662.2,161.2 663.2,110.3 664.3,117.0 665.2,144.5 666.2,154.0 667.1,199.8 668.2,208.0 669.2,196.0" fill="none" stroke="#FF9800" stroke-width="1.5" opacity="0.9"/>
  <line x1="610" y1="30" x2="625" y2="30" stroke="#2196F3" stroke-width="2"/>
  <text x="630" y="34" class="tick">f1 (FL)</text>
  <line x1="610" y1="46" x2="625" y2="46" stroke="#F44336" stroke-width="2"/>
  <text x="630" y="50" class="tick">f2 (FR)</text>
  <line x1="610" y1="62" x2="625" y2="62" stroke="#4CAF50" stroke-width="2"/>
  <text x="630" y="66" class="tick">f3 (RL)</text>
  <line x1="610" y1="78" x2="625" y2="78" stroke="#FF9800" stroke-width="2"/>
  <text x="630" y="82" class="tick">f4 (RR)</text>
</svg>
