<svg xmlns="http://www.w3.org/2000/svg" viewBox="0 0 700 350" width="700" height="350">
  <style>
    text { font-family: monospace; font-size: 11px; fill: #333; }
    .title { font-size: 13px; font-weight: bold; }
    .axis-label { font-size: 11px; }
    .grid { stroke: #e0e0e0; stroke-width: 0.5; }
    .tick { font-size: 9px; fill: #666; }
  </style>
  <rect width="700" height="350" fill="white"/>
  <text x="350" y="13" text-anchor="middle" class="title">Realistic Hover -- Battery SoC</text>
  <line x1="55" y1="305.0" x2="670" y2="305.0" class="grid"/>
  <text x="50" y="308.0" text-anchor="end" class="tick">0.996</text>
  <line x1="55" y1="246.99999999999727" x2="670" y2="246.99999999999727" class="grid"/>
  <text x="50" y="249.99999999999727" text-anchor="end" class="tick">0.997</text>
  <line x1="55" y1="189.00000000000136" x2="670" y2="189.00000000000136" class="grid"/>
  <text x="50" y="192.00000000000136" text-anchor="end" class="tick">0.998</text>
  <line x1="55" y1="130.99999999999864" x2="670" y2="130.99999999999864" class="grid"/>
  <text x="50" y="133.99999999999864" text-anchor="end" class="tick">0.998</text>
  <line x1="55" y1="73.00000000000276" x2="670" y2="73.00000000000276" class="grid"/>
  <text x="50" y="76.00000000000276" text-anchor="end" class="tick">0.999</text>
  <line x1="55" y1="15.0" x2="670" y2="15.0" class="grid"/>
  <text x="50" y="18.0" text-anchor="end" class="tick">1</text>
  <line x1="55.0" y1="15" x2="55.0" y2="305" class="grid"/>
  <text x="55.0" y="319" text-anchor="middle" class="tick">0</text>
  <line x1="157.5" y1="15" x2="157.5" y2="305" class="grid"/>
  <text x="157.5" y="319" text-anchor="middle" class="tick">5</text>
  <line x1="260.0" y1="15" x2="260.0" y2="305" class="grid"/>
  <text x="260.0" y="319" text-anchor="middle" class="tick">10</text>
  <line x1="362.5" y1="15" x2="362.5" y2="305" class="grid"/>
  <text x="362.5" y="319" text-anchor="middle" class="tick">15</text>
  <line x1="465.0" y1="15" x2="465.0" y2="305" class="grid"/>
  <text x="465.0" y="319" text-anchor="middle" class="tick">20</text>
  <line x1="567.5" y1="15" x2="567.5" y2="305" class="grid"/>
  <text x="567.5" y="319" text-anchor="middle" class="tick">25</text>
  <line x1="670.0" y1="15" x2="670.0" y2="305" class="grid"/>
  <text x="670.0" y="319" text-anchor="middle" class="tick">30</text>
  <line x1="55" y1="15" x2="55" y2="305" stroke="#333" stroke-width="1"/>
  <line x1="55" y1="305" x2="670" y2="305" stroke="#333" stroke-width="1"/>
  <text x="362" y="345" text-anchor="middle" class="axis-label">time [s]</text>
  <text x="12" y="160" text-anchor="middle" class="axis-label" transform="rotate(-90,12,160)">SoC</text>
  <polyline points="55.0,35.0 56.3,35.5 57.8,36.1 59.3,36.7 60.7,37.3 62.3,37.9 63.7,38.5 65.2,39.1 66.7,39.7 68.2,40.3 69.7,40.9 71.2,41.6 72.6,42.2 74.2,42.8 75.6,43.4 77.1,44.0 78.3,44.5 79.5,45.0 80.6,45.4 81.9,45.9 83.1,46.4 84.2,46.9 85.3,47.3 86.5,47.8 87.6,48.3 88.6,48.7 89.7,49.1 90.8,49.5 91.9,50.0 92.9,50.4 94.1,50.9 95.2,51.3 96.2,51.8 97.2,52.2 98.4,52.7 99.5,53.1 100.5,53.5 101.6,54.0 102.7,54.4 103.8,54.9 104.8,55.3 105.9,55.7 107.1,56.2 108.1,56.6 109.1,57.0 110.2,57.5 111.4,57.9 112.4,58.3 113.5,58.8 114.6,59.2 115.7,59.6 116.7,60.0 117.8,60.5 119.0,61.0 120.0,61.4 121.0,61.8 122.1,62.3 123.3,62.7 124.3,63.1 125.4,63.6 126.4,64.0 127.6,64.5 128.6,64.9 129.7,65.3 130.8,65.8 131.9,66.2 132.9,66.6 134.0,67.1 135.2,67.5 136.2,67.9 137.3,68.4 138.3,68.8 139.5,69.3 140.5,69.7 141.5,70.1 142.5,70.6 143.6,71.0 144.5,71.4 145.5,71.8 146.4,72.2 147.5,72.6 148.5,73.0 149.5,73.4 150.5,73.8 151.5,74.2 152.5,74.6 153.4,75.0 154.4,75.4 155.4,75.8 156.4,76.2 157.4,76.6 158.3,77.0 159.3,77.4 160.4,77.8 161.4,78.3 162.4,78.7 163.3,79.1 164.4,79.5 165.3,79.9 166.3,80.3 167.3,80.7 168.3,81.1 169.3,81.5 170.2,81.9 171.2,82.3 172.3,82.7 173.3,83.1 174.3,83.5 175.2,83.9 176.3,84.3 177.2,84.7 178.2,85.1 179.2,85.5 180.2,85.9 181.2,86.3 182.1,86.7 183.1,87.1 184.1,87.5 185.2,87.9 186.2,88.3 187.1,88.7 188.1,89.1 189.1,89.5 190.1,89.9 191.1,90.3 192.0,90.7 193.1,91.1 194.0,91.4 195.0,91.8 196.0,92.2 197.1,92.7 198.1,93.1 199.0,93.5 200.0,93.9 201.0,94.3 202.0,94.7 203.0,95.1 203.9,95.5 205.0,95.9 205.9,96.3 206.9,96.7 207.9,97.2 209.0,97.6 210.0,98.0 210.9,98.4 211.9,98.8 212.8,99.1 213.9,99.6 214.9,100.0 215.8,100.3 216.8,100.8 217.8,101.1 218.8,101.5 219.8,102.0 220.8,102.4 221.9,102.8 222.8,103.2 223.8,103.6 224.7,103.9 225.9,104.4 227.0,104.9 228.2,105.4 229.2,105.8 230.2,106.2 231.2,106.6 232.1,107.0 233.1,107.4 234.2,107.8 235.2,108.2 236.2,108.7 237.1,109.0 238.2,109.5 239.3,109.9 240.3,110.4 241.3,110.8 242.4,111.2 243.4,111.6 244.4,112.0 245.3,112.4 246.4,112.8 247.3,113.2 248.3,113.6 249.3,114.0 250.3,114.4 251.3,114.8 252.2,115.2 253.2,115.6 254.3,116.0 255.3,116.4 256.3,116.8 257.2,117.2 258.3,117.6 259.2,118.0 260.2,118.4 261.2,118.8 262.2,119.2 263.2,119.6 264.1,119.9 265.1,120.4 266.2,120.8 267.2,121.2 268.2,121.6 269.1,122.0 270.1,122.4 271.1,122.8 272.1,123.2 273.1,123.6 274.0,124.0 275.1,124.4 276.0,124.8 277.0,125.2 278.0,125.6 279.1,126.0 280.1,126.5 281.0,126.8 282.0,127.3 283.0,127.6 284.0,128.1 285.0,128.5 285.9,128.9 287.0,129.3 287.9,129.6 288.9,130.1 289.9,130.5 291.0,130.9 292.0,131.3 292.9,131.7 293.9,132.1 294.9,132.5 295.9,132.9 296.9,133.3 297.8,133.7 298.8,134.1 299.8,134.5 300.8,134.9 301.8,135.3 302.8,135.8 303.9,136.2 304.8,136.5 305.8,136.9 306.7,137.3 307.8,137.7 308.8,138.1 309.7,138.5 310.7,138.9 311.7,139.3 312.7,139.7 313.7,140.1 314.7,140.6 315.8,141.0 316.7,141.4 317.7,141.8 318.6,142.1 319.7,142.6 320.7,143.0 321.6,143.4 322.6,143.8 323.6,144.2 324.6,144.6 325.6,145.0 326.6,145.4 327.6,145.8 328.6,146.2 329.6,146.6 330.5,146.9 331.5,147.4 332.6,147.8 333.5,148.1 334.5,148.6 335.4,148.9 336.5,149.3 337.5,149.8 338.5,150.2 339.5,150.6 340.5,151.0 341.5,151.4 342.4,151.8 343.4,152.2 344.5,152.6 345.4,153.0 346.4,153.4 347.3,153.8 348.4,154.2 349.4,154.6 350.4,155.1 351.4,155.5 352.4,155.8 353.4,156.2 354.3,156.6 355.3,157.1 356.3,157.5 357.3,157.9 358.3,158.3 359.2,158.7 360.2,159.1 361.3,159.5 362.3,159.9 363.3,160.3 364.2,160.7 365.3,161.1 366.2,161.5 367.2,161.9 368.2,162.3 369.2,162.7 370.2,163.1 371.1,163.5 372.1,163.9 373.2,164.3 374.2,164.7 375.2,165.2 376.1,165.5 377.2,165.9 378.1,166.3 379.1,166.7 380.1,167.2 381.1,167.5 382.1,168.0 383.0,168.3 384.0,168.8 385.1,169.2 386.1,169.6 387.1,170.0 388.0,170.4 389.0,170.8 390.0,171.1 391.0,171.6 392.0,172.0 392.9,172.3 394.0,172.8 394.9,173.1 395.9,173.6 396.9,174.0 398.0,174.4 399.0,174.8 399.9,175.2 400.9,175.6 401.9,176.0 402.9,176.4 403.9,176.8 404.8,177.2 405.9,177.6 406.8,178.0 407.8,178.4 408.8,178.8 409.9,179.2 410.9,179.6 411.8,180.0 412.8,180.4 413.8,180.8 414.8,181.2 415.8,181.6 416.7,182.0 417.7,182.4 418.7,182.8 419.7,183.2 420.7,183.6 421.7,184.0 422.8,184.5 423.7,184.8 424.7,185.2 425.6,185.6 426.7,186.0 427.7,186.5 428.6,186.8 429.6,187.3 430.6,187.6 431.6,188.1 432.6,188.5 433.6,188.9 434.7,189.3 435.6,189.7 436.6,190.1 437.5,190.4 438.6,190.9 439.6,191.3 440.5,191.6 441.5,192.1 442.5,192.4 443.5,192.9 444.5,193.3 445.5,193.7 446.5,194.1 447.5,194.5 448.5,194.9 449.4,195.3 450.4,195.7 451.5,196.2 452.4,196.5 453.4,197.0 454.3,197.3 455.4,197.7 456.4,198.2 457.4,198.6 458.4,199.0 459.4,199.4 460.4,199.8 461.3,200.2 462.3,200.6 463.4,201.0 464.3,201.4 465.3,201.8 466.2,202.2 467.3,202.6 468.3,203.0 469.3,203.4 470.3,203.8 471.3,204.2 472.3,204.6 473.2,205.0 474.2,205.4 475.2,205.8 476.2,206.2 477.2,206.6 478.1,207.0 479.1,207.4 480.2,207.8 481.2,208.2 482.2,208.6 483.1,209.0 484.2,209.4 485.1,209.8 486.1,210.2 487.1,210.6 488.1,211.0 489.1,211.4 490.0,211.8 491.0,212.2 492.1,212.6 493.1,213.0 494.1,213.5 495.0,213.8 496.2,214.3 497.3,214.8 498.2,215.1 499.2,215.6 500.3,216.0 501.2,216.3 502.2,216.7 503.1,217.1 504.2,217.5 505.2,217.9 506.2,218.3 507.2,218.8 508.2,219.1 509.2,219.6 510.1,219.9 511.1,220.3 512.1,220.8 513.1,221.1 514.1,221.6 515.0,222.0 516.0,222.4 517.1,222.8 518.1,223.2 519.1,223.6 520.0,224.0 521.1,224.4 522.0,224.8 523.0,225.2 524.0,225.6 525.0,226.0 526.0,226.4 526.9,226.8 527.9,227.2 529.0,227.6 530.0,228.1 531.0,228.5 531.9,228.9 533.0,229.3 533.9,229.7 534.9,230.1 535.9,230.5 536.9,230.9 537.9,231.3 539.1,231.8 540.2,232.2 541.3,232.7 542.3,233.1 543.3,233.5 544.3,233.9 545.4,234.3 546.3,234.7 547.3,235.1 548.2,235.5 549.3,235.9 550.3,236.3 551.2,236.7 552.2,237.1 553.2,237.5 554.2,237.9 555.2,238.3 556.2,238.7 557.2,239.2 558.2,239.5 559.2,240.0 560.1,240.3 561.1,240.7 562.2,241.2 563.1,241.5 564.1,242.0 565.0,242.3 566.1,242.7 567.1,243.2 568.1,243.6 569.1,244.0 570.1,244.4 571.1,244.8 572.0,245.2 573.0,245.6 574.1,246.0 575.0,246.4 576.0,246.8 576.9,247.2 578.0,247.6 579.0,248.0 580.0,248.4 581.0,248.9 582.0,249.2 583.0,249.6 583.9,250.0 584.9,250.4 585.9,250.8 586.9,251.2 587.9,251.6 588.8,252.0 589.8,252.4 590.9,252.8 591.9,253.2 592.9,253.7 593.8,254.0 594.9,254.4 595.8,254.8 596.8,255.2 597.8,255.7 598.8,256.0 599.8,256.5 600.7,256.8 601.7,257.2 602.8,257.6 603.8,258.1 604.8,258.5 605.7,258.8 606.8,259.3 607.7,259.6 608.7,260.1 609.7,260.5 610.7,260.8 611.7,261.3 612.6,261.6 613.6,262.1 614.6,262.5 615.7,262.9 616.7,263.3 617.6,263.7 618.6,264.1 619.6,264.5 620.6,264.9 621.6,265.3 622.5,265.7 623.6,266.1 624.5,266.5 625.5,266.9 626.5,267.3 627.6,267.7 628.6,268.1 629.5,268.5 630.5,268.9 631.5,269.3 632.5,269.7 633.5,270.1 634.4,270.5 635.5,270.9 636.4,271.3 637.4,271.7 638.4,272.1 639.5,272.6 640.5,273.0 641.4,273.4 642.4,273.8 643.3,274.2 644.4,274.6 645.4,275.0 646.3,275.4 647.3,275.8 648.3,276.2 649.3,276.6 650.3,277.0 651.3,277.4 652.4,277.9 653.3,278.2 654.3,278.7 655.2,279.0 656.3,279.5 657.3,279.9 658.2,280.2 659.2,280.6 660.2,281.0 661.2,281.4 662.2,281.8 663.2,282.2 664.3,282.7 665.2,283.0 666.2,283.5 667.1,283.8 668.2,284.3 669.2,284.7" fill="none" stroke="#2196F3" stroke-width="1.5" opacity="0.9"/>
  <line x1="610" y1="30" x2="625" y2="30" stroke="#2196F3" stroke-width="2"/>
  <text x="630" y="34" class="tick">SoC</text>
</svg>
