<svg xmlns="http://www.w3.org/2000/svg" viewBox="0 0 700 350" width="700" height="350">
  <style>
    text { font-family: monospace; font-size: 11px; fill: #333; }
    .title { font-size: 13px; font-weight: bold; }
    .axis-label { font-size: 11px; }
    .grid { stroke: #e0e0e0; stroke-width: 0.5; }
    .tick { font-size: 9px; fill: #666; }
  </style>
  <rect width="700" height="350" fill="white"/>
  <text x="350" y="13" text-anchor="middle" class="title">Instability Demo -- Attitude Divergence</text>
  <line x1="55" y1="305.0" x2="670" y2="305.0" class="grid"/>
  <text x="50" y="308.0" text-anchor="end" class="tick">-148</text>
  <line x1="55" y1="247.0" x2="670" y2="247.0" class="grid"/>
  <text x="50" y="250.0" text-anchor="end" class="tick">-94.5</text>
  <line x1="55" y1="189.0" x2="670" y2="189.0" class="grid"/>
  <text x="50" y="192.0" text-anchor="end" class="tick">-41.4</text>
  <line x1="55" y1="130.99999999999997" x2="670" y2="130.99999999999997" class="grid"/>
  <text x="50" y="133.99999999999997" text-anchor="end" class="tick">11.7</text>
  <line x1="55" y1="73.0" x2="670" y2="73.0" class="grid"/>
  <text x="50" y="76.0" text-anchor="end" class="tick">64.7</text>
  <line x1="55" y1="15.0" x2="670" y2="15.0" class="grid"/>
  <text x="50" y="18.0" text-anchor="end" class="tick">118</text>
  <line x1="55.0" y1="15" x2="55.0" y2="305" class="grid"/>
  <text x="55.0" y="319" text-anchor="middle" class="tick">0</text>
  <line x1="157.5" y1="15" x2="157.5" y2="305" class="grid"/>
  <text x="157.5" y="319" text-anchor="middle" class="tick">0.5</text>
  <line x1="260.0" y1="15" x2="260.0" y2="305" class="grid"/>
  <text x="260.0" y="319" text-anchor="middle" class="tick">1</text>
  <line x1="362.5" y1="15" x2="362.5" y2="305" class="grid"/>
  <text x="362.5" y="319" text-anchor="middle" class="tick">1.5</text>
  <line x1="465.0" y1="15" x2="465.0" y2="305" class="grid"/>
  <text x="465.0" y="319" text-anchor="middle" class="tick">2</text>
  <line x1="567.5" y1="15" x2="567.5" y2="305" class="grid"/>
  <text x="567.5" y="319" text-anchor="middle" class="tick">2.5</text>
  <line x1="670.0" y1="15" x2="670.0" y2="305" class="grid"/>
  <text x="670.0" y="319" text-anchor="middle" class="tick">3</text>
  <line x1="55" y1="15" x2="55" y2="305" stroke="#333" stroke-width="1"/>
  <line x1="55" y1="305" x2="670" y2="305" stroke="#333" stroke-width="1"/>
  <text x="362" y="345" text-anchor="middle" class="axis-label">time [s]</text>
  <text x="12" y="160" text-anchor="middle" class="axis-label" transform="rotate(-90,12,160)">angle [deg]</text>
  <polyline points="55.0,143.7 55.4,143.7 56.4,143.7 57.5,143.7 58.5,143.7 59.5,143.7 60.5,143.7 61.6,143.7 62.6,143.7 63.6,143.7 64.6,143.7 65.7,143.7 66.7,143.7 67.7,143.7 68.7,143.7 69.8,143.7 70.8,143.8 71.8,143.8 72.8,143.8 73.9,143.8 74.9,143.8 75.9,143.8 76.9,143.7 78.0,143.7 79.0,143.7 80.0,143.7 81.0,143.7 82.1,143.7 83.1,143.7 84.1,143.7 85.1,143.7 86.2,143.7 87.2,143.7 88.2,143.7 89.2,143.7 90.3,143.7 91.3,143.7 92.3,143.8 93.3,143.8 94.4,143.8 95.4,143.8 96.4,143.8 97.4,143.8 98.5,143.8 99.5,143.8 100.5,143.8 101.5,143.7 102.6,143.7 103.6,143.7 104.6,143.7 105.6,143.7 106.7,143.7 107.7,143.7 108.7,143.7 109.7,143.7 110.8,143.7 111.8,143.7 112.8,143.7 113.8,143.7 114.9,143.7 115.9,143.8 116.9,143.8 117.9,143.8 119.0,143.8 120.0,143.8 121.0,143.8 122.0,143.8 123.1,143.8 124.1,143.8 125.1,143.8 126.1,143.7 127.2,143.7 128.2,143.7 129.2,143.7 130.2,143.7 131.3,143.7 132.3,143.7 133.3,143.7 134.3,143.7 135.4,143.7 136.4,143.7 137.4,143.7 138.4,143.7 139.5,143.8 140.5,143.8 141.5,143.8 142.5,143.8 143.6,143.8 144.6,143.8 145.6,143.8 146.6,143.8 147.7,143.8 148.7,143.8 149.7,143.7 150.7,143.7 151.8,143.7 152.8,143.7 153.8,143.6 154.8,143.6 155.9,143.6 156.9,143.6 157.9,143.6 158.9,143.6 160.0,143.7 161.0,143.7 162.0,143.7 163.0,143.8 164.1,143.8 165.1,143.9 166.1,143.9 167.1,143.9 168.2,143.9 169.2,143.9 170.2,143.9 171.2,143.8 172.3,143.8 173.3,143.8 174.3,143.7 175.3,143.7 176.4,143.6 177.4,143.6 178.4,143.5 179.4,143.5 180.5,143.5 181.5,143.5 182.5,143.6 183.5,143.6 184.6,143.7 185.6,143.7 186.6,143.8 187.6,143.9 188.7,143.9 189.7,144.0 190.7,144.0 191.7,144.0 192.8,144.0 193.8,144.0 194.8,143.9 195.8,143.9 196.9,143.8 197.9,143.7 198.9,143.6 199.9,143.5 201.0,143.5 202.0,143.4 203.0,143.4 204.0,143.4 205.1,143.4 206.1,143.4 207.1,143.5 208.1,143.6 209.2,143.7 210.2,143.8 211.2,143.9 212.2,144.0 213.3,144.1 214.3,144.2 215.3,144.2 216.3,144.2 217.4,144.2 218.4,144.1 219.4,144.0 220.4,143.9 221.5,143.7 222.5,143.6 223.5,143.4 224.5,143.3 225.6,143.2 226.6,143.1 227.6,143.1 228.6,143.1 229.7,143.2 230.7,143.3 231.7,143.5 232.7,143.6 233.8,143.8 234.8,144.0 235.8,144.2 236.8,144.4 237.9,144.5 238.9,144.6 239.9,144.6 240.9,144.5 242.0,144.4 243.0,144.2 244.0,144.0 245.0,143.8 246.1,143.5 247.1,143.2 248.1,143.0 249.1,142.8 250.2,142.7 251.2,142.6 252.2,142.7 253.2,142.8 254.3,142.9 255.3,143.2 256.3,143.5 257.3,143.8 258.4,144.2 259.4,144.5 260.4,144.8 261.4,145.0 262.5,145.2 263.5,145.2 264.5,145.1 265.5,144.9 266.6,144.7 267.6,144.3 268.6,143.9 269.6,143.4 270.7,143.0 271.7,142.6 272.7,142.2 273.7,142.0 274.8,141.8 275.8,141.9 276.6,142.0 277.4,142.2 278.4,142.5 279.5,143.0 280.3,143.4 281.1,143.9 281.9,144.4 282.8,144.9 283.6,145.3 284.6,145.7 285.6,146.1 286.4,146.2 287.3,146.2 288.1,146.2 288.9,145.9 289.7,145.6 290.7,145.1 291.8,144.4 292.6,143.8 293.4,143.2 294.2,142.6 295.1,142.0 295.9,141.4 296.9,140.9 297.9,140.6 298.7,140.4 299.6,140.5 300.4,140.7 301.2,141.0 302.0,141.5 303.0,142.3 304.1,143.2 304.9,144.0 305.7,144.9 306.5,145.7 307.4,146.4 308.2,147.1 309.2,147.7 310.2,148.0 311.0,148.1 311.9,147.9 312.7,147.6 313.5,147.0 314.3,146.3 315.3,145.1 316.4,143.9 317.2,142.8 318.0,141.7 318.8,140.7 319.7,139.7 320.5,138.9 321.5,138.2 322.5,137.7 323.3,137.5 324.2,137.6 325.0,138.0 325.8,138.6 326.6,139.5 327.6,140.8 328.7,142.4 329.5,143.8 330.3,145.3 331.1,146.7 332.0,148.1 332.8,149.3 333.8,150.7 334.8,151.8 335.6,152.5 336.5,152.9 337.3,153.1 338.1,153.0 338.9,152.7 339.9,151.8 341.0,150.5 341.8,149.2 342.6,147.6 343.4,145.9 344.3,144.0 345.1,142.1 346.1,139.7 347.1,137.5 347.9,135.8 348.8,134.2 349.6,132.8 350.4,131.7 351.2,130.7 352.2,129.9 353.3,129.4 354.1,129.4 354.9,129.7 355.7,130.2 356.6,131.1 357.4,132.3 358.4,134.2 359.2,136.1 360.0,138.2 360.9,140.5 361.7,142.9 362.5,145.4 363.5,148.6 364.3,151.0 365.2,153.4 366.0,155.6 366.6,157.2 367.6,159.6 368.6,161.7 369.5,163.1 370.3,164.3 370.9,165.0 371.7,165.7 372.7,166.2 373.8,166.2 374.6,165.9 375.2,165.4 376.0,164.6 376.8,163.4 377.9,161.6 378.9,159.2 379.5,157.5 380.3,155.1 381.2,152.3 382.0,149.4 383.0,145.6 383.8,142.4 384.6,139.3 385.5,136.2 386.3,133.1 387.1,130.2 388.1,126.8 388.9,124.3 389.8,121.9 390.6,119.8 391.2,118.3 392.2,116.2 393.2,114.5 394.1,113.4 394.9,112.6 395.5,112.2 396.3,111.9 397.3,111.9 398.4,112.4 399.2,113.1 399.8,113.9 400.6,115.1 401.4,116.6 402.5,119.0 403.5,121.9 404.1,123.8 404.9,126.6 405.8,129.8 406.6,133.1 407.6,137.6 408.4,141.3 409.2,145.0 410.1,148.7 410.9,152.4 411.7,156.0 412.7,160.2 413.5,163.5 414.4,166.5 415.2,169.3 415.8,171.2 416.8,174.2 417.8,176.7 418.7,178.4 419.5,179.7 420.1,180.6 420.9,181.4 421.9,182.0 423.0,182.0 423.8,181.7 424.4,181.2 425.2,180.3 426.0,179.1 427.1,177.1 428.1,174.6 428.7,172.9 429.5,170.4 430.4,167.6 431.2,164.5 432.2,160.3 433.0,156.7 433.8,152.9 434.7,149.0 435.5,145.0 436.3,141.0 437.3,136.1 438.1,132.3 439.0,128.6 439.8,125.1 440.4,122.5 441.4,118.6 442.4,115.0 443.3,112.4 444.1,110.0 444.7,108.5 445.5,106.6 446.5,104.8 447.6,103.4 448.4,102.6 449.0,102.2 449.8,102.0 450.6,102.1 451.7,102.6 452.7,103.6 453.3,104.5 454.1,105.9 455.0,107.6 455.8,109.6 456.8,112.5 457.6,115.1 458.4,118.0 459.3,121.1 460.1,124.5 460.9,128.1 461.9,133.0 462.7,137.0 463.6,141.1 464.4,145.1 465.0,148.2 466.0,153.2 467.0,158.1 467.9,161.8 468.7,165.4 469.3,168.0 470.1,171.2 471.1,175.0 472.2,178.3 473.0,180.7 473.6,182.4 474.4,184.3 475.2,185.9 476.3,187.6 477.3,188.8 477.9,189.3 478.7,189.8 479.6,189.9 480.4,189.8 481.4,189.2 482.2,188.4 483.0,187.4 483.9,186.1 484.7,184.6 485.5,182.8 486.5,180.2 487.3,177.9 488.2,175.4 489.0,172.6 489.6,170.4 490.6,166.5 491.6,162.3 492.5,158.7 493.3,155.0 493.9,152.1 494.7,148.2 495.7,143.3 496.8,138.3 497.6,134.3 498.2,131.3 499.0,127.3 499.8,123.4 500.9,118.6 501.9,113.9 502.5,111.2 503.3,107.7 504.2,104.3 505.0,101.0 506.0,97.0 506.8,94.0 507.6,91.1 508.5,88.4 509.3,85.9 510.1,83.4 511.1,80.6 511.9,78.5 512.8,76.6 513.6,74.8 514.2,73.5 515.2,71.6 516.2,69.9 517.1,68.6 517.9,67.4 518.5,66.6 519.3,65.6 520.3,64.5 521.4,63.5 522.2,62.7 522.8,62.2 523.6,61.5 524.4,60.9 525.5,60.1 526.5,59.4 527.1,59.0 527.9,58.5 528.8,58.0 529.6,57.5 530.6,56.9 531.4,56.4 532.2,56.0 533.1,55.6 533.9,55.1 534.7,54.7 535.7,54.2 536.5,53.8 537.4,53.4 538.2,53.0 538.8,52.7 539.8,52.2 540.8,51.8 541.7,51.4 542.5,51.0 543.1,50.8 543.9,50.4 544.9,49.9 546.0,49.5 546.8,49.1 547.4,48.9 548.2,48.5 549.0,48.2 550.1,47.7 551.1,47.3 551.7,47.0 552.5,46.7 553.4,46.3 554.2,46.0 555.2,45.6 556.0,45.3 556.8,44.9 557.7,44.6 558.5,44.3 559.3,43.9 560.3,43.5 561.1,43.2 562.0,42.9 562.8,42.6 563.4,42.4 564.4,42.0 565.4,41.6 566.3,41.3 567.1,41.0 567.7,40.7 568.5,40.4 569.5,40.1 570.6,39.7 571.4,39.4 572.0,39.2 572.8,38.9 573.6,38.6 574.7,38.3 575.7,38.0 576.3,37.8 577.1,37.5 577.7,37.3 578.8,43.9 579.2,48.9 579.8,53.8 580.8,54.8 581.8,54.4 582.7,54.4 582.9,54.1 583.9,53.7 584.5,53.5 585.3,53.3 586.2,53.0 587.0,53.1 588.0,53.4 588.8,53.5 589.6,53.7 590.5,53.9 591.3,54.0 592.1,53.8 593.1,53.5 593.9,53.3 594.8,53.1 595.6,52.9 596.2,52.7 597.2,52.5 598.2,52.2 599.1,52.0 599.9,51.8 600.5,51.6 601.3,51.4 602.3,51.1 603.4,50.9 604.2,50.7 604.8,50.5 605.6,50.3 606.4,50.1 607.5,49.8 608.5,49.6 609.1,49.4 609.9,49.2 610.8,49.0 611.6,48.8 612.6,48.5 613.4,48.3 614.2,48.1 615.1,47.9 615.9,47.7 616.7,47.5 617.7,47.2 618.5,47.0 619.4,46.8 620.2,46.6 620.8,46.5 621.8,46.2 622.8,46.0 623.7,45.8 624.5,45.6 625.1,45.4 625.9,45.2 626.9,45.0 628.0,44.7 628.8,44.5 629.4,44.4 630.2,44.2 631.0,44.0 632.1,43.7 633.1,43.5 633.7,43.3 634.5,43.1 635.4,42.9 636.2,42.7 637.2,42.5 638.0,42.3 638.8,42.1 639.7,41.9 640.5,41.7 641.3,41.5 642.3,41.3 643.1,41.1 644.0,40.9 644.8,40.7 645.4,40.6 646.4,40.3 647.4,40.1 648.3,39.9 649.1,39.7 649.7,39.6 650.5,39.4 651.5,39.1 652.6,38.9 653.4,38.7 654.0,38.6 654.8,38.4 655.6,38.2 656.7,38.0 657.7,37.7 658.3,37.6 659.1,37.4 660.0,37.2 660.8,37.0 661.8,36.8 662.6,36.6 663.4,36.4 664.3,36.3 665.1,36.1 665.9,35.9 666.9,35.7 667.7,35.5 668.6,35.3 669.4,35.1 670.0,35.0" fill="none" stroke="#2196F3" stroke-width="1.5" opacity="0.9"/>
  <polyline points="55.0,143.7 55.4,143.7 56.4,143.7 57.5,143.7 58.5,143.7 59.5,143.7 60.5,143.7 61.6,143.7 62.6,143.7 63.6,143.7 64.6,143.7 65.7,143.7 66.7,143.7 67.7,143.7 68.7,143.7 69.8,143.7 70.8,143.8 71.8,143.8 72.8,143.8 73.9,143.8 74.9,143.8 75.9,143.8 76.9,143.8 78.0,143.8 79.0,143.8 80.0,143.8 81.0,143.7 82.1,143.7 83.1,143.7 84.1,143.7 85.1,143.7 86.2,143.7 87.2,143.7 88.2,143.7 89.2,143.7 90.3,143.7 91.3,143.7 92.3,143.7 93.3,143.7 94.4,143.7 95.4,143.7 96.4,143.7 97.4,143.7 98.5,143.8 99.5,143.8 100.5,143.8 101.5,143.8 102.6,143.8 103.6,143.8 104.6,143.8 105.6,143.8 106.7,143.8 107.7,143.8 108.7,143.8 109.7,143.8 110.8,143.7 111.8,143.7 112.8,143.7 113.8,143.7 114.9,143.7 115.9,143.7 116.9,143.7 117.9,143.7 119.0,143.7 120.0,143.7 121.0,143.7 122.0,143.7 123.1,143.7 124.1,143.7 125.1,143.7 126.1,143.8 127.2,143.8 128.2,143.8 129.2,143.8 130.2,143.8 131.3,143.8 132.3,143.8 133.3,143.8 134.3,143.8 135.4,143.8 136.4,143.8 137.4,143.8 138.4,143.8 139.5,143.8 140.5,143.7 141.5,143.7 142.5,143.7 143.6,143.7 144.6,143.7 145.6,143.7 146.6,143.7 147.7,143.7 148.7,143.7 149.7,143.7 150.7,143.7 151.8,143.7 152.8,143.7 153.8,143.7 154.8,143.8 155.9,143.8 156.9,143.8 157.9,143.8 158.9,143.8 160.0,143.8 161.0,143.8 162.0,143.8 163.0,143.8 164.1,143.8 165.1,143.8 166.1,143.8 167.1,143.8 168.2,143.8 169.2,143.7 170.2,143.7 171.2,143.7 172.3,143.7 173.3,143.6 174.3,143.6 175.3,143.6 176.4,143.6 177.4,143.6 178.4,143.6 179.4,143.7 180.5,143.7 181.5,143.7 182.5,143.7 183.5,143.8 184.6,143.8 185.6,143.8 186.6,143.9 187.6,143.9 188.7,143.9 189.7,143.9 190.7,143.9 191.7,143.9 192.8,143.9 193.8,143.9 194.8,143.8 195.8,143.8 196.9,143.8 197.9,143.7 198.9,143.7 199.9,143.6 201.0,143.6 202.0,143.6 203.0,143.5 204.0,143.5 205.1,143.5 206.1,143.5 207.1,143.6 208.1,143.6 209.2,143.6 210.2,143.7 211.2,143.7 212.2,143.8 213.3,143.8 214.3,143.9 215.3,143.9 216.3,144.0 217.4,144.0 218.4,144.0 219.4,144.0 220.4,144.0 221.5,144.0 222.5,144.0 223.5,143.9 224.5,143.8 225.6,143.8 226.6,143.7 227.6,143.6 228.6,143.5 229.7,143.5 230.7,143.4 231.7,143.4 232.7,143.4 233.8,143.4 234.8,143.4 235.8,143.4 236.8,143.5 237.9,143.5 238.9,143.6 239.9,143.7 240.9,143.8 242.0,143.9 243.0,144.0 244.0,144.1 245.0,144.2 246.1,144.2 247.1,144.2 248.1,144.3 249.1,144.2 250.2,144.2 251.2,144.1 252.2,144.0 253.2,143.9 254.3,143.8 255.3,143.6 256.3,143.5 257.3,143.4 258.4,143.3 259.4,143.2 260.4,143.1 261.4,143.1 262.5,143.1 263.5,143.1 264.5,143.2 265.5,143.3 266.6,143.4 267.6,143.5 268.6,143.7 269.6,143.9 270.7,144.1 271.7,144.2 272.7,144.4 273.7,144.5 274.8,144.6 275.8,144.6 276.6,144.6 277.4,144.6 278.4,144.5 279.5,144.4 280.3,144.3 281.1,144.2 281.9,144.0 282.8,143.8 283.6,143.6 284.6,143.4 285.6,143.2 286.4,143.0 287.3,142.9 288.1,142.7 288.9,142.7 289.7,142.6 290.7,142.6 291.8,142.6 292.6,142.7 293.4,142.8 294.2,142.9 295.1,143.1 295.9,143.3 296.9,143.6 297.9,143.9 298.7,144.1 299.6,144.4 300.4,144.6 301.2,144.8 302.0,145.0 303.0,145.2 304.1,145.3 304.9,145.3 305.7,145.3 306.5,145.2 307.4,145.1 308.2,144.9 309.2,144.6 310.2,144.3 311.0,144.0 311.9,143.7 312.7,143.4 313.5,143.0 314.3,142.7 315.3,142.4 316.4,142.1 317.2,141.9 318.0,141.8 318.8,141.7 319.7,141.7 320.5,141.8 321.5,141.9 322.5,142.2 323.3,142.5 324.2,142.8 325.0,143.2 325.8,143.6 326.6,144.0 327.6,144.6 328.7,145.1 329.5,145.5 330.3,145.8 331.1,146.1 332.0,146.3 332.8,146.4 333.8,146.4 334.8,146.4 335.6,146.2 336.5,145.9 337.3,145.6 338.1,145.1 338.9,144.7 339.9,144.0 341.0,143.3 341.8,142.7 342.6,142.2 343.4,141.7 344.3,141.2 345.1,140.8 346.1,140.4 347.1,140.2 347.9,140.2 348.8,140.2 349.6,140.4 350.4,140.7 351.2,141.1 352.2,141.8 353.3,142.6 354.1,143.3 354.9,144.0 355.7,144.7 356.6,145.5 357.4,146.2 358.4,147.0 359.2,147.5 360.0,148.0 360.9,148.3 361.7,148.5 362.5,148.6 363.5,148.4 364.3,148.2 365.2,147.7 366.0,147.2 366.6,146.7 367.6,145.7 368.6,144.6 369.5,143.7 370.3,142.7 370.9,142.0 371.7,141.0 372.7,139.9 373.8,138.9 374.6,138.2 375.2,137.8 376.0,137.3 376.8,137.0 377.9,136.8 378.9,136.9 379.5,137.0 380.3,137.4 381.2,137.9 382.0,138.6 383.0,139.7 383.8,140.7 384.6,141.9 385.5,143.1 386.3,144.3 387.1,145.6 388.1,147.2 388.9,148.4 389.8,149.5 390.6,150.5 391.2,151.2 392.2,152.2 393.2,153.0 394.1,153.4 394.9,153.8 395.5,153.9 396.3,153.9 397.3,153.7 398.4,153.1 399.2,152.5 399.8,152.0 400.6,151.0 401.4,149.9 402.5,148.3 403.5,146.5 404.1,145.4 404.9,143.7 405.8,142.1 406.6,140.4 407.6,138.4 408.4,136.8 409.2,135.3 410.1,133.9 410.9,132.6 411.7,131.5 412.7,130.3 413.5,129.5 414.4,128.9 415.2,128.5 415.8,128.4 416.8,128.3 417.8,128.6 418.7,129.1 419.5,129.8 420.1,130.4 420.9,131.5 421.9,133.2 423.0,135.2 423.8,137.0 424.4,138.5 425.2,140.6 426.0,142.8 427.1,145.7 428.1,148.6 428.7,150.3 429.5,152.6 430.4,154.9 431.2,157.1 432.2,159.8 433.0,161.9 433.8,163.8 434.7,165.6 435.5,167.3 436.3,168.9 437.3,170.5 438.1,171.7 439.0,172.6 439.8,173.4 440.4,173.8 441.4,174.3 442.4,174.4 443.3,174.3 444.1,173.9 444.7,173.5 445.5,172.8 446.5,171.6 447.6,170.0 448.4,168.5 449.0,167.2 449.8,165.3 450.6,163.1 451.7,160.2 452.7,156.9 453.3,154.8 454.1,151.8 455.0,148.7 455.8,145.4 456.8,141.3 457.6,138.0 458.4,134.7 459.3,131.4 460.1,128.1 460.9,124.8 461.9,120.9 462.7,117.9 463.6,115.0 464.4,112.2 465.0,110.2 466.0,107.1 467.0,104.2 467.9,102.1 468.7,100.3 469.3,99.0 470.1,97.5 471.1,95.9 472.2,94.6 473.0,93.8 473.6,93.3 474.4,92.9 475.2,92.7 476.3,92.8 477.3,93.2 477.9,93.6 478.7,94.3 479.6,95.2 480.4,96.2 481.4,97.9 482.2,99.4 483.0,101.1 483.9,103.0 484.7,105.0 485.5,107.2 486.5,110.2 487.3,112.7 488.2,115.4 489.0,118.3 489.6,120.5 490.6,124.3 491.6,128.3 492.5,131.7 493.3,135.1 493.9,137.7 494.7,141.2 495.7,145.6 496.8,150.0 497.6,153.5 498.2,156.0 499.0,159.4 499.8,162.7 500.9,166.7 501.9,170.5 502.5,172.7 503.3,175.6 504.2,178.3 505.0,180.9 506.0,183.9 506.8,186.2 507.6,188.3 508.5,190.3 509.3,192.2 510.1,193.9 511.1,195.9 511.9,197.3 512.8,198.6 513.6,199.8 514.2,200.6 515.2,201.7 516.2,202.8 517.1,203.5 517.9,204.1 518.5,204.5 519.3,204.9 520.3,205.4 521.4,205.8 522.2,206.1 522.8,206.3 523.6,206.5 524.4,206.6 525.5,206.8 526.5,206.9 527.1,207.0 527.9,207.0 528.8,207.0 529.6,207.0 530.6,207.0 531.4,207.0 532.2,207.0 533.1,206.9 533.9,206.8 534.7,206.8 535.7,206.6 536.5,206.5 537.4,206.4 538.2,206.3 538.8,206.2 539.8,206.0 540.8,205.9 541.7,205.7 542.5,205.6 543.1,205.4 543.9,205.3 544.9,205.0 546.0,204.8 546.8,204.6 547.4,204.5 548.2,204.3 549.0,204.1 550.1,203.8 551.1,203.5 551.7,203.3 552.5,203.1 553.4,202.9 554.2,202.6 555.2,202.3 556.0,202.1 556.8,201.8 557.7,201.6 558.5,201.3 559.3,201.0 560.3,200.7 561.1,200.4 562.0,200.1 562.8,199.8 563.4,199.6 564.4,199.2 565.4,198.8 566.3,198.5 567.1,198.2 567.7,198.0 568.5,197.6 569.5,197.2 570.6,196.8 571.4,196.5 572.0,196.2 572.8,195.9 573.6,195.5 574.7,195.1 575.7,194.6 576.3,194.3 577.1,194.0 577.7,193.7 578.8,200.9 579.2,205.9 579.8,217.9 580.8,241.1 581.8,261.3 582.7,276.9 582.9,279.3 583.9,278.5 584.5,277.5 585.3,276.5 586.2,275.6 587.0,275.1 588.0,274.6 588.8,274.3 589.6,274.0 590.5,273.7 591.3,273.5 592.1,273.6 593.1,273.8 593.9,273.9 594.8,274.0 595.6,274.1 596.2,274.2 597.2,274.4 598.2,274.6 599.1,274.7 599.9,274.8 600.5,274.9 601.3,275.1 602.3,275.2 603.4,275.4 604.2,275.5 604.8,275.6 605.6,275.7 606.4,275.9 607.5,276.0 608.5,276.2 609.1,276.3 609.9,276.4 610.8,276.5 611.6,276.6 612.6,276.8 613.4,276.9 614.2,277.1 615.1,277.2 615.9,277.3 616.7,277.4 617.7,277.6 618.5,277.7 619.4,277.8 620.2,278.0 620.8,278.0 621.8,278.2 622.8,278.4 623.7,278.5 624.5,278.6 625.1,278.7 625.9,278.8 626.9,279.0 628.0,279.1 628.8,279.2 629.4,279.3 630.2,279.4 631.0,279.6 632.1,279.7 633.1,279.9 633.7,280.0 634.5,280.1 635.4,280.2 636.2,280.3 637.2,280.5 638.0,280.6 638.8,280.7 639.7,280.8 640.5,280.9 641.3,281.0 642.3,281.2 643.1,281.3 644.0,281.4 644.8,281.5 645.4,281.6 646.4,281.8 647.4,281.9 648.3,282.0 649.1,282.1 649.7,282.2 650.5,282.3 651.5,282.5 652.6,282.6 653.4,282.7 654.0,282.8 654.8,282.9 655.6,283.1 656.7,283.2 657.7,283.3 658.3,283.4 659.1,283.5 660.0,283.6 660.8,283.8 661.8,283.9 662.6,284.0 663.4,284.1 664.3,284.2 665.1,284.3 665.9,284.5 666.9,284.6 667.7,284.7 668.6,284.8 669.4,284.9 670.0,285.0" fill="none" stroke="#F44336" stroke-width="1.5" opacity="0.9"/>
  <line x1="70" y1="30" x2="85" y2="30" stroke="#2196F3" stroke-width="2"/>
  <text x="90" y="34" class="tick">phi</text>
  <line x1="70" y1="46" x2="85" y2="46" stroke="#F44336" stroke-width="2"/>
  <text x="90" y="50" class="tick">theta</text>
</svg>
