<svg xmlns="http://www.w3.org/2000/svg" viewBox="0 0 700 350" width="700" height="350">
  <style>
    text { font-family: monospace; font-size: 11px; fill: #333; }
    .title { font-size: 13px; font-weight: bold; }
    .axis-label { font-size: 11px; }
    .grid { stroke: #e0e0e0; stroke-width: 0.5; }
    .tick { font-size: 9px; fill: #666; }
  </style>
  <rect width="700" height="350" fill="white"/>
  <text x="350" y="13" text-anchor="middle" class="title">Instability Demo -- Motor Saturation</text>
  <line x1="55" y1="305.0" x2="670" y2="305.0" class="grid"/>
  <text x="50" y="308.0" text-anchor="end" class="tick">0.16</text>
  <line x1="55" y1="247.0" x2="670" y2="247.0" class="grid"/>
  <text x="50" y="250.0" text-anchor="end" class="tick">0.204</text>
  <line x1="55" y1="189.0" x2="670" y2="189.0" class="grid"/>
  <text x="50" y="192.0" text-anchor="end" class="tick">0.247</text>
  <line x1="55" y1="131.00000000000003" x2="670" y2="131.00000000000003" class="grid"/>
  <text x="50" y="134.00000000000003" text-anchor="end" class="tick">0.291</text>
  <line x1="55" y1="73.00000000000003" x2="670" y2="73.00000000000003" class="grid"/>
  <text x="50" y="76.00000000000003" text-anchor="end" class="tick">0.334</text>
  <line x1="55" y1="15.0" x2="670" y2="15.0" class="grid"/>
  <text x="50" y="18.0" text-anchor="end" class="tick">0.378</text>
  <line x1="55.0" y1="15" x2="55.0" y2="305" class="grid"/>
  <text x="55.0" y="319" text-anchor="middle" class="tick">0</text>
  <line x1="157.5" y1="15" x2="157.5" y2="305" class="grid"/>
  <text x="157.5" y="319" text-anchor="middle" class="tick">0.5</text>
  <line x1="260.0" y1="15" x2="260.0" y2="305" class="grid"/>
  <text x="260.0" y="319" text-anchor="middle" class="tick">1</text>
  <line x1="362.5" y1="15" x2="362.5" y2="305" class="grid"/>
  <text x="362.5" y="319" text-anchor="middle" class="tick">1.5</text>
  <line x1="465.0" y1="15" x2="465.0" y2="305" class="grid"/>
  <text x="465.0" y="319" text-anchor="middle" class="tick">2</text>
  <line x1="567.5" y1="15" x2="567.5" y2="305" class="grid"/>
  <text x="567.5" y="319" text-anchor="middle" class="tick">2.5</text>
  <line x1="670.0" y1="15" x2="670.0" y2="305" class="grid"/>
  <text x="670.0" y="319" text-anchor="middle" class="tick">3</text>
  <line x1="55" y1="15" x2="55" y2="305" stroke="#333" stroke-width="1"/>
  <line x1="55" y1="305" x2="670" y2="305" stroke="#333" stroke-width="1"/>
  <text x="362" y="345" text-anchor="middle" class="axis-label">time [s]</text>
  <text x="12" y="160" text-anchor="middle" class="axis-label" transform="rotate(-90,12,160)">force [N]</text>
  <line x1="55" y1="159.2421762790555" x2="670" y2="159.2421762790555" stroke="#888" stroke-width="1" stroke-dasharray="6,3"/>
  <text x="672" y="162.2421762790555" class="tick" fill="#888">mg/4</text>
  <line x1="55" y1="34.99999999999966" x2="670" y2="34.99999999999966" stroke="#F44336" stroke-width="1" stroke-dasharray="6,3"/>
  <text x="672" y="37.99999999999966" class="tick" fill="#F44336">f_max</text>
  <polyline points="55.0,159.3 55.4,159.3 56.4,159.2 57.5,159.0 58.5,158.6 59.5,158.2 60.5,157.4 61.6,156.4 62.6,155.1 63.6,153.7 64.6,152.2 65.7,150.9 66.7,149.6 67.7,148.3 68.7,147.3 69.8,146.4 70.8,145.6 71.8,145.0 72.8,144.5 73.9,144.2 74.9,144.1 75.9,144.0 76.9,144.2 78.0,144.6 79.0,145.2 80.0,145.8 81.0,146.4 82.1,146.8 83.1,147.0 84.1,147.3 85.1,148.2 86.2,149.9 87.2,152.2 88.2,154.9 89.2,157.2 90.3,159.0 91.3,160.2 92.3,161.1 93.3,161.5 94.4,161.5 95.4,161.2 96.4,160.7 97.4,160.2 98.5,159.8 99.5,159.4 100.5,159.1 101.5,159.0 102.6,159.0 103.6,159.1 104.6,159.3 105.6,159.8 106.7,160.6 107.7,161.6 108.7,162.8 109.7,163.9 110.8,165.0 111.8,166.0 112.8,167.0 113.8,167.9 114.9,168.8 115.9,169.6 116.9,170.4 117.9,171.3 119.0,172.5 120.0,173.7 121.0,175.1 122.0,175.9 123.1,176.2 124.1,176.1 125.1,175.6 126.1,175.3 127.2,175.3 128.2,175.6 129.2,176.1 130.2,176.9 131.3,178.1 132.3,179.5 133.3,181.1 134.3,181.7 135.4,181.3 136.4,180.1 137.4,178.2 138.4,176.0 139.5,173.9 140.5,171.7 141.5,169.5 142.5,168.0 143.6,167.0 144.6,166.5 145.6,166.5 146.6,166.2 147.7,165.6 148.7,164.8 149.7,163.9 150.7,163.1 151.8,162.7 152.8,162.4 153.8,162.3 154.8,162.3 155.9,162.5 156.9,162.6 157.9,162.8 158.9,162.7 160.0,162.3 161.0,161.6 162.0,160.8 163.0,159.5 164.1,157.9 165.1,156.1 166.1,154.2 167.1,152.6 168.2,151.4 169.2,150.7 170.2,150.3 171.2,150.0 172.3,149.5 173.3,149.1 174.3,148.7 175.3,149.0 176.4,150.1 177.4,151.8 178.4,153.8 179.4,155.8 180.5,157.6 181.5,159.2 182.5,160.5 183.5,161.7 184.6,162.6 185.6,163.5 186.6,164.2 187.6,165.1 188.7,166.2 189.7,167.6 190.7,169.2 191.7,170.3 192.8,171.0 193.8,171.3 194.8,171.4 195.8,171.6 196.9,171.8 197.9,172.2 198.9,172.7 199.9,173.7 201.0,175.1 202.0,177.0 203.0,179.0 204.0,180.5 205.1,181.1 206.1,181.2 207.1,180.7 208.1,179.7 209.2,178.4 210.2,176.8 211.2,175.0 212.2,173.6 213.3,172.5 214.3,171.7 215.3,171.4 216.3,171.2 217.4,171.2 218.4,171.3 219.4,171.6 220.4,172.2 221.5,173.3 222.5,174.5 223.5,175.8 224.5,176.7 225.6,177.1 226.6,176.8 227.6,176.0 228.6,174.8 229.7,173.2 230.7,171.3 231.7,169.1 232.7,166.5 233.8,163.6 234.8,160.5 235.8,157.5 236.8,154.9 237.9,152.9 238.9,151.4 239.9,150.7 240.9,150.7 242.0,151.5 243.0,153.0 244.0,154.9 245.0,156.8 246.1,158.4 247.1,159.7 248.1,160.4 249.1,161.0 250.2,161.2 251.2,161.0 252.2,160.1 253.2,158.2 254.3,155.2 255.3,151.2 256.3,146.5 257.3,141.7 258.4,137.2 259.4,133.1 260.4,129.6 261.4,127.1 262.5,125.9 263.5,125.9 264.5,127.3 265.5,130.3 266.6,134.7 267.6,140.4 268.6,147.1 269.6,154.0 270.7,161.0 271.7,167.5 272.7,173.4 273.7,178.4 274.8,182.3 275.8,184.8 276.6,185.7 277.4,185.5 278.4,183.5 279.5,179.8 280.3,175.8 281.1,171.0 281.9,165.4 282.8,159.4 283.6,153.0 284.6,145.2 285.6,138.5 286.4,134.5 287.3,131.9 288.1,130.8 288.9,131.2 289.7,133.0 290.7,137.0 291.8,142.8 292.6,148.5 293.4,155.1 294.2,162.1 295.1,169.4 295.9,176.7 296.9,185.3 297.9,192.7 298.7,197.3 299.6,200.5 300.4,202.2 301.2,202.4 302.0,200.7 303.0,196.1 304.1,188.9 304.9,181.7 305.7,173.5 306.5,165.2 307.4,156.9 308.2,148.9 309.2,140.0 310.2,132.8 311.0,128.4 311.9,125.6 312.7,124.4 313.5,124.9 314.3,127.1 315.3,131.9 316.4,138.8 317.2,145.5 318.0,152.0 318.8,158.1 319.7,164.0 320.5,169.7 321.5,176.8 322.5,183.9 323.3,189.6 324.2,194.5 325.0,197.5 325.8,198.5 326.6,197.3 327.6,192.8 328.7,185.4 329.5,178.0 330.3,171.3 331.1,165.4 332.0,159.9 332.8,154.7 333.8,148.2 334.8,141.8 335.6,136.7 336.5,131.5 337.3,126.1 338.1,120.5 338.9,114.6 339.9,108.5 341.0,106.6 341.8,108.1 342.6,112.1 343.4,118.3 344.3,124.2 345.1,129.0 346.1,134.2 347.1,139.0 347.9,142.9 348.8,147.0 349.6,151.6 350.4,156.6 351.2,162.1 352.2,169.8 353.3,178.3 354.1,185.4 354.9,192.8 355.7,200.2 356.6,207.5 357.4,213.9 358.4,216.3 359.2,213.2 360.0,205.6 360.9,195.5 361.7,185.6 362.5,175.8 363.5,163.8 364.3,154.4 365.2,145.1 366.0,135.6 366.6,128.4 367.6,116.2 368.6,104.0 369.5,95.4 370.3,87.9 370.9,82.8 371.7,76.9 372.7,70.4 373.8,65.0 374.6,61.3 375.2,58.8 376.0,55.8 376.8,53.2 377.9,50.4 378.9,48.0 379.5,47.1 380.3,50.7 381.2,60.6 382.0,74.6 383.0,92.6 383.8,107.4 384.6,122.8 385.5,138.7 386.3,154.5 387.1,168.9 388.1,184.7 388.9,195.7 389.8,205.4 390.6,213.9 391.2,219.6 392.2,227.7 393.2,234.0 394.1,238.0 394.9,241.0 395.5,242.8 396.3,244.7 397.3,246.4 398.4,247.7 399.2,248.0 399.8,246.8 400.6,243.4 401.4,238.2 402.5,229.2 403.5,217.9 404.1,210.1 404.9,197.8 405.8,181.4 406.6,163.3 407.6,143.6 408.4,130.0 409.2,118.2 410.1,107.8 410.9,98.7 411.7,91.0 412.7,83.2 413.5,78.0 414.4,73.6 415.2,69.7 415.8,67.1 416.8,63.2 417.8,59.8 418.7,57.3 419.5,54.9 420.1,53.1 420.9,50.9 421.9,49.8 423.0,53.2 423.8,59.0 424.4,65.0 425.2,74.2 426.0,82.2 427.1,90.1 428.1,96.1 428.7,99.1 429.5,102.8 430.4,106.0 431.2,109.4 432.2,120.0 433.0,134.7 433.8,152.1 434.7,168.0 435.5,182.4 436.3,195.6 437.3,210.3 438.1,220.6 439.0,229.6 439.8,237.6 440.4,242.8 441.4,250.5 442.4,257.0 443.3,261.3 444.1,264.9 444.7,267.1 445.5,269.4 446.5,271.2 447.6,271.9 448.4,271.7 449.0,271.2 449.8,270.0 450.6,268.4 451.7,264.9 452.7,254.7 453.3,245.4 454.1,230.1 455.0,215.4 455.8,202.8 456.8,189.8 457.6,180.9 458.4,173.0 459.3,166.1 460.1,157.2 460.9,143.5 461.9,126.9 462.7,115.4 463.6,105.4 464.4,96.6 465.0,90.7 466.0,82.2 467.0,74.9 467.9,69.9 468.7,65.6 469.3,62.7 470.1,59.2 471.1,55.5 472.2,52.4 473.0,50.2 473.6,48.7 474.4,47.0 475.2,45.5 476.3,43.9 477.3,42.5 477.9,41.8 478.7,41.0 479.6,40.2 480.4,39.6 481.4,38.9 482.2,38.4 483.0,38.0 483.9,37.6 484.7,37.3 485.5,37.0 486.5,36.7 487.3,36.5 488.2,36.3 489.0,36.1 489.6,36.0 490.6,35.9 491.6,35.7 492.5,38.2 493.3,49.5 493.9,58.6 494.7,69.8 495.7,82.6 496.8,94.2 497.6,102.7 498.2,108.7 499.0,116.2 499.8,123.1 500.9,131.0 501.9,137.9 502.5,141.5 503.3,145.7 504.2,149.2 505.0,152.0 506.0,154.4 506.8,155.5 507.6,156.0 508.5,155.8 509.3,154.9 510.1,153.3 511.1,150.5 511.9,147.6 512.8,144.1 513.6,140.0 514.2,136.6 515.2,130.1 516.2,122.3 517.1,115.2 517.9,107.6 518.5,101.4 519.3,93.2 520.3,84.2 521.4,76.7 522.2,71.5 522.8,68.0 523.6,63.9 524.4,60.3 525.5,56.4 526.5,53.1 527.1,51.4 527.9,49.3 528.8,47.6 529.6,46.0 530.6,44.3 531.4,43.1 532.2,42.1 533.1,41.2 533.9,40.5 534.7,39.8 535.7,39.0 536.5,38.5 537.4,38.1 538.2,37.7 538.8,37.5 539.8,37.1 540.8,36.8 541.7,36.5 542.5,36.3 543.1,36.2 543.9,36.1 544.9,35.9 546.0,35.8 546.8,35.7 547.4,35.6 548.2,35.5 549.0,35.5 550.1,35.4 551.1,35.3 551.7,35.3 552.5,35.3 553.4,35.2 554.2,35.2 555.2,35.2 556.0,35.1 556.8,35.1 557.7,35.1 558.5,35.1 559.3,35.1 560.3,35.1 561.1,35.1 562.0,35.1 562.8,35.0 563.4,35.0 564.4,35.0 565.4,35.0 566.3,35.0 567.1,35.0 567.7,35.0 568.5,35.0 569.5,35.0 570.6,35.0 571.4,35.0 572.0,35.0 572.8,35.0 573.6,35.0 574.7,35.0 575.7,35.0 576.3,35.0 577.1,35.0 577.7,35.0 578.8,35.0 579.2,35.0 579.8,35.0 580.8,35.0 581.8,35.0 582.7,35.0 582.9,35.0 583.9,35.0 584.5,35.0 585.3,35.0 586.2,35.0 587.0,35.0 588.0,35.0 588.8,35.0 589.6,35.0 590.5,35.0 591.3,35.0 592.1,35.0 593.1,35.0 593.9,35.0 594.8,35.0 595.6,35.0 596.2,35.0 597.2,35.0 598.2,35.0 599.1,35.0 599.9,35.0 600.5,35.0 601.3,35.0 602.3,35.0 603.4,35.0 604.2,35.0 604.8,35.0 605.6,35.0 606.4,35.0 607.5,35.0 608.5,35.0 609.1,35.0 609.9,35.0 610.8,35.0 611.6,35.0 612.6,35.0 613.4,35.0 614.2,35.0 615.1,35.0 615.9,35.0 616.7,35.0 617.7,35.0 618.5,35.0 619.4,35.0 620.2,35.0 620.8,35.0 621.8,35.0 622.8,35.0 623.7,35.0 624.5,35.0 625.1,35.0 625.9,35.0 626.9,35.0 628.0,35.0 628.8,35.0 629.4,35.0 630.2,35.0 631.0,35.0 632.1,35.0 633.1,35.0 633.7,35.0 634.5,35.0 635.4,35.0 636.2,35.0 637.2,35.0 638.0,35.0 638.8,35.0 639.7,35.0 640.5,35.0 641.3,35.0 642.3,35.0 643.1,35.0 644.0,35.0 644.8,35.0 645.4,35.0 646.4,35.0 647.4,35.0 648.3,35.0 649.1,35.0 649.7,35.0 650.5,35.0 651.5,35.0 652.6,35.0 653.4,35.0 654.0,35.0 654.8,35.0 655.6,35.0 656.7,35.0 657.7,35.0 658.3,35.0 659.1,35.0 660.0,35.0 660.8,35.0 661.8,35.0 662.6,35.0 663.4,35.0 664.3,35.0 665.1,35.0 665.9,35.0 666.9,35.0 667.7,35.0 668.6,35.0 669.4,35.0 670.0,35.0" fill="none" stroke="#2196F3" stroke-width="1.5" opacity="0.9"/>
  <polyline points="55.0,159.3 55.4,159.2 56.4,159.0 57.5,158.6 58.5,158.2 59.5,157.6 60.5,156.8 61.6,155.7 62.6,154.3 63.6,152.8 64.6,151.4 65.7,150.0 66.7,148.7 67.7,147.5 68.7,146.5 69.8,145.7 70.8,145.0 71.8,144.4 72.8,144.0 73.9,143.7 74.9,143.5 75.9,143.5 76.9,143.6 78.0,143.9 79.0,144.4 80.0,145.0 81.0,145.5 82.1,145.8 83.1,146.1 84.1,146.3 85.1,147.2 86.2,149.0 87.2,151.3 88.2,154.2 89.2,156.6 90.3,158.5 91.3,160.0 92.3,161.0 93.3,161.6 94.4,161.8 95.4,161.6 96.4,161.2 97.4,160.8 98.5,160.4 99.5,160.1 100.5,159.7 101.5,159.5 102.6,159.4 103.6,159.4 104.6,159.5 105.6,159.9 106.7,160.6 107.7,161.5 108.7,162.6 109.7,163.8 110.8,164.9 111.8,166.1 112.8,167.2 113.8,168.3 114.9,169.4 115.9,170.4 116.9,171.5 117.9,172.6 119.0,173.9 120.0,175.2 121.0,176.6 122.0,177.4 123.1,177.6 124.1,177.3 125.1,176.5 126.1,176.0 127.2,175.7 128.2,175.7 129.2,175.8 130.2,176.4 131.3,177.4 132.3,178.7 133.3,180.1 134.3,180.8 135.4,180.5 136.4,179.4 137.4,177.7 138.4,175.9 139.5,174.1 140.5,172.2 141.5,170.4 142.5,169.1 143.6,168.2 144.6,167.8 145.6,167.7 146.6,167.3 147.7,166.5 148.7,165.3 149.7,163.9 150.7,162.7 151.8,161.7 152.8,160.9 153.8,160.4 154.8,160.1 155.9,159.9 156.9,160.0 157.9,160.2 158.9,160.3 160.0,160.3 161.0,160.1 162.0,159.8 163.0,159.2 164.1,158.3 165.1,157.1 166.1,155.7 167.1,154.6 168.2,153.7 169.2,153.0 170.2,152.5 171.2,151.8 172.3,150.9 173.3,149.8 174.3,148.6 175.3,148.1 176.4,148.4 177.4,149.3 178.4,150.8 179.4,152.4 180.5,154.0 181.5,155.7 182.5,157.4 183.5,159.1 184.6,160.9 185.6,162.8 186.6,164.6 187.6,166.7 188.7,169.0 189.7,171.3 190.7,173.7 191.7,175.3 192.8,176.1 193.8,176.3 194.8,175.8 195.8,175.1 196.9,174.2 197.9,173.2 198.9,172.2 199.9,171.8 201.0,171.9 202.0,172.6 203.0,173.8 204.0,174.8 205.1,175.4 206.1,175.9 207.1,176.3 208.1,176.6 209.2,176.9 210.2,177.2 211.2,177.4 212.2,177.8 213.3,178.4 214.3,179.0 215.3,179.5 216.3,179.7 217.4,179.4 218.4,178.6 219.4,177.4 220.4,176.2 221.5,174.8 222.5,173.6 223.5,172.3 224.5,170.7 225.6,169.0 226.6,167.1 227.6,165.4 228.6,164.0 229.7,163.0 230.7,162.5 231.7,162.4 232.7,162.5 233.8,162.7 234.8,163.0 235.8,163.3 236.8,163.7 237.9,164.1 238.9,164.4 239.9,164.5 240.9,164.3 242.0,163.9 243.0,163.0 244.0,161.8 245.0,159.8 246.1,157.1 247.1,153.9 248.1,150.4 249.1,147.3 250.2,144.6 251.2,142.6 252.2,141.2 253.2,140.1 254.3,139.3 255.3,138.8 256.3,138.7 257.3,139.3 258.4,140.5 259.4,142.1 260.4,144.0 261.4,146.0 262.5,148.0 263.5,149.8 264.5,151.3 265.5,152.4 266.6,153.2 267.6,153.7 268.6,153.9 269.6,153.6 270.7,152.9 271.7,152.0 272.7,151.2 273.7,150.8 274.8,151.2 275.8,152.3 276.6,153.8 277.4,155.6 278.4,158.4 279.5,161.5 280.3,164.2 281.1,166.9 281.9,169.2 282.8,171.2 283.6,172.6 284.6,173.5 285.6,173.7 286.4,173.6 287.3,173.1 288.1,172.2 288.9,170.8 289.7,168.8 290.7,165.4 291.8,161.2 292.6,157.6 293.4,153.9 294.2,150.4 295.1,147.2 295.9,144.6 296.9,142.5 297.9,141.8 298.7,142.4 299.6,144.0 300.4,146.7 301.2,150.5 302.0,155.1 303.0,161.6 304.1,168.6 304.9,174.3 305.7,180.0 306.5,185.5 307.4,190.7 308.2,195.0 309.2,198.9 310.2,200.5 311.0,199.8 311.9,197.4 312.7,193.1 313.5,187.2 314.3,179.6 315.3,168.1 316.4,155.3 317.2,144.5 318.0,134.6 318.8,126.4 319.7,119.8 320.5,114.6 321.5,110.0 322.5,107.1 323.3,106.0 324.2,106.5 325.0,109.7 325.8,115.5 326.6,123.7 327.6,136.9 328.7,152.7 329.5,166.2 330.3,178.3 331.1,188.8 332.0,197.8 332.8,205.2 333.8,212.5 334.8,217.7 335.6,220.6 336.5,222.4 337.3,223.2 338.1,223.0 338.9,221.8 339.9,217.4 341.0,207.5 341.8,196.1 342.6,181.9 343.4,165.7 344.3,150.2 345.1,136.6 346.1,121.9 347.1,110.0 347.9,102.5 348.8,96.6 349.6,92.3 350.4,89.6 351.2,88.4 352.2,88.6 353.3,90.7 354.1,93.4 354.9,96.9 355.7,100.8 356.6,105.0 357.4,109.7 358.4,120.3 359.2,132.3 360.0,146.8 360.9,161.9 361.7,174.3 362.5,184.1 363.5,193.1 364.3,198.0 365.2,201.1 366.0,202.2 366.6,202.0 367.6,199.6 368.6,195.1 369.5,190.4 370.3,184.8 370.9,180.4 371.7,174.8 372.7,168.5 373.8,162.7 374.6,158.4 375.2,155.4 376.0,151.7 376.8,148.3 377.9,144.3 378.9,140.5 379.5,136.4 380.3,128.1 381.2,117.2 382.0,106.9 383.0,96.6 383.8,91.6 384.6,89.2 385.5,89.1 386.3,90.4 387.1,91.6 388.1,92.5 388.9,92.8 389.8,92.7 390.6,92.3 391.2,91.8 392.2,90.5 393.2,88.6 394.1,86.8 394.9,84.7 395.5,83.0 396.3,80.9 397.3,78.5 398.4,76.3 399.2,74.4 399.8,71.9 400.6,67.5 401.4,63.4 402.5,59.1 403.5,55.4 404.1,53.4 404.9,51.1 405.8,49.1 406.6,50.0 407.6,53.9 408.4,56.7 409.2,59.4 410.1,62.1 410.9,64.7 411.7,67.3 412.7,70.2 413.5,72.1 414.4,73.6 415.2,74.9 415.8,75.8 416.8,77.0 417.8,78.3 418.7,79.3 419.5,80.4 420.1,81.2 420.9,82.2 421.9,85.4 423.0,93.4 423.8,102.9 424.4,111.5 425.2,124.4 426.0,135.7 427.1,147.5 428.1,156.9 428.7,161.6 429.5,167.0 430.4,171.6 431.2,175.1 432.2,171.9 433.0,162.5 433.8,150.2 434.7,139.3 435.5,129.7 436.3,121.2 437.3,111.8 438.1,104.9 439.0,98.5 439.8,92.7 440.4,88.6 441.4,82.5 442.4,77.4 443.3,73.9 444.1,71.0 444.7,69.1 445.5,66.9 446.5,64.6 447.6,62.7 448.4,61.5 449.0,60.8 449.8,60.1 450.6,59.5 451.7,58.2 452.7,54.6 453.3,52.8 454.1,50.6 455.0,48.6 455.8,46.9 456.8,45.1 457.6,43.8 458.4,42.7 459.3,41.8 460.1,40.9 460.9,40.2 461.9,39.7 462.7,39.1 463.6,38.6 464.4,38.2 465.0,37.9 466.0,37.4 467.0,37.0 467.9,36.8 468.7,36.6 469.3,36.4 470.1,36.2 471.1,36.0 472.2,35.9 473.0,35.8 473.6,35.7 474.4,35.6 475.2,35.5 476.3,35.5 477.3,35.4 477.9,35.3 478.7,35.3 479.6,35.3 480.4,35.2 481.4,35.2 482.2,35.2 483.0,35.2 483.9,35.1 484.7,35.1 485.5,35.1 486.5,35.1 487.3,35.1 488.2,35.1 489.0,35.1 489.6,35.1 490.6,35.0 491.6,35.0 492.5,35.0 493.3,35.0 493.9,35.0 494.7,35.0 495.7,35.0 496.8,35.0 497.6,35.0 498.2,35.0 499.0,35.0 499.8,35.0 500.9,35.0 501.9,35.0 502.5,35.0 503.3,35.0 504.2,35.0 505.0,35.0 506.0,35.0 506.8,35.0 507.6,35.0 508.5,35.0 509.3,35.0 510.1,35.0 511.1,35.0 511.9,35.0 512.8,35.0 513.6,35.0 514.2,35.0 515.2,35.0 516.2,35.0 517.1,35.0 517.9,35.0 518.5,35.0 519.3,35.0 520.3,35.0 521.4,35.0 522.2,35.0 522.8,35.0 523.6,35.0 524.4,35.0 525.5,35.0 526.5,35.0 527.1,35.0 527.9,35.0 528.8,35.0 529.6,35.0 530.6,35.0 531.4,35.0 532.2,35.0 533.1,35.0 533.9,35.0 534.7,35.0 535.7,35.0 536.5,35.0 537.4,35.0 538.2,35.0 538.8,35.0 539.8,35.0 540.8,35.0 541.7,35.0 542.5,35.0 543.1,35.0 543.9,35.0 544.9,35.0 546.0,35.0 546.8,35.0 547.4,35.0 548.2,35.0 549.0,35.0 550.1,35.0 551.1,35.0 551.7,35.0 552.5,35.0 553.4,35.0 554.2,35.0 555.2,35.0 556.0,35.0 556.8,35.0 557.7,35.0 558.5,35.0 559.3,35.0 560.3,35.0 561.1,35.0 562.0,35.0 562.8,35.0 563.4,35.0 564.4,35.0 565.4,35.0 566.3,35.0 567.1,35.0 567.7,35.0 568.5,35.0 569.5,35.0 570.6,35.0 571.4,35.0 572.0,35.0 572.8,35.0 573.6,35.0 574.7,35.0 575.7,35.0 576.3,35.0 577.1,35.0 577.7,35.0 578.8,35.0 579.2,35.0 579.8,35.0 580.8,35.0 581.8,35.0 582.7,35.0 582.9,35.0 583.9,35.0 584.5,35.0 585.3,35.0 586.2,35.0 587.0,35.0 588.0,35.0 588.8,35.0 589.6,35.0 590.5,35.0 591.3,35.0 592.1,35.0 593.1,35.0 593.9,35.0 594.8,35.0 595.6,35.0 596.2,35.0 597.2,35.0 598.2,35.0 599.1,35.0 599.9,35.0 600.5,35.0 601.3,35.0 602.3,35.0 603.4,35.0 604.2,35.0 604.8,35.0 605.6,35.0 606.4,35.0 607.5,35.0 608.5,35.0 609.1,35.0 609.9,35.0 610.8,35.0 611.6,35.0 612.6,35.0 613.4,35.0 614.2,35.0 615.1,35.0 615.9,35.0 616.7,35.0 617.7,35.0 618.5,35.0 619.4,35.0 620.2,35.0 620.8,35.0 621.8,35.0 622.8,35.0 623.7,35.0 624.5,35.0 625.1,35.0 625.9,35.0 626.9,35.0 628.0,35.0 628.8,35.0 629.4,35.0 630.2,35.0 631.0,35.0 632.1,35.0 633.1,35.0 633.7,35.0 634.5,35.0 635.4,35.0 636.2,35.0 637.2,35.0 638.0,35.0 638.8,35.0 639.7,35.0 640.5,35.0 641.3,35.0 642.3,35.0 643.1,35.0 644.0,35.0 644.8,35.0 645.4,35.0 646.4,35.0 647.4,35.0 648.3,35.0 649.1,35.0 649.7,35.0 650.5,35.0 651.5,35.0 652.6,35.0 653.4,35.0 654.0,35.0 654.8,35.0 655.6,35.0 656.7,35.0 657.7,35.0 658.3,35.0 659.1,35.0 660.0,35.0 660.8,35.0 661.8,35.0 662.6,35.0 663.4,35.0 664.3,35.0 665.1,35.0 665.9,35.0 666.9,35.0 667.7,35.0 668.6,35.0 669.4,35.0 670.0,35.0" fill="none" stroke="#F44336" stroke-width="1.5" opacity="0.9"/>
  <polyline points="55.0,159.3 55.4,159.3 56.4,159.1 57.5,158.9 58.5,158.5 59.5,158.0 60.5,157.2 61.6,156.1 62.6,154.8 63.6,153.3 64.6,151.7 65.7,150.3 66.7,148.9 67.7,147.6 68.7,146.5 69.8,145.5 70.8,144.7 71.8,144.0 72.8,143.5 73.9,143.1 74.9,143.0 75.9,142.9 76.9,143.1 78.0,143.5 79.0,144.1 80.0,144.9 81.0,145.5 82.1,146.0 83.1,146.4 84.1,146.7 85.1,147.8 86.2,149.6 87.2,152.0 88.2,154.8 89.2,157.2 90.3,159.0 91.3,160.3 92.3,161.2 93.3,161.7 94.4,161.7 95.4,161.4 96.4,160.8 97.4,160.3 98.5,159.8 99.5,159.4 100.5,159.1 101.5,158.9 102.6,158.9 103.6,159.0 104.6,159.3 105.6,159.8 106.7,160.6 107.7,161.7 108.7,162.9 109.7,164.2 110.8,165.4 111.8,166.6 112.8,167.7 113.8,168.8 114.9,169.8 115.9,170.7 116.9,171.6 117.9,172.6 119.0,173.8 120.0,175.1 121.0,176.4 122.0,177.1 123.1,177.3 124.1,177.0 125.1,176.3 126.1,175.9 127.2,175.7 128.2,175.7 129.2,176.0 130.2,176.6 131.3,177.7 132.3,179.0 133.3,180.4 134.3,181.0 135.4,180.6 136.4,179.4 137.4,177.6 138.4,175.6 139.5,173.6 140.5,171.6 141.5,169.6 142.5,168.2 143.6,167.4 144.6,167.1 145.6,167.2 146.6,167.0 147.7,166.5 148.7,165.7 149.7,164.6 150.7,163.8 151.8,163.1 152.8,162.6 153.8,162.2 154.8,161.9 155.9,161.7 156.9,161.5 157.9,161.4 158.9,161.0 160.0,160.4 161.0,159.5 162.0,158.6 163.0,157.3 164.1,155.8 165.1,154.2 166.1,152.5 167.1,151.3 168.2,150.5 169.2,150.2 170.2,150.3 171.2,150.4 172.3,150.4 173.3,150.3 174.3,150.3 175.3,150.8 176.4,152.1 177.4,153.8 178.4,155.8 179.4,157.7 180.5,159.2 181.5,160.3 182.5,161.2 183.5,161.9 184.6,162.3 185.6,162.6 186.6,162.8 187.6,163.3 188.7,164.1 189.7,165.2 190.7,166.6 191.7,167.8 192.8,168.7 193.8,169.3 194.8,169.8 195.8,170.5 196.9,171.4 197.9,172.5 198.9,173.8 199.9,175.5 201.0,177.7 202.0,180.2 203.0,182.8 204.0,184.5 205.1,185.4 206.1,185.5 207.1,184.7 208.1,183.4 209.2,181.5 210.2,179.1 211.2,176.5 212.2,174.1 213.3,171.9 214.3,170.2 215.3,168.9 216.3,167.9 217.4,167.1 218.4,166.7 219.4,166.7 220.4,167.3 221.5,168.6 222.5,170.3 223.5,172.4 224.5,174.2 225.6,175.6 226.6,176.6 227.6,177.1 228.6,177.2 229.7,176.8 230.7,176.0 231.7,174.7 232.7,172.7 233.8,170.1 234.8,167.0 235.8,163.6 236.8,160.3 237.9,157.2 238.9,154.5 239.9,152.2 240.9,150.6 242.0,149.6 243.0,149.3 244.0,149.6 245.0,150.0 246.1,150.5 247.1,150.9 248.1,151.2 249.1,151.8 250.2,152.5 251.2,153.2 252.2,153.7 253.2,153.5 254.3,152.5 255.3,150.8 256.3,148.4 257.3,145.9 258.4,143.5 259.4,141.3 260.4,139.4 261.4,138.0 262.5,137.2 263.5,137.2 264.5,138.1 265.5,139.8 266.6,142.4 267.6,145.8 268.6,149.8 269.6,153.8 270.7,157.7 271.7,161.2 272.7,164.2 273.7,166.7 274.8,168.5 275.8,169.6 276.6,169.9 277.4,169.5 278.4,168.1 279.5,165.8 280.3,163.4 281.1,160.7 281.9,157.6 282.8,154.3 283.6,151.0 284.6,147.2 285.6,144.4 286.4,143.5 287.3,143.8 288.1,145.3 288.9,147.8 289.7,151.2 290.7,156.5 291.8,162.5 292.6,167.7 293.4,173.0 294.2,178.2 295.1,183.0 295.9,187.2 296.9,191.2 297.9,193.6 298.7,193.9 299.6,192.8 300.4,190.3 301.2,186.4 302.0,181.1 303.0,172.7 304.1,162.7 304.9,154.1 305.7,145.4 306.5,137.4 307.4,130.3 308.2,124.5 309.2,119.4 310.2,117.1 311.0,117.4 311.9,119.8 312.7,124.1 313.5,130.4 314.3,138.3 315.3,150.0 316.4,163.0 317.2,173.9 318.0,184.0 318.8,192.6 319.7,199.9 320.5,205.9 321.5,211.7 322.5,215.6 323.3,217.5 324.2,217.6 325.0,214.9 325.8,209.4 326.6,201.3 327.6,187.8 328.7,171.4 329.5,157.1 330.3,144.2 331.1,132.8 332.0,122.9 332.8,114.3 333.8,105.7 334.8,99.4 335.6,96.0 336.5,94.1 337.3,93.4 338.1,94.0 338.9,95.5 339.9,100.1 341.0,110.1 341.8,121.6 342.6,135.8 343.4,151.9 344.3,167.2 345.1,180.6 346.1,194.9 347.1,206.4 347.9,213.6 348.8,219.1 349.6,222.8 350.4,225.0 351.2,225.5 352.2,224.2 353.3,220.9 354.1,217.0 354.9,212.3 355.7,206.9 356.6,201.0 357.4,194.4 358.4,181.5 359.2,167.4 360.0,151.2 360.9,136.7 361.7,124.0 362.5,112.9 363.5,100.9 364.3,92.7 365.2,86.6 366.0,82.9 366.6,81.5 367.6,81.8 368.6,84.8 369.5,88.7 370.3,93.6 370.9,97.7 371.7,102.5 372.7,107.2 373.8,110.8 374.6,113.0 375.2,114.4 376.0,115.8 376.8,116.8 377.9,117.7 378.9,118.5 379.5,120.7 380.3,126.2 381.2,134.2 382.0,142.3 383.0,147.7 383.8,148.7 384.6,147.3 385.5,143.8 386.3,138.7 387.1,133.9 388.1,128.3 388.9,124.1 389.8,120.1 390.6,116.3 391.2,113.5 392.2,108.9 393.2,104.2 394.1,100.4 394.9,96.6 395.5,93.8 396.3,90.3 397.3,86.4 398.4,83.1 399.2,81.1 399.8,81.0 400.6,83.3 401.4,88.1 402.5,97.4 403.5,109.8 404.1,118.5 404.9,127.4 405.8,129.3 406.6,124.9 407.6,117.3 408.4,112.2 409.2,108.0 410.1,104.6 410.9,101.9 411.7,99.9 412.7,97.8 413.5,96.2 414.4,94.8 415.2,93.4 415.8,92.5 416.8,91.2 417.8,90.3 418.7,89.8 419.5,89.6 420.1,89.5 420.9,89.4 421.9,86.9 423.0,79.9 423.8,74.3 424.4,70.5 425.2,66.1 426.0,62.2 427.1,58.0 428.1,54.5 428.7,52.6 429.5,50.4 430.4,48.5 431.2,46.8 432.2,45.0 433.0,44.4 433.8,46.8 434.7,48.8 435.5,50.5 436.3,51.9 437.3,53.1 438.1,53.5 439.0,53.6 439.8,53.3 440.4,53.0 441.4,52.3 442.4,51.9 443.3,51.6 444.1,51.4 444.7,51.4 445.5,51.4 446.5,51.5 447.6,51.6 448.4,51.8 449.0,52.0 449.8,52.4 450.6,52.8 451.7,54.4 452.7,62.4 453.3,70.5 454.1,84.8 455.0,99.1 455.8,112.0 456.8,126.2 457.6,135.8 458.4,143.6 459.3,149.8 460.1,151.5 460.9,145.9 461.9,131.0 462.7,119.1 463.6,108.6 464.4,99.4 465.0,93.3 466.0,84.3 467.0,76.7 467.9,71.5 468.7,67.0 469.3,63.9 470.1,60.3 471.1,56.4 472.2,53.1 473.0,50.9 473.6,49.4 474.4,47.6 475.2,46.0 476.3,44.3 477.3,42.9 477.9,42.1 478.7,41.2 479.6,40.5 480.4,39.8 481.4,39.0 482.2,38.5 483.0,38.1 483.9,37.7 484.7,37.4 485.5,37.1 486.5,36.8 487.3,36.5 488.2,36.3 489.0,36.2 489.6,36.1 490.6,35.9 491.6,35.8 492.5,35.7 493.3,35.6 493.9,35.5 494.7,35.5 495.7,35.4 496.8,35.3 497.6,35.3 498.2,35.3 499.0,35.2 499.8,35.2 500.9,35.2 501.9,35.1 502.5,35.1 503.3,35.1 504.2,35.1 505.0,35.1 506.0,35.1 506.8,35.1 507.6,35.1 508.5,35.0 509.3,35.0 510.1,35.0 511.1,35.0 511.9,35.0 512.8,35.0 513.6,35.0 514.2,35.0 515.2,35.0 516.2,35.0 517.1,35.0 517.9,35.0 518.5,35.0 519.3,35.0 520.3,35.0 521.4,35.0 522.2,35.0 522.8,35.0 523.6,35.0 524.4,35.0 525.5,35.0 526.5,35.0 527.1,35.0 527.9,35.0 528.8,35.0 529.6,35.0 530.6,35.0 531.4,35.0 532.2,35.0 533.1,35.0 533.9,35.0 534.7,35.0 535.7,35.0 536.5,35.0 537.4,35.0 538.2,35.0 538.8,35.0 539.8,35.0 540.8,35.0 541.7,35.0 542.5,35.0 543.1,35.0 543.9,35.0 544.9,35.0 546.0,35.0 546.8,35.0 547.4,35.0 548.2,35.0 549.0,35.0 550.1,35.0 551.1,35.0 551.7,35.0 552.5,35.0 553.4,35.0 554.2,35.0 555.2,35.0 556.0,35.0 556.8,35.0 557.7,35.0 558.5,35.0 559.3,35.0 560.3,35.0 561.1,35.0 562.0,35.0 562.8,35.0 563.4,35.0 564.4,35.0 565.4,35.0 566.3,35.0 567.1,35.0 567.7,35.0 568.5,35.0 569.5,35.0 570.6,35.0 571.4,35.0 572.0,35.0 572.8,35.0 573.6,35.0 574.7,35.0 575.7,35.0 576.3,35.0 577.1,35.0 577.7,35.0 578.8,35.0 579.2,35.0 579.8,35.0 580.8,35.0 581.8,35.0 582.7,35.0 582.9,35.0 583.9,35.0 584.5,35.0 585.3,35.0 586.2,35.0 587.0,35.0 588.0,35.0 588.8,35.0 589.6,35.0 590.5,35.0 591.3,35.0 592.1,35.0 593.1,35.0 593.9,35.0 594.8,35.0 595.6,35.0 596.2,35.0 597.2,35.0 598.2,35.0 599.1,35.0 599.9,35.0 600.5,35.0 601.3,35.0 602.3,35.0 603.4,35.0 604.2,35.0 604.8,35.0 605.6,35.0 606.4,35.0 607.5,35.0 608.5,35.0 609.1,35.0 609.9,35.0 610.8,35.0 611.6,35.0 612.6,35.0 613.4,35.0 614.2,35.0 615.1,35.0 615.9,35.0 616.7,35.0 617.7,35.0 618.5,35.0 619.4,35.0 620.2,35.0 620.8,35.0 621.8,35.0 622.8,35.0 623.7,35.0 624.5,35.0 625.1,35.0 625.9,35.0 626.9,35.0 628.0,35.0 628.8,35.0 629.4,35.0 630.2,35.0 631.0,35.0 632.1,35.0 633.1,35.0 633.7,35.0 634.5,35.0 635.4,35.0 636.2,35.0 637.2,35.0 638.0,35.0 638.8,35.0 639.7,35.0 640.5,35.0 641.3,35.0 642.3,35.0 643.1,35.0 644.0,35.0 644.8,35.0 645.4,35.0 646.4,35.0 647.4,35.0 648.3,35.0 649.1,35.0 649.7,35.0 650.5,35.0 651.5,35.0 652.6,35.0 653.4,35.0 654.0,35.0 654.8,35.0 655.6,35.0 656.7,35.0 657.7,35.0 658.3,35.0 659.1,35.0 660.0,35.0 660.8,35.0 661.8,35.0 662.6,35.0 663.4,35.0 664.3,35.0 665.1,35.0 665.9,35.0 666.9,35.0 667.7,35.0 668.6,35.0 669.4,35.0 670.0,35.0" fill="none" stroke="#4CAF50" stroke-width="1.5" opacity="0.9"/>
  <polyline points="55.0,159.3 55.4,159.3 56.4,159.2 57.5,159.0 58.5,158.6 59.5,158.2 60.5,157.4 61.6,156.4 62.6,155.1 63.6,153.7 64.6,152.2 65.7,150.9 66.7,149.6 67.7,148.4 68.7,147.4 69.8,146.5 70.8,145.7 71.8,145.1 72.8,144.6 73.9,144.3 74.9,144.1 75.9,144.0 76.9,144.1 78.0,144.5 79.0,144.9 80.0,145.6 81.0,146.1 82.1,146.4 83.1,146.7 84.1,146.9 85.1,147.9 86.2,149.7 87.2,152.1 88.2,154.9 89.2,157.3 90.3,159.2 91.3,160.6 92.3,161.6 93.3,162.1 94.4,162.2 95.4,161.9 96.4,161.3 97.4,160.8 98.5,160.2 99.5,159.7 100.5,159.2 101.5,158.9 102.6,158.7 103.6,158.6 104.6,158.6 105.6,158.9 106.7,159.6 107.7,160.5 108.7,161.7 109.7,162.9 110.8,164.2 111.8,165.4 112.8,166.7 113.8,167.9 114.9,169.1 115.9,170.3 116.9,171.4 117.9,172.6 119.0,173.9 120.0,175.3 121.0,176.6 122.0,177.4 123.1,177.5 124.1,177.1 125.1,176.2 126.1,175.5 127.2,175.1 128.2,174.9 129.2,175.0 130.2,175.4 131.3,176.3 132.3,177.5 133.3,179.0 134.3,179.7 135.4,179.4 136.4,178.5 137.4,177.0 138.4,175.4 139.5,173.8 140.5,172.2 141.5,170.7 142.5,169.6 143.6,169.1 144.6,168.9 145.6,169.0 146.6,168.8 147.7,168.0 148.7,166.9 149.7,165.5 150.7,164.2 151.8,163.0 152.8,162.1 153.8,161.3 154.8,160.6 155.9,160.2 156.9,160.0 157.9,159.9 158.9,159.7 160.0,159.5 161.0,159.2 162.0,158.8 163.0,158.2 164.1,157.3 165.1,156.3 166.1,155.1 167.1,154.2 168.2,153.6 169.2,153.4 170.2,153.2 171.2,152.9 172.3,152.4 173.3,151.6 174.3,150.7 175.3,150.4 176.4,150.7 177.4,151.6 178.4,153.0 179.4,154.3 180.5,155.6 181.5,156.8 182.5,157.9 183.5,159.1 184.6,160.3 185.6,161.6 186.6,162.8 187.6,164.4 188.7,166.3 189.7,168.3 190.7,170.5 191.7,172.1 192.8,173.0 193.8,173.4 194.8,173.4 195.8,173.2 196.9,172.9 197.9,172.6 198.9,172.4 199.9,172.7 201.0,173.5 202.0,174.8 203.0,176.6 204.0,177.9 205.1,178.8 206.1,179.3 207.1,179.5 208.1,179.4 209.2,179.2 210.2,178.7 211.2,178.1 212.2,177.5 213.3,177.2 214.3,176.8 215.3,176.4 216.3,175.8 217.4,174.9 218.4,173.6 219.4,172.2 220.4,171.0 221.5,170.0 222.5,169.2 223.5,168.7 224.5,168.2 225.6,167.6 226.6,167.0 227.6,166.6 228.6,166.6 229.7,166.8 230.7,167.5 231.7,168.3 232.7,169.1 233.8,169.6 234.8,169.9 235.8,169.9 236.8,169.6 237.9,169.0 238.9,168.1 239.9,166.6 240.9,164.8 242.0,162.6 243.0,160.0 244.0,157.2 245.0,153.8 246.1,149.9 247.1,145.9 248.1,142.0 249.1,138.8 250.2,136.6 251.2,135.5 252.2,135.5 253.2,136.1 254.3,137.2 255.3,139.0 256.3,141.2 257.3,144.0 258.4,147.4 259.4,151.0 260.4,154.4 261.4,157.5 262.5,160.1 263.5,161.8 264.5,162.6 265.5,162.5 266.6,161.5 267.6,159.7 268.6,157.2 269.6,154.0 270.7,150.2 271.7,146.3 272.7,142.6 273.7,139.8 274.8,138.2 275.8,137.9 276.6,138.7 277.4,140.5 278.4,143.8 279.5,148.3 280.3,152.6 281.1,157.4 281.9,162.3 282.8,167.1 283.6,171.6 284.6,176.5 285.6,180.8 286.4,183.9 287.3,186.4 288.1,188.1 288.9,188.9 289.7,188.5 290.7,186.4 291.8,182.5 292.6,178.4 293.4,173.5 294.2,168.1 295.1,162.4 295.9,156.8 296.9,150.3 297.9,144.7 298.7,141.0 299.6,138.3 300.4,136.9 301.2,136.7 302.0,137.7 303.0,140.4 304.1,144.6 304.9,148.8 305.7,153.8 306.5,159.7 307.4,166.0 308.2,172.4 309.2,180.0 310.2,186.6 311.0,190.6 311.9,193.3 312.7,194.5 313.5,194.2 314.3,192.1 315.3,187.3 316.4,180.3 317.2,173.5 318.0,166.8 318.8,160.7 319.7,155.2 320.5,149.9 321.5,143.6 322.5,137.3 323.3,132.0 324.2,127.5 325.0,124.7 325.8,123.8 326.6,124.7 327.6,128.4 328.7,134.6 329.5,140.7 330.3,145.8 331.1,150.2 332.0,153.9 332.8,157.4 333.8,161.6 334.8,166.1 335.6,170.2 336.5,174.8 337.3,179.9 338.1,185.4 338.9,191.3 339.9,197.1 341.0,198.6 341.8,196.7 342.6,192.0 343.4,185.1 344.3,178.3 345.1,172.3 346.1,165.6 347.1,159.2 347.9,154.1 348.8,148.8 349.6,143.1 350.4,137.1 351.2,130.5 352.2,121.6 353.3,111.9 354.1,103.8 354.9,95.4 355.7,87.9 356.6,81.3 357.4,75.5 358.4,70.3 359.2,70.5 360.0,74.6 360.9,81.0 361.7,86.8 362.5,92.3 363.5,99.7 364.3,106.4 365.2,114.0 366.0,122.5 366.6,129.5 367.6,142.2 368.6,156.1 369.5,167.9 370.3,180.0 370.9,189.0 371.7,199.9 372.7,211.4 373.8,221.0 374.6,227.5 375.2,231.8 376.0,236.7 376.8,240.8 377.9,245.1 378.9,248.3 379.5,247.0 380.3,239.4 381.2,225.5 382.0,207.8 383.0,185.6 383.8,168.0 384.6,151.4 385.5,136.9 386.3,124.2 387.1,113.0 388.1,101.1 388.9,92.8 389.8,85.6 390.6,79.3 391.2,75.1 392.2,68.9 393.2,63.7 394.1,60.1 394.9,57.0 395.5,54.9 396.3,52.4 397.3,49.7 398.4,47.5 399.2,45.9 399.8,44.9 400.6,43.6 401.4,43.4 402.5,47.0 403.5,54.8 404.1,61.1 404.9,72.3 405.8,88.2 406.6,108.5 407.6,133.9 408.4,152.1 409.2,168.7 410.1,184.1 410.9,198.3 411.7,211.4 412.7,226.0 413.5,236.3 414.4,245.4 415.2,253.4 415.8,258.6 416.8,266.2 417.8,272.6 418.7,276.8 419.5,280.3 420.1,282.5 420.9,284.6 421.9,283.8 423.0,276.9 423.8,267.6 424.4,258.5 425.2,244.5 426.0,231.2 427.1,216.2 428.1,202.9 428.7,195.8 429.5,187.3 430.4,180.0 431.2,173.6 432.2,160.4 433.0,145.5 433.8,131.7 434.7,119.6 435.5,109.0 436.3,99.8 437.3,89.9 438.1,83.0 439.0,77.0 439.8,71.8 440.4,68.3 441.4,63.2 442.4,58.8 443.3,55.9 444.1,53.3 444.7,51.5 445.5,49.5 446.5,47.2 447.6,45.4 448.4,44.1 449.0,43.2 449.8,42.2 450.6,41.3 451.7,40.3 452.7,39.9 453.3,42.4 454.1,49.6 455.0,57.4 455.8,64.6 456.8,72.7 457.6,78.5 458.4,83.4 459.3,87.6 460.1,94.3 460.9,106.7 461.9,128.3 462.7,144.9 463.6,160.0 464.4,173.8 465.0,183.4 466.0,198.0 467.0,210.5 467.9,219.0 468.7,226.3 469.3,231.1 470.1,236.7 471.1,242.7 472.2,247.5 473.0,250.5 473.6,252.3 474.4,253.7 475.2,254.1 476.3,253.1 477.3,250.8 477.9,249.0 478.7,246.0 479.6,242.5 480.4,238.7 481.4,233.4 482.2,228.8 483.0,223.8 483.9,218.4 484.7,212.9 485.5,207.3 486.5,200.2 487.3,194.6 488.2,189.3 489.0,184.1 489.6,180.4 490.6,173.8 491.6,157.7 492.5,142.4 493.3,129.0 493.9,120.0 494.7,109.4 495.7,98.0 496.8,88.3 497.6,81.7 498.2,77.2 499.0,71.9 499.8,67.3 500.9,62.4 501.9,58.2 502.5,56.0 503.3,53.3 504.2,51.1 505.0,49.1 506.0,46.9 506.8,45.4 507.6,44.1 508.5,43.0 509.3,42.0 510.1,41.1 511.1,40.2 511.9,39.5 512.8,39.0 513.6,38.5 514.2,38.1 515.2,37.7 516.2,37.2 517.1,37.0 517.9,36.7 518.5,36.6 519.3,36.4 520.3,36.2 521.4,36.0 522.2,35.9 522.8,35.8 523.6,35.7 524.4,35.6 525.5,35.5 526.5,35.4 527.1,35.4 527.9,35.3 528.8,35.3 529.6,35.3 530.6,35.2 531.4,35.2 532.2,35.2 533.1,35.1 533.9,35.1 534.7,35.1 535.7,35.1 536.5,35.1 537.4,35.1 538.2,35.1 538.8,35.1 539.8,35.0 540.8,35.0 541.7,35.0 542.5,35.0 543.1,35.0 543.9,35.0 544.9,35.0 546.0,35.0 546.8,35.0 547.4,35.0 548.2,35.0 549.0,35.0 550.1,35.0 551.1,35.0 551.7,35.0 552.5,35.0 553.4,35.0 554.2,35.0 555.2,35.0 556.0,35.0 556.8,35.0 557.7,35.0 558.5,35.0 559.3,35.0 560.3,35.0 561.1,35.0 562.0,35.0 562.8,35.0 563.4,35.0 564.4,35.0 565.4,35.0 566.3,35.0 567.1,35.0 567.7,35.0 568.5,35.0 569.5,35.0 570.6,35.0 571.4,35.0 572.0,35.0 572.8,35.0 573.6,35.0 574.7,35.0 575.7,35.0 576.3,35.0 577.1,35.0 577.7,35.0 578.8,35.0 579.2,35.0 579.8,35.0 580.8,35.0 581.8,35.0 582.7,35.0 582.9,35.0 583.9,35.0 584.5,35.0 585.3,35.0 586.2,35.0 587.0,35.0 588.0,35.0 588.8,35.0 589.6,35.0 590.5,35.0 591.3,35.0 592.1,35.0 593.1,35.0 593.9,35.0 594.8,35.0 595.6,35.0 596.2,35.0 597.2,35.0 598.2,35.0 599.1,35.0 599.9,35.0 600.5,35.0 601.3,35.0 602.3,35.0 603.4,35.0 604.2,35.0 604.8,35.0 605.6,35.0 606.4,35.0 607.5,35.0 608.5,35.0 609.1,35.0 609.9,35.0 610.8,35.0 611.6,35.0 612.6,35.0 613.4,35.0 614.2,35.0 615.1,35.0 615.9,35.0 616.7,35.0 617.7,35.0 618.5,35.0 619.4,35.0 620.2,35.0 620.8,35.0 621.8,35.0 622.8,35.0 623.7,35.0 624.5,35.0 625.1,35.0 625.9,35.0 626.9,35.0 628.0,35.0 628.8,35.0 629.4,35.0 630.2,35.0 631.0,35.0 632.1,35.0 633.1,35.0 633.7,35.0 634.5,35.0 635.4,35.0 636.2,35.0 637.2,35.0 638.0,35.0 638.8,35.0 639.7,35.0 640.5,35.0 641.3,35.0 642.3,35.0 643.1,35.0 644.0,35.0 644.8,35.0 645.4,35.0 646.4,35.0 647.4,35.0 648.3,35.0 649.1,35.0 649.7,35.0 650.5,35.0 651.5,35.0 652.6,35.0 653.4,35.0 654.0,35.0 654.8,35.0 655.6,35.0 656.7,35.0 657.7,35.0 658.3,35.0 659.1,35.0 660.0,35.0 660.8,35.0 661.8,35.0 662.6,35.0 663.4,35.0 664.3,35.0 665.1,35.0 665.9,35.0 666.9,35.0 667.7,35.0 668.6,35.0 669.4,35.0 670.0,35.0" fill="none" stroke="#FF9800" stroke-width="1.5" opacity="0.9"/>
  <line x1="610" y1="30" x2="625" y2="30" stroke="#2196F3" stroke-width="2"/>
  <text x="630" y="34" class="tick">f1 (FL)</text>
  <line x1="610" y1="46" x2="625" y2="46" stroke="#F44336" stroke-width="2"/>
  <text x="630" y="50" class="tick">f2 (FR)</text>
  <line x1="610" y1="62" x2="625" y2="62" stroke="#4CAF50" stroke-width="2"/>
  <text x="630" y="66" class="tick">f3 (RL)</text>
  <line x1="610" y1="78" x2="625" y2="78" stroke="#FF9800" stroke-width="2"/>
  <text x="630" y="82" class="tick">f4 (RR)</text>
</svg>
