<svg xmlns="http://www.w3.org/2000/svg" viewBox="0 0 700 350" width="700" height="350">
  <style>
    text { font-family: monospace; font-size: 11px; fill: #333; }
    .title { font-size: 13px; font-weight: bold; }
    .axis-label { font-size: 11px; }
    .grid { stroke: #e0e0e0; stroke-width: 0.5; }
    .tick { font-size: 9px; fill: #666; }
  </style>
  <rect width="700" height="350" fill="white"/>
  <text x="350" y="13" text-anchor="middle" class="title">Motor Lag Impact -- Altitude</text>
  <line x1="55" y1="305.0" x2="670" y2="305.0" class="grid"/>
  <text x="50" y="308.0" text-anchor="end" class="tick">1</text>
  <line x1="55" y1="247.000000006439" x2="670" y2="247.000000006439" class="grid"/>
  <text x="50" y="250.000000006439" text-anchor="end" class="tick">1</text>
  <line x1="55" y1="188.9999999967805" x2="670" y2="188.9999999967805" class="grid"/>
  <text x="50" y="191.9999999967805" text-anchor="end" class="tick">1</text>
  <line x1="55" y1="130.99999998712204" x2="670" y2="130.99999998712204" class="grid"/>
  <text x="50" y="133.99999998712204" text-anchor="end" class="tick">1</text>
  <line x1="55" y1="72.999999993561" x2="670" y2="72.999999993561" class="grid"/>
  <text x="50" y="75.999999993561" text-anchor="end" class="tick">1</text>
  <line x1="55" y1="15.0" x2="670" y2="15.0" class="grid"/>
  <text x="50" y="18.0" text-anchor="end" class="tick">1</text>
  <line x1="55.0" y1="15" x2="55.0" y2="305" class="grid"/>
  <text x="55.0" y="319" text-anchor="middle" class="tick">0</text>
  <line x1="157.5" y1="15" x2="157.5" y2="305" class="grid"/>
  <text x="157.5" y="319" text-anchor="middle" class="tick">2.5</text>
  <line x1="260.0" y1="15" x2="260.0" y2="305" class="grid"/>
  <text x="260.0" y="319" text-anchor="middle" class="tick">5</text>
  <line x1="362.5" y1="15" x2="362.5" y2="305" class="grid"/>
  <text x="362.5" y="319" text-anchor="middle" class="tick">7.5</text>
  <line x1="465.0" y1="15" x2="465.0" y2="305" class="grid"/>
  <text x="465.0" y="319" text-anchor="middle" class="tick">10</text>
  <line x1="567.5" y1="15" x2="567.5" y2="305" class="grid"/>
  <text x="567.5" y="319" text-anchor="middle" class="tick">12.5</text>
  <line x1="670.0" y1="15" x2="670.0" y2="305" class="grid"/>
  <text x="670.0" y="319" text-anchor="middle" class="tick">15</text>
  <line x1="55" y1="15" x2="55" y2="305" stroke="#333" stroke-width="1"/>
  <line x1="55" y1="305" x2="670" y2="305" stroke="#333" stroke-width="1"/>
  <text x="362" y="345" text-anchor="middle" class="axis-label">time [s]</text>
  <text x="12" y="160" text-anchor="middle" class="axis-label" transform="rotate(-90,12,160)">z [m]</text>
  <line x1="55" y1="159.99396142485423" x2="670" y2="159.99396142485423" stroke="#888" stroke-width="1" stroke-dasharray="6,3"/>
  <text x="672" y="162.99396142485423" class="tick" fill="#888">z_ref=1.0</text>
  <polyline points="55.0,160.0 56.2,160.0 57.9,160.0 59.5,160.0 61.1,160.0 62.8,160.0 64.4,160.0 66.1,160.0 67.7,160.0 69.4,160.0 71.0,160.0 72.6,160.0 74.3,160.0 75.9,160.0 77.6,160.0 79.2,160.0 80.8,160.0 82.5,160.0 84.1,160.0 85.8,160.0 87.4,160.0 89.0,160.0 90.7,160.0 92.3,160.0 94.0,160.0 95.6,160.0 97.2,160.0 98.9,160.0 100.1,160.0 101.1,160.0 102.4,160.0 103.4,160.0 104.4,160.0 105.6,160.0 106.7,160.0 107.7,160.0 108.9,160.0 109.9,160.0 111.0,160.0 112.2,160.0 113.2,160.0 114.2,160.0 115.5,160.0 116.5,160.0 117.3,160.0 118.3,160.0 119.4,160.0 120.4,160.0 121.4,160.0 122.4,160.0 123.5,160.0 124.5,160.0 125.5,160.0 126.5,160.0 127.6,160.0 128.6,160.0 129.6,160.0 130.4,160.0 131.5,160.0 132.5,160.0 133.5,160.0 134.5,160.0 135.6,160.0 136.6,160.0 137.6,160.0 138.6,160.0 139.7,160.0 140.7,160.0 141.7,160.0 142.7,160.0 143.6,160.0 144.6,160.0 145.6,160.0 146.6,160.0 147.7,160.0 148.7,160.0 149.7,160.0 150.7,160.0 151.8,160.0 152.8,160.0 153.8,160.0 154.8,160.0 155.9,160.0 156.7,160.0 157.7,160.0 158.7,160.0 159.8,160.0 160.8,160.0 161.8,160.0 162.8,160.0 163.9,160.0 164.9,160.0 165.9,160.0 166.9,160.0 168.0,160.0 169.0,160.0 169.8,160.0 170.8,160.0 171.8,160.0 172.9,160.0 173.9,160.0 174.9,160.0 175.9,160.0 177.0,160.0 178.0,160.0 179.0,160.0 180.0,160.0 181.1,160.0 182.1,160.0 182.9,160.0 183.9,160.0 185.0,160.0 186.0,160.0 187.0,160.0 188.0,160.0 189.1,160.0 190.1,160.0 191.1,160.0 192.1,160.0 193.2,160.0 194.2,160.0 195.2,160.0 196.0,160.0 197.1,160.0 198.1,160.0 199.1,160.0 200.1,160.0 201.2,160.0 202.2,160.0 203.2,160.0 204.2,160.0 205.3,160.0 206.3,160.0 207.3,160.0 208.3,160.0 209.2,160.0 210.2,160.0 211.2,160.0 212.2,160.0 213.3,160.0 214.3,160.0 215.3,160.0 216.3,160.0 217.4,160.0 218.4,160.0 219.4,160.0 220.4,160.0 221.5,160.0 222.3,160.0 223.3,160.0 224.3,160.0 225.4,160.0 226.4,160.0 227.4,160.0 228.2,160.0 229.2,160.0 230.3,160.0 231.1,160.0 232.1,160.0 232.9,160.0 234.0,160.0 234.8,160.0 235.8,160.0 236.8,160.0 237.7,160.0 238.7,160.0 239.5,160.0 240.5,160.0 241.3,160.0 242.4,160.0 243.4,160.0 244.2,160.0 245.2,160.0 246.1,160.0 247.1,160.0 247.9,160.0 248.9,160.0 250.0,160.0 250.8,160.0 251.8,160.0 252.6,160.0 253.6,160.0 254.5,160.0 255.5,160.0 256.5,160.0 257.3,160.0 258.4,160.0 259.2,160.0 260.2,160.0 261.0,160.0 262.0,160.0 263.1,160.0 263.9,160.0 264.9,160.0 265.7,160.0 266.8,160.0 267.6,160.0 268.6,160.0 269.6,160.0 270.5,160.0 271.5,160.0 272.3,160.0 273.3,160.0 274.1,160.0 275.2,160.0 276.2,160.0 277.0,160.0 278.0,160.0 278.9,160.0 279.9,160.0 280.7,160.0 281.7,160.0 282.8,160.0 283.6,160.0 284.6,160.0 285.4,160.0 286.4,160.0 287.3,160.0 288.3,160.0 289.3,160.0 290.1,160.0 291.2,160.0 292.0,160.0 293.0,160.0 293.8,160.0 294.8,160.0 295.9,160.0 296.7,160.0 297.7,160.0 298.5,160.0 299.6,160.0 300.4,160.0 301.4,160.0 302.4,160.0 303.3,160.0 304.3,160.0 305.1,160.0 306.1,160.0 306.9,160.0 308.0,160.0 309.0,160.0 309.8,160.0 310.8,160.0 311.7,160.0 312.7,160.0 313.5,160.0 314.5,160.0 315.6,160.0 316.4,160.0 317.4,160.0 318.2,160.0 319.2,160.0 320.1,160.0 321.1,160.0 322.1,160.0 322.9,160.0 324.0,160.0 324.8,160.0 325.8,160.0 326.6,160.0 327.6,160.0 328.7,160.0 329.5,160.0 330.5,160.0 331.3,160.0 332.4,160.0 333.2,160.0 334.2,160.0 335.2,160.0 336.1,160.0 337.1,160.0 337.9,160.0 338.9,160.0 339.7,160.0 340.8,160.0 341.8,160.0 342.6,160.0 343.6,160.0 344.5,160.0 345.5,160.0 346.3,160.0 347.3,160.0 348.4,160.0 349.2,160.0 350.2,160.0 351.0,160.0 352.0,160.0 352.9,160.0 353.9,160.0 354.9,160.0 355.7,160.0 356.8,160.0 357.6,160.0 358.6,160.0 359.4,160.0 360.4,160.0 361.5,160.0 362.3,160.0 363.3,160.0 364.1,160.0 365.2,160.0 366.0,160.0 367.0,160.0 368.0,160.0 368.9,160.0 369.9,160.0 370.7,160.0 371.7,160.0 372.5,160.0 373.6,160.0 374.6,160.0 375.4,160.0 376.4,160.0 377.3,160.0 378.3,160.0 379.1,160.0 380.1,160.0 381.2,160.0 382.0,160.0 383.0,160.0 383.8,160.0 384.8,160.0 385.7,160.0 386.7,160.0 387.7,160.0 388.5,160.0 389.6,160.0 390.4,160.0 391.4,160.0 392.2,160.0 393.2,160.0 394.3,160.0 395.1,160.0 396.1,160.0 397.1,160.0 398.4,160.0 399.4,160.0 400.4,160.0 401.7,160.0 402.5,160.0 403.5,160.0 404.3,160.0 405.3,160.0 406.2,160.0 407.2,160.0 408.2,160.0 409.0,160.0 410.1,160.0 410.9,160.0 411.9,160.0 412.7,160.0 413.7,160.0 414.8,160.0 415.6,160.0 416.6,160.0 417.4,160.0 418.5,160.0 419.3,160.0 420.3,160.0 421.3,160.0 422.4,160.0 423.6,160.0 424.8,160.0 425.8,160.0 426.9,160.0 427.9,160.0 428.7,160.0 429.7,160.0 430.6,160.0 431.6,160.0 432.4,160.0 433.4,160.0 434.5,160.0 435.3,160.0 436.3,160.0 437.1,160.0 438.1,160.0 439.0,160.0 440.0,160.0 441.0,160.0 441.8,160.0 442.9,160.0 443.7,160.0 444.7,160.0 445.5,160.0 446.6,160.0 447.6,160.0 448.4,160.0 449.4,160.0 450.2,160.0 451.3,160.0 452.1,160.0 453.1,160.0 454.1,160.0 455.0,160.0 456.0,160.0 456.8,160.0 457.8,160.0 458.6,160.0 459.7,160.0 460.7,160.0 461.5,160.0 462.5,160.0 463.4,160.0 464.4,160.0 465.2,160.0 466.2,160.0 467.3,160.0 468.1,160.0 469.1,160.0 469.9,160.0 470.9,160.0 471.8,160.0 472.8,160.0 473.8,160.0 474.6,160.0 475.7,160.0 476.5,160.0 477.5,160.0 478.3,160.0 479.4,160.0 480.4,160.0 481.2,160.0 482.2,160.0 483.0,160.0 484.1,160.0 484.9,160.0 485.9,160.0 486.9,160.0 487.8,160.0 488.8,160.0 489.6,160.0 490.6,160.0 491.4,160.0 492.5,160.0 493.5,160.0 494.3,160.0 495.3,160.0 496.2,160.0 497.2,160.0 498.0,160.0 499.0,160.0 500.1,160.0 500.9,160.0 501.9,160.0 502.7,160.0 503.7,160.0 504.6,160.0 505.6,160.0 506.6,160.0 507.4,160.0 508.5,160.0 509.3,160.0 510.3,160.0 511.1,160.0 512.2,160.0 513.2,160.0 514.0,160.0 515.0,160.0 515.8,160.0 516.9,160.0 517.7,160.0 518.7,160.0 519.7,160.0 520.6,160.0 521.6,160.0 522.4,160.0 523.4,160.0 524.2,160.0 525.3,160.0 526.3,160.0 527.1,160.0 528.1,160.0 529.0,160.0 530.0,160.0 530.8,160.0 531.8,160.0 532.9,160.0 533.7,160.0 534.7,160.0 535.5,160.0 536.5,160.0 537.4,160.0 538.4,160.0 539.4,160.0 540.2,160.0 541.3,160.0 542.1,160.0 543.1,160.0 543.9,160.0 545.0,160.0 546.0,160.0 546.8,160.0 547.8,160.0 548.6,160.0 549.7,160.0 550.5,160.0 551.5,160.0 552.5,160.0 553.4,160.0 554.4,160.0 555.2,160.0 556.2,160.0 557.0,160.0 558.1,160.0 559.1,160.0 559.9,160.0 560.9,160.0 561.8,160.0 562.8,160.0 563.6,160.0 564.6,160.0 565.7,160.0 566.5,160.0 567.5,160.0 568.3,160.0 569.3,160.0 570.2,160.0 571.2,160.0 572.2,160.0 573.0,160.0 574.1,160.0 574.9,160.0 575.9,160.0 576.7,160.0 577.8,160.0 578.8,160.0 579.6,160.0 580.6,160.0 581.4,160.0 582.5,160.0 583.3,160.0 584.3,160.0 585.3,160.0 586.2,160.0 587.2,160.0 588.0,160.0 589.0,160.0 589.8,160.0 590.9,160.0 591.9,160.0 592.7,160.0 593.7,160.0 594.6,160.0 595.6,160.0 596.4,160.0 597.4,160.0 598.5,160.0 599.3,160.0 600.3,160.0 601.1,160.0 602.1,160.0 603.0,160.0 604.0,160.0 605.0,160.0 605.8,160.0 606.9,160.0 607.7,160.0 608.7,160.0 609.5,160.0 610.6,160.0 611.6,160.0 612.4,160.0 613.4,160.0 614.2,160.0 615.3,160.0 616.1,160.0 617.1,160.0 618.1,160.0 619.0,160.0 620.0,160.0 620.8,160.0 621.8,160.0 622.6,160.0 623.7,160.0 624.7,160.0 625.5,160.0 626.5,160.0 627.4,160.0 628.4,160.0 629.2,160.0 630.2,160.0 631.3,160.0 632.1,160.0 633.1,160.0 633.9,160.0 634.9,160.0 635.8,160.0 636.8,160.0 637.8,160.0 638.6,160.0 639.7,160.0 640.5,160.0 641.5,160.0 642.3,160.0 643.4,160.0 644.4,160.0 645.2,160.0 646.2,160.0 647.0,160.0 648.1,160.0 648.9,160.0 649.9,160.0 650.9,160.0 651.8,160.0 652.8,160.0 653.6,160.0 654.6,160.0 655.4,160.0 656.5,160.0 657.5,160.0 658.3,160.0 659.3,160.0 660.2,160.0 661.2,160.0 662.0,160.0 663.0,160.0 664.1,160.0 664.9,160.0 665.9,160.0 666.7,160.0 667.7,160.0 668.6,160.0 669.6,160.0" fill="none" stroke="#2196F3" stroke-width="1.5" opacity="0.9"/>
  <polyline points="55.0,160.0 56.2,160.0 57.9,160.0 59.5,160.0 61.1,160.0 62.8,160.0 64.4,160.0 66.1,160.0 67.7,160.0 69.4,160.0 71.0,160.0 72.6,160.0 74.3,160.0 75.9,160.0 77.6,160.0 79.2,160.0 80.8,160.0 82.5,160.0 84.1,160.0 85.8,160.0 87.4,160.0 89.0,160.0 90.7,160.0 92.3,160.0 94.0,160.0 95.6,160.0 97.2,160.0 98.9,160.0 100.1,160.0 101.1,160.0 102.4,160.0 103.4,160.0 104.4,160.0 105.6,160.0 106.7,160.0 107.7,160.0 108.9,160.0 109.9,160.0 111.0,160.0 112.2,160.0 113.2,160.0 114.2,160.0 115.5,160.0 116.5,160.0 117.3,160.0 118.3,160.0 119.4,160.0 120.4,160.0 121.4,160.0 122.4,160.0 123.5,160.0 124.5,160.0 125.5,160.0 126.5,160.0 127.6,160.0 128.6,160.0 129.6,160.0 130.4,160.0 131.5,160.0 132.5,160.0 133.5,160.0 134.5,160.0 135.6,160.0 136.6,160.0 137.6,160.0 138.6,160.0 139.7,160.0 140.7,160.0 141.7,160.0 142.7,160.0 143.6,160.0 144.6,160.0 145.6,160.0 146.6,160.0 147.7,160.0 148.7,160.0 149.7,160.0 150.7,160.0 151.8,160.0 152.8,160.0 153.8,160.0 154.8,160.0 155.9,160.0 156.7,160.0 157.7,160.0 158.7,160.0 159.8,160.0 160.8,160.0 161.8,160.0 162.8,160.0 163.9,160.0 164.9,160.0 165.9,160.0 166.9,160.0 168.0,160.0 169.0,160.0 169.8,160.0 170.8,160.0 171.8,160.0 172.9,160.0 173.9,160.0 174.9,160.0 175.9,160.0 177.0,160.0 178.0,160.0 179.0,160.0 180.0,160.0 181.1,160.0 182.1,160.0 182.9,160.0 183.9,160.0 185.0,160.0 186.0,160.0 187.0,160.0 188.0,160.0 189.1,160.0 190.1,160.0 191.1,160.0 192.1,160.0 193.2,160.0 194.2,160.0 195.2,160.0 196.0,160.0 197.1,160.0 198.1,160.0 199.1,160.0 200.1,160.0 201.2,160.0 202.2,160.0 203.2,160.0 204.2,160.0 205.3,160.0 206.3,160.0 207.3,160.0 208.3,160.0 209.2,160.0 210.2,160.0 211.2,160.0 212.2,160.0 213.3,160.0 214.3,160.0 215.3,160.0 216.3,160.0 217.4,160.0 218.4,160.0 219.4,160.0 220.4,160.0 221.5,160.0 222.3,160.0 223.3,160.0 224.3,160.0 225.4,160.0 226.4,160.0 227.4,160.0 228.2,160.0 229.2,160.0 230.3,160.0 231.1,160.0 232.1,160.0 232.9,160.0 234.0,160.0 234.8,160.0 235.8,160.0 236.8,160.0 237.7,160.0 238.7,160.0 239.5,160.0 240.5,160.0 241.3,160.0 242.4,160.0 243.4,160.0 244.2,160.0 245.2,160.0 246.1,160.0 247.1,160.0 247.9,160.0 248.9,160.0 250.0,160.0 250.8,160.0 251.8,160.0 252.6,160.0 253.6,160.0 254.5,160.0 255.5,160.0 256.5,160.0 257.3,160.0 258.4,160.0 259.2,160.0 260.2,160.0 261.0,160.0 262.0,160.0 263.1,160.0 263.9,160.0 264.9,160.0 265.7,160.0 266.8,160.0 267.6,160.0 268.6,160.0 269.6,160.0 270.5,160.0 271.5,160.0 272.3,160.0 273.3,160.0 274.1,160.0 275.2,160.0 276.2,160.0 277.0,160.0 278.0,160.0 278.9,160.0 279.9,160.0 280.7,160.0 281.7,160.0 282.8,160.0 283.6,160.0 284.6,160.0 285.4,160.0 286.4,160.0 287.3,160.0 288.3,160.0 289.3,160.0 290.1,160.0 291.2,160.0 292.0,160.0 293.0,160.0 293.8,160.0 294.8,160.0 295.9,160.0 296.7,160.0 297.7,160.0 298.5,160.0 299.6,160.0 300.4,160.0 301.4,160.0 302.4,160.0 303.3,160.0 304.3,160.0 305.1,160.0 306.1,160.0 306.9,160.0 308.0,160.0 309.0,160.0 309.8,160.0 310.8,160.0 311.7,160.0 312.7,160.0 313.5,160.0 314.5,160.0 315.6,160.0 316.4,160.0 317.4,160.0 318.2,160.0 319.2,160.0 320.1,160.0 321.1,160.0 322.1,160.0 322.9,160.0 324.0,160.0 324.8,160.0 325.8,160.0 326.6,160.0 327.6,160.0 328.7,160.0 329.5,160.0 330.5,160.0 331.3,160.0 332.4,160.0 333.2,160.0 334.2,160.0 335.2,160.0 336.1,160.0 337.1,160.0 337.9,160.0 338.9,160.0 339.7,160.0 340.8,160.0 341.8,160.0 342.6,160.0 343.6,160.0 344.5,160.0 345.5,160.0 346.3,160.0 347.3,160.0 348.4,160.0 349.2,160.0 350.2,160.0 351.0,160.0 352.0,160.0 352.9,160.0 353.9,160.0 354.9,160.0 355.7,160.0 356.8,160.0 357.6,160.0 358.6,160.0 359.4,160.0 360.4,160.0 361.5,160.0 362.3,160.0 363.3,160.0 364.1,160.0 365.2,160.0 366.0,160.0 367.0,160.0 368.0,160.0 368.9,160.0 369.9,160.0 370.7,160.0 371.7,160.0 372.5,160.0 373.6,160.0 374.6,160.0 375.4,160.0 376.4,160.0 377.3,160.0 378.3,160.0 379.1,160.0 380.1,160.0 381.2,160.0 382.0,160.0 383.0,160.0 383.8,160.0 384.8,160.0 385.7,160.0 386.7,160.0 387.7,160.0 388.5,160.0 389.6,160.0 390.4,160.0 391.4,160.0 392.2,160.0 393.2,160.0 394.3,160.0 395.1,160.0 396.1,160.0 397.1,160.0 398.4,160.0 399.4,160.0 400.4,160.0 401.7,160.0 402.5,160.0 403.5,160.0 404.3,160.0 405.3,160.0 406.2,160.0 407.2,160.0 408.2,160.0 409.0,160.0 410.1,160.0 410.9,160.0 411.9,160.0 412.7,160.0 413.7,160.0 414.8,160.0 415.6,160.0 416.6,160.0 417.4,160.0 418.5,160.0 419.3,160.0 420.3,160.0 421.3,160.0 422.4,160.0 423.6,160.0 424.8,160.0 425.8,160.0 426.9,160.0 427.9,160.0 428.7,160.0 429.7,160.0 430.6,160.0 431.6,160.0 432.4,160.0 433.4,160.0 434.5,160.0 435.3,160.0 436.3,160.0 437.1,160.0 438.1,160.0 439.0,160.0 440.0,160.0 441.0,160.0 441.8,160.0 442.9,160.0 443.7,160.0 444.7,160.0 445.5,160.0 446.6,160.0 447.6,160.0 448.4,160.0 449.4,160.0 450.2,160.0 451.3,160.0 452.1,160.0 453.1,160.0 454.1,160.0 455.0,160.0 456.0,160.0 456.8,160.0 457.8,160.0 458.6,160.0 459.7,160.0 460.7,160.0 461.5,160.0 462.5,160.0 463.4,160.0 464.4,160.0 465.2,160.0 466.2,160.0 467.3,160.0 468.1,160.0 469.1,160.0 469.9,160.0 470.9,160.0 471.8,160.0 472.8,160.0 473.8,160.0 474.6,160.0 475.7,160.0 476.5,160.0 477.5,160.0 478.3,160.0 479.4,160.0 480.4,160.0 481.2,160.0 482.2,160.0 483.0,160.0 484.1,160.0 484.9,160.0 485.9,160.0 486.9,160.0 487.8,160.0 488.8,160.0 489.6,160.0 490.6,160.0 491.4,160.0 492.5,160.0 493.5,160.0 494.3,160.0 495.3,160.0 496.2,160.0 497.2,160.0 498.0,160.0 499.0,160.0 500.1,160.0 500.9,160.0 501.9,160.0 502.7,160.0 503.7,160.0 504.6,160.0 505.6,160.0 506.6,160.0 507.4,160.0 508.5,160.0 509.3,160.0 510.3,160.0 511.1,160.0 512.2,160.0 513.2,160.0 514.0,160.0 515.0,160.0 515.8,160.0 516.9,160.0 517.7,160.0 518.7,160.0 519.7,160.0 520.6,160.0 521.6,160.0 522.4,160.0 523.4,160.0 524.2,160.0 525.3,160.0 526.3,160.0 527.1,160.0 528.1,160.0 529.0,160.0 530.0,160.0 530.8,160.0 531.8,160.0 532.9,160.0 533.7,160.0 534.7,160.0 535.5,160.0 536.5,160.0 537.4,160.0 538.4,160.0 539.4,160.0 540.2,160.0 541.3,160.0 542.1,160.0 543.1,160.0 543.9,160.0 545.0,160.0 546.0,160.0 546.8,160.0 547.8,160.0 548.6,160.0 549.7,160.0 550.5,160.0 551.5,160.0 552.5,160.0 553.4,160.0 554.4,160.0 555.2,160.0 556.2,160.0 557.0,160.0 558.1,160.0 559.1,160.0 559.9,160.0 560.9,160.0 561.8,160.0 562.8,160.0 563.6,160.0 564.6,160.0 565.7,160.0 566.5,160.0 567.5,160.0 568.3,160.0 569.3,160.0 570.2,160.0 571.2,160.0 572.2,160.0 573.0,160.0 574.1,160.0 574.9,160.0 575.9,160.0 576.7,160.0 577.8,160.0 578.8,160.0 579.6,160.0 580.6,160.0 581.4,160.0 582.5,160.0 583.3,160.0 584.3,160.0 585.3,160.0 586.2,160.0 587.2,160.0 588.0,160.0 589.0,160.0 589.8,160.0 590.9,160.0 591.9,160.0 592.7,160.0 593.7,160.0 594.6,160.0 595.6,160.0 596.4,160.0 597.4,160.0 598.5,160.0 599.3,160.0 600.3,160.0 601.1,160.0 602.1,160.0 603.0,160.0 604.0,160.0 605.0,160.0 605.8,160.0 606.9,160.0 607.7,160.0 608.7,160.0 609.5,160.0 610.6,160.0 611.6,160.0 612.4,160.0 613.4,160.0 614.2,160.0 615.3,160.0 616.1,160.0 617.1,160.0 618.1,160.0 619.0,160.0 620.0,160.0 620.8,160.0 621.8,160.0 622.6,160.0 623.7,160.0 624.7,160.0 625.5,160.0 626.5,160.0 627.4,160.0 628.4,160.0 629.2,160.0 630.2,160.0 631.3,160.0 632.1,160.0 633.1,160.0 633.9,160.0 634.9,160.0 635.8,160.0 636.8,160.0 637.8,160.0 638.6,160.0 639.7,160.0 640.5,160.0 641.5,160.0 642.3,160.0 643.4,160.0 644.4,160.0 645.2,160.0 646.2,160.0 647.0,160.0 648.1,160.0 648.9,160.0 649.9,160.0 650.9,160.0 651.8,160.0 652.8,160.0 653.6,160.0 654.6,160.0 655.4,160.0 656.5,160.0 657.5,160.0 658.3,160.0 659.3,160.0 660.2,160.0 661.2,160.0 662.0,160.0 663.0,160.0 664.1,160.0 664.9,160.0 665.9,160.0 666.7,160.0 667.7,160.0 668.6,160.0 669.6,160.0" fill="none" stroke="#F44336" stroke-width="1.5" opacity="0.9"/>
  <line x1="610" y1="30" x2="625" y2="30" stroke="#2196F3" stroke-width="2"/>
  <text x="630" y="34" class="tick">with motor lag</text>
  <line x1="610" y1="46" x2="625" y2="46" stroke="#F44336" stroke-width="2"/>
  <text x="630" y="50" class="tick">no lag (Phase 5.3)</text>
</svg>
