<svg xmlns="http://www.w3.org/2000/svg" viewBox="0 0 700 350" width="700" height="350">
  <style>
    text { font-family: monospace; font-size: 11px; fill: #333; }
    .title { font-size: 13px; font-weight: bold; }
    .axis-label { font-size: 11px; }
    .grid { stroke: #e0e0e0; stroke-width: 0.5; }
    .tick { font-size: 9px; fill: #666; }
  </style>
  <rect width="700" height="350" fill="white"/>
  <text x="350" y="13" text-anchor="middle" class="title">Roll Step -- Rotor Forces (ideal)</text>
  <line x1="55" y1="305.0" x2="670" y2="305.0" class="grid"/>
  <text x="50" y="308.0" text-anchor="end" class="tick">-0.0264</text>
  <line x1="55" y1="247.0" x2="670" y2="247.0" class="grid"/>
  <text x="50" y="250.0" text-anchor="end" class="tick">0.0501</text>
  <line x1="55" y1="189.0" x2="670" y2="189.0" class="grid"/>
  <text x="50" y="192.0" text-anchor="end" class="tick">0.127</text>
  <line x1="55" y1="131.0" x2="670" y2="131.0" class="grid"/>
  <text x="50" y="134.0" text-anchor="end" class="tick">0.203</text>
  <line x1="55" y1="73.0" x2="670" y2="73.0" class="grid"/>
  <text x="50" y="76.0" text-anchor="end" class="tick">0.279</text>
  <line x1="55" y1="15.0" x2="670" y2="15.0" class="grid"/>
  <text x="50" y="18.0" text-anchor="end" class="tick">0.356</text>
  <line x1="55.0" y1="15" x2="55.0" y2="305" class="grid"/>
  <text x="55.0" y="319" text-anchor="middle" class="tick">0</text>
  <line x1="157.5" y1="15" x2="157.5" y2="305" class="grid"/>
  <text x="157.5" y="319" text-anchor="middle" class="tick">2</text>
  <line x1="260.0" y1="15" x2="260.0" y2="305" class="grid"/>
  <text x="260.0" y="319" text-anchor="middle" class="tick">4</text>
  <line x1="362.5" y1="15" x2="362.5" y2="305" class="grid"/>
  <text x="362.5" y="319" text-anchor="middle" class="tick">6</text>
  <line x1="465.0" y1="15" x2="465.0" y2="305" class="grid"/>
  <text x="465.0" y="319" text-anchor="middle" class="tick">8</text>
  <line x1="567.5" y1="15" x2="567.5" y2="305" class="grid"/>
  <text x="567.5" y="319" text-anchor="middle" class="tick">10</text>
  <line x1="670.0" y1="15" x2="670.0" y2="305" class="grid"/>
  <text x="670.0" y="319" text-anchor="middle" class="tick">12</text>
  <line x1="55" y1="15" x2="55" y2="305" stroke="#333" stroke-width="1"/>
  <line x1="55" y1="305" x2="670" y2="305" stroke="#333" stroke-width="1"/>
  <text x="362" y="345" text-anchor="middle" class="axis-label">time [s]</text>
  <text x="12" y="160" text-anchor="middle" class="axis-label" transform="rotate(-90,12,160)">force [N]</text>
  <line x1="55" y1="80.28101745656983" x2="670" y2="80.28101745656983" stroke="#888" stroke-width="1" stroke-dasharray="6,3"/>
  <text x="672" y="83.28101745656983" class="tick" fill="#888">mg/4</text>
  <polyline points="55.0,285.0 56.3,80.3 57.8,80.3 59.6,80.3 61.1,80.3 62.9,80.3 64.5,80.3 66.3,80.3 67.8,80.3 69.6,80.3 71.1,80.3 72.9,80.3 74.5,80.3 76.3,80.3 77.8,80.3 79.6,80.3 81.1,80.3 82.9,80.3 84.5,80.3 86.3,80.3 87.8,80.3 89.6,80.3 91.1,80.3 92.9,80.3 94.5,80.3 96.3,80.3 97.8,80.3 99.6,80.3 101.1,80.3 102.9,80.3 104.5,80.3 106.2,80.3 107.8,80.3 109.6,80.3 110.9,80.3 111.9,80.3 113.2,80.3 114.2,80.3 115.2,80.3 116.5,80.3 117.5,80.3 118.5,80.3 119.8,80.3 120.9,80.3 121.9,80.3 123.2,80.3 124.2,80.3 125.2,80.3 126.5,80.3 127.5,80.3 128.5,80.3 129.8,80.3 130.8,80.3 131.9,80.3 132.9,80.3 133.9,80.3 134.9,80.3 136.0,80.3 137.0,80.3 138.0,80.3 139.0,80.3 140.1,80.3 141.1,80.3 142.1,80.3 143.1,80.3 144.2,80.3 145.2,80.3 146.2,80.3 147.2,80.3 148.3,80.3 149.3,80.3 150.3,80.3 151.3,80.3 152.4,80.3 153.4,80.3 154.4,80.3 155.4,80.3 156.5,80.3 157.5,80.3 158.5,80.3 159.5,80.3 160.6,80.3 161.6,80.3 162.6,80.3 163.6,80.3 164.7,80.3 165.7,80.3 166.7,80.3 167.7,80.3 168.8,80.3 169.8,80.3 170.8,80.3 171.8,80.3 172.9,80.3 173.9,80.3 174.9,80.3 175.9,80.3 177.0,80.3 178.0,80.3 179.0,80.3 180.0,80.3 181.1,80.3 182.1,80.3 183.1,80.3 184.1,80.3 185.2,80.3 186.2,80.3 187.2,80.3 188.2,80.3 189.3,80.3 190.3,80.3 191.3,80.3 192.3,80.3 193.4,80.3 194.4,80.3 195.4,80.3 196.4,80.3 197.5,80.3 198.5,80.3 199.5,80.3 200.5,80.3 201.6,80.3 202.6,80.3 203.6,80.3 204.6,80.3 205.7,80.3 206.7,80.3 207.7,80.3 208.7,80.3 209.8,80.3 210.8,80.3 211.8,80.3 212.8,80.3 213.9,80.3 214.9,80.3 215.9,80.3 216.9,80.3 218.0,80.3 219.0,80.3 220.0,80.3 221.0,80.3 222.1,80.3 223.1,80.3 224.1,80.3 225.1,80.3 226.2,80.3 227.2,80.3 228.2,80.3 229.2,80.3 230.3,80.3 231.3,80.3 232.3,80.3 233.3,80.3 234.4,80.3 235.4,80.3 236.4,80.3 237.4,80.3 238.5,80.3 239.5,80.3 240.5,80.3 241.5,80.3 242.6,80.3 243.6,80.3 244.6,80.3 245.6,80.3 246.7,80.3 247.7,80.3 248.7,80.3 249.7,80.3 250.8,80.3 251.8,80.3 252.8,80.3 253.8,80.3 254.9,80.3 255.9,80.3 256.9,80.3 257.9,80.3 259.0,80.3 260.0,80.3 261.0,80.3 262.0,80.3 263.1,80.3 264.1,80.3 265.1,80.3 266.1,80.3 267.2,80.3 268.2,80.3 269.2,80.3 270.2,80.3 271.3,80.3 272.0,80.3 273.1,80.3 274.1,80.3 274.9,80.3 275.9,80.3 276.9,80.3 277.7,80.3 278.7,80.3 279.7,80.3 280.5,80.3 281.5,80.3 282.5,80.3 283.6,80.3 284.6,80.3 285.4,80.3 286.4,80.3 287.4,80.3 288.2,80.3 289.2,80.3 290.2,80.3 291.0,80.3 292.0,80.3 293.1,80.3 293.8,80.3 294.8,80.3 295.9,80.3 296.9,80.3 297.9,80.3 298.7,80.3 299.7,80.3 300.7,80.3 301.5,80.3 302.5,80.3 303.6,80.3 304.3,80.3 305.4,80.3 306.4,80.3 307.1,80.3 308.2,80.3 309.2,80.3 310.2,80.3 311.2,80.3 312.0,66.2 312.8,92.5 313.8,92.9 314.8,83.5 315.6,79.0 316.6,77.3 317.7,77.6 318.4,77.9 319.4,78.0 320.5,77.8 321.5,77.6 322.5,77.4 323.3,77.3 324.3,77.2 325.3,77.1 326.1,77.1 327.1,77.0 328.2,76.9 328.9,76.9 330.0,76.9 331.0,76.8 331.8,76.8 332.8,76.8 333.8,76.8 334.8,76.8 335.8,76.8 336.6,76.7 337.6,76.7 338.7,76.7 339.4,76.7 340.5,76.7 341.5,76.7 342.3,76.7 343.3,76.7 344.3,76.7 345.1,76.7 346.1,76.7 347.1,76.7 348.1,76.7 349.2,76.7 349.9,76.7 351.0,76.6 352.0,76.6 352.8,76.6 353.8,76.6 354.8,76.6 355.6,76.6 356.6,76.5 357.6,76.5 358.4,76.5 359.4,76.5 360.4,76.5 361.5,76.4 362.5,76.4 363.3,76.4 364.3,76.3 365.3,76.3 366.1,76.3 367.1,76.2 368.1,76.2 368.9,76.2 369.9,76.1 371.0,76.1 371.7,76.1 372.7,76.0 373.8,76.0 374.8,75.9 375.8,75.9 376.6,75.8 377.6,75.8 378.6,75.7 379.4,75.7 380.4,75.6 381.5,75.6 382.2,75.5 383.3,75.4 384.3,75.4 385.1,75.3 386.1,75.3 387.1,75.2 388.1,75.1 389.1,75.1 389.9,75.0 390.9,74.9 392.0,74.9 392.7,74.8 393.8,74.7 394.8,74.6 395.6,74.6 396.6,74.5 397.6,74.4 398.4,74.4 399.4,74.3 400.4,74.2 401.4,74.1 402.5,74.0 403.2,74.0 404.3,73.9 405.3,73.8 406.1,73.7 407.1,73.6 408.1,73.5 408.9,73.4 409.9,73.3 410.9,73.2 411.7,73.2 412.7,73.1 413.7,73.0 414.5,87.1 415.5,58.3 416.6,62.7 417.3,69.7 418.4,74.8 419.4,75.6 420.2,75.2 421.2,74.7 422.2,74.6 423.0,74.7 424.0,74.8 425.0,74.9 426.0,74.9 427.1,74.9 427.8,75.0 428.9,74.9 429.9,74.9 430.7,74.9 431.7,74.9 432.7,74.9 433.5,74.9 434.5,74.8 435.5,74.8 436.3,74.8 437.3,74.7 438.3,74.7 439.4,74.7 440.4,74.6 441.2,74.6 442.2,74.6 443.2,74.5 444.0,74.5 445.0,74.5 446.0,74.5 446.8,74.5 447.8,74.4 448.9,74.4 449.6,74.4 450.6,74.4 451.7,74.4 452.7,74.4 453.7,74.3 454.5,74.3 455.5,74.3 456.5,74.3 457.3,74.3 458.3,74.3 459.4,74.3 460.1,74.3 461.2,74.3 462.2,74.3 462.9,74.3 464.0,74.3 465.0,74.3 466.0,74.3 467.0,74.3 467.8,74.3 468.8,74.4 469.9,74.4 470.6,74.4 471.7,74.4 472.7,74.4 473.5,74.4 474.5,74.4 475.5,74.4 476.3,74.5 477.3,74.5 478.3,74.5 479.3,74.5 480.4,74.5 481.1,74.5 482.4,74.6 483.4,74.6 484.5,74.6 485.8,74.6 486.8,74.7 487.8,74.7 488.8,74.7 489.9,74.7 490.6,74.7 491.6,74.8 492.7,74.8 493.7,74.8 494.7,74.8 495.5,74.8 496.5,74.9 497.5,74.9 498.3,74.9 499.3,74.9 500.4,75.0 501.1,75.0 502.2,75.0 503.2,75.0 503.9,75.0 505.0,75.1 506.0,75.1 507.0,75.1 508.0,75.1 508.8,75.2 509.8,75.2 510.9,75.2 511.6,75.2 512.7,75.2 513.7,75.3 515.0,75.3 516.3,75.3 517.5,75.4 518.6,75.4 519.6,75.4 520.4,75.4 521.4,75.4 522.4,75.5 523.4,75.5 524.4,75.5 525.2,75.5 526.2,75.6 527.3,75.6 528.0,75.6 529.1,75.6 530.1,75.6 530.9,75.7 531.9,75.7 532.9,75.7 533.7,75.7 534.7,75.7 535.7,75.8 536.7,75.8 537.8,75.8 538.5,75.8 539.6,75.8 540.6,75.9 541.4,75.9 542.4,75.9 543.4,75.9 544.2,75.9 545.2,76.0 546.2,76.0 547.0,76.0 548.0,76.0 549.0,76.0 550.1,76.1 551.1,76.1 551.9,76.1 552.9,76.1 553.9,76.1 554.7,76.1 555.7,76.2 556.7,76.2 557.5,76.2 558.5,76.2 559.6,76.2 560.3,76.2 561.4,76.3 562.4,76.3 563.4,76.3 564.4,76.3 565.2,76.3 566.2,76.3 567.2,76.4 568.0,76.4 569.0,76.4 570.1,76.4 570.8,76.4 571.9,76.4 572.9,76.4 573.7,76.5 574.7,76.5 575.7,76.5 576.7,76.5 577.7,76.5 578.5,76.5 579.5,76.5 580.6,76.6 581.3,76.6 582.4,76.6 583.4,76.6 584.2,76.6 585.2,76.6 586.2,76.6 587.0,76.6 588.0,76.7 589.0,76.7 590.0,76.7 591.1,76.7 591.8,76.7 592.9,76.7 593.9,76.7 594.7,76.7 595.7,76.8 596.7,76.8 597.5,76.8 598.5,76.8 599.5,76.8 600.3,76.8 601.3,76.8 602.4,76.8 603.4,76.8 604.4,76.9 605.2,76.9 606.2,76.9 607.2,76.9 608.0,76.9 609.0,76.9 610.0,76.9 610.8,76.9 611.8,76.9 612.9,76.9 613.6,76.9 614.7,77.0 615.7,77.0 616.7,77.0 617.7,77.0 618.5,77.0 619.5,77.0 620.5,77.0 621.3,77.0 622.3,77.0 623.4,77.0 624.1,77.0 625.2,77.0 626.2,77.1 627.0,77.1 628.0,77.1 629.0,77.1 630.0,77.1 631.0,77.1 631.8,77.1 632.8,77.1 633.9,77.1 634.6,77.1 635.7,77.1 636.7,77.1 637.5,77.1 638.5,77.1 639.5,77.1 640.3,77.1 641.3,77.2 642.3,77.2 643.3,77.2 644.4,77.2 645.1,77.2 646.2,77.2 647.2,77.2 648.0,77.2 649.0,77.2 650.0,77.2 650.8,77.2 651.8,77.2 652.8,77.2 653.6,77.2 654.6,77.2 655.6,77.2 656.7,77.2 657.7,77.2 658.5,77.2 659.5,77.2 660.5,77.2 661.3,77.2 662.3,77.2 663.3,77.3 664.1,77.3 665.1,77.3 666.2,77.3 666.9,77.3 668.0,77.3 669.0,77.3 670.0,77.3" fill="none" stroke="#2196F3" stroke-width="1.5" opacity="0.9"/>
  <polyline points="55.0,285.0 56.3,80.3 57.8,80.3 59.6,80.3 61.1,80.3 62.9,80.3 64.5,80.3 66.3,80.3 67.8,80.3 69.6,80.3 71.1,80.3 72.9,80.3 74.5,80.3 76.3,80.3 77.8,80.3 79.6,80.3 81.1,80.3 82.9,80.3 84.5,80.3 86.3,80.3 87.8,80.3 89.6,80.3 91.1,80.3 92.9,80.3 94.5,80.3 96.3,80.3 97.8,80.3 99.6,80.3 101.1,80.3 102.9,80.3 104.5,80.3 106.2,80.3 107.8,80.3 109.6,80.3 110.9,80.3 111.9,80.3 113.2,80.3 114.2,80.3 115.2,80.3 116.5,80.3 117.5,80.3 118.5,80.3 119.8,80.3 120.9,80.3 121.9,80.3 123.2,80.3 124.2,80.3 125.2,80.3 126.5,80.3 127.5,80.3 128.5,80.3 129.8,80.3 130.8,80.3 131.9,80.3 132.9,80.3 133.9,80.3 134.9,80.3 136.0,80.3 137.0,80.3 138.0,80.3 139.0,80.3 140.1,80.3 141.1,80.3 142.1,80.3 143.1,80.3 144.2,80.3 145.2,80.3 146.2,80.3 147.2,80.3 148.3,80.3 149.3,80.3 150.3,80.3 151.3,80.3 152.4,80.3 153.4,80.3 154.4,80.3 155.4,80.3 156.5,80.3 157.5,80.3 158.5,80.3 159.5,80.3 160.6,80.3 161.6,80.3 162.6,80.3 163.6,80.3 164.7,80.3 165.7,80.3 166.7,80.3 167.7,80.3 168.8,80.3 169.8,80.3 170.8,80.3 171.8,80.3 172.9,80.3 173.9,80.3 174.9,80.3 175.9,80.3 177.0,80.3 178.0,80.3 179.0,80.3 180.0,80.3 181.1,80.3 182.1,80.3 183.1,80.3 184.1,80.3 185.2,80.3 186.2,80.3 187.2,80.3 188.2,80.3 189.3,80.3 190.3,80.3 191.3,80.3 192.3,80.3 193.4,80.3 194.4,80.3 195.4,80.3 196.4,80.3 197.5,80.3 198.5,80.3 199.5,80.3 200.5,80.3 201.6,80.3 202.6,80.3 203.6,80.3 204.6,80.3 205.7,80.3 206.7,80.3 207.7,80.3 208.7,80.3 209.8,80.3 210.8,80.3 211.8,80.3 212.8,80.3 213.9,80.3 214.9,80.3 215.9,80.3 216.9,80.3 218.0,80.3 219.0,80.3 220.0,80.3 221.0,80.3 222.1,80.3 223.1,80.3 224.1,80.3 225.1,80.3 226.2,80.3 227.2,80.3 228.2,80.3 229.2,80.3 230.3,80.3 231.3,80.3 232.3,80.3 233.3,80.3 234.4,80.3 235.4,80.3 236.4,80.3 237.4,80.3 238.5,80.3 239.5,80.3 240.5,80.3 241.5,80.3 242.6,80.3 243.6,80.3 244.6,80.3 245.6,80.3 246.7,80.3 247.7,80.3 248.7,80.3 249.7,80.3 250.8,80.3 251.8,80.3 252.8,80.3 253.8,80.3 254.9,80.3 255.9,80.3 256.9,80.3 257.9,80.3 259.0,80.3 260.0,80.3 261.0,80.3 262.0,80.3 263.1,80.3 264.1,80.3 265.1,80.3 266.1,80.3 267.2,80.3 268.2,80.3 269.2,80.3 270.2,80.3 271.3,80.3 272.0,80.3 273.1,80.3 274.1,80.3 274.9,80.3 275.9,80.3 276.9,80.3 277.7,80.3 278.7,80.3 279.7,80.3 280.5,80.3 281.5,80.3 282.5,80.3 283.6,80.3 284.6,80.3 285.4,80.3 286.4,80.3 287.4,80.3 288.2,80.3 289.2,80.3 290.2,80.3 291.0,80.3 292.0,80.3 293.1,80.3 293.8,80.3 294.8,80.3 295.9,80.3 296.9,80.3 297.9,80.3 298.7,80.3 299.7,80.3 300.7,80.3 301.5,80.3 302.5,80.3 303.6,80.3 304.3,80.3 305.4,80.3 306.4,80.3 307.1,80.3 308.2,80.3 309.2,80.3 310.2,80.3 311.2,80.3 312.0,94.4 312.8,67.9 313.8,66.7 314.8,75.1 315.6,78.9 316.6,79.9 317.7,79.0 318.4,78.3 319.4,77.8 320.5,77.6 321.5,77.5 322.5,77.4 323.3,77.3 324.3,77.2 325.3,77.1 326.1,77.1 327.1,77.0 328.2,76.9 328.9,76.9 330.0,76.9 331.0,76.8 331.8,76.8 332.8,76.8 333.8,76.8 334.8,76.8 335.8,76.8 336.6,76.7 337.6,76.7 338.7,76.7 339.4,76.7 340.5,76.7 341.5,76.7 342.3,76.7 343.3,76.7 344.3,76.7 345.1,76.7 346.1,76.7 347.1,76.7 348.1,76.7 349.2,76.7 349.9,76.7 351.0,76.6 352.0,76.6 352.8,76.6 353.8,76.6 354.8,76.6 355.6,76.6 356.6,76.5 357.6,76.5 358.4,76.5 359.4,76.5 360.4,76.5 361.5,76.4 362.5,76.4 363.3,76.4 364.3,76.3 365.3,76.3 366.1,76.3 367.1,76.2 368.1,76.2 368.9,76.2 369.9,76.1 371.0,76.1 371.7,76.1 372.7,76.0 373.8,76.0 374.8,75.9 375.8,75.9 376.6,75.8 377.6,75.8 378.6,75.7 379.4,75.7 380.4,75.6 381.5,75.6 382.2,75.5 383.3,75.4 384.3,75.4 385.1,75.3 386.1,75.3 387.1,75.2 388.1,75.1 389.1,75.1 389.9,75.0 390.9,74.9 392.0,74.9 392.7,74.8 393.8,74.7 394.8,74.6 395.6,74.6 396.6,74.5 397.6,74.4 398.4,74.4 399.4,74.3 400.4,74.2 401.4,74.1 402.5,74.0 403.2,74.0 404.3,73.9 405.3,73.8 406.1,73.7 407.1,73.6 408.1,73.5 408.9,73.4 409.9,73.3 410.9,73.2 411.7,73.2 412.7,73.1 413.7,73.0 414.5,58.8 415.5,88.2 416.6,84.5 417.3,78.0 418.4,73.4 419.4,73.1 420.2,73.7 421.2,74.5 422.2,74.8 423.0,74.9 424.0,74.9 425.0,74.9 426.0,74.9 427.1,74.9 427.8,74.9 428.9,74.9 429.9,74.9 430.7,74.9 431.7,74.9 432.7,74.9 433.5,74.9 434.5,74.8 435.5,74.8 436.3,74.8 437.3,74.7 438.3,74.7 439.4,74.7 440.4,74.6 441.2,74.6 442.2,74.6 443.2,74.5 444.0,74.5 445.0,74.5 446.0,74.5 446.8,74.5 447.8,74.4 448.9,74.4 449.6,74.4 450.6,74.4 451.7,74.4 452.7,74.4 453.7,74.3 454.5,74.3 455.5,74.3 456.5,74.3 457.3,74.3 458.3,74.3 459.4,74.3 460.1,74.3 461.2,74.3 462.2,74.3 462.9,74.3 464.0,74.3 465.0,74.3 466.0,74.3 467.0,74.3 467.8,74.3 468.8,74.4 469.9,74.4 470.6,74.4 471.7,74.4 472.7,74.4 473.5,74.4 474.5,74.4 475.5,74.4 476.3,74.5 477.3,74.5 478.3,74.5 479.3,74.5 480.4,74.5 481.1,74.5 482.4,74.6 483.4,74.6 484.5,74.6 485.8,74.6 486.8,74.7 487.8,74.7 488.8,74.7 489.9,74.7 490.6,74.7 491.6,74.8 492.7,74.8 493.7,74.8 494.7,74.8 495.5,74.8 496.5,74.9 497.5,74.9 498.3,74.9 499.3,74.9 500.4,75.0 501.1,75.0 502.2,75.0 503.2,75.0 503.9,75.0 505.0,75.1 506.0,75.1 507.0,75.1 508.0,75.1 508.8,75.2 509.8,75.2 510.9,75.2 511.6,75.2 512.7,75.2 513.7,75.3 515.0,75.3 516.3,75.3 517.5,75.4 518.6,75.4 519.6,75.4 520.4,75.4 521.4,75.4 522.4,75.5 523.4,75.5 524.4,75.5 525.2,75.5 526.2,75.6 527.3,75.6 528.0,75.6 529.1,75.6 530.1,75.6 530.9,75.7 531.9,75.7 532.9,75.7 533.7,75.7 534.7,75.7 535.7,75.8 536.7,75.8 537.8,75.8 538.5,75.8 539.6,75.8 540.6,75.9 541.4,75.9 542.4,75.9 543.4,75.9 544.2,75.9 545.2,76.0 546.2,76.0 547.0,76.0 548.0,76.0 549.0,76.0 550.1,76.1 551.1,76.1 551.9,76.1 552.9,76.1 553.9,76.1 554.7,76.1 555.7,76.2 556.7,76.2 557.5,76.2 558.5,76.2 559.6,76.2 560.3,76.2 561.4,76.3 562.4,76.3 563.4,76.3 564.4,76.3 565.2,76.3 566.2,76.3 567.2,76.4 568.0,76.4 569.0,76.4 570.1,76.4 570.8,76.4 571.9,76.4 572.9,76.4 573.7,76.5 574.7,76.5 575.7,76.5 576.7,76.5 577.7,76.5 578.5,76.5 579.5,76.5 580.6,76.6 581.3,76.6 582.4,76.6 583.4,76.6 584.2,76.6 585.2,76.6 586.2,76.6 587.0,76.6 588.0,76.7 589.0,76.7 590.0,76.7 591.1,76.7 591.8,76.7 592.9,76.7 593.9,76.7 594.7,76.7 595.7,76.8 596.7,76.8 597.5,76.8 598.5,76.8 599.5,76.8 600.3,76.8 601.3,76.8 602.4,76.8 603.4,76.8 604.4,76.9 605.2,76.9 606.2,76.9 607.2,76.9 608.0,76.9 609.0,76.9 610.0,76.9 610.8,76.9 611.8,76.9 612.9,76.9 613.6,76.9 614.7,77.0 615.7,77.0 616.7,77.0 617.7,77.0 618.5,77.0 619.5,77.0 620.5,77.0 621.3,77.0 622.3,77.0 623.4,77.0 624.1,77.0 625.2,77.0 626.2,77.1 627.0,77.1 628.0,77.1 629.0,77.1 630.0,77.1 631.0,77.1 631.8,77.1 632.8,77.1 633.9,77.1 634.6,77.1 635.7,77.1 636.7,77.1 637.5,77.1 638.5,77.1 639.5,77.1 640.3,77.1 641.3,77.2 642.3,77.2 643.3,77.2 644.4,77.2 645.1,77.2 646.2,77.2 647.2,77.2 648.0,77.2 649.0,77.2 650.0,77.2 650.8,77.2 651.8,77.2 652.8,77.2 653.6,77.2 654.6,77.2 655.6,77.2 656.7,77.2 657.7,77.2 658.5,77.2 659.5,77.2 660.5,77.2 661.3,77.2 662.3,77.2 663.3,77.3 664.1,77.3 665.1,77.3 666.2,77.3 666.9,77.3 668.0,77.3 669.0,77.3 670.0,77.3" fill="none" stroke="#F44336" stroke-width="1.5" opacity="0.9"/>
  <polyline points="55.0,285.0 56.3,80.3 57.8,80.3 59.6,80.3 61.1,80.3 62.9,80.3 64.5,80.3 66.3,80.3 67.8,80.3 69.6,80.3 71.1,80.3 72.9,80.3 74.5,80.3 76.3,80.3 77.8,80.3 79.6,80.3 81.1,80.3 82.9,80.3 84.5,80.3 86.3,80.3 87.8,80.3 89.6,80.3 91.1,80.3 92.9,80.3 94.5,80.3 96.3,80.3 97.8,80.3 99.6,80.3 101.1,80.3 102.9,80.3 104.5,80.3 106.2,80.3 107.8,80.3 109.6,80.3 110.9,80.3 111.9,80.3 113.2,80.3 114.2,80.3 115.2,80.3 116.5,80.3 117.5,80.3 118.5,80.3 119.8,80.3 120.9,80.3 121.9,80.3 123.2,80.3 124.2,80.3 125.2,80.3 126.5,80.3 127.5,80.3 128.5,80.3 129.8,80.3 130.8,80.3 131.9,80.3 132.9,80.3 133.9,80.3 134.9,80.3 136.0,80.3 137.0,80.3 138.0,80.3 139.0,80.3 140.1,80.3 141.1,80.3 142.1,80.3 143.1,80.3 144.2,80.3 145.2,80.3 146.2,80.3 147.2,80.3 148.3,80.3 149.3,80.3 150.3,80.3 151.3,80.3 152.4,80.3 153.4,80.3 154.4,80.3 155.4,80.3 156.5,80.3 157.5,80.3 158.5,80.3 159.5,80.3 160.6,80.3 161.6,80.3 162.6,80.3 163.6,80.3 164.7,80.3 165.7,80.3 166.7,80.3 167.7,80.3 168.8,80.3 169.8,80.3 170.8,80.3 171.8,80.3 172.9,80.3 173.9,80.3 174.9,80.3 175.9,80.3 177.0,80.3 178.0,80.3 179.0,80.3 180.0,80.3 181.1,80.3 182.1,80.3 183.1,80.3 184.1,80.3 185.2,80.3 186.2,80.3 187.2,80.3 188.2,80.3 189.3,80.3 190.3,80.3 191.3,80.3 192.3,80.3 193.4,80.3 194.4,80.3 195.4,80.3 196.4,80.3 197.5,80.3 198.5,80.3 199.5,80.3 200.5,80.3 201.6,80.3 202.6,80.3 203.6,80.3 204.6,80.3 205.7,80.3 206.7,80.3 207.7,80.3 208.7,80.3 209.8,80.3 210.8,80.3 211.8,80.3 212.8,80.3 213.9,80.3 214.9,80.3 215.9,80.3 216.9,80.3 218.0,80.3 219.0,80.3 220.0,80.3 221.0,80.3 222.1,80.3 223.1,80.3 224.1,80.3 225.1,80.3 226.2,80.3 227.2,80.3 228.2,80.3 229.2,80.3 230.3,80.3 231.3,80.3 232.3,80.3 233.3,80.3 234.4,80.3 235.4,80.3 236.4,80.3 237.4,80.3 238.5,80.3 239.5,80.3 240.5,80.3 241.5,80.3 242.6,80.3 243.6,80.3 244.6,80.3 245.6,80.3 246.7,80.3 247.7,80.3 248.7,80.3 249.7,80.3 250.8,80.3 251.8,80.3 252.8,80.3 253.8,80.3 254.9,80.3 255.9,80.3 256.9,80.3 257.9,80.3 259.0,80.3 260.0,80.3 261.0,80.3 262.0,80.3 263.1,80.3 264.1,80.3 265.1,80.3 266.1,80.3 267.2,80.3 268.2,80.3 269.2,80.3 270.2,80.3 271.3,80.3 272.0,80.3 273.1,80.3 274.1,80.3 274.9,80.3 275.9,80.3 276.9,80.3 277.7,80.3 278.7,80.3 279.7,80.3 280.5,80.3 281.5,80.3 282.5,80.3 283.6,80.3 284.6,80.3 285.4,80.3 286.4,80.3 287.4,80.3 288.2,80.3 289.2,80.3 290.2,80.3 291.0,80.3 292.0,80.3 293.1,80.3 293.8,80.3 294.8,80.3 295.9,80.3 296.9,80.3 297.9,80.3 298.7,80.3 299.7,80.3 300.7,80.3 301.5,80.3 302.5,80.3 303.6,80.3 304.3,80.3 305.4,80.3 306.4,80.3 307.1,80.3 308.2,80.3 309.2,80.3 310.2,80.3 311.2,80.3 312.0,66.2 312.8,92.5 313.8,92.9 314.8,83.5 315.6,79.0 316.6,77.3 317.7,77.6 318.4,77.9 319.4,78.0 320.5,77.8 321.5,77.6 322.5,77.4 323.3,77.3 324.3,77.2 325.3,77.1 326.1,77.1 327.1,77.0 328.2,76.9 328.9,76.9 330.0,76.9 331.0,76.8 331.8,76.8 332.8,76.8 333.8,76.8 334.8,76.8 335.8,76.8 336.6,76.7 337.6,76.7 338.7,76.7 339.4,76.7 340.5,76.7 341.5,76.7 342.3,76.7 343.3,76.7 344.3,76.7 345.1,76.7 346.1,76.7 347.1,76.7 348.1,76.7 349.2,76.7 349.9,76.7 351.0,76.6 352.0,76.6 352.8,76.6 353.8,76.6 354.8,76.6 355.6,76.6 356.6,76.5 357.6,76.5 358.4,76.5 359.4,76.5 360.4,76.5 361.5,76.4 362.5,76.4 363.3,76.4 364.3,76.3 365.3,76.3 366.1,76.3 367.1,76.2 368.1,76.2 368.9,76.2 369.9,76.1 371.0,76.1 371.7,76.1 372.7,76.0 373.8,76.0 374.8,75.9 375.8,75.9 376.6,75.8 377.6,75.8 378.6,75.7 379.4,75.7 380.4,75.6 381.5,75.6 382.2,75.5 383.3,75.4 384.3,75.4 385.1,75.3 386.1,75.3 387.1,75.2 388.1,75.1 389.1,75.1 389.9,75.0 390.9,74.9 392.0,74.9 392.7,74.8 393.8,74.7 394.8,74.6 395.6,74.6 396.6,74.5 397.6,74.4 398.4,74.4 399.4,74.3 400.4,74.2 401.4,74.1 402.5,74.0 403.2,74.0 404.3,73.9 405.3,73.8 406.1,73.7 407.1,73.6 408.1,73.5 408.9,73.4 409.9,73.3 410.9,73.2 411.7,73.2 412.7,73.1 413.7,73.0 414.5,87.1 415.5,58.3 416.6,62.7 417.3,69.7 418.4,74.8 419.4,75.6 420.2,75.2 421.2,74.7 422.2,74.6 423.0,74.7 424.0,74.8 425.0,74.9 426.0,74.9 427.1,74.9 427.8,75.0 428.9,74.9 429.9,74.9 430.7,74.9 431.7,74.9 432.7,74.9 433.5,74.9 434.5,74.8 435.5,74.8 436.3,74.8 437.3,74.7 438.3,74.7 439.4,74.7 440.4,74.6 441.2,74.6 442.2,74.6 443.2,74.5 444.0,74.5 445.0,74.5 446.0,74.5 446.8,74.5 447.8,74.4 448.9,74.4 449.6,74.4 450.6,74.4 451.7,74.4 452.7,74.4 453.7,74.3 454.5,74.3 455.5,74.3 456.5,74.3 457.3,74.3 458.3,74.3 459.4,74.3 460.1,74.3 461.2,74.3 462.2,74.3 462.9,74.3 464.0,74.3 465.0,74.3 466.0,74.3 467.0,74.3 467.8,74.3 468.8,74.4 469.9,74.4 470.6,74.4 471.7,74.4 472.7,74.4 473.5,74.4 474.5,74.4 475.5,74.4 476.3,74.5 477.3,74.5 478.3,74.5 479.3,74.5 480.4,74.5 481.1,74.5 482.4,74.6 483.4,74.6 484.5,74.6 485.8,74.6 486.8,74.7 487.8,74.7 488.8,74.7 489.9,74.7 490.6,74.7 491.6,74.8 492.7,74.8 493.7,74.8 494.7,74.8 495.5,74.8 496.5,74.9 497.5,74.9 498.3,74.9 499.3,74.9 500.4,75.0 501.1,75.0 502.2,75.0 503.2,75.0 503.9,75.0 505.0,75.1 506.0,75.1 507.0,75.1 508.0,75.1 508.8,75.2 509.8,75.2 510.9,75.2 511.6,75.2 512.7,75.2 513.7,75.3 515.0,75.3 516.3,75.3 517.5,75.4 518.6,75.4 519.6,75.4 520.4,75.4 521.4,75.4 522.4,75.5 523.4,75.5 524.4,75.5 525.2,75.5 526.2,75.6 527.3,75.6 528.0,75.6 529.1,75.6 530.1,75.6 530.9,75.7 531.9,75.7 532.9,75.7 533.7,75.7 534.7,75.7 535.7,75.8 536.7,75.8 537.8,75.8 538.5,75.8 539.6,75.8 540.6,75.9 541.4,75.9 542.4,75.9 543.4,75.9 544.2,75.9 545.2,76.0 546.2,76.0 547.0,76.0 548.0,76.0 549.0,76.0 550.1,76.1 551.1,76.1 551.9,76.1 552.9,76.1 553.9,76.1 554.7,76.1 555.7,76.2 556.7,76.2 557.5,76.2 558.5,76.2 559.6,76.2 560.3,76.2 561.4,76.3 562.4,76.3 563.4,76.3 564.4,76.3 565.2,76.3 566.2,76.3 567.2,76.4 568.0,76.4 569.0,76.4 570.1,76.4 570.8,76.4 571.9,76.4 572.9,76.4 573.7,76.5 574.7,76.5 575.7,76.5 576.7,76.5 577.7,76.5 578.5,76.5 579.5,76.5 580.6,76.6 581.3,76.6 582.4,76.6 583.4,76.6 584.2,76.6 585.2,76.6 586.2,76.6 587.0,76.6 588.0,76.7 589.0,76.7 590.0,76.7 591.1,76.7 591.8,76.7 592.9,76.7 593.9,76.7 594.7,76.7 595.7,76.8 596.7,76.8 597.5,76.8 598.5,76.8 599.5,76.8 600.3,76.8 601.3,76.8 602.4,76.8 603.4,76.8 604.4,76.9 605.2,76.9 606.2,76.9 607.2,76.9 608.0,76.9 609.0,76.9 610.0,76.9 610.8,76.9 611.8,76.9 612.9,76.9 613.6,76.9 614.7,77.0 615.7,77.0 616.7,77.0 617.7,77.0 618.5,77.0 619.5,77.0 620.5,77.0 621.3,77.0 622.3,77.0 623.4,77.0 624.1,77.0 625.2,77.0 626.2,77.1 627.0,77.1 628.0,77.1 629.0,77.1 630.0,77.1 631.0,77.1 631.8,77.1 632.8,77.1 633.9,77.1 634.6,77.1 635.7,77.1 636.7,77.1 637.5,77.1 638.5,77.1 639.5,77.1 640.3,77.1 641.3,77.2 642.3,77.2 643.3,77.2 644.4,77.2 645.1,77.2 646.2,77.2 647.2,77.2 648.0,77.2 649.0,77.2 650.0,77.2 650.8,77.2 651.8,77.2 652.8,77.2 653.6,77.2 654.6,77.2 655.6,77.2 656.7,77.2 657.7,77.2 658.5,77.2 659.5,77.2 660.5,77.2 661.3,77.2 662.3,77.2 663.3,77.3 664.1,77.3 665.1,77.3 666.2,77.3 666.9,77.3 668.0,77.3 669.0,77.3 670.0,77.3" fill="none" stroke="#4CAF50" stroke-width="1.5" opacity="0.9"/>
  <polyline points="55.0,285.0 56.3,80.3 57.8,80.3 59.6,80.3 61.1,80.3 62.9,80.3 64.5,80.3 66.3,80.3 67.8,80.3 69.6,80.3 71.1,80.3 72.9,80.3 74.5,80.3 76.3,80.3 77.8,80.3 79.6,80.3 81.1,80.3 82.9,80.3 84.5,80.3 86.3,80.3 87.8,80.3 89.6,80.3 91.1,80.3 92.9,80.3 94.5,80.3 96.3,80.3 97.8,80.3 99.6,80.3 101.1,80.3 102.9,80.3 104.5,80.3 106.2,80.3 107.8,80.3 109.6,80.3 110.9,80.3 111.9,80.3 113.2,80.3 114.2,80.3 115.2,80.3 116.5,80.3 117.5,80.3 118.5,80.3 119.8,80.3 120.9,80.3 121.9,80.3 123.2,80.3 124.2,80.3 125.2,80.3 126.5,80.3 127.5,80.3 128.5,80.3 129.8,80.3 130.8,80.3 131.9,80.3 132.9,80.3 133.9,80.3 134.9,80.3 136.0,80.3 137.0,80.3 138.0,80.3 139.0,80.3 140.1,80.3 141.1,80.3 142.1,80.3 143.1,80.3 144.2,80.3 145.2,80.3 146.2,80.3 147.2,80.3 148.3,80.3 149.3,80.3 150.3,80.3 151.3,80.3 152.4,80.3 153.4,80.3 154.4,80.3 155.4,80.3 156.5,80.3 157.5,80.3 158.5,80.3 159.5,80.3 160.6,80.3 161.6,80.3 162.6,80.3 163.6,80.3 164.7,80.3 165.7,80.3 166.7,80.3 167.7,80.3 168.8,80.3 169.8,80.3 170.8,80.3 171.8,80.3 172.9,80.3 173.9,80.3 174.9,80.3 175.9,80.3 177.0,80.3 178.0,80.3 179.0,80.3 180.0,80.3 181.1,80.3 182.1,80.3 183.1,80.3 184.1,80.3 185.2,80.3 186.2,80.3 187.2,80.3 188.2,80.3 189.3,80.3 190.3,80.3 191.3,80.3 192.3,80.3 193.4,80.3 194.4,80.3 195.4,80.3 196.4,80.3 197.5,80.3 198.5,80.3 199.5,80.3 200.5,80.3 201.6,80.3 202.6,80.3 203.6,80.3 204.6,80.3 205.7,80.3 206.7,80.3 207.7,80.3 208.7,80.3 209.8,80.3 210.8,80.3 211.8,80.3 212.8,80.3 213.9,80.3 214.9,80.3 215.9,80.3 216.9,80.3 218.0,80.3 219.0,80.3 220.0,80.3 221.0,80.3 222.1,80.3 223.1,80.3 224.1,80.3 225.1,80.3 226.2,80.3 227.2,80.3 228.2,80.3 229.2,80.3 230.3,80.3 231.3,80.3 232.3,80.3 233.3,80.3 234.4,80.3 235.4,80.3 236.4,80.3 237.4,80.3 238.5,80.3 239.5,80.3 240.5,80.3 241.5,80.3 242.6,80.3 243.6,80.3 244.6,80.3 245.6,80.3 246.7,80.3 247.7,80.3 248.7,80.3 249.7,80.3 250.8,80.3 251.8,80.3 252.8,80.3 253.8,80.3 254.9,80.3 255.9,80.3 256.9,80.3 257.9,80.3 259.0,80.3 260.0,80.3 261.0,80.3 262.0,80.3 263.1,80.3 264.1,80.3 265.1,80.3 266.1,80.3 267.2,80.3 268.2,80.3 269.2,80.3 270.2,80.3 271.3,80.3 272.0,80.3 273.1,80.3 274.1,80.3 274.9,80.3 275.9,80.3 276.9,80.3 277.7,80.3 278.7,80.3 279.7,80.3 280.5,80.3 281.5,80.3 282.5,80.3 283.6,80.3 284.6,80.3 285.4,80.3 286.4,80.3 287.4,80.3 288.2,80.3 289.2,80.3 290.2,80.3 291.0,80.3 292.0,80.3 293.1,80.3 293.8,80.3 294.8,80.3 295.9,80.3 296.9,80.3 297.9,80.3 298.7,80.3 299.7,80.3 300.7,80.3 301.5,80.3 302.5,80.3 303.6,80.3 304.3,80.3 305.4,80.3 306.4,80.3 307.1,80.3 308.2,80.3 309.2,80.3 310.2,80.3 311.2,80.3 312.0,94.4 312.8,67.9 313.8,66.7 314.8,75.1 315.6,78.9 316.6,79.9 317.7,79.0 318.4,78.3 319.4,77.8 320.5,77.6 321.5,77.5 322.5,77.4 323.3,77.3 324.3,77.2 325.3,77.1 326.1,77.1 327.1,77.0 328.2,76.9 328.9,76.9 330.0,76.9 331.0,76.8 331.8,76.8 332.8,76.8 333.8,76.8 334.8,76.8 335.8,76.8 336.6,76.7 337.6,76.7 338.7,76.7 339.4,76.7 340.5,76.7 341.5,76.7 342.3,76.7 343.3,76.7 344.3,76.7 345.1,76.7 346.1,76.7 347.1,76.7 348.1,76.7 349.2,76.7 349.9,76.7 351.0,76.6 352.0,76.6 352.8,76.6 353.8,76.6 354.8,76.6 355.6,76.6 356.6,76.5 357.6,76.5 358.4,76.5 359.4,76.5 360.4,76.5 361.5,76.4 362.5,76.4 363.3,76.4 364.3,76.3 365.3,76.3 366.1,76.3 367.1,76.2 368.1,76.2 368.9,76.2 369.9,76.1 371.0,76.1 371.7,76.1 372.7,76.0 373.8,76.0 374.8,75.9 375.8,75.9 376.6,75.8 377.6,75.8 378.6,75.7 379.4,75.7 380.4,75.6 381.5,75.6 382.2,75.5 383.3,75.4 384.3,75.4 385.1,75.3 386.1,75.3 387.1,75.2 388.1,75.1 389.1,75.1 389.9,75.0 390.9,74.9 392.0,74.9 392.7,74.8 393.8,74.7 394.8,74.6 395.6,74.6 396.6,74.5 397.6,74.4 398.4,74.4 399.4,74.3 400.4,74.2 401.4,74.1 402.5,74.0 403.2,74.0 404.3,73.9 405.3,73.8 406.1,73.7 407.1,73.6 408.1,73.5 408.9,73.4 409.9,73.3 410.9,73.2 411.7,73.2 412.7,73.1 413.7,73.0 414.5,58.8 415.5,88.2 416.6,84.5 417.3,78.0 418.4,73.4 419.4,73.1 420.2,73.7 421.2,74.5 422.2,74.8 423.0,74.9 424.0,74.9 425.0,74.9 426.0,74.9 427.1,74.9 427.8,74.9 428.9,74.9 429.9,74.9 430.7,74.9 431.7,74.9 432.7,74.9 433.5,74.9 434.5,74.8 435.5,74.8 436.3,74.8 437.3,74.7 438.3,74.7 439.4,74.7 440.4,74.6 441.2,74.6 442.2,74.6 443.2,74.5 444.0,74.5 445.0,74.5 446.0,74.5 446.8,74.5 447.8,74.4 448.9,74.4 449.6,74.4 450.6,74.4 451.7,74.4 452.7,74.4 453.7,74.3 454.5,74.3 455.5,74.3 456.5,74.3 457.3,74.3 458.3,74.3 459.4,74.3 460.1,74.3 461.2,74.3 462.2,74.3 462.9,74.3 464.0,74.3 465.0,74.3 466.0,74.3 467.0,74.3 467.8,74.3 468.8,74.4 469.9,74.4 470.6,74.4 471.7,74.4 472.7,74.4 473.5,74.4 474.5,74.4 475.5,74.4 476.3,74.5 477.3,74.5 478.3,74.5 479.3,74.5 480.4,74.5 481.1,74.5 482.4,74.6 483.4,74.6 484.5,74.6 485.8,74.6 486.8,74.7 487.8,74.7 488.8,74.7 489.9,74.7 490.6,74.7 491.6,74.8 492.7,74.8 493.7,74.8 494.7,74.8 495.5,74.8 496.5,74.9 497.5,74.9 498.3,74.9 499.3,74.9 500.4,75.0 501.1,75.0 502.2,75.0 503.2,75.0 503.9,75.0 505.0,75.1 506.0,75.1 507.0,75.1 508.0,75.1 508.8,75.2 509.8,75.2 510.9,75.2 511.6,75.2 512.7,75.2 513.7,75.3 515.0,75.3 516.3,75.3 517.5,75.4 518.6,75.4 519.6,75.4 520.4,75.4 521.4,75.4 522.4,75.5 523.4,75.5 524.4,75.5 525.2,75.5 526.2,75.6 527.3,75.6 528.0,75.6 529.1,75.6 530.1,75.6 530.9,75.7 531.9,75.7 532.9,75.7 533.7,75.7 534.7,75.7 535.7,75.8 536.7,75.8 537.8,75.8 538.5,75.8 539.6,75.8 540.6,75.9 541.4,75.9 542.4,75.9 543.4,75.9 544.2,75.9 545.2,76.0 546.2,76.0 547.0,76.0 548.0,76.0 549.0,76.0 550.1,76.1 551.1,76.1 551.9,76.1 552.9,76.1 553.9,76.1 554.7,76.1 555.7,76.2 556.7,76.2 557.5,76.2 558.5,76.2 559.6,76.2 560.3,76.2 561.4,76.3 562.4,76.3 563.4,76.3 564.4,76.3 565.2,76.3 566.2,76.3 567.2,76.4 568.0,76.4 569.0,76.4 570.1,76.4 570.8,76.4 571.9,76.4 572.9,76.4 573.7,76.5 574.7,76.5 575.7,76.5 576.7,76.5 577.7,76.5 578.5,76.5 579.5,76.5 580.6,76.6 581.3,76.6 582.4,76.6 583.4,76.6 584.2,76.6 585.2,76.6 586.2,76.6 587.0,76.6 588.0,76.7 589.0,76.7 590.0,76.7 591.1,76.7 591.8,76.7 592.9,76.7 593.9,76.7 594.7,76.7 595.7,76.8 596.7,76.8 597.5,76.8 598.5,76.8 599.5,76.8 600.3,76.8 601.3,76.8 602.4,76.8 603.4,76.8 604.4,76.9 605.2,76.9 606.2,76.9 607.2,76.9 608.0,76.9 609.0,76.9 610.0,76.9 610.8,76.9 611.8,76.9 612.9,76.9 613.6,76.9 614.7,77.0 615.7,77.0 616.7,77.0 617.7,77.0 618.5,77.0 619.5,77.0 620.5,77.0 621.3,77.0 622.3,77.0 623.4,77.0 624.1,77.0 625.2,77.0 626.2,77.1 627.0,77.1 628.0,77.1 629.0,77.1 630.0,77.1 631.0,77.1 631.8,77.1 632.8,77.1 633.9,77.1 634.6,77.1 635.7,77.1 636.7,77.1 637.5,77.1 638.5,77.1 639.5,77.1 640.3,77.1 641.3,77.2 642.3,77.2 643.3,77.2 644.4,77.2 645.1,77.2 646.2,77.2 647.2,77.2 648.0,77.2 649.0,77.2 650.0,77.2 650.8,77.2 651.8,77.2 652.8,77.2 653.6,77.2 654.6,77.2 655.6,77.2 656.7,77.2 657.7,77.2 658.5,77.2 659.5,77.2 660.5,77.2 661.3,77.2 662.3,77.2 663.3,77.3 664.1,77.3 665.1,77.3 666.2,77.3 666.9,77.3 668.0,77.3 669.0,77.3 670.0,77.3" fill="none" stroke="#FF9800" stroke-width="1.5" opacity="0.9"/>
  <line x1="610" y1="30" x2="625" y2="30" stroke="#2196F3" stroke-width="2"/>
  <text x="630" y="34" class="tick">f1 (FL)</text>
  <line x1="610" y1="46" x2="625" y2="46" stroke="#F44336" stroke-width="2"/>
  <text x="630" y="50" class="tick">f2 (FR)</text>
  <line x1="610" y1="62" x2="625" y2="62" stroke="#4CAF50" stroke-width="2"/>
  <text x="630" y="66" class="tick">f3 (RL)</text>
  <line x1="610" y1="78" x2="625" y2="78" stroke="#FF9800" stroke-width="2"/>
  <text x="630" y="82" class="tick">f4 (RR)</text>
</svg>
