<svg xmlns="http://www.w3.org/2000/svg" viewBox="0 0 700 350" width="700" height="350">
  <style>
    text { font-family: monospace; font-size: 11px; fill: #333; }
    .title { font-size: 13px; font-weight: bold; }
    .axis-label { font-size: 11px; }
    .grid { stroke: #e0e0e0; stroke-width: 0.5; }
    .tick { font-size: 9px; fill: #666; }
  </style>
  <rect width="700" height="350" fill="white"/>
  <text x="350" y="13" text-anchor="middle" class="title">Roll Step -- Roll Angle</text>
  <line x1="55" y1="305.0" x2="670" y2="305.0" class="grid"/>
  <text x="50" y="308.0" text-anchor="end" class="tick">-1.75</text>
  <line x1="55" y1="247.0" x2="670" y2="247.0" class="grid"/>
  <text x="50" y="250.0" text-anchor="end" class="tick">0.931</text>
  <line x1="55" y1="189.0" x2="670" y2="189.0" class="grid"/>
  <text x="50" y="192.0" text-anchor="end" class="tick">3.61</text>
  <line x1="55" y1="130.99999999999997" x2="670" y2="130.99999999999997" class="grid"/>
  <text x="50" y="133.99999999999997" text-anchor="end" class="tick">6.29</text>
  <line x1="55" y1="73.0" x2="670" y2="73.0" class="grid"/>
  <text x="50" y="76.0" text-anchor="end" class="tick">8.97</text>
  <line x1="55" y1="15.000000000000057" x2="670" y2="15.000000000000057" class="grid"/>
  <text x="50" y="18.000000000000057" text-anchor="end" class="tick">11.7</text>
  <line x1="55.0" y1="15" x2="55.0" y2="305" class="grid"/>
  <text x="55.0" y="319" text-anchor="middle" class="tick">0</text>
  <line x1="157.5" y1="15" x2="157.5" y2="305" class="grid"/>
  <text x="157.5" y="319" text-anchor="middle" class="tick">2</text>
  <line x1="260.0" y1="15" x2="260.0" y2="305" class="grid"/>
  <text x="260.0" y="319" text-anchor="middle" class="tick">4</text>
  <line x1="362.5" y1="15" x2="362.5" y2="305" class="grid"/>
  <text x="362.5" y="319" text-anchor="middle" class="tick">6</text>
  <line x1="465.0" y1="15" x2="465.0" y2="305" class="grid"/>
  <text x="465.0" y="319" text-anchor="middle" class="tick">8</text>
  <line x1="567.5" y1="15" x2="567.5" y2="305" class="grid"/>
  <text x="567.5" y="319" text-anchor="middle" class="tick">10</text>
  <line x1="670.0" y1="15" x2="670.0" y2="305" class="grid"/>
  <text x="670.0" y="319" text-anchor="middle" class="tick">12</text>
  <line x1="55" y1="15" x2="55" y2="305" stroke="#333" stroke-width="1"/>
  <line x1="55" y1="305" x2="670" y2="305" stroke="#333" stroke-width="1"/>
  <text x="362" y="345" text-anchor="middle" class="axis-label">time [s]</text>
  <text x="12" y="160" text-anchor="middle" class="axis-label" transform="rotate(-90,12,160)">phi [deg]</text>
  <line x1="55" y1="50.76137601742269" x2="670" y2="50.76137601742269" stroke="#888" stroke-width="1" stroke-dasharray="6,3"/>
  <text x="672" y="53.76137601742269" class="tick" fill="#888">ref=10 deg</text>
  <line x1="55" y1="267.1437567903007" x2="670" y2="267.1437567903007" stroke="#aaa" stroke-width="1" stroke-dasharray="6,3"/>
  <text x="672" y="270.1437567903007" class="tick" fill="#aaa">ref=0 deg</text>
  <polyline points="55.0,267.1 56.3,267.1 57.8,267.1 59.6,267.1 61.1,267.1 62.9,267.1 64.5,267.1 66.3,267.1 67.8,267.1 69.6,267.1 71.1,267.1 72.9,267.1 74.5,267.1 76.3,267.1 77.8,267.1 79.6,267.1 81.1,267.1 82.9,267.1 84.5,267.1 86.3,267.1 87.8,267.1 89.6,267.1 91.1,267.1 92.9,267.1 94.5,267.1 96.3,267.1 97.8,267.1 99.6,267.1 101.1,267.1 102.9,267.1 104.5,267.1 106.2,267.1 107.8,267.1 109.6,267.1 110.9,267.1 111.9,267.1 113.2,267.1 114.2,267.1 115.2,267.1 116.5,267.1 117.5,267.1 118.5,267.1 119.8,267.1 120.9,267.1 121.9,267.1 123.2,267.1 124.2,267.1 125.2,267.1 126.5,267.1 127.5,267.1 128.5,267.1 129.8,267.1 130.8,267.1 131.9,267.1 132.9,267.1 133.9,267.1 134.9,267.1 136.0,267.1 137.0,267.1 138.0,267.1 139.0,267.1 140.1,267.1 141.1,267.1 142.1,267.1 143.1,267.1 144.2,267.1 145.2,267.1 146.2,267.1 147.2,267.1 148.3,267.1 149.3,267.1 150.3,267.1 151.3,267.1 152.4,267.1 153.4,267.1 154.4,267.1 155.4,267.1 156.5,267.1 157.5,267.1 158.5,267.1 159.5,267.1 160.6,267.1 161.6,267.1 162.6,267.1 163.6,267.1 164.7,267.1 165.7,267.1 166.7,267.1 167.7,267.1 168.8,267.1 169.8,267.1 170.8,267.1 171.8,267.1 172.9,267.1 173.9,267.1 174.9,267.1 175.9,267.1 177.0,267.1 178.0,267.1 179.0,267.1 180.0,267.1 181.1,267.1 182.1,267.1 183.1,267.1 184.1,267.1 185.2,267.1 186.2,267.1 187.2,267.1 188.2,267.1 189.3,267.1 190.3,267.1 191.3,267.1 192.3,267.1 193.4,267.1 194.4,267.1 195.4,267.1 196.4,267.1 197.5,267.1 198.5,267.1 199.5,267.1 200.5,267.1 201.6,267.1 202.6,267.1 203.6,267.1 204.6,267.1 205.7,267.1 206.7,267.1 207.7,267.1 208.7,267.1 209.8,267.1 210.8,267.1 211.8,267.1 212.8,267.1 213.9,267.1 214.9,267.1 215.9,267.1 216.9,267.1 218.0,267.1 219.0,267.1 220.0,267.1 221.0,267.1 222.1,267.1 223.1,267.1 224.1,267.1 225.1,267.1 226.2,267.1 227.2,267.1 228.2,267.1 229.2,267.1 230.3,267.1 231.3,267.1 232.3,267.1 233.3,267.1 234.4,267.1 235.4,267.1 236.4,267.1 237.4,267.1 238.5,267.1 239.5,267.1 240.5,267.1 241.5,267.1 242.6,267.1 243.6,267.1 244.6,267.1 245.6,267.1 246.7,267.1 247.7,267.1 248.7,267.1 249.7,267.1 250.8,267.1 251.8,267.1 252.8,267.1 253.8,267.1 254.9,267.1 255.9,267.1 256.9,267.1 257.9,267.1 259.0,267.1 260.0,267.1 261.0,267.1 262.0,267.1 263.1,267.1 264.1,267.1 265.1,267.1 266.1,267.1 267.2,267.1 268.2,267.1 269.2,267.1 270.2,267.1 271.3,267.1 272.0,267.1 273.1,267.1 274.1,267.1 274.9,267.1 275.9,267.1 276.9,267.1 277.7,267.1 278.7,267.1 279.7,267.1 280.5,267.1 281.5,267.1 282.5,267.1 283.6,267.1 284.6,267.1 285.4,267.1 286.4,267.1 287.4,267.1 288.2,267.1 289.2,267.1 290.2,267.1 291.0,267.1 292.0,267.1 293.1,267.1 293.8,267.1 294.8,267.1 295.9,267.1 296.9,267.1 297.9,267.1 298.7,267.1 299.7,267.1 300.7,267.1 301.5,267.1 302.5,267.1 303.6,267.1 304.3,267.1 305.4,267.1 306.4,267.1 307.1,267.1 308.2,267.1 309.2,267.1 310.2,267.1 311.2,267.1 312.0,216.8 312.8,123.9 313.8,48.7 314.8,35.4 315.6,42.0 316.6,51.1 317.7,54.3 318.4,54.3 319.4,53.4 320.5,52.9 321.5,52.8 322.5,52.9 323.3,52.9 324.3,52.9 325.3,52.9 326.1,52.9 327.1,52.9 328.2,52.9 328.9,52.9 330.0,52.9 331.0,52.9 331.8,52.9 332.8,52.9 333.8,52.9 334.8,52.9 335.8,52.9 336.6,52.9 337.6,52.9 338.7,52.9 339.4,52.9 340.5,52.9 341.5,52.9 342.3,52.9 343.3,52.9 344.3,52.9 345.1,52.9 346.1,52.9 347.1,52.9 348.1,52.9 349.2,52.9 349.9,52.9 351.0,52.9 352.0,52.9 352.8,52.9 353.8,52.9 354.8,52.9 355.6,52.9 356.6,52.9 357.6,52.9 358.4,52.9 359.4,52.9 360.4,52.9 361.5,52.9 362.5,52.9 363.3,52.9 364.3,52.9 365.3,52.9 366.1,52.9 367.1,52.9 368.1,52.9 368.9,52.9 369.9,52.9 371.0,52.9 371.7,52.9 372.7,52.9 373.8,52.9 374.8,52.9 375.8,52.9 376.6,52.9 377.6,52.9 378.6,52.9 379.4,52.9 380.4,52.9 381.5,52.9 382.2,52.9 383.3,52.9 384.3,52.9 385.1,52.9 386.1,52.9 387.1,52.9 388.1,52.9 389.1,52.9 389.9,52.9 390.9,52.9 392.0,52.9 392.7,52.9 393.8,52.9 394.8,52.9 395.6,52.9 396.6,52.9 397.6,52.9 398.4,52.9 399.4,52.9 400.4,52.9 401.4,52.9 402.5,52.9 403.2,52.9 404.3,52.9 405.3,52.9 406.1,52.9 407.1,52.9 408.1,52.9 408.9,52.9 409.9,52.9 410.9,52.9 411.7,52.9 412.7,52.9 413.7,52.9 414.5,103.3 415.5,222.0 416.6,279.0 417.3,284.7 418.4,275.4 419.4,267.7 420.2,265.7 421.2,266.0 422.2,266.9 423.0,267.2 424.0,267.3 425.0,267.2 426.0,267.1 427.1,267.1 427.8,267.1 428.9,267.1 429.9,267.1 430.7,267.1 431.7,267.1 432.7,267.1 433.5,267.1 434.5,267.1 435.5,267.1 436.3,267.1 437.3,267.1 438.3,267.1 439.4,267.1 440.4,267.1 441.2,267.1 442.2,267.1 443.2,267.1 444.0,267.1 445.0,267.1 446.0,267.1 446.8,267.1 447.8,267.1 448.9,267.1 449.6,267.1 450.6,267.1 451.7,267.1 452.7,267.1 453.7,267.1 454.5,267.1 455.5,267.1 456.5,267.1 457.3,267.1 458.3,267.1 459.4,267.1 460.1,267.1 461.2,267.1 462.2,267.1 462.9,267.1 464.0,267.1 465.0,267.1 466.0,267.1 467.0,267.1 467.8,267.1 468.8,267.1 469.9,267.1 470.6,267.1 471.7,267.1 472.7,267.1 473.5,267.1 474.5,267.1 475.5,267.1 476.3,267.1 477.3,267.1 478.3,267.1 479.3,267.1 480.4,267.1 481.1,267.1 482.4,267.1 483.4,267.1 484.5,267.1 485.8,267.1 486.8,267.1 487.8,267.1 488.8,267.1 489.9,267.1 490.6,267.1 491.6,267.1 492.7,267.1 493.7,267.1 494.7,267.1 495.5,267.1 496.5,267.1 497.5,267.1 498.3,267.1 499.3,267.1 500.4,267.1 501.1,267.1 502.2,267.1 503.2,267.1 503.9,267.1 505.0,267.1 506.0,267.1 507.0,267.1 508.0,267.1 508.8,267.1 509.8,267.1 510.9,267.1 511.6,267.1 512.7,267.1 513.7,267.1 515.0,267.1 516.3,267.1 517.5,267.1 518.6,267.1 519.6,267.1 520.4,267.1 521.4,267.1 522.4,267.1 523.4,267.1 524.4,267.1 525.2,267.1 526.2,267.1 527.3,267.1 528.0,267.1 529.1,267.1 530.1,267.1 530.9,267.1 531.9,267.1 532.9,267.1 533.7,267.1 534.7,267.1 535.7,267.1 536.7,267.1 537.8,267.1 538.5,267.1 539.6,267.1 540.6,267.1 541.4,267.1 542.4,267.1 543.4,267.1 544.2,267.1 545.2,267.1 546.2,267.1 547.0,267.1 548.0,267.1 549.0,267.1 550.1,267.1 551.1,267.1 551.9,267.1 552.9,267.1 553.9,267.1 554.7,267.1 555.7,267.1 556.7,267.1 557.5,267.1 558.5,267.1 559.6,267.1 560.3,267.1 561.4,267.1 562.4,267.1 563.4,267.1 564.4,267.1 565.2,267.1 566.2,267.1 567.2,267.1 568.0,267.1 569.0,267.1 570.1,267.1 570.8,267.1 571.9,267.1 572.9,267.1 573.7,267.1 574.7,267.1 575.7,267.1 576.7,267.1 577.7,267.1 578.5,267.1 579.5,267.1 580.6,267.1 581.3,267.1 582.4,267.1 583.4,267.1 584.2,267.1 585.2,267.1 586.2,267.1 587.0,267.1 588.0,267.1 589.0,267.1 590.0,267.1 591.1,267.1 591.8,267.1 592.9,267.1 593.9,267.1 594.7,267.1 595.7,267.1 596.7,267.1 597.5,267.1 598.5,267.1 599.5,267.1 600.3,267.1 601.3,267.1 602.4,267.1 603.4,267.1 604.4,267.1 605.2,267.1 606.2,267.1 607.2,267.1 608.0,267.1 609.0,267.1 610.0,267.1 610.8,267.1 611.8,267.1 612.9,267.1 613.6,267.1 614.7,267.1 615.7,267.1 616.7,267.1 617.7,267.1 618.5,267.1 619.5,267.1 620.5,267.1 621.3,267.1 622.3,267.1 623.4,267.1 624.1,267.1 625.2,267.1 626.2,267.1 627.0,267.1 628.0,267.1 629.0,267.1 630.0,267.1 631.0,267.1 631.8,267.1 632.8,267.1 633.9,267.1 634.6,267.1 635.7,267.1 636.7,267.1 637.5,267.1 638.5,267.1 639.5,267.1 640.3,267.1 641.3,267.1 642.3,267.1 643.3,267.1 644.4,267.1 645.1,267.1 646.2,267.1 647.2,267.1 648.0,267.1 649.0,267.1 650.0,267.1 650.8,267.1 651.8,267.1 652.8,267.1 653.6,267.1 654.6,267.1 655.6,267.1 656.7,267.1 657.7,267.1 658.5,267.1 659.5,267.1 660.5,267.1 661.3,267.1 662.3,267.1 663.3,267.1 664.1,267.1 665.1,267.1 666.2,267.1 666.9,267.1 668.0,267.1 669.0,267.1 670.0,267.1" fill="none" stroke="#2196F3" stroke-width="1.5" opacity="0.9"/>
  <polyline points="55.0,267.1 55.8,267.0 57.0,267.0 58.3,267.1 59.6,267.1 60.9,267.1 62.2,267.1 63.5,267.1 64.7,267.1 66.0,267.1 67.3,267.1 68.6,267.1 69.9,267.1 71.1,267.1 72.4,267.1 73.7,267.1 75.0,267.1 76.3,267.1 77.6,267.1 78.8,267.1 80.1,267.1 81.4,267.1 82.7,267.1 84.0,267.1 85.2,267.1 86.5,267.1 87.8,267.1 89.1,267.1 90.4,267.1 91.6,267.1 92.9,267.1 94.2,267.1 95.5,267.1 96.8,267.1 98.1,267.1 99.3,267.1 100.6,267.1 101.9,267.1 103.2,267.1 104.5,267.1 105.7,267.1 107.0,267.1 108.3,267.1 109.6,267.1 110.6,267.1 111.6,267.1 112.4,267.1 113.2,267.1 114.2,267.1 115.0,267.1 115.7,267.1 116.8,267.1 117.5,267.1 118.3,267.1 119.3,267.1 120.1,267.1 120.9,267.1 121.9,267.1 122.6,267.1 123.4,267.1 124.4,267.1 125.2,267.1 126.0,267.1 127.0,267.1 127.8,267.1 128.5,267.1 129.6,267.1 130.3,267.1 131.1,267.1 131.9,267.1 132.6,267.1 133.4,267.1 134.2,267.1 135.0,267.1 136.0,267.1 136.7,267.1 137.5,267.1 138.3,267.1 139.0,267.1 139.8,267.1 140.6,267.1 141.4,267.1 142.1,267.1 142.9,267.1 143.7,267.1 144.4,267.1 145.2,267.1 146.2,267.1 147.0,267.1 147.8,267.1 148.5,267.1 149.3,267.1 150.1,267.1 150.8,267.1 151.6,267.1 152.4,267.1 153.1,267.1 153.9,267.1 154.7,267.1 155.5,267.1 156.5,267.1 157.2,267.1 158.0,267.1 158.8,267.1 159.5,267.1 160.3,267.1 161.1,267.1 161.9,267.1 162.6,267.1 163.4,267.1 164.2,267.1 164.9,267.1 165.7,267.1 166.7,267.1 167.5,267.1 168.3,267.1 169.0,267.1 169.8,267.1 170.6,267.1 171.3,267.1 172.1,267.1 172.9,267.1 173.6,267.1 174.4,267.1 175.2,267.1 176.0,267.1 177.0,267.1 177.7,267.1 178.5,267.1 179.3,267.1 180.0,267.1 180.8,267.1 181.6,267.1 182.4,267.1 183.1,267.1 183.9,267.1 184.7,267.1 185.4,267.1 186.2,267.1 187.2,267.1 188.0,267.1 188.8,267.1 189.5,267.1 190.3,267.1 191.1,267.1 191.8,267.1 192.6,267.1 193.4,267.1 194.1,267.1 194.9,267.1 195.7,267.1 196.5,267.1 197.5,267.1 198.2,267.1 199.0,267.1 199.8,267.1 200.5,267.1 201.3,267.1 202.1,267.1 202.9,267.1 203.6,267.1 204.4,267.1 205.2,267.1 205.9,267.1 206.7,267.1 207.7,267.1 208.5,267.1 209.3,267.1 210.0,267.1 210.8,267.1 211.6,267.1 212.3,267.1 213.1,267.1 213.9,267.1 214.6,267.1 215.4,267.1 216.2,267.1 217.0,267.1 218.0,267.1 218.7,267.1 219.5,267.1 220.3,267.1 221.0,267.1 221.8,267.1 222.6,267.1 223.4,267.1 224.1,267.1 224.9,267.1 225.7,267.1 226.4,267.1 227.2,267.1 228.2,267.1 229.0,267.1 229.8,267.1 230.5,267.1 231.3,267.1 232.1,267.1 232.8,267.1 233.6,267.1 234.4,267.1 235.1,267.1 235.9,267.1 236.7,267.1 237.5,267.1 238.5,267.1 239.2,267.1 240.0,267.1 240.8,267.1 241.5,267.1 242.3,267.1 243.1,267.1 243.9,267.1 244.6,267.1 245.4,267.1 246.2,267.1 246.9,267.1 247.7,267.1 248.7,267.1 249.5,267.1 250.3,267.1 251.0,267.1 251.8,267.1 252.6,267.1 253.3,267.1 254.1,267.1 254.9,267.1 255.6,267.1 256.4,267.1 257.2,267.1 258.0,267.1 259.0,267.1 259.7,267.1 260.5,267.1 261.3,267.1 262.0,267.1 262.8,267.1 263.6,267.1 264.4,267.1 265.1,267.1 265.9,267.1 266.7,267.1 267.4,267.1 268.2,267.1 269.2,267.1 270.0,267.1 270.5,267.1 271.3,267.1 272.0,267.1 272.8,267.1 273.6,267.1 274.3,267.1 275.1,267.1 275.6,267.1 276.4,267.1 277.2,267.1 277.9,267.1 278.7,267.1 279.5,267.1 280.2,267.1 280.8,267.1 281.5,267.1 282.3,267.1 283.1,267.1 283.8,267.1 284.6,267.1 285.4,267.1 285.9,267.1 286.6,267.1 287.4,267.1 288.2,267.1 289.0,267.1 289.7,267.1 290.5,267.1 291.0,267.1 291.8,267.1 292.5,267.1 293.3,267.1 294.1,267.1 294.8,267.1 295.6,267.1 296.1,267.1 296.9,267.1 297.7,267.1 298.4,267.1 299.2,267.1 300.0,267.1 300.7,267.1 301.3,267.1 302.0,267.1 302.8,267.1 303.6,267.1 304.3,267.1 305.1,267.1 305.9,267.1 306.4,267.1 307.1,267.1 307.9,267.1 308.7,267.1 309.5,267.1 310.2,267.1 311.0,267.1 311.5,261.2 312.3,185.4 313.0,98.0 313.6,60.4 314.3,36.7 315.1,36.9 315.9,44.6 316.6,51.0 317.4,53.9 318.2,54.4 318.7,54.0 319.4,53.3 320.2,52.9 321.0,52.7 321.8,52.8 322.5,52.8 323.3,52.8 323.8,52.9 324.6,52.9 325.3,52.9 326.1,52.9 326.9,52.9 327.6,52.9 328.4,52.9 328.9,52.9 329.7,52.9 330.5,52.9 331.2,52.9 332.0,52.9 332.8,52.8 333.5,52.9 334.1,52.9 334.8,52.9 335.6,52.9 336.4,52.9 337.1,52.9 337.9,52.9 338.7,52.9 339.2,52.9 339.9,52.9 340.7,52.9 341.5,52.9 342.3,52.9 343.0,52.9 343.8,52.9 344.3,52.9 345.1,52.9 345.8,52.9 346.6,52.9 347.4,52.9 348.1,52.9 348.9,52.9 349.4,52.9 350.2,52.9 351.0,52.9 351.7,52.9 352.5,52.9 353.3,52.9 354.0,52.9 354.6,52.9 355.3,52.9 356.1,52.9 356.9,52.9 357.6,52.9 358.4,52.9 359.2,52.9 359.7,52.9 360.4,52.9 361.2,52.9 362.0,52.9 362.8,52.9 363.5,52.9 364.3,52.9 364.8,52.9 365.6,52.9 366.3,52.9 367.1,52.9 367.9,52.9 368.6,52.9 369.4,52.9 369.9,52.9 370.7,52.9 371.5,52.9 372.2,52.9 373.0,52.9 373.8,52.9 374.5,52.9 375.1,52.8 375.8,52.9 376.6,52.9 377.4,52.9 378.1,52.9 378.9,52.9 379.7,52.9 380.2,52.9 380.9,52.8 381.7,52.9 382.5,52.9 383.3,52.9 384.0,52.9 384.8,52.9 385.3,52.9 386.1,52.9 386.8,52.9 387.6,52.9 388.4,52.9 389.1,52.9 389.9,52.9 390.4,52.9 391.2,52.9 392.0,52.9 392.7,52.9 393.5,52.9 394.3,52.9 395.0,52.9 395.6,52.9 396.3,52.9 397.1,52.9 397.9,52.9 398.6,52.9 399.4,52.9 400.2,52.9 400.7,52.9 401.4,52.9 402.2,52.9 403.0,52.9 403.8,52.9 404.5,52.9 405.3,52.9 405.8,52.9 406.6,52.9 407.3,52.9 408.1,52.9 408.9,52.9 409.6,52.9 410.4,52.9 410.9,52.9 411.7,52.9 412.5,52.9 413.2,52.9 413.8,52.9 414.5,103.2 415.3,196.1 416.1,259.5 416.8,283.3 417.6,283.1 418.1,278.0 418.9,270.7 419.6,266.6 420.4,265.6 421.2,265.9 421.9,266.6 422.7,267.1 423.2,267.2 424.0,267.2 424.8,267.1 425.5,267.1 426.3,267.1 427.1,267.1 427.8,267.1 428.4,267.1 429.1,267.1 429.9,267.1 430.7,267.1 431.4,267.1 432.2,267.1 433.0,267.1 433.5,267.1 434.2,267.1 435.0,267.1 435.8,267.1 436.6,267.1 437.3,267.1 438.1,267.1 438.6,267.1 439.4,267.1 440.1,267.1 440.9,267.1 441.7,267.1 442.4,267.1 443.2,267.1 443.7,267.1 444.5,267.1 445.3,267.1 446.0,267.1 446.8,267.1 447.6,267.1 448.3,267.1 448.9,267.1 449.6,267.1 450.4,267.1 451.2,267.1 451.9,267.1 452.7,267.1 453.5,267.1 454.0,267.1 454.7,267.1 455.5,267.1 456.3,267.1 457.1,267.1 457.8,267.1 458.6,267.1 459.1,267.1 459.9,267.1 460.6,267.1 461.4,267.1 462.2,267.1 462.9,267.1 463.7,267.1 464.2,267.1 465.0,267.1 465.8,267.1 466.5,267.1 467.3,267.1 468.1,267.1 468.8,267.1 469.4,267.1 470.1,267.1 470.9,267.1 471.7,267.1 472.4,267.1 473.2,267.1 474.0,267.1 474.5,267.1 475.2,267.1 476.0,267.1 476.8,267.1 477.6,267.1 478.3,267.1 479.1,267.1 479.6,267.1 480.4,267.1 481.1,267.1 482.2,267.1 482.9,267.1 483.7,267.1 484.7,267.1 485.5,267.1 486.3,267.1 487.3,267.1 488.1,267.1 488.8,267.1 489.6,267.1 490.4,267.1 490.9,267.1 491.6,267.1 492.4,267.1 493.2,267.1 494.0,267.1 494.7,267.1 495.5,267.1 496.0,267.1 496.8,267.1 497.5,267.1 498.3,267.1 499.1,267.1 499.8,267.1 500.6,267.1 501.1,267.1 501.9,267.1 502.7,267.1 503.4,267.1 504.2,267.1 505.0,267.1 505.7,267.1 506.3,267.1 507.0,267.1 507.8,267.1 508.6,267.1 509.3,267.1 510.1,267.1 510.9,267.1 511.4,267.1 512.1,267.1 512.9,267.1 513.7,267.1 514.7,267.1 515.7,267.1 516.8,267.1 517.8,267.1 518.6,267.1 519.3,267.1 520.1,267.1 520.6,267.1 521.4,267.1 522.1,267.1 522.9,267.1 523.7,267.1 524.4,267.1 525.2,267.1 525.7,267.1 526.5,267.1 527.3,267.1 528.0,267.1 528.8,267.1 529.6,267.1 530.3,267.1 530.9,267.1 531.6,267.1 532.4,267.1 533.2,267.1 533.9,267.1 534.7,267.1 535.5,267.1 536.0,267.1 536.8,267.1 537.5,267.1 538.3,267.1 539.1,267.1 539.8,267.1 540.6,267.1 541.1,267.1 541.9,267.1 542.6,267.1 543.4,267.1 544.2,267.1 544.9,267.1 545.7,267.1 546.2,267.1 547.0,267.1 547.8,267.1 548.5,267.1 549.3,267.1" fill="none" stroke="#F44336" stroke-width="1.5" opacity="0.9"/>
  <line x1="70" y1="30" x2="85" y2="30" stroke="#2196F3" stroke-width="2"/>
  <text x="90" y="34" class="tick">phi ideal</text>
  <line x1="70" y1="46" x2="85" y2="46" stroke="#F44336" stroke-width="2"/>
  <text x="90" y="50" class="tick">phi noisy</text>
</svg>
