<svg xmlns="http://www.w3.org/2000/svg" viewBox="0 0 700 350" width="700" height="350">
  <style>
    text { font-family: monospace; font-size: 11px; fill: #333; }
    .title { font-size: 13px; font-weight: bold; }
    .axis-label { font-size: 11px; }
    .grid { stroke: #e0e0e0; stroke-width: 0.5; }
    .tick { font-size: 9px; fill: #666; }
  </style>
  <rect width="700" height="350" fill="white"/>
  <text x="350" y="13" text-anchor="middle" class="title">Roll Step -- Altitude</text>
  <line x1="55" y1="305.0" x2="670" y2="305.0" class="grid"/>
  <text x="50" y="308.0" text-anchor="end" class="tick">0.4</text>
  <line x1="55" y1="247.0" x2="670" y2="247.0" class="grid"/>
  <text x="50" y="250.0" text-anchor="end" class="tick">0.533</text>
  <line x1="55" y1="189.00000000000003" x2="670" y2="189.00000000000003" class="grid"/>
  <text x="50" y="192.00000000000003" text-anchor="end" class="tick">0.667</text>
  <line x1="55" y1="131.0" x2="670" y2="131.0" class="grid"/>
  <text x="50" y="134.0" text-anchor="end" class="tick">0.8</text>
  <line x1="55" y1="73.00000000000003" x2="670" y2="73.00000000000003" class="grid"/>
  <text x="50" y="76.00000000000003" text-anchor="end" class="tick">0.933</text>
  <line x1="55" y1="15.0" x2="670" y2="15.0" class="grid"/>
  <text x="50" y="18.0" text-anchor="end" class="tick">1.07</text>
  <line x1="55.0" y1="15" x2="55.0" y2="305" class="grid"/>
  <text x="55.0" y="319" text-anchor="middle" class="tick">0</text>
  <line x1="157.5" y1="15" x2="157.5" y2="305" class="grid"/>
  <text x="157.5" y="319" text-anchor="middle" class="tick">2</text>
  <line x1="260.0" y1="15" x2="260.0" y2="305" class="grid"/>
  <text x="260.0" y="319" text-anchor="middle" class="tick">4</text>
  <line x1="362.5" y1="15" x2="362.5" y2="305" class="grid"/>
  <text x="362.5" y="319" text-anchor="middle" class="tick">6</text>
  <line x1="465.0" y1="15" x2="465.0" y2="305" class="grid"/>
  <text x="465.0" y="319" text-anchor="middle" class="tick">8</text>
  <line x1="567.5" y1="15" x2="567.5" y2="305" class="grid"/>
  <text x="567.5" y="319" text-anchor="middle" class="tick">10</text>
  <line x1="670.0" y1="15" x2="670.0" y2="305" class="grid"/>
  <text x="670.0" y="319" text-anchor="middle" class="tick">12</text>
  <line x1="55" y1="15" x2="55" y2="305" stroke="#333" stroke-width="1"/>
  <line x1="55" y1="305" x2="670" y2="305" stroke="#333" stroke-width="1"/>
  <text x="362" y="345" text-anchor="middle" class="axis-label">time [s]</text>
  <text x="12" y="160" text-anchor="middle" class="axis-label" transform="rotate(-90,12,160)">z [m]</text>
  <line x1="55" y1="44.040564102317546" x2="670" y2="44.040564102317546" stroke="#888" stroke-width="1" stroke-dasharray="6,3"/>
  <text x="672" y="47.040564102317546" class="tick" fill="#888">z_ref=1.0</text>
  <polyline points="55.0,44.0 56.3,44.0 57.8,44.0 59.6,44.0 61.1,44.0 62.9,44.0 64.5,44.0 66.3,44.0 67.8,44.0 69.6,44.0 71.1,44.0 72.9,44.0 74.5,44.0 76.3,44.0 77.8,44.0 79.6,44.0 81.1,44.0 82.9,44.0 84.5,44.0 86.3,44.0 87.8,44.0 89.6,44.0 91.1,44.0 92.9,44.0 94.5,44.0 96.3,44.0 97.8,44.0 99.6,44.0 101.1,44.0 102.9,44.0 104.5,44.0 106.2,44.0 107.8,44.0 109.6,44.0 110.9,44.0 111.9,44.0 113.2,44.0 114.2,44.0 115.2,44.0 116.5,44.0 117.5,44.0 118.5,44.0 119.8,44.0 120.9,44.0 121.9,44.0 123.2,44.0 124.2,44.0 125.2,44.0 126.5,44.0 127.5,44.0 128.5,44.0 129.8,44.0 130.8,44.0 131.9,44.0 132.9,44.0 133.9,44.0 134.9,44.0 136.0,44.0 137.0,44.0 138.0,44.0 139.0,44.0 140.1,44.0 141.1,44.0 142.1,44.0 143.1,44.0 144.2,44.0 145.2,44.0 146.2,44.0 147.2,44.0 148.3,44.0 149.3,44.0 150.3,44.0 151.3,44.0 152.4,44.0 153.4,44.0 154.4,44.0 155.4,44.0 156.5,44.0 157.5,44.0 158.5,44.0 159.5,44.0 160.6,44.0 161.6,44.0 162.6,44.0 163.6,44.0 164.7,44.0 165.7,44.0 166.7,44.0 167.7,44.0 168.8,44.0 169.8,44.0 170.8,44.0 171.8,44.0 172.9,44.0 173.9,44.0 174.9,44.0 175.9,44.0 177.0,44.0 178.0,44.0 179.0,44.0 180.0,44.0 181.1,44.0 182.1,44.0 183.1,44.0 184.1,44.0 185.2,44.0 186.2,44.0 187.2,44.0 188.2,44.0 189.3,44.0 190.3,44.0 191.3,44.0 192.3,44.0 193.4,44.0 194.4,44.0 195.4,44.0 196.4,44.0 197.5,44.0 198.5,44.0 199.5,44.0 200.5,44.0 201.6,44.0 202.6,44.0 203.6,44.0 204.6,44.0 205.7,44.0 206.7,44.0 207.7,44.0 208.7,44.0 209.8,44.0 210.8,44.0 211.8,44.0 212.8,44.0 213.9,44.0 214.9,44.0 215.9,44.0 216.9,44.0 218.0,44.0 219.0,44.0 220.0,44.0 221.0,44.0 222.1,44.0 223.1,44.0 224.1,44.0 225.1,44.0 226.2,44.0 227.2,44.0 228.2,44.0 229.2,44.0 230.3,44.0 231.3,44.0 232.3,44.0 233.3,44.0 234.4,44.0 235.4,44.0 236.4,44.0 237.4,44.0 238.5,44.0 239.5,44.0 240.5,44.0 241.5,44.0 242.6,44.0 243.6,44.0 244.6,44.0 245.6,44.0 246.7,44.0 247.7,44.0 248.7,44.0 249.7,44.0 250.8,44.0 251.8,44.0 252.8,44.0 253.8,44.0 254.9,44.0 255.9,44.0 256.9,44.0 257.9,44.0 259.0,44.0 260.0,44.0 261.0,44.0 262.0,44.0 263.1,44.0 264.1,44.0 265.1,44.0 266.1,44.0 267.2,44.0 268.2,44.0 269.2,44.0 270.2,44.0 271.3,44.0 272.0,44.0 273.1,44.0 274.1,44.0 274.9,44.0 275.9,44.0 276.9,44.0 277.7,44.0 278.7,44.0 279.7,44.0 280.5,44.0 281.5,44.0 282.5,44.0 283.6,44.0 284.6,44.0 285.4,44.0 286.4,44.0 287.4,44.0 288.2,44.0 289.2,44.0 290.2,44.0 291.0,44.0 292.0,44.0 293.1,44.0 293.8,44.0 294.8,44.0 295.9,44.0 296.9,44.0 297.9,44.0 298.7,44.0 299.7,44.0 300.7,44.0 301.5,44.0 302.5,44.0 303.6,44.0 304.3,44.0 305.4,44.0 306.4,44.0 307.1,44.0 308.2,44.0 309.2,44.0 310.2,44.0 311.2,44.0 312.0,44.0 312.8,44.0 313.8,44.1 314.8,44.1 315.6,44.1 316.6,44.2 317.7,44.3 318.4,44.4 319.4,44.5 320.5,44.6 321.5,44.7 322.5,44.8 323.3,44.9 324.3,45.1 325.3,45.2 326.1,45.3 327.1,45.5 328.2,45.6 328.9,45.8 330.0,45.9 331.0,46.1 331.8,46.3 332.8,46.5 333.8,46.7 334.8,46.9 335.8,47.1 336.6,47.3 337.6,47.5 338.7,47.8 339.4,47.9 340.5,48.2 341.5,48.5 342.3,48.7 343.3,49.0 344.3,49.3 345.1,49.6 346.1,49.9 347.1,50.3 348.1,50.7 349.2,51.1 349.9,51.4 351.0,51.8 352.0,52.2 352.8,52.6 353.8,53.1 354.8,53.6 355.6,53.9 356.6,54.5 357.6,55.0 358.4,55.5 359.4,56.1 360.4,56.7 361.5,57.3 362.5,58.0 363.3,58.5 364.3,59.2 365.3,60.0 366.1,60.5 367.1,61.3 368.1,62.1 368.9,62.8 369.9,63.6 371.0,64.5 371.7,65.2 372.7,66.1 373.8,67.1 374.8,68.1 375.8,69.1 376.6,69.9 377.6,71.0 378.6,72.1 379.4,73.0 380.4,74.2 381.5,75.4 382.2,76.3 383.3,77.6 384.3,78.9 385.1,79.9 386.1,81.3 387.1,82.7 388.1,84.1 389.1,85.6 389.9,86.7 390.9,88.2 392.0,89.8 392.7,91.0 393.8,92.6 394.8,94.3 395.6,95.6 396.6,97.3 397.6,99.1 398.4,100.5 399.4,102.3 400.4,104.2 401.4,106.1 402.5,108.1 403.2,109.6 404.3,111.6 405.3,113.7 406.1,115.3 407.1,117.5 408.1,119.7 408.9,121.3 409.9,123.6 410.9,125.9 411.7,127.7 412.7,130.1 413.7,132.5 414.5,134.3 415.5,136.8 416.6,139.3 417.3,141.1 418.4,143.5 419.4,145.9 420.2,147.6 421.2,150.0 422.2,152.3 423.0,154.0 424.0,156.3 425.0,158.6 426.0,160.8 427.1,163.1 427.8,164.7 428.9,166.9 429.9,169.1 430.7,170.7 431.7,172.9 432.7,175.0 433.5,176.6 434.5,178.7 435.5,180.8 436.3,182.3 437.3,184.4 438.3,186.4 439.4,188.4 440.4,190.4 441.2,191.8 442.2,193.8 443.2,195.7 444.0,197.1 445.0,199.0 446.0,200.9 446.8,202.3 447.8,204.1 448.9,205.9 449.6,207.3 450.6,209.0 451.7,210.8 452.7,212.5 453.7,214.2 454.5,215.5 455.5,217.1 456.5,218.7 457.3,220.0 458.3,221.6 459.4,223.1 460.1,224.3 461.2,225.8 462.2,227.3 462.9,228.4 464.0,229.9 465.0,231.4 466.0,232.8 467.0,234.2 467.8,235.2 468.8,236.6 469.9,237.9 470.6,238.9 471.7,240.2 472.7,241.4 473.5,242.4 474.5,243.6 475.5,244.8 476.3,245.7 477.3,246.9 478.3,248.0 479.3,249.2 480.4,250.3 481.1,251.1 482.4,252.4 483.4,253.5 484.5,254.5 485.8,255.7 486.8,256.7 487.8,257.7 488.8,258.6 489.9,259.5 490.6,260.2 491.6,261.1 492.7,261.9 493.7,262.8 494.7,263.6 495.5,264.2 496.5,265.0 497.5,265.8 498.3,266.3 499.3,267.1 500.4,267.8 501.1,268.3 502.2,269.0 503.2,269.7 503.9,270.2 505.0,270.8 506.0,271.4 507.0,272.0 508.0,272.6 508.8,273.0 509.8,273.6 510.9,274.1 511.6,274.5 512.7,275.1 513.7,275.6 515.0,276.2 516.3,276.7 517.5,277.3 518.6,277.7 519.6,278.1 520.4,278.4 521.4,278.8 522.4,279.2 523.4,279.6 524.4,279.9 525.2,280.2 526.2,280.5 527.3,280.8 528.0,281.0 529.1,281.3 530.1,281.6 530.9,281.8 531.9,282.1 532.9,282.3 533.7,282.5 534.7,282.7 535.7,282.9 536.7,283.1 537.8,283.3 538.5,283.4 539.6,283.6 540.6,283.8 541.4,283.9 542.4,284.0 543.4,284.1 544.2,284.2 545.2,284.4 546.2,284.5 547.0,284.5 548.0,284.6 549.0,284.7 550.1,284.8 551.1,284.8 551.9,284.9 552.9,284.9 553.9,284.9 554.7,285.0 555.7,285.0 556.7,285.0 557.5,285.0 558.5,285.0 559.6,285.0 560.3,285.0 561.4,285.0 562.4,284.9 563.4,284.9 564.4,284.9 565.2,284.8 566.2,284.8 567.2,284.7 568.0,284.7 569.0,284.6 570.1,284.5 570.8,284.4 571.9,284.3 572.9,284.3 573.7,284.2 574.7,284.1 575.7,284.0 576.7,283.8 577.7,283.7 578.5,283.6 579.5,283.5 580.6,283.4 581.3,283.3 582.4,283.1 583.4,283.0 584.2,282.9 585.2,282.7 586.2,282.5 587.0,282.4 588.0,282.3 589.0,282.1 590.0,281.9 591.1,281.7 591.8,281.6 592.9,281.4 593.9,281.2 594.7,281.1 595.7,280.9 596.7,280.7 597.5,280.5 598.5,280.3 599.5,280.1 600.3,280.0 601.3,279.8 602.4,279.6 603.4,279.3 604.4,279.1 605.2,279.0 606.2,278.7 607.2,278.5 608.0,278.4 609.0,278.1 610.0,277.9 610.8,277.7 611.8,277.5 612.9,277.3 613.6,277.1 614.7,276.8 615.7,276.6 616.7,276.4 617.7,276.1 618.5,275.9 619.5,275.7 620.5,275.5 621.3,275.3 622.3,275.0 623.4,274.8 624.1,274.6 625.2,274.3 626.2,274.1 627.0,273.9 628.0,273.7 629.0,273.4 630.0,273.1 631.0,272.9 631.8,272.7 632.8,272.4 633.9,272.2 634.6,272.0 635.7,271.7 636.7,271.5 637.5,271.3 638.5,271.0 639.5,270.8 640.3,270.6 641.3,270.3 642.3,270.1 643.3,269.8 644.4,269.6 645.1,269.4 646.2,269.1 647.2,268.9 648.0,268.7 649.0,268.4 650.0,268.2 650.8,268.0 651.8,267.7 652.8,267.5 653.6,267.3 654.6,267.1 655.6,266.8 656.7,266.6 657.7,266.3 658.5,266.1 659.5,265.9 660.5,265.6 661.3,265.4 662.3,265.2 663.3,264.9 664.1,264.8 665.1,264.5 666.2,264.3 666.9,264.1 668.0,263.9 669.0,263.6 670.0,263.4" fill="none" stroke="#2196F3" stroke-width="1.5" opacity="0.9"/>
  <polyline points="55.0,44.0 55.8,44.0 57.0,44.0 58.3,43.8 59.6,43.5 60.9,43.2 62.2,42.8 63.5,42.1 64.7,41.4 66.0,40.6 67.3,39.9 68.6,39.2 69.9,38.6 71.1,38.2 72.4,37.7 73.7,37.3 75.0,36.8 76.3,36.4 77.6,36.1 78.8,35.8 80.1,35.5 81.4,35.3 82.7,35.2 84.0,35.1 85.2,35.0 86.5,35.0 87.8,35.2 89.1,35.4 90.4,35.6 91.6,35.9 92.9,36.3 94.2,36.9 95.5,37.6 96.8,38.6 98.1,39.6 99.3,40.8 100.6,42.0 101.9,43.2 103.2,44.5 104.5,46.0 105.7,47.5 107.0,49.1 108.3,50.7 109.6,52.4 110.6,53.7 111.6,55.0 112.4,55.9 113.2,56.8 114.2,58.1 115.0,59.0 115.7,59.9 116.8,61.3 117.5,62.3 118.3,63.3 119.3,64.6 120.1,65.6 120.9,66.6 121.9,68.0 122.6,69.0 123.4,69.9 124.4,71.0 125.2,71.8 126.0,72.6 127.0,73.7 127.8,74.5 128.5,75.2 129.6,76.2 130.3,76.9 131.1,77.7 131.9,78.4 132.6,79.2 133.4,79.9 134.2,80.7 135.0,81.5 136.0,82.5 136.7,83.3 137.5,84.1 138.3,84.9 139.0,85.7 139.8,86.4 140.6,87.0 141.4,87.6 142.1,88.2 142.9,88.7 143.7,89.2 144.4,89.7 145.2,90.1 146.2,90.6 147.0,91.0 147.8,91.5 148.5,92.0 149.3,92.5 150.1,93.1 150.8,93.7 151.6,94.3 152.4,94.9 153.1,95.5 153.9,96.2 154.7,97.0 155.5,97.8 156.5,98.8 157.2,99.7 158.0,100.5 158.8,101.4 159.5,102.3 160.3,103.3 161.1,104.3 161.9,105.4 162.6,106.4 163.4,107.5 164.2,108.6 164.9,109.6 165.7,110.6 166.7,111.9 167.5,112.9 168.3,113.8 169.0,114.7 169.8,115.6 170.6,116.4 171.3,117.2 172.1,117.9 172.9,118.6 173.6,119.2 174.4,119.8 175.2,120.3 176.0,120.7 177.0,121.1 177.7,121.4 178.5,121.6 179.3,121.7 180.0,121.8 180.8,121.9 181.6,121.9 182.4,121.9 183.1,121.8 183.9,121.8 184.7,121.8 185.4,121.8 186.2,121.8 187.2,121.7 188.0,121.7 188.8,121.6 189.5,121.6 190.3,121.5 191.1,121.4 191.8,121.4 192.6,121.3 193.4,121.3 194.1,121.2 194.9,121.1 195.7,121.0 196.5,120.8 197.5,120.5 198.2,120.2 199.0,119.9 199.8,119.7 200.5,119.4 201.3,119.2 202.1,119.0 202.9,118.9 203.6,118.8 204.4,118.8 205.2,118.8 205.9,118.8 206.7,118.9 207.7,119.1 208.5,119.2 209.3,119.4 210.0,119.6 210.8,119.9 211.6,120.2 212.3,120.6 213.1,121.0 213.9,121.5 214.6,122.0 215.4,122.5 216.2,123.1 217.0,123.7 218.0,124.5 218.7,125.1 219.5,125.6 220.3,126.1 221.0,126.6 221.8,127.0 222.6,127.3 223.4,127.6 224.1,127.8 224.9,127.9 225.7,128.0 226.4,127.9 227.2,127.9 228.2,127.7 229.0,127.5 229.8,127.3 230.5,127.1 231.3,126.9 232.1,126.9 232.8,126.9 233.6,127.0 234.4,127.2 235.1,127.4 235.9,127.6 236.7,127.9 237.5,128.2 238.5,128.6 239.2,128.8 240.0,129.1 240.8,129.4 241.5,129.7 242.3,130.0 243.1,130.3 243.9,130.5 244.6,130.7 245.4,130.9 246.2,131.0 246.9,131.1 247.7,131.1 248.7,131.1 249.5,131.0 250.3,130.9 251.0,130.8 251.8,130.8 252.6,130.7 253.3,130.6 254.1,130.6 254.9,130.5 255.6,130.5 256.4,130.6 257.2,130.6 258.0,130.8 259.0,131.0 259.7,131.2 260.5,131.3 261.3,131.6 262.0,131.8 262.8,132.0 263.6,132.3 264.4,132.6 265.1,132.9 265.9,133.3 266.7,133.6 267.4,133.9 268.2,134.2 269.2,134.6 270.0,134.9 270.5,135.0 271.3,135.2 272.0,135.4 272.8,135.5 273.6,135.5 274.3,135.5 275.1,135.5 275.6,135.4 276.4,135.4 277.2,135.3 277.9,135.2 278.7,135.1 279.5,135.0 280.2,134.9 280.8,134.8 281.5,134.6 282.3,134.5 283.1,134.3 283.8,134.2 284.6,134.1 285.4,133.9 285.9,133.9 286.6,133.7 287.4,133.6 288.2,133.5 289.0,133.4 289.7,133.3 290.5,133.2 291.0,133.1 291.8,133.1 292.5,133.0 293.3,133.0 294.1,133.0 294.8,133.1 295.6,133.2 296.1,133.3 296.9,133.4 297.7,133.7 298.4,134.0 299.2,134.4 300.0,134.8 300.7,135.2 301.3,135.5 302.0,135.9 302.8,136.3 303.6,136.8 304.3,137.2 305.1,137.6 305.9,138.0 306.4,138.2 307.1,138.7 307.9,139.1 308.7,139.4 309.5,139.8 310.2,140.1 311.0,140.4 311.5,140.6 312.3,140.9 313.0,141.1 313.6,141.3 314.3,141.6 315.1,141.9 315.9,142.1 316.6,142.3 317.4,142.4 318.2,142.5 318.7,142.6 319.4,142.6 320.2,142.7 321.0,142.7 321.8,142.8 322.5,142.9 323.3,142.9 323.8,143.0 324.6,143.1 325.3,143.3 326.1,143.5 326.9,143.8 327.6,144.1 328.4,144.5 328.9,144.8 329.7,145.2 330.5,145.7 331.2,146.2 332.0,146.6 332.8,147.1 333.5,147.6 334.1,147.9 334.8,148.3 335.6,148.8 336.4,149.2 337.1,149.6 337.9,149.9 338.7,150.3 339.2,150.5 339.9,150.9 340.7,151.4 341.5,151.9 342.3,152.4 343.0,153.0 343.8,153.6 344.3,154.1 345.1,154.8 345.8,155.5 346.6,156.2 347.4,157.0 348.1,157.8 348.9,158.6 349.4,159.2 350.2,160.1 351.0,161.0 351.7,161.9 352.5,162.7 353.3,163.5 354.0,164.3 354.6,164.7 355.3,165.4 356.1,165.9 356.9,166.4 357.6,166.8 358.4,167.0 359.2,167.2 359.7,167.3 360.4,167.4 361.2,167.4 362.0,167.4 362.8,167.2 363.5,167.0 364.3,166.8 364.8,166.6 365.6,166.3 366.3,166.0 367.1,165.6 367.9,165.3 368.6,165.0 369.4,164.6 369.9,164.4 370.7,164.0 371.5,163.6 372.2,163.2 373.0,162.8 373.8,162.5 374.5,162.1 375.1,161.9 375.8,161.6 376.6,161.2 377.4,160.8 378.1,160.5 378.9,160.2 379.7,159.8 380.2,159.7 380.9,159.5 381.7,159.3 382.5,159.2 383.3,159.1 384.0,159.1 384.8,159.0 385.3,159.0 386.1,158.9 386.8,158.8 387.6,158.6 388.4,158.5 389.1,158.4 389.9,158.3 390.4,158.2 391.2,158.1 392.0,158.1 392.7,158.0 393.5,158.0 394.3,158.1 395.0,158.2 395.6,158.2 396.3,158.3 397.1,158.5 397.9,158.6 398.6,158.7 399.4,158.7 400.2,158.7 400.7,158.7 401.4,158.7 402.2,158.6 403.0,158.6 403.8,158.7 404.5,158.7 405.3,158.7 405.8,158.7 406.6,158.7 407.3,158.7 408.1,158.8 408.9,158.8 409.6,158.9 410.4,159.0 410.9,159.1 411.7,159.3 412.5,159.5 413.2,159.8 413.8,160.0 414.5,160.4 415.3,160.8 416.1,161.2 416.8,161.6 417.6,162.1 418.1,162.4 418.9,162.8 419.6,163.2 420.4,163.6 421.2,164.0 421.9,164.4 422.7,164.7 423.2,164.9 424.0,165.2 424.8,165.5 425.5,165.7 426.3,165.9 427.1,166.1 427.8,166.2 428.4,166.2 429.1,166.3 429.9,166.4 430.7,166.4 431.4,166.4 432.2,166.4 433.0,166.5 433.5,166.5 434.2,166.5 435.0,166.5 435.8,166.4 436.6,166.3 437.3,166.2 438.1,166.0 438.6,165.9 439.4,165.7 440.1,165.4 440.9,165.1 441.7,164.7 442.4,164.3 443.2,163.9 443.7,163.6 444.5,163.2 445.3,162.8 446.0,162.3 446.8,161.9 447.6,161.5 448.3,161.1 448.9,160.9 449.6,160.6 450.4,160.4 451.2,160.2 451.9,160.1 452.7,160.0 453.5,160.0 454.0,160.0 454.7,160.0 455.5,160.0 456.3,160.0 457.1,160.0 457.8,160.0 458.6,160.0 459.1,160.0 459.9,159.9 460.6,159.8 461.4,159.6 462.2,159.3 462.9,159.0 463.7,158.6 464.2,158.3 465.0,157.9 465.8,157.4 466.5,156.8 467.3,156.3 468.1,155.7 468.8,155.1 469.4,154.7 470.1,154.0 470.9,153.3 471.7,152.5 472.4,151.6 473.2,150.7 474.0,149.7 474.5,149.0 475.2,148.0 476.0,147.0 476.8,145.9 477.6,144.8 478.3,143.8 479.1,142.7 479.6,142.0 480.4,141.0 481.1,139.9 482.2,138.7 482.9,137.8 483.7,136.9 484.7,135.9 485.5,135.2 486.3,134.6 487.3,133.9 488.1,133.4 488.8,132.9 489.6,132.4 490.4,132.0 490.9,131.8 491.6,131.5 492.4,131.2 493.2,130.9 494.0,130.8 494.7,130.7 495.5,130.7 496.0,130.7 496.8,130.7 497.5,130.9 498.3,131.0 499.1,131.2 499.8,131.5 500.6,131.7 501.1,131.9 501.9,132.3 502.7,132.7 503.4,133.2 504.2,133.7 505.0,134.2 505.7,134.8 506.3,135.1 507.0,135.7 507.8,136.2 508.6,136.7 509.3,137.2 510.1,137.7 510.9,138.2 511.4,138.4 512.1,138.8 512.9,139.1 513.7,139.4 514.7,139.6 515.7,139.8 516.8,139.9 517.8,139.9 518.6,139.9 519.3,139.8 520.1,139.7 520.6,139.5 521.4,139.4 522.1,139.2 522.9,138.9 523.7,138.7 524.4,138.4 525.2,138.1 525.7,137.9 526.5,137.6 527.3,137.2 528.0,136.9 528.8,136.5 529.6,136.1 530.3,135.7 530.9,135.4 531.6,135.0 532.4,134.6 533.2,134.3 533.9,134.0 534.7,133.7 535.5,133.4 536.0,133.2 536.8,133.0 537.5,132.9 538.3,132.8 539.1,132.8 539.8,132.9 540.6,133.1 541.1,133.2 541.9,133.4 542.6,133.6 543.4,133.9 544.2,134.3 544.9,134.6 545.7,135.0 546.2,135.2 547.0,135.6 547.8,136.0 548.5,136.4 549.3,136.9" fill="none" stroke="#F44336" stroke-width="1.5" opacity="0.9"/>
  <line x1="610" y1="30" x2="625" y2="30" stroke="#2196F3" stroke-width="2"/>
  <text x="630" y="34" class="tick">z ideal</text>
  <line x1="610" y1="46" x2="625" y2="46" stroke="#F44336" stroke-width="2"/>
  <text x="630" y="50" class="tick">z noisy</text>
</svg>
