<svg xmlns="http://www.w3.org/2000/svg" viewBox="0 0 700 350" width="700" height="350">
  <style>
    text { font-family: monospace; font-size: 11px; fill: #333; }
    .title { font-size: 13px; font-weight: bold; }
    .axis-label { font-size: 11px; }
    .grid { stroke: #e0e0e0; stroke-width: 0.5; }
    .tick { font-size: 9px; fill: #666; }
  </style>
  <rect width="700" height="350" fill="white"/>
  <text x="350" y="13" text-anchor="middle" class="title">Realistic Square Path -- Motor Forces</text>
  <line x1="55" y1="305.0" x2="670" y2="305.0" class="grid"/>
  <text x="50" y="308.0" text-anchor="end" class="tick">0.235</text>
  <line x1="55" y1="246.99999999999997" x2="670" y2="246.99999999999997" class="grid"/>
  <text x="50" y="249.99999999999997" text-anchor="end" class="tick">0.25</text>
  <line x1="55" y1="188.99999999999994" x2="670" y2="188.99999999999994" class="grid"/>
  <text x="50" y="191.99999999999994" text-anchor="end" class="tick">0.264</text>
  <line x1="55" y1="131.00000000000003" x2="670" y2="131.00000000000003" class="grid"/>
  <text x="50" y="134.00000000000003" text-anchor="end" class="tick">0.279</text>
  <line x1="55" y1="72.99999999999991" x2="670" y2="72.99999999999991" class="grid"/>
  <text x="50" y="75.99999999999991" text-anchor="end" class="tick">0.293</text>
  <line x1="55" y1="15.0" x2="670" y2="15.0" class="grid"/>
  <text x="50" y="18.0" text-anchor="end" class="tick">0.308</text>
  <line x1="55.0" y1="15" x2="55.0" y2="305" class="grid"/>
  <text x="55.0" y="319" text-anchor="middle" class="tick">0</text>
  <line x1="157.5" y1="15" x2="157.5" y2="305" class="grid"/>
  <text x="157.5" y="319" text-anchor="middle" class="tick">5</text>
  <line x1="260.0" y1="15" x2="260.0" y2="305" class="grid"/>
  <text x="260.0" y="319" text-anchor="middle" class="tick">10</text>
  <line x1="362.5" y1="15" x2="362.5" y2="305" class="grid"/>
  <text x="362.5" y="319" text-anchor="middle" class="tick">15</text>
  <line x1="465.0" y1="15" x2="465.0" y2="305" class="grid"/>
  <text x="465.0" y="319" text-anchor="middle" class="tick">20</text>
  <line x1="567.5" y1="15" x2="567.5" y2="305" class="grid"/>
  <text x="567.5" y="319" text-anchor="middle" class="tick">25</text>
  <line x1="670.0" y1="15" x2="670.0" y2="305" class="grid"/>
  <text x="670.0" y="319" text-anchor="middle" class="tick">30</text>
  <line x1="55" y1="15" x2="55" y2="305" stroke="#333" stroke-width="1"/>
  <line x1="55" y1="305" x2="670" y2="305" stroke="#333" stroke-width="1"/>
  <text x="362" y="345" text-anchor="middle" class="axis-label">time [s]</text>
  <text x="12" y="160" text-anchor="middle" class="axis-label" transform="rotate(-90,12,160)">force [N]</text>
  <line x1="55" y1="166.81915672571773" x2="670" y2="166.81915672571773" stroke="#888" stroke-width="1" stroke-dasharray="6,3"/>
  <text x="672" y="169.81915672571773" class="tick" fill="#888">mg/4</text>
  <polyline points="55.0,166.9 56.3,180.7 57.8,153.6 59.3,116.1 60.7,123.0 62.3,151.6 63.7,160.0 65.2,114.4 66.7,141.1 68.2,178.2 69.7,235.5 71.2,261.2 72.6,187.9 74.2,167.1 75.6,162.0 77.1,168.6 78.3,160.9 79.5,154.9 80.6,169.2 81.9,179.3 83.1,191.7 84.2,206.6 85.3,171.3 86.5,211.5 87.6,212.2 88.6,208.8 89.7,189.5 90.8,161.8 91.9,136.4 92.9,108.6 94.1,112.9 95.2,134.1 96.2,149.0 97.2,196.8 98.4,220.8 99.5,172.6 100.5,131.3 101.6,118.0 102.7,173.6 103.8,224.5 104.8,229.3 105.9,198.5 107.1,181.5 108.1,164.4 109.1,128.8 110.2,152.1 111.4,196.4 112.4,212.3 113.5,216.7 114.6,191.8 115.7,204.3 116.7,185.5 117.8,103.1 119.0,68.2 120.0,77.7 121.0,110.9 122.1,115.2 123.3,134.7 124.3,157.5 125.4,194.1 126.4,196.3 127.6,215.2 128.6,211.1 129.7,189.0 130.8,214.8 131.9,209.1 132.9,199.8 134.0,154.7 135.2,102.2 136.2,71.6 137.3,104.9 138.3,144.8 139.5,139.1 140.5,134.2 141.5,146.6 142.5,141.4 143.6,169.7 144.5,200.6 145.5,227.9 146.4,253.0 147.5,253.0 148.5,207.0 149.5,156.0 150.5,201.1 151.5,238.3 152.5,250.2 153.4,200.4 154.4,150.1 155.4,133.4 156.4,134.3 157.4,172.1 158.3,154.5 159.3,89.2 160.4,79.3 161.3,156.9 162.3,175.2 163.2,119.1 164.3,81.0 165.3,101.7 166.2,116.1 167.2,122.0 168.2,118.7 169.2,155.4 170.2,170.3 171.2,172.9 172.3,144.9 173.2,139.0 174.2,145.9 175.1,209.5 176.2,257.4 177.2,271.0 178.1,232.1 179.1,217.2 180.0,231.9 181.1,186.7 182.1,134.7 183.1,113.6 184.1,141.2 185.1,176.1 186.1,216.2 187.0,231.0 188.0,211.0 189.1,200.5 190.0,181.1 191.0,124.6 191.9,118.2 193.0,140.5 194.0,153.7 195.0,170.7 196.0,185.9 197.0,182.8 198.0,115.3 198.9,92.4 199.9,131.5 201.0,125.1 201.9,106.7 202.9,131.0 203.8,164.7 204.9,151.6 205.9,138.0 206.9,117.8 207.9,192.9 208.9,225.0 209.9,211.6 210.8,171.4 211.8,161.8 212.8,155.0 213.8,171.7 214.8,214.7 215.7,205.9 216.7,197.8 217.8,187.5 218.8,177.8 219.8,168.5 220.7,154.1 221.8,129.7 222.7,96.2 223.7,101.4 224.7,130.9 225.8,153.3 227.0,160.6 228.1,146.6 229.1,155.4 230.1,172.6 231.1,232.4 232.1,234.1 233.1,235.9 234.2,188.4 235.1,185.7 236.1,195.2 237.0,169.0 238.1,137.2 239.2,143.0 240.3,155.9 241.3,141.5 242.4,130.3 243.3,150.7 244.3,166.0 245.2,194.4 246.3,200.3 247.3,214.6 248.2,206.1 249.2,216.8 250.2,206.1 251.2,186.7 252.2,183.6 253.2,177.0 254.3,156.5 255.2,105.4 256.2,126.7 257.1,165.8 258.2,157.8 259.2,136.8 260.0,150.8 261.0,161.7 262.1,176.0 263.1,154.7 264.1,134.2 265.0,152.0 266.0,173.6 267.0,179.8 268.0,166.4 269.0,140.5 269.9,93.8 271.0,82.5 271.9,146.2 272.9,185.0 273.9,201.9 275.0,223.1 276.0,235.7 276.9,215.2 277.9,182.3 278.9,208.0 279.9,212.1 280.9,175.8 281.8,197.4 282.9,196.7 283.8,185.8 284.8,172.7 285.8,176.4 286.9,191.4 287.9,187.5 288.8,160.5 289.8,121.8 290.8,141.1 291.8,155.6 292.8,173.4 293.7,195.7 294.7,175.1 295.7,183.1 296.7,112.4 297.7,91.3 298.7,161.5 299.8,172.7 300.7,202.3 301.7,229.4 302.6,197.6 303.7,166.2 304.7,163.7 305.6,166.5 306.6,191.4 307.6,185.5 308.6,243.6 309.6,271.8 310.6,246.5 311.7,176.0 312.6,96.5 313.6,103.5 314.5,145.5 315.6,144.4 316.6,170.9 317.5,163.9 318.5,149.6 319.5,182.3 320.5,172.0 321.5,144.6 322.5,130.7 323.5,165.2 324.5,145.8 325.5,168.5 326.4,132.2 327.4,109.6 328.5,138.2 329.4,135.6 330.4,159.1 331.3,167.3 332.4,199.7 333.4,174.1 334.4,152.4 335.4,131.7 336.4,124.9 337.4,112.4 338.3,115.8 339.3,145.8 340.4,170.7 341.3,160.4 342.3,205.2 343.2,247.5 344.3,279.5 345.3,248.1 346.3,221.0 347.3,204.2 348.3,158.6 349.3,114.8 350.2,80.0 351.2,84.5 352.2,109.8 353.2,87.1 354.2,73.0 355.1,75.7 356.1,132.1 357.2,172.0 358.2,177.4 359.2,226.1 360.1,219.7 361.2,142.7 362.1,144.3 363.0,148.6 364.0,211.6 365.0,169.9 366.0,116.1 367.0,116.1 368.0,136.5 369.1,141.1 370.0,185.7 371.0,223.5 371.9,250.1 373.0,243.3 374.0,186.8 374.9,168.1 375.9,173.6 376.9,164.6 377.9,175.6 378.9,218.4 379.9,195.2 380.9,174.2 381.9,145.9 382.9,144.6 383.8,146.8 384.8,107.8 385.9,119.9 386.8,118.3 387.8,135.1 388.7,195.5 389.8,243.9 390.8,240.2 391.8,232.5 392.8,167.2 393.8,172.3 394.8,185.0 395.7,157.0 396.7,142.6 397.8,169.3 398.7,167.7 399.7,127.7 400.6,146.6 401.7,190.9 402.7,241.0 403.7,268.2 404.7,246.7 405.7,204.6 406.7,180.3 407.6,134.8 408.6,92.8 409.6,71.4 410.6,87.9 411.6,95.1 412.5,98.2 413.5,85.2 414.6,118.9 415.6,170.3 416.6,227.7 417.5,219.4 418.6,211.7 419.5,201.7 420.5,187.7 421.5,180.7 422.5,185.9 423.5,200.7 424.4,213.0 425.4,198.4 426.5,231.2 427.5,236.0 428.5,221.2 429.4,189.6 430.5,173.5 431.4,159.1 432.4,135.1 433.4,155.2 434.4,170.3 435.4,146.2 436.3,97.0 437.3,82.3 438.3,97.5 439.4,78.0 440.4,114.3 441.3,157.3 442.3,223.1 443.3,245.6 444.3,225.2 445.3,188.4 446.2,177.3 447.3,197.7 448.2,215.2 449.2,170.2 450.2,119.3 451.3,69.7 452.3,36.3 453.2,75.8 454.2,110.1 455.2,159.7 456.2,148.0 457.2,131.9 458.1,123.2 459.2,161.3 460.1,189.0 461.1,228.7 462.1,227.5 463.2,200.4 464.2,165.4 465.0,162.0 466.0,150.2 467.0,175.7 468.0,179.0 469.0,163.4 469.9,200.8 470.9,260.2 472.0,277.9 473.0,229.5 474.0,157.6 474.9,117.8 476.0,97.7 476.9,135.9 477.9,151.6 478.9,149.7 479.9,126.9 480.9,155.0 481.8,161.3 482.8,159.3 483.9,117.9 484.9,116.4 485.9,156.0 486.8,204.7 487.9,215.6 488.8,191.1 489.8,184.8 490.8,212.7 491.8,242.2 492.8,238.7 493.7,227.4 494.7,226.0 495.9,182.9 497.0,159.5 498.0,154.0 499.0,145.6 500.0,136.8 501.0,119.2 501.9,108.7 502.9,88.5 503.9,85.4 504.9,115.8 505.9,160.9 506.8,128.1 507.8,100.2 508.9,108.9 509.9,117.7 510.9,153.5 511.8,185.7 512.9,202.1 513.8,212.7 514.8,203.1 515.8,171.1 516.8,158.1 517.8,185.3 518.7,176.7 519.7,173.3 520.8,167.3 521.8,141.6 522.8,136.0 523.7,169.3 524.8,181.6 525.7,189.7 526.7,168.7 527.7,136.6 528.7,159.8 529.7,232.1 530.6,232.5 531.6,206.1 532.6,195.7 533.7,187.3 534.7,183.6 535.6,182.1 536.6,183.8 537.6,178.8 538.8,193.8 539.9,214.2 541.1,194.2 542.1,156.0 543.0,115.4 544.0,77.8 545.0,99.7 546.0,163.0 547.0,215.7 548.0,247.1 549.0,232.5 550.0,194.6 551.0,147.1 551.9,165.2 552.9,151.9 554.0,142.5 554.9,131.7 555.9,122.3 556.8,106.3 557.9,133.9 558.9,143.2 559.9,146.8 560.9,141.7 561.9,162.4 562.9,193.0 563.8,233.4 564.8,244.6 565.9,194.5 566.8,178.8 567.8,155.7 568.7,188.8 569.8,164.7 570.8,133.8 571.8,116.3 572.8,131.7 573.8,162.4 574.8,182.2 575.7,176.7 576.7,167.6 577.7,146.6 578.7,107.7 579.7,143.3 580.6,201.2 581.6,200.4 582.7,172.2 583.7,143.9 584.7,118.3 585.6,147.1 586.7,168.2 587.6,187.9 588.6,213.5 589.6,194.1 590.6,149.6 591.6,135.4 592.5,162.6 593.5,167.2 594.6,168.4 595.6,138.4 596.6,143.3 597.5,168.4 598.6,177.1 599.5,170.1 600.5,179.5 601.5,183.3 602.5,173.3 603.5,184.2 604.4,177.5 605.4,170.2 606.4,141.2 607.5,122.0 608.5,113.2 609.4,149.7 610.4,185.3 611.4,157.0 612.4,132.1 613.4,164.4 614.3,166.2 615.4,195.8 616.3,234.4 617.3,240.4 618.3,220.2 619.4,185.6 620.4,175.0 621.3,192.3 622.3,220.5 623.3,234.3 624.3,243.2 625.3,184.1 626.2,143.2 627.3,141.4 628.2,154.9 629.2,177.3 630.2,180.9 631.3,154.4 632.3,137.9 633.2,119.8 634.2,137.0 635.1,175.6 636.2,171.6 637.2,195.9 638.1,186.7 639.1,225.8 640.1,239.3 641.1,205.0 642.1,178.9 643.1,121.5 644.2,91.8 645.1,100.5 646.1,107.2 647.0,137.5 648.1,168.8 649.1,164.9 650.0,153.9 651.0,157.3 652.0,157.1 653.0,154.8 654.0,164.3 655.0,175.2 656.1,188.4 657.0,190.5 658.0,196.0 658.9,193.2 660.0,160.0 661.0,120.6 661.9,120.3 662.9,119.2 663.9,121.3 664.9,147.1 665.9,204.2 666.9,200.8 667.9,171.6 668.9,170.1 669.9,170.4" fill="none" stroke="#2196F3" stroke-width="1.5" opacity="0.9"/>
  <polyline points="55.0,166.9 56.3,179.4 57.8,152.6 59.3,115.3 60.7,122.7 62.3,151.7 63.7,160.2 65.2,114.7 66.7,141.3 68.2,178.5 69.7,235.6 71.2,261.2 72.6,187.9 74.2,167.1 75.6,161.9 77.1,168.5 78.3,160.8 79.5,154.8 80.6,169.2 81.9,179.3 83.1,191.7 84.2,206.6 85.3,171.3 86.5,211.5 87.6,212.3 88.6,208.9 89.7,189.5 90.8,161.8 91.9,136.4 92.9,108.6 94.1,112.9 95.2,134.1 96.2,149.0 97.2,196.8 98.4,220.8 99.5,172.6 100.5,131.3 101.6,118.0 102.7,173.7 103.8,224.5 104.8,229.3 105.9,198.5 107.1,181.4 108.1,164.4 109.1,128.8 110.2,152.2 111.4,196.4 112.4,212.4 113.5,216.7 114.6,191.9 115.7,204.3 116.7,185.5 117.8,103.0 119.0,68.2 120.0,77.8 121.0,110.9 122.1,115.2 123.3,134.7 124.3,157.5 125.4,194.1 126.4,196.3 127.6,215.1 128.6,211.2 129.7,189.0 130.8,214.8 131.9,209.1 132.9,199.7 134.0,154.7 135.2,102.3 136.2,71.6 137.3,104.8 138.3,144.9 139.5,139.0 140.5,134.2 141.5,146.6 142.5,141.3 143.6,169.6 144.5,200.6 145.5,227.9 146.4,253.0 147.5,253.0 148.5,207.0 149.5,156.0 150.5,201.1 151.5,238.3 152.5,250.2 153.4,200.5 154.4,150.0 155.4,133.4 156.4,134.3 157.4,172.1 158.3,154.6 159.3,89.1 160.4,79.3 161.3,156.9 162.3,175.2 163.2,119.1 164.3,81.0 165.3,101.7 166.2,116.2 167.2,122.0 168.2,118.7 169.2,155.4 170.2,170.3 171.2,172.9 172.3,144.9 173.2,139.1 174.2,145.9 175.1,209.5 176.2,257.4 177.2,271.1 178.1,232.1 179.1,217.3 180.0,231.9 181.1,186.7 182.1,134.7 183.1,113.6 184.1,141.2 185.1,176.0 186.1,216.2 187.0,231.1 188.0,211.1 189.1,200.4 190.0,181.1 191.0,124.6 191.9,118.1 193.0,140.6 194.0,153.7 195.0,170.6 196.0,185.9 197.0,182.8 198.0,115.3 198.9,92.4 199.9,131.5 201.0,125.1 201.9,106.7 202.9,130.9 203.8,164.6 204.9,151.6 205.9,138.0 206.9,117.9 207.9,193.0 208.9,225.0 209.9,211.7 210.8,171.5 211.8,161.9 212.8,155.0 213.8,171.7 214.8,214.7 215.7,205.9 216.7,197.8 217.8,187.5 218.8,177.8 219.8,168.5 220.7,154.0 221.8,129.6 222.7,96.1 223.7,101.4 224.7,130.9 225.8,153.4 227.0,160.6 228.1,146.7 229.1,155.5 230.1,172.6 231.1,232.4 232.1,234.2 233.1,236.0 234.2,188.4 235.1,185.7 236.1,195.1 237.0,168.9 238.1,137.2 239.2,143.0 240.3,155.9 241.3,141.5 242.4,130.3 243.3,150.7 244.3,166.0 245.2,194.4 246.3,200.3 247.3,214.6 248.2,206.0 249.2,216.9 250.2,206.2 251.2,186.6 252.2,183.6 253.2,177.0 254.3,156.5 255.2,105.3 256.2,126.7 257.1,165.8 258.2,157.8 259.2,136.9 260.0,150.8 261.0,157.2 262.1,183.9 263.1,154.7 264.1,132.5 265.0,153.5 266.0,174.0 267.0,179.2 268.0,166.7 269.0,140.6 269.9,93.6 271.0,82.5 271.9,146.3 272.9,184.9 273.9,201.8 275.0,223.0 276.0,235.7 276.9,215.2 277.9,182.4 278.9,208.1 279.9,212.1 280.9,175.8 281.8,197.4 282.9,196.6 283.8,185.8 284.8,172.7 285.8,176.4 286.9,191.4 287.9,187.5 288.8,160.5 289.8,121.8 290.8,141.1 291.8,155.7 292.8,173.4 293.7,195.7 294.7,175.1 295.7,183.0 296.7,112.4 297.7,91.3 298.7,161.5 299.8,172.7 300.7,202.2 301.7,229.4 302.6,197.6 303.7,166.2 304.7,163.8 305.6,166.5 306.6,191.4 307.6,185.5 308.6,243.6 309.6,271.8 310.6,246.5 311.7,176.0 312.6,96.4 313.6,103.5 314.5,145.5 315.6,144.5 316.6,170.9 317.5,163.9 318.5,149.5 319.5,182.3 320.5,171.9 321.5,144.6 322.5,130.7 323.5,165.1 324.5,145.8 325.5,168.5 326.4,132.1 327.4,109.6 328.5,138.2 329.4,135.8 330.4,159.1 331.3,167.4 332.4,199.8 333.4,174.2 334.4,152.4 335.4,131.7 336.4,124.9 337.4,112.4 338.3,115.8 339.3,145.7 340.4,170.7 341.3,160.5 342.3,205.1 343.2,247.6 344.3,279.5 345.3,248.1 346.3,221.0 347.3,204.2 348.3,158.6 349.3,114.8 350.2,80.0 351.2,84.5 352.2,109.8 353.2,87.1 354.2,73.0 355.1,75.8 356.1,132.1 357.2,171.9 358.2,177.4 359.2,226.1 360.1,219.6 361.2,142.7 362.1,144.3 363.0,148.6 364.0,211.6 365.0,170.1 366.0,116.2 367.0,116.1 368.0,136.4 369.1,141.2 370.0,185.7 371.0,223.5 371.9,250.2 373.0,243.3 374.0,186.8 374.9,168.0 375.9,173.6 376.9,164.6 377.9,175.6 378.9,218.4 379.9,195.1 380.9,174.3 381.9,145.9 382.9,144.7 383.8,146.8 384.8,107.8 385.9,119.9 386.8,118.4 387.8,135.1 388.7,195.5 389.8,243.8 390.8,240.3 391.8,232.5 392.8,167.3 393.8,172.4 394.8,184.9 395.7,156.9 396.7,142.6 397.8,169.4 398.7,167.6 399.7,127.7 400.6,146.6 401.7,190.9 402.7,241.1 403.7,268.3 404.7,246.8 405.7,204.6 406.7,180.3 407.6,134.8 408.6,92.8 409.6,71.4 410.6,87.8 411.6,95.1 412.5,98.2 413.5,85.2 414.6,118.8 415.6,170.3 416.6,227.7 417.5,219.3 418.6,211.7 419.5,201.7 420.5,187.7 421.5,180.7 422.5,185.9 423.5,200.6 424.4,213.0 425.4,198.4 426.5,231.3 427.5,236.0 428.5,221.2 429.4,189.7 430.5,173.5 431.4,159.2 432.4,135.1 433.4,155.2 434.4,170.2 435.4,146.1 436.3,96.9 437.3,82.4 438.3,97.5 439.4,78.0 440.4,114.3 441.3,157.3 442.3,223.1 443.3,245.6 444.3,225.3 445.3,188.4 446.2,177.3 447.3,197.7 448.2,215.2 449.2,170.3 450.2,119.3 451.3,69.7 452.3,36.2 453.2,75.8 454.2,110.0 455.2,159.8 456.2,148.0 457.2,131.9 458.1,123.3 459.2,161.2 460.1,189.1 461.1,228.7 462.1,227.5 463.2,200.4 464.2,165.4 465.0,162.1 466.0,154.5 467.0,167.8 468.0,178.1 469.0,165.5 469.9,199.4 470.9,259.7 472.0,278.5 473.0,229.3 474.0,157.5 474.9,117.8 476.0,97.7 476.9,135.9 477.9,151.7 478.9,149.7 479.9,126.9 480.9,154.9 481.8,161.3 482.8,159.1 483.9,117.8 484.9,116.4 485.9,156.0 486.8,204.7 487.9,215.6 488.8,191.0 489.8,184.8 490.8,212.8 491.8,242.1 492.8,238.6 493.7,227.3 494.7,226.0 495.9,182.9 497.0,159.5 498.0,154.0 499.0,145.6 500.0,136.8 501.0,119.3 501.9,108.8 502.9,88.5 503.9,85.4 504.9,115.7 505.9,160.8 506.8,128.0 507.8,100.2 508.9,109.0 509.9,117.8 510.9,153.5 511.8,185.7 512.9,202.1 513.8,212.7 514.8,203.1 515.8,171.1 516.8,158.1 517.8,185.3 518.7,176.7 519.7,173.3 520.8,167.3 521.8,141.6 522.8,136.1 523.7,169.3 524.8,181.5 525.7,189.8 526.7,168.6 527.7,136.5 528.7,159.8 529.7,232.2 530.6,232.5 531.6,206.2 532.6,195.7 533.7,187.2 534.7,183.6 535.6,182.1 536.6,183.8 537.6,178.8 538.8,193.9 539.9,214.2 541.1,194.3 542.1,156.0 543.0,115.4 544.0,77.8 545.0,99.7 546.0,163.0 547.0,215.8 548.0,247.1 549.0,232.5 550.0,194.7 551.0,147.1 551.9,165.2 552.9,151.9 554.0,142.5 554.9,131.6 555.9,122.3 556.8,106.2 557.9,133.9 558.9,143.1 559.9,146.8 560.9,141.8 561.9,162.5 562.9,193.0 563.8,233.5 564.8,244.5 565.9,194.5 566.8,178.8 567.8,155.7 568.7,188.8 569.8,164.6 570.8,133.8 571.8,116.3 572.8,131.8 573.8,162.4 574.8,182.1 575.7,176.7 576.7,167.6 577.7,146.6 578.7,107.7 579.7,143.3 580.6,201.2 581.6,200.3 582.7,172.2 583.7,143.9 584.7,118.3 585.6,147.2 586.7,168.3 587.6,187.9 588.6,213.5 589.6,194.1 590.6,149.5 591.6,135.3 592.5,162.5 593.5,167.2 594.6,168.4 595.6,138.4 596.6,143.4 597.5,168.4 598.6,177.2 599.5,170.1 600.5,179.4 601.5,183.2 602.5,173.3 603.5,184.2 604.4,177.5 605.4,170.2 606.4,141.2 607.5,121.9 608.5,113.1 609.4,149.7 610.4,185.3 611.4,157.1 612.4,132.2 613.4,164.3 614.3,166.1 615.4,195.8 616.3,234.4 617.3,240.4 618.3,220.1 619.4,185.6 620.4,174.9 621.3,192.3 622.3,220.5 623.3,234.2 624.3,243.2 625.3,184.0 626.2,143.3 627.3,141.5 628.2,155.0 629.2,177.3 630.2,180.9 631.3,154.4 632.3,137.9 633.2,119.8 634.2,136.9 635.1,175.6 636.2,171.6 637.2,195.8 638.1,186.7 639.1,225.8 640.1,239.3 641.1,205.0 642.1,179.0 643.1,121.5 644.2,91.8 645.1,100.5 646.1,107.1 647.0,137.5 648.1,168.8 649.1,164.9 650.0,153.9 651.0,157.3 652.0,157.2 653.0,154.8 654.0,164.3 655.0,175.2 656.1,188.3 657.0,190.5 658.0,196.0 658.9,193.3 660.0,160.0 661.0,120.6 661.9,120.3 662.9,119.2 663.9,121.2 664.9,147.0 665.9,204.1 666.9,200.8 667.9,171.6 668.9,170.1 669.9,170.3" fill="none" stroke="#F44336" stroke-width="1.5" opacity="0.9"/>
  <polyline points="55.0,166.9 56.3,179.7 57.8,152.2 59.3,115.4 60.7,122.7 62.3,151.7 63.7,160.2 65.2,114.6 66.7,141.3 68.2,178.4 69.7,235.6 71.2,261.2 72.6,187.8 74.2,167.0 75.6,162.0 77.1,168.4 78.3,160.9 79.5,154.8 80.6,169.2 81.9,179.3 83.1,191.6 84.2,206.5 85.3,171.3 86.5,211.6 87.6,212.3 88.6,208.8 89.7,189.4 90.8,161.8 91.9,136.4 92.9,108.6 94.1,112.9 95.2,134.1 96.2,149.0 97.2,196.8 98.4,220.8 99.5,172.6 100.5,131.3 101.6,118.0 102.7,173.6 103.8,224.5 104.8,229.3 105.9,198.4 107.1,181.4 108.1,164.4 109.1,128.8 110.2,152.2 111.4,196.4 112.4,212.4 113.5,216.7 114.6,191.8 115.7,204.3 116.7,185.5 117.8,103.0 119.0,68.3 120.0,77.9 121.0,110.9 122.1,115.2 123.3,134.7 124.3,157.5 125.4,194.1 126.4,196.3 127.6,215.2 128.6,211.1 129.7,189.0 130.8,214.8 131.9,209.1 132.9,199.7 134.0,154.7 135.2,102.3 136.2,71.6 137.3,104.9 138.3,144.8 139.5,139.0 140.5,134.3 141.5,146.6 142.5,141.3 143.6,169.7 144.5,200.6 145.5,227.9 146.4,253.0 147.5,253.0 148.5,207.0 149.5,156.0 150.5,201.1 151.5,238.3 152.5,250.2 153.4,200.5 154.4,150.1 155.4,133.4 156.4,134.2 157.4,172.1 158.3,144.9 159.3,93.5 160.4,87.0 161.3,157.6 162.3,172.6 163.2,118.9 164.3,82.3 165.3,101.9 166.2,115.7 167.2,121.9 168.2,118.9 169.2,155.5 170.2,170.3 171.2,172.8 172.3,144.9 173.2,139.1 174.2,145.9 175.1,209.5 176.2,257.3 177.2,271.0 178.1,232.1 179.1,217.3 180.0,231.9 181.1,186.8 182.1,134.7 183.1,113.6 184.1,141.2 185.1,176.0 186.1,216.2 187.0,231.0 188.0,211.0 189.1,200.4 190.0,181.1 191.0,124.6 191.9,118.1 193.0,140.5 194.0,153.6 195.0,170.6 196.0,185.9 197.0,182.8 198.0,115.3 198.9,92.4 199.9,131.4 201.0,125.1 201.9,106.7 202.9,130.9 203.8,164.6 204.9,151.6 205.9,138.0 206.9,117.9 207.9,193.0 208.9,225.0 209.9,211.7 210.8,171.5 211.8,161.8 212.8,155.0 213.8,171.7 214.8,214.7 215.7,205.9 216.7,197.8 217.8,187.5 218.8,177.8 219.8,168.4 220.7,154.0 221.8,129.5 222.7,96.1 223.7,101.4 224.7,130.9 225.8,153.5 227.0,160.6 228.1,146.7 229.1,155.5 230.1,172.6 231.1,232.5 232.1,234.1 233.1,236.0 234.2,188.4 235.1,185.7 236.1,195.2 237.0,168.9 238.1,137.2 239.2,143.0 240.3,155.9 241.3,141.6 242.4,130.3 243.3,150.7 244.3,166.1 245.2,194.4 246.3,200.4 247.3,214.6 248.2,206.0 249.2,216.9 250.2,206.1 251.2,186.7 252.2,183.6 253.2,177.0 254.3,156.5 255.2,105.4 256.2,126.7 257.1,165.8 258.2,157.8 259.2,136.9 260.0,150.8 261.0,161.7 262.1,176.0 263.1,154.7 264.1,134.2 265.0,152.0 266.0,173.7 267.0,179.8 268.0,166.4 269.0,140.4 269.9,93.8 271.0,82.5 271.9,146.2 272.9,185.0 273.9,201.8 275.0,223.1 276.0,235.7 276.9,215.2 277.9,182.4 278.9,208.0 279.9,212.2 280.9,175.8 281.8,197.3 282.9,196.6 283.8,185.8 284.8,172.7 285.8,176.4 286.9,191.5 287.9,187.5 288.8,160.5 289.8,121.9 290.8,141.0 291.8,155.7 292.8,173.4 293.7,195.7 294.7,175.1 295.7,183.1 296.7,112.4 297.7,91.3 298.7,161.5 299.8,172.7 300.7,202.3 301.7,229.5 302.6,197.5 303.7,166.3 304.7,163.8 305.6,166.5 306.6,191.4 307.6,185.5 308.6,243.6 309.6,271.8 310.6,246.5 311.7,176.1 312.6,96.4 313.6,103.6 314.5,145.5 315.6,144.5 316.6,170.9 317.5,164.0 318.5,149.6 319.5,182.3 320.5,172.0 321.5,144.6 322.5,130.6 323.5,165.2 324.5,145.9 325.5,168.5 326.4,132.1 327.4,109.7 328.5,138.2 329.4,135.7 330.4,159.2 331.3,167.4 332.4,199.8 333.4,174.2 334.4,152.4 335.4,131.7 336.4,124.9 337.4,112.4 338.3,115.8 339.3,145.7 340.4,170.7 341.3,160.5 342.3,205.1 343.2,247.6 344.3,279.5 345.3,248.1 346.3,221.1 347.3,204.2 348.3,158.6 349.3,114.8 350.2,80.0 351.2,84.6 352.2,109.8 353.2,87.1 354.2,73.0 355.1,75.8 356.1,132.1 357.2,171.9 358.2,177.4 359.2,226.1 360.1,219.6 361.2,142.7 362.1,144.2 363.0,158.5 364.0,211.6 365.0,161.4 366.0,113.2 367.0,118.6 368.0,137.1 369.1,139.9 370.0,185.2 371.0,224.0 371.9,250.4 373.0,243.2 374.0,186.6 374.9,168.1 375.9,173.6 376.9,164.6 377.9,175.6 378.9,218.3 379.9,195.2 380.9,174.3 381.9,145.9 382.9,144.6 383.8,146.8 384.8,107.8 385.9,119.9 386.8,118.3 387.8,135.2 388.7,195.5 389.8,243.8 390.8,240.3 391.8,232.6 392.8,167.3 393.8,172.3 394.8,184.9 395.7,157.0 396.7,142.6 397.8,169.4 398.7,167.7 399.7,127.7 400.6,146.7 401.7,191.0 402.7,241.1 403.7,268.2 404.7,246.8 405.7,204.6 406.7,180.3 407.6,134.9 408.6,92.8 409.6,71.5 410.6,87.9 411.6,95.1 412.5,98.1 413.5,85.3 414.6,118.9 415.6,170.3 416.6,227.7 417.5,219.4 418.6,211.7 419.5,201.7 420.5,187.7 421.5,180.6 422.5,185.8 423.5,200.7 424.4,213.0 425.4,198.4 426.5,231.3 427.5,236.0 428.5,221.2 429.4,189.7 430.5,173.6 431.4,159.2 432.4,135.1 433.4,155.2 434.4,170.2 435.4,146.2 436.3,96.9 437.3,82.4 438.3,97.5 439.4,78.0 440.4,114.3 441.3,157.3 442.3,223.1 443.3,245.7 444.3,225.3 445.3,188.4 446.2,177.3 447.3,197.7 448.2,215.2 449.2,170.3 450.2,119.4 451.3,69.7 452.3,36.2 453.2,75.9 454.2,110.1 455.2,159.7 456.2,148.0 457.2,131.9 458.1,123.2 459.2,161.2 460.1,189.1 461.1,228.6 462.1,227.5 463.2,200.4 464.2,165.4 465.0,162.1 466.0,150.1 467.0,175.6 468.0,178.9 469.0,163.4 469.9,200.7 470.9,260.2 472.0,277.8 473.0,229.5 474.0,157.7 474.9,117.7 476.0,97.7 476.9,136.0 477.9,151.6 478.9,149.7 479.9,126.9 480.9,155.0 481.8,161.2 482.8,159.2 483.9,117.8 484.9,116.4 485.9,156.1 486.8,204.8 487.9,215.5 488.8,191.0 489.8,184.8 490.8,212.7 491.8,242.2 492.8,238.6 493.7,227.3 494.7,226.0 495.9,182.9 497.0,159.5 498.0,154.0 499.0,145.6 500.0,136.8 501.0,119.3 501.9,108.8 502.9,88.5 503.9,85.4 504.9,115.8 505.9,160.8 506.8,128.0 507.8,100.2 508.9,108.9 509.9,117.8 510.9,153.4 511.8,185.8 512.9,202.1 513.8,212.7 514.8,203.1 515.8,171.1 516.8,158.1 517.8,185.3 518.7,176.7 519.7,173.3 520.8,167.3 521.8,141.6 522.8,136.1 523.7,169.3 524.8,181.6 525.7,189.7 526.7,168.6 527.7,136.5 528.7,159.8 529.7,232.1 530.6,232.5 531.6,206.1 532.6,195.7 533.7,187.2 534.7,183.5 535.6,182.1 536.6,183.8 537.6,178.8 538.8,193.8 539.9,214.3 541.1,194.2 542.1,156.0 543.0,115.3 544.0,77.8 545.0,99.7 546.0,163.0 547.0,215.7 548.0,247.1 549.0,232.5 550.0,194.7 551.0,147.1 551.9,165.2 552.9,151.8 554.0,142.5 554.9,131.6 555.9,122.3 556.8,106.3 557.9,133.8 558.9,143.1 559.9,146.8 560.9,141.8 561.9,162.5 562.9,193.0 563.8,233.4 564.8,244.6 565.9,194.5 566.8,178.8 567.8,155.7 568.7,188.8 569.8,164.6 570.8,133.8 571.8,116.4 572.8,131.7 573.8,162.4 574.8,182.1 575.7,176.8 576.7,167.6 577.7,146.6 578.7,107.7 579.7,143.3 580.6,201.2 581.6,200.3 582.7,172.2 583.7,144.0 584.7,118.3 585.6,147.1 586.7,168.3 587.6,187.9 588.6,213.5 589.6,194.1 590.6,149.5 591.6,135.3 592.5,162.5 593.5,167.2 594.6,168.5 595.6,138.4 596.6,143.4 597.5,168.5 598.6,177.2 599.5,170.1 600.5,179.4 601.5,183.3 602.5,173.3 603.5,184.2 604.4,177.5 605.4,170.2 606.4,141.2 607.5,121.9 608.5,113.1 609.4,149.7 610.4,185.3 611.4,157.0 612.4,132.2 613.4,164.4 614.3,166.1 615.4,195.8 616.3,234.4 617.3,240.4 618.3,220.2 619.4,185.7 620.4,175.0 621.3,192.3 622.3,220.5 623.3,234.2 624.3,243.2 625.3,184.0 626.2,143.3 627.3,141.5 628.2,155.0 629.2,177.4 630.2,180.8 631.3,154.4 632.3,138.0 633.2,119.8 634.2,136.9 635.1,175.6 636.2,171.6 637.2,195.8 638.1,186.7 639.1,225.8 640.1,239.3 641.1,205.0 642.1,179.0 643.1,121.5 644.2,91.7 645.1,100.5 646.1,107.1 647.0,137.5 648.1,168.9 649.1,164.9 650.0,153.9 651.0,157.3 652.0,157.2 653.0,154.8 654.0,164.3 655.0,175.1 656.1,188.3 657.0,190.5 658.0,196.0 658.9,193.2 660.0,160.1 661.0,120.6 661.9,120.3 662.9,119.2 663.9,121.2 664.9,147.1 665.9,204.1 666.9,200.8 667.9,171.6 668.9,170.1 669.9,170.3" fill="none" stroke="#4CAF50" stroke-width="1.5" opacity="0.9"/>
  <polyline points="55.0,166.9 56.3,180.8 57.8,153.5 59.3,116.1 60.7,123.1 62.3,151.6 63.7,159.9 65.2,114.4 66.7,141.0 68.2,178.2 69.7,235.4 71.2,261.2 72.6,187.9 74.2,167.1 75.6,161.9 77.1,168.5 78.3,161.0 79.5,154.9 80.6,169.2 81.9,179.3 83.1,191.6 84.2,206.5 85.3,171.3 86.5,211.6 87.6,212.2 88.6,208.8 89.7,189.5 90.8,161.7 91.9,136.4 92.9,108.6 94.1,112.9 95.2,134.1 96.2,149.0 97.2,196.9 98.4,220.8 99.5,172.6 100.5,131.3 101.6,118.0 102.7,173.6 103.8,224.5 104.8,229.4 105.9,198.5 107.1,181.5 108.1,164.4 109.1,128.9 110.2,152.1 111.4,196.4 112.4,212.3 113.5,216.6 114.6,191.8 115.7,204.4 116.7,185.5 117.8,103.0 119.0,68.2 120.0,77.8 121.0,110.8 122.1,115.2 123.3,134.7 124.3,157.5 125.4,194.0 126.4,196.3 127.6,215.2 128.6,211.1 129.7,188.9 130.8,214.8 131.9,209.2 132.9,199.7 134.0,154.7 135.2,102.3 136.2,71.6 137.3,104.8 138.3,144.9 139.5,139.0 140.5,134.2 141.5,146.6 142.5,141.3 143.6,169.8 144.5,200.5 145.5,227.9 146.4,253.0 147.5,253.0 148.5,207.1 149.5,155.9 150.5,201.1 151.5,238.3 152.5,250.1 153.4,200.4 154.4,150.1 155.4,133.4 156.4,134.3 157.4,172.2 158.3,144.8 159.3,93.5 160.4,87.0 161.3,157.5 162.3,172.7 163.2,118.9 164.3,82.3 165.3,101.9 166.2,115.7 167.2,121.9 168.2,118.9 169.2,155.5 170.2,170.3 171.2,172.8 172.3,144.9 173.2,139.1 174.2,145.9 175.1,209.5 176.2,257.4 177.2,271.0 178.1,232.0 179.1,217.3 180.0,231.9 181.1,186.7 182.1,134.7 183.1,113.6 184.1,141.2 185.1,176.1 186.1,216.2 187.0,231.0 188.0,211.0 189.1,200.4 190.0,181.1 191.0,124.6 191.9,118.1 193.0,140.5 194.0,153.6 195.0,170.7 196.0,185.9 197.0,182.8 198.0,115.3 198.9,92.4 199.9,131.5 201.0,125.1 201.9,106.7 202.9,130.9 203.8,164.6 204.9,151.6 205.9,138.0 206.9,117.8 207.9,192.8 208.9,225.0 209.9,211.6 210.8,171.4 211.8,161.8 212.8,154.9 213.8,171.7 214.8,214.7 215.7,205.9 216.7,197.9 217.8,187.5 218.8,177.8 219.8,168.5 220.7,154.1 221.8,129.7 222.7,96.1 223.7,101.4 224.7,130.9 225.8,153.3 227.0,160.6 228.1,146.6 229.1,155.4 230.1,172.6 231.1,232.4 232.1,234.1 233.1,235.9 234.2,188.4 235.1,185.7 236.1,195.2 237.0,169.0 238.1,137.2 239.2,143.0 240.3,155.8 241.3,141.5 242.4,130.4 243.3,150.7 244.3,166.0 245.2,194.3 246.3,200.3 247.3,214.6 248.2,206.1 249.2,216.9 250.2,206.2 251.2,186.7 252.2,183.6 253.2,177.0 254.3,156.5 255.2,105.4 256.2,126.7 257.1,165.8 258.2,157.7 259.2,136.8 260.0,150.8 261.0,157.2 262.1,183.9 263.1,154.7 264.1,132.5 265.0,153.5 266.0,174.0 267.0,179.2 268.0,166.7 269.0,140.6 269.9,93.7 271.0,82.5 271.9,146.3 272.9,184.9 273.9,201.9 275.0,223.1 276.0,235.6 276.9,215.2 277.9,182.4 278.9,208.0 279.9,212.1 280.9,175.8 281.8,197.4 282.9,196.6 283.8,185.8 284.8,172.7 285.8,176.4 286.9,191.4 287.9,187.5 288.8,160.5 289.8,121.9 290.8,141.1 291.8,155.6 292.8,173.4 293.7,195.7 294.7,175.1 295.7,183.0 296.7,112.4 297.7,91.3 298.7,161.4 299.8,172.7 300.7,202.3 301.7,229.4 302.6,197.6 303.7,166.2 304.7,163.8 305.6,166.5 306.6,191.4 307.6,185.5 308.6,243.6 309.6,271.8 310.6,246.5 311.7,176.0 312.6,96.5 313.6,103.5 314.5,145.5 315.6,144.5 316.6,170.9 317.5,163.9 318.5,149.5 319.5,182.4 320.5,172.0 321.5,144.6 322.5,130.7 323.5,165.2 324.5,145.9 325.5,168.5 326.4,132.1 327.4,109.6 328.5,138.2 329.4,135.7 330.4,159.1 331.3,167.3 332.4,199.7 333.4,174.1 334.4,152.4 335.4,131.7 336.4,125.0 337.4,112.4 338.3,115.8 339.3,145.8 340.4,170.7 341.3,160.4 342.3,205.2 343.2,247.6 344.3,279.4 345.3,248.0 346.3,221.0 347.3,204.2 348.3,158.6 349.3,114.8 350.2,80.0 351.2,84.5 352.2,109.8 353.2,87.1 354.2,73.0 355.1,75.8 356.1,132.0 357.2,171.9 358.2,177.4 359.2,226.1 360.1,219.6 361.2,142.7 362.1,144.3 363.0,158.4 364.0,211.6 365.0,161.4 366.0,113.2 367.0,118.6 368.0,137.1 369.1,139.9 370.0,185.1 371.0,223.9 371.9,250.5 373.0,243.1 374.0,186.7 374.9,168.1 375.9,173.7 376.9,164.6 377.9,175.5 378.9,218.4 379.9,195.2 380.9,174.3 381.9,145.8 382.9,144.6 383.8,146.8 384.8,107.9 385.9,119.9 386.8,118.3 387.8,135.1 388.7,195.5 389.8,243.9 390.8,240.3 391.8,232.5 392.8,167.2 393.8,172.3 394.8,184.9 395.7,157.0 396.7,142.6 397.8,169.3 398.7,167.7 399.7,127.7 400.6,146.7 401.7,190.9 402.7,241.0 403.7,268.2 404.7,246.7 405.7,204.7 406.7,180.3 407.6,134.8 408.6,92.8 409.6,71.5 410.6,87.9 411.6,95.2 412.5,98.1 413.5,85.3 414.6,118.9 415.6,170.3 416.6,227.6 417.5,219.3 418.6,211.7 419.5,201.7 420.5,187.7 421.5,180.7 422.5,185.9 423.5,200.6 424.4,213.0 425.4,198.5 426.5,231.3 427.5,236.0 428.5,221.2 429.4,189.7 430.5,173.5 431.4,159.2 432.4,135.1 433.4,155.2 434.4,170.2 435.4,146.2 436.3,97.0 437.3,82.4 438.3,97.5 439.4,78.0 440.4,114.3 441.3,157.3 442.3,223.1 443.3,245.6 444.3,225.2 445.3,188.4 446.2,177.3 447.3,197.7 448.2,215.2 449.2,170.2 450.2,119.4 451.3,69.7 452.3,36.2 453.2,75.9 454.2,110.1 455.2,159.7 456.2,148.0 457.2,131.9 458.1,123.3 459.2,161.3 460.1,189.0 461.1,228.6 462.1,227.5 463.2,200.5 464.2,165.4 465.0,162.0 466.0,154.6 467.0,167.8 468.0,178.0 469.0,165.5 469.9,199.4 470.9,259.7 472.0,278.5 473.0,229.3 474.0,157.5 474.9,117.8 476.0,97.7 476.9,135.9 477.9,151.7 478.9,149.7 479.9,126.9 480.9,154.9 481.8,161.3 482.8,159.3 483.9,117.8 484.9,116.4 485.9,156.1 486.8,204.7 487.9,215.6 488.8,191.0 489.8,184.8 490.8,212.8 491.8,242.2 492.8,238.6 493.7,227.4 494.7,226.0 495.9,182.9 497.0,159.5 498.0,154.0 499.0,145.6 500.0,136.8 501.0,119.2 501.9,108.7 502.9,88.5 503.9,85.4 504.9,115.9 505.9,160.9 506.8,128.0 507.8,100.2 508.9,108.9 509.9,117.7 510.9,153.4 511.8,185.7 512.9,202.1 513.8,212.7 514.8,203.1 515.8,171.1 516.8,158.1 517.8,185.3 518.7,176.6 519.7,173.3 520.8,167.3 521.8,141.6 522.8,136.0 523.7,169.4 524.8,181.5 525.7,189.7 526.7,168.7 527.7,136.6 528.7,159.8 529.7,232.1 530.6,232.4 531.6,206.1 532.6,195.7 533.7,187.2 534.7,183.6 535.6,182.2 536.6,183.8 537.6,178.8 538.8,193.8 539.9,214.2 541.1,194.2 542.1,156.0 543.0,115.4 544.0,77.8 545.0,99.7 546.0,163.0 547.0,215.7 548.0,247.1 549.0,232.5 550.0,194.7 551.0,147.1 551.9,165.3 552.9,151.8 554.0,142.5 554.9,131.7 555.9,122.3 556.8,106.3 557.9,133.8 558.9,143.2 559.9,146.8 560.9,141.7 561.9,162.5 562.9,193.0 563.8,233.4 564.8,244.5 565.9,194.4 566.8,178.8 567.8,155.7 568.7,188.9 569.8,164.6 570.8,133.8 571.8,116.3 572.8,131.8 573.8,162.4 574.8,182.1 575.7,176.8 576.7,167.6 577.7,146.6 578.7,107.6 579.7,143.3 580.6,201.2 581.6,200.3 582.7,172.2 583.7,143.9 584.7,118.2 585.6,147.1 586.7,168.2 587.6,187.9 588.6,213.5 589.6,194.1 590.6,149.6 591.6,135.4 592.5,162.6 593.5,167.2 594.6,168.4 595.6,138.4 596.6,143.3 597.5,168.4 598.6,177.1 599.5,170.1 600.5,179.5 601.5,183.2 602.5,173.3 603.5,184.3 604.4,177.4 605.4,170.2 606.4,141.2 607.5,122.0 608.5,113.2 609.4,149.7 610.4,185.3 611.4,157.0 612.4,132.2 613.4,164.4 614.3,166.1 615.4,195.8 616.3,234.4 617.3,240.4 618.3,220.1 619.4,185.6 620.4,175.0 621.3,192.3 622.3,220.5 623.3,234.2 624.3,243.3 625.3,184.1 626.2,143.3 627.3,141.4 628.2,154.9 629.2,177.3 630.2,180.9 631.3,154.4 632.3,138.0 633.2,119.8 634.2,136.9 635.1,175.6 636.2,171.5 637.2,195.8 638.1,186.7 639.1,225.8 640.1,239.2 641.1,205.0 642.1,179.0 643.1,121.5 644.2,91.8 645.1,100.5 646.1,107.1 647.0,137.5 648.1,168.8 649.1,164.8 650.0,153.9 651.0,157.3 652.0,157.1 653.0,154.8 654.0,164.3 655.0,175.2 656.1,188.4 657.0,190.6 658.0,196.0 658.9,193.2 660.0,160.0 661.0,120.6 661.9,120.3 662.9,119.2 663.9,121.3 664.9,147.1 665.9,204.2 666.9,200.9 667.9,171.5 668.9,170.1 669.9,170.3" fill="none" stroke="#FF9800" stroke-width="1.5" opacity="0.9"/>
  <line x1="610" y1="30" x2="625" y2="30" stroke="#2196F3" stroke-width="2"/>
  <text x="630" y="34" class="tick">f1</text>
  <line x1="610" y1="46" x2="625" y2="46" stroke="#F44336" stroke-width="2"/>
  <text x="630" y="50" class="tick">f2</text>
  <line x1="610" y1="62" x2="625" y2="62" stroke="#4CAF50" stroke-width="2"/>
  <text x="630" y="66" class="tick">f3</text>
  <line x1="610" y1="78" x2="625" y2="78" stroke="#FF9800" stroke-width="2"/>
  <text x="630" y="82" class="tick">f4</text>
</svg>
