<svg xmlns="http://www.w3.org/2000/svg" viewBox="0 0 700 350" width="700" height="350">
  <style>
    text { font-family: monospace; font-size: 11px; fill: #333; }
    .title { font-size: 13px; font-weight: bold; }
    .axis-label { font-size: 11px; }
    .grid { stroke: #e0e0e0; stroke-width: 0.5; }
    .tick { font-size: 9px; fill: #666; }
  </style>
  <rect width="700" height="350" fill="white"/>
  <text x="350" y="13" text-anchor="middle" class="title">Realistic Square Path -- Altitude</text>
  <line x1="55" y1="305.0" x2="670" y2="305.0" class="grid"/>
  <text x="50" y="308.0" text-anchor="end" class="tick">0.7</text>
  <line x1="55" y1="246.99999999999997" x2="670" y2="246.99999999999997" class="grid"/>
  <text x="50" y="249.99999999999997" text-anchor="end" class="tick">0.779</text>
  <line x1="55" y1="189.0" x2="670" y2="189.0" class="grid"/>
  <text x="50" y="192.0" text-anchor="end" class="tick">0.857</text>
  <line x1="55" y1="130.99999999999997" x2="670" y2="130.99999999999997" class="grid"/>
  <text x="50" y="133.99999999999997" text-anchor="end" class="tick">0.935</text>
  <line x1="55" y1="73.00000000000003" x2="670" y2="73.00000000000003" class="grid"/>
  <text x="50" y="76.00000000000003" text-anchor="end" class="tick">1.01</text>
  <line x1="55" y1="15.0" x2="670" y2="15.0" class="grid"/>
  <text x="50" y="18.0" text-anchor="end" class="tick">1.09</text>
  <line x1="55.0" y1="15" x2="55.0" y2="305" class="grid"/>
  <text x="55.0" y="319" text-anchor="middle" class="tick">0</text>
  <line x1="157.5" y1="15" x2="157.5" y2="305" class="grid"/>
  <text x="157.5" y="319" text-anchor="middle" class="tick">5</text>
  <line x1="260.0" y1="15" x2="260.0" y2="305" class="grid"/>
  <text x="260.0" y="319" text-anchor="middle" class="tick">10</text>
  <line x1="362.5" y1="15" x2="362.5" y2="305" class="grid"/>
  <text x="362.5" y="319" text-anchor="middle" class="tick">15</text>
  <line x1="465.0" y1="15" x2="465.0" y2="305" class="grid"/>
  <text x="465.0" y="319" text-anchor="middle" class="tick">20</text>
  <line x1="567.5" y1="15" x2="567.5" y2="305" class="grid"/>
  <text x="567.5" y="319" text-anchor="middle" class="tick">25</text>
  <line x1="670.0" y1="15" x2="670.0" y2="305" class="grid"/>
  <text x="670.0" y="319" text-anchor="middle" class="tick">30</text>
  <line x1="55" y1="15" x2="55" y2="305" stroke="#333" stroke-width="1"/>
  <line x1="55" y1="305" x2="670" y2="305" stroke="#333" stroke-width="1"/>
  <text x="362" y="345" text-anchor="middle" class="axis-label">time [s]</text>
  <text x="12" y="160" text-anchor="middle" class="axis-label" transform="rotate(-90,12,160)">z [m]</text>
  <line x1="55" y1="82.51157586495069" x2="670" y2="82.51157586495069" stroke="#888" stroke-width="1" stroke-dasharray="6,3"/>
  <text x="672" y="85.51157586495069" class="tick" fill="#888">z_ref=1.0</text>
  <polyline points="55.0,82.5 56.3,82.5 57.8,82.8 59.3,82.5 60.7,80.5 62.3,77.0 63.7,73.2 65.2,68.4 66.7,62.3 68.2,54.7 69.7,47.8 71.2,43.0 72.6,41.3 74.2,40.4 75.6,39.6 77.1,38.7 78.3,38.1 79.5,37.3 80.6,36.5 81.9,35.6 83.1,35.0 84.2,35.1 85.3,35.9 86.5,37.0 87.6,38.8 88.6,41.2 89.7,44.7 90.8,48.3 91.9,52.1 92.9,55.0 94.1,57.3 95.2,58.4 96.2,58.8 97.2,59.0 98.4,59.8 99.5,61.6 100.5,63.3 101.6,64.6 102.7,64.9 103.8,65.5 104.8,66.9 105.9,69.7 107.1,73.1 108.1,76.5 109.1,79.8 110.2,82.9 111.4,85.8 112.4,88.7 113.5,92.9 114.6,97.5 115.7,103.1 116.7,108.8 117.8,115.3 119.0,120.8 120.0,124.0 121.0,125.7 122.1,126.6 123.3,126.5 124.3,125.7 125.4,124.7 126.4,124.2 127.6,124.3 128.6,125.2 129.7,127.0 130.8,129.3 131.9,132.2 132.9,135.8 134.0,140.2 135.2,144.5 136.2,147.2 137.3,148.5 138.3,148.6 139.5,148.2 140.5,147.3 141.5,146.0 142.5,144.2 143.6,142.1 144.5,140.3 145.5,138.7 146.4,138.2 147.5,138.9 148.5,141.0 149.5,143.8 150.5,146.6 151.5,149.6 152.5,154.0 153.4,159.1 154.4,165.2 155.4,171.1 156.4,176.0 157.4,180.9 158.3,185.3 159.3,189.9 160.4,193.3 161.3,195.3 162.3,197.3 163.2,199.1 164.3,200.4 165.3,200.3 166.2,199.3 167.2,197.4 168.2,194.9 169.2,191.6 170.2,187.9 171.2,184.3 172.3,180.7 173.2,177.2 174.2,172.9 175.1,168.7 176.2,164.7 177.2,162.2 178.1,161.4 179.1,161.5 180.0,162.3 181.1,164.1 182.1,166.3 183.1,168.0 184.1,168.8 185.1,169.2 186.1,169.8 187.0,171.0 188.0,173.3 189.1,176.4 190.0,179.6 191.0,183.3 191.9,186.2 193.0,188.7 194.0,190.6 195.0,192.4 196.0,194.2 197.0,196.0 198.0,198.2 198.9,199.4 199.9,199.7 201.0,199.4 201.9,198.5 202.9,196.5 203.8,194.2 204.9,191.6 205.9,188.7 206.9,185.3 207.9,181.3 208.9,178.0 209.9,175.2 210.8,173.3 211.8,171.3 212.8,169.3 213.8,167.3 214.8,165.2 215.7,163.9 216.7,163.0 217.8,162.7 218.8,162.7 219.8,162.9 220.7,163.1 221.8,163.1 222.7,162.5 223.7,160.9 224.7,158.1 225.8,154.6 227.0,150.2 228.1,146.0 229.1,142.0 230.1,138.2 231.1,134.2 232.1,131.1 233.1,129.2 234.2,128.3 235.1,127.8 236.1,127.6 237.0,127.8 238.1,128.0 239.2,127.7 240.3,126.9 241.3,126.0 242.4,124.7 243.3,123.0 244.3,120.8 245.2,118.9 246.3,117.2 247.3,116.0 248.2,115.6 249.2,115.7 250.2,116.5 251.2,118.0 252.2,119.9 253.2,121.9 254.3,124.2 255.2,126.0 256.2,127.2 257.1,127.7 258.2,128.1 259.2,128.3 260.0,128.2 261.0,127.7 262.1,127.2 263.1,126.7 264.1,126.1 265.0,125.1 266.0,123.7 267.0,122.5 268.0,121.4 269.0,120.2 269.9,118.7 271.0,116.0 271.9,112.4 272.9,108.0 273.9,104.0 275.0,100.5 276.0,97.9 276.9,96.5 277.9,95.7 278.9,95.2 279.9,95.4 280.9,96.2 281.8,97.2 282.9,98.7 283.8,100.5 284.8,102.8 285.8,105.3 286.9,107.8 287.9,110.8 288.8,113.7 289.8,116.8 290.8,119.0 291.8,121.0 292.8,122.9 293.7,124.7 294.7,127.1 295.7,129.5 296.7,132.1 297.7,133.9 298.7,134.6 299.8,135.1 300.7,135.6 301.7,136.8 302.6,138.8 303.7,141.4 304.7,144.0 305.6,146.3 306.6,149.0 307.6,151.7 308.6,155.1 309.6,159.8 310.6,166.1 311.7,173.7 312.6,180.7 313.6,187.4 314.5,192.6 315.6,197.9 316.6,202.9 317.5,207.4 318.5,212.3 319.5,216.5 320.5,221.4 321.5,226.3 322.5,230.8 323.5,234.9 324.5,238.5 325.5,242.2 326.4,245.5 327.4,248.6 328.5,250.9 329.4,252.4 330.4,253.6 331.3,254.6 332.4,255.8 333.4,257.4 334.4,259.2 335.4,260.7 336.4,261.5 337.4,261.7 338.3,261.2 339.3,259.8 340.4,258.1 341.3,256.6 342.3,254.9 343.2,253.9 344.3,254.1 345.3,256.1 346.3,259.5 347.3,263.8 348.3,268.3 349.3,273.1 350.2,276.7 351.2,279.4 352.2,280.6 353.2,280.9 354.2,280.0 355.1,277.8 356.1,274.1 357.2,269.7 358.2,265.3 359.2,261.3 360.1,258.5 361.2,256.0 362.1,253.6 363.0,250.8 364.0,247.7 365.0,245.4 366.0,242.8 367.0,239.4 368.0,235.2 369.1,230.4 370.0,225.8 371.0,221.1 371.9,217.6 373.0,215.0 374.0,213.7 374.9,212.9 375.9,212.0 376.9,211.3 377.9,210.6 378.9,210.1 379.9,210.3 380.9,211.1 381.9,211.8 382.9,212.4 383.8,212.7 384.8,212.6 385.9,211.5 386.8,209.8 387.8,207.2 388.7,204.4 389.8,201.7 390.8,200.2 391.8,200.0 392.8,200.7 393.8,201.5 394.8,202.5 395.7,203.6 396.7,204.7 397.8,205.5 398.7,206.2 399.7,206.9 400.6,207.0 401.7,206.9 402.7,207.2 403.7,208.6 404.7,211.8 405.7,215.8 406.7,220.8 407.6,225.5 408.6,230.1 409.6,233.5 410.6,235.3 411.6,236.0 412.5,235.6 413.5,234.0 414.6,231.0 415.6,227.3 416.6,223.7 417.5,221.1 418.6,219.1 419.5,218.0 420.5,217.2 421.5,216.9 422.5,216.8 423.5,216.9 424.4,217.6 425.4,219.0 426.5,221.0 427.5,224.1 428.5,228.3 429.4,232.8 430.5,238.2 431.4,243.1 432.4,248.5 433.4,253.4 434.4,257.7 435.4,262.5 436.3,266.5 437.3,269.8 438.3,271.7 439.4,272.4 440.4,271.7 441.3,270.3 442.3,268.7 443.3,267.9 444.3,268.3 445.3,269.7 446.2,271.2 447.3,273.2 448.2,275.5 449.2,278.6 450.2,281.8 451.3,284.2 452.3,285.0 453.2,283.9 454.2,281.3 455.2,278.1 456.2,274.3 457.2,270.2 458.1,266.1 459.2,260.9 460.1,256.1 461.1,251.1 462.1,247.1 463.2,244.1 464.2,241.6 465.0,239.7 466.0,237.1 467.0,234.4 468.0,232.0 469.0,229.5 469.9,227.3 470.9,225.4 472.0,225.1 473.0,226.4 474.0,228.8 474.9,230.9 476.0,232.4 476.9,232.9 477.9,232.9 478.9,232.7 479.9,232.2 480.9,231.1 481.8,230.0 482.8,228.6 483.9,227.0 484.9,224.6 485.9,221.4 486.8,218.4 487.9,215.7 488.8,213.9 489.8,212.3 490.8,211.1 491.8,210.7 492.8,211.4 493.7,213.1 494.7,216.0 495.9,220.3 497.0,224.9 498.0,229.1 499.0,233.0 500.0,236.3 501.0,239.4 501.9,241.4 502.9,242.8 503.9,242.9 504.9,241.9 505.9,240.1 506.8,238.2 507.8,235.5 508.9,231.7 509.9,226.9 510.9,221.4 511.8,216.2 512.9,210.8 513.8,206.4 514.8,202.3 515.8,198.7 516.8,195.6 517.8,192.2 518.7,189.2 519.7,186.1 520.8,183.2 521.8,180.2 522.8,176.8 523.7,173.4 524.8,169.6 525.7,166.4 526.7,163.2 527.7,160.0 528.7,156.7 529.7,153.1 530.6,150.7 531.6,149.1 532.6,148.2 533.7,147.7 534.7,147.6 535.6,147.7 536.6,148.0 537.6,148.6 538.8,149.6 539.9,151.0 541.1,153.3 542.1,155.9 543.0,158.0 544.0,159.6 545.0,159.7 546.0,158.9 547.0,158.0 548.0,157.9 549.0,159.0 550.0,161.0 551.0,163.6 551.9,165.7 552.9,167.9 554.0,169.9 554.9,171.3 555.9,172.3 556.8,172.5 557.9,171.9 558.9,170.7 559.9,169.0 560.9,167.0 561.9,164.8 562.9,162.3 563.8,160.5 564.8,159.6 565.9,159.9 566.8,160.6 567.8,161.5 568.7,162.3 569.8,163.4 570.8,164.5 571.8,165.0 572.8,164.8 573.8,164.1 574.8,163.3 575.7,162.7 576.7,162.2 577.7,161.7 578.7,161.0 579.7,159.4 580.6,157.6 581.6,156.1 582.7,155.1 583.7,154.2 584.7,152.9 585.6,151.1 586.7,148.7 587.6,146.6 588.6,144.5 589.6,143.2 590.6,142.4 591.6,141.2 592.5,139.7 593.5,138.0 594.6,136.3 595.6,134.6 596.6,132.4 597.5,130.1 598.6,127.6 599.5,125.4 600.5,123.1 601.5,121.0 602.5,119.4 603.5,117.8 604.4,116.6 605.4,115.4 606.4,114.3 607.5,112.8 608.5,110.5 609.4,107.7 610.4,104.3 611.4,101.3 612.4,97.9 613.4,94.0 614.3,90.5 615.4,86.6 616.3,83.5 617.3,81.1 618.3,79.9 619.4,79.6 620.4,79.7 621.3,79.8 622.3,80.5 623.3,81.8 624.3,84.3 625.3,88.0 626.2,91.7 627.3,95.4 628.2,98.4 629.2,101.6 630.2,105.0 631.3,108.6 632.3,112.1 633.2,114.7 634.2,116.9 635.1,118.4 636.2,120.2 637.2,122.0 638.1,124.0 639.1,126.7 640.1,129.9 641.1,134.5 642.1,139.8 643.1,145.2 644.2,149.8 645.1,152.9 646.1,155.3 647.0,156.6 648.1,157.6 649.1,158.6 650.0,159.5 651.0,160.2 652.0,160.7 653.0,161.2 654.0,161.4 655.0,161.6 656.1,162.0 657.0,162.5 658.0,163.6 658.9,164.9 660.0,166.7 661.0,168.5 661.9,169.4 662.9,169.7 663.9,169.3 664.9,168.2 665.9,166.8 666.9,165.9 667.9,165.5 668.9,165.3 669.9,165.1" fill="none" stroke="#2196F3" stroke-width="1.5" opacity="0.9"/>
  <line x1="610" y1="30" x2="625" y2="30" stroke="#2196F3" stroke-width="2"/>
  <text x="630" y="34" class="tick">altitude</text>
</svg>
