<svg xmlns="http://www.w3.org/2000/svg" viewBox="0 0 400 400" width="400" height="400">
  <style>
    text { font-family: monospace; font-size: 11px; fill: #333; }
    .title { font-size: 13px; font-weight: bold; }
    .axis-label { font-size: 11px; }
    .grid { stroke: #e0e0e0; stroke-width: 0.5; }
    .tick { font-size: 9px; fill: #666; }
  </style>
  <rect width="400" height="400" fill="white"/>
  <text x="200" y="47" text-anchor="middle" class="title">Realistic Square Path -- XY Trajectory</text>
  <line x1="55.0" y1="55" x2="55.0" y2="345" class="grid"/>
  <line x1="55" y1="345.0" x2="345" y2="345.0" class="grid"/>
  <text x="55.0" y="359" text-anchor="middle" class="tick">-0.53</text>
  <text x="50" y="348.0" text-anchor="end" class="tick">-0.10</text>
  <line x1="113.0" y1="55" x2="113.0" y2="345" class="grid"/>
  <line x1="55" y1="287.0" x2="345" y2="287.0" class="grid"/>
  <text x="113.0" y="359" text-anchor="middle" class="tick">-0.29</text>
  <text x="50" y="290.0" text-anchor="end" class="tick">0.14</text>
  <line x1="171.0" y1="55" x2="171.0" y2="345" class="grid"/>
  <line x1="55" y1="229.0" x2="345" y2="229.0" class="grid"/>
  <text x="171.0" y="359" text-anchor="middle" class="tick">-0.04</text>
  <text x="50" y="232.0" text-anchor="end" class="tick">0.39</text>
  <line x1="229.0" y1="55" x2="229.0" y2="345" class="grid"/>
  <line x1="55" y1="171.0" x2="345" y2="171.0" class="grid"/>
  <text x="229.0" y="359" text-anchor="middle" class="tick">0.21</text>
  <text x="50" y="174.0" text-anchor="end" class="tick">0.64</text>
  <line x1="287.0" y1="55" x2="287.0" y2="345" class="grid"/>
  <line x1="55" y1="113.00000000000003" x2="345" y2="113.00000000000003" class="grid"/>
  <text x="287.0" y="359" text-anchor="middle" class="tick">0.45</text>
  <text x="50" y="116.00000000000003" text-anchor="end" class="tick">0.88</text>
  <line x1="345.0" y1="55" x2="345.0" y2="345" class="grid"/>
  <line x1="55" y1="55.0" x2="345" y2="55.0" class="grid"/>
  <text x="345.0" y="359" text-anchor="middle" class="tick">0.70</text>
  <text x="50" y="58.0" text-anchor="end" class="tick">1.13</text>
  <line x1="55" y1="55" x2="55" y2="345" stroke="#333" stroke-width="1"/>
  <line x1="55" y1="345" x2="345" y2="345" stroke="#333" stroke-width="1"/>
  <text x="200" y="395" text-anchor="middle" class="axis-label">x [m]</text>
  <text x="12" y="200" text-anchor="middle" class="axis-label" transform="rotate(-90,12,200)">y [m]</text>
  <polyline points="180.5,320.8 180.5,320.8 180.5,320.8 180.5,320.8 180.4,320.7 180.3,320.5 180.1,320.3 179.9,319.9 179.6,319.5 179.2,318.9 178.8,318.3 178.3,317.5 177.7,316.7 177.1,315.7 176.5,314.8 175.9,313.9 175.2,312.8 174.5,311.7 173.8,310.4 173.1,309.3 172.3,308.1 171.4,306.7 170.6,305.5 169.8,304.0 168.8,302.5 167.9,301.0 166.9,299.4 165.9,297.8 164.9,296.1 163.8,294.4 162.8,292.7 161.7,290.9 160.5,289.1 159.5,287.3 158.3,285.4 157.1,283.5 155.9,281.6 154.7,279.6 153.6,277.8 152.4,275.8 151.2,273.8 150.1,272.0 148.9,270.0 147.7,268.1 146.6,266.3 145.4,264.3 144.2,262.4 143.1,260.5 141.9,258.6 140.9,256.9 139.8,255.1 138.7,253.3 137.7,251.6 136.6,249.9 135.5,248.2 134.6,246.6 133.6,245.0 132.6,243.4 131.7,241.8 130.8,240.3 129.9,238.9 129.1,237.6 128.4,236.4 127.6,235.1 126.9,233.9 126.2,232.8 125.5,231.7 124.9,230.7 124.3,229.7 123.7,228.7 123.1,227.7 122.5,226.9 122.0,226.0 121.5,225.2 121.0,224.4 120.5,223.6 120.1,222.9 119.8,222.2 119.8,221.6 119.9,221.0 120.3,220.4 120.8,220.0 121.6,219.5 122.5,219.1 123.6,218.7 125.0,218.3 126.5,218.0 128.2,217.7 129.9,217.4 131.8,217.2 133.8,217.0 136.0,216.8 138.3,216.6 140.5,216.4 143.0,216.3 145.3,216.1 148.0,216.0 150.7,215.9 153.5,215.8 156.3,215.7 158.9,215.6 161.8,215.5 164.5,215.5 167.5,215.4 170.4,215.3 173.1,215.3 176.1,215.2 178.8,215.1 181.7,215.1 184.6,215.0 187.5,214.9 190.3,214.9 192.9,214.8 195.6,214.7 198.0,214.6 200.7,214.5 203.2,214.4 205.5,214.3 207.9,214.2 210.1,214.1 212.4,214.0 214.6,213.8 216.7,213.7 218.7,213.5 220.5,213.4 222.4,213.2 224.0,213.1 225.7,212.9 227.3,212.7 228.7,212.6 230.1,212.4 231.4,212.2 232.8,212.0 234.1,211.7 235.1,211.5 236.0,211.3 236.9,211.1 237.6,210.9 238.2,210.7 238.8,210.5 239.3,210.3 239.7,210.1 240.1,209.9 240.4,209.6 240.6,209.4 240.7,209.2 240.8,209.0 240.8,208.8 240.7,208.7 240.6,208.5 240.4,208.3 240.2,208.1 239.9,207.9 239.6,207.8 239.2,207.6 238.8,207.5 238.4,207.3 237.9,207.2 237.4,207.0 236.8,206.9 236.3,206.8 235.8,206.7 235.2,206.5 234.6,206.1 234.0,205.5 233.4,204.8 232.8,203.9 232.2,202.7 231.7,201.6 231.1,200.1 230.6,198.7 230.0,196.9 229.5,195.0 229.0,193.2 228.4,191.1 227.9,189.0 227.4,186.7 226.9,184.3 226.4,181.8 225.9,179.2 225.5,176.7 225.0,174.0 224.6,171.5 224.2,168.6 223.8,165.8 223.4,163.1 223.0,160.2 222.6,157.5 222.2,154.6 221.9,151.6 221.5,148.7 221.2,145.7 220.9,143.0 220.6,140.1 220.3,137.5 220.0,134.6 219.7,131.8 219.4,129.3 219.2,126.6 218.9,124.1 218.7,121.5 218.5,118.9 218.3,116.4 218.1,114.0 217.9,111.8 217.7,109.5 217.6,107.5 217.4,105.3 217.3,103.3 217.2,101.5 217.1,99.6 217.0,97.9 216.9,96.2 216.8,94.5 216.8,93.0 216.8,91.5 216.7,90.3 216.7,89.0 216.7,87.9 216.7,86.7 216.8,85.7 216.8,84.8 216.8,83.9 216.9,83.2 217.0,82.5 217.0,81.9 217.1,81.3 217.3,80.8 217.4,80.4 217.5,80.1 217.6,79.8 217.8,79.6 217.9,79.4 218.1,79.3 218.3,79.2 218.5,79.2 218.7,79.2 218.9,79.3 219.1,79.4 219.3,79.6 219.5,79.8 219.8,80.1 220.0,80.3 220.2,80.6 220.5,81.0 220.7,81.3 221.0,81.7 221.3,82.1 221.4,82.5 221.3,82.9 221.1,83.3 220.7,83.7 220.1,84.0 219.3,84.3 218.4,84.7 217.4,85.0 216.1,85.3 214.8,85.5 213.3,85.8 211.6,86.1 209.7,86.4 207.8,86.6 205.9,86.9 203.8,87.1 201.7,87.3 199.3,87.5 196.9,87.8 194.6,88.0 192.0,88.2 189.6,88.4 186.9,88.6 184.2,88.8 181.4,89.0 178.6,89.3 176.1,89.4 173.2,89.7 170.7,89.9 167.8,90.1 165.0,90.3 162.4,90.5 159.7,90.7 157.1,90.9 154.4,91.1 151.7,91.3 149.0,91.5 146.4,91.8 144.0,92.0 141.5,92.2 139.3,92.4 136.9,92.6 134.6,92.8 132.6,93.0 130.4,93.2 128.4,93.4 126.4,93.6 124.4,93.8 122.5,94.0 120.7,94.2 119.2,94.4 117.5,94.5 116.1,94.7 114.6,94.9 113.1,95.0 111.9,95.1 110.7,95.3 109.6,95.4 108.5,95.5 107.5,95.6 106.6,95.7 105.8,95.8 105.1,95.9 104.5,95.9 104.0,95.9 103.5,96.0 103.0,96.0 102.7,96.0 102.4,96.0 102.1,95.9 102.0,95.9 101.8,95.8 101.8,95.7 101.8,95.6 101.8,95.5 101.9,95.4 102.1,95.3 102.3,95.1 102.5,95.0 102.8,94.8 103.1,94.6 103.4,94.4 103.7,94.2 104.1,94.0 104.5,93.7 105.0,93.5 105.3,93.4 105.8,93.5 106.1,93.8 106.5,94.2 106.8,94.7 107.1,95.4 107.4,96.3 107.7,97.4 108.0,98.6 108.2,100.0 108.5,101.4 108.7,103.1 108.9,104.7 109.1,106.6 109.3,108.6 109.5,110.5 109.7,112.7 109.9,114.8 110.1,117.2 110.3,119.6 110.4,122.1 110.6,124.6 110.8,127.0 111.0,129.9 111.2,132.5 111.4,135.2 111.7,137.9 111.9,140.6 112.1,143.4 112.3,145.8 112.6,148.6 112.8,151.0 113.0,153.7 113.3,156.4 113.5,158.8 113.8,161.3 114.0,163.7 114.3,166.2 114.6,168.6 114.9,171.0 115.2,173.4 115.4,175.5 115.7,177.7 116.0,179.7 116.3,181.8 116.6,183.8 116.8,185.6 117.1,187.4 117.4,189.1 117.7,190.8 118.0,192.4 118.2,194.0 118.5,195.4 118.7,196.7 119.0,198.0 119.2,199.1 119.4,200.3 119.6,201.4 119.8,202.3 120.0,203.3 120.2,204.3 120.4,205.0 120.5,205.6 120.6,206.2 120.7,206.7 120.8,207.1 120.8,207.4 120.9,207.7 120.9,207.9 120.9,208.1 120.9,208.2 120.9,208.2 120.9,208.2 120.8,208.2 120.7,208.1 120.6,207.9 120.5,207.7 120.3,207.5 120.2,207.2 120.0,206.9 119.8,206.6 119.6,206.2 119.3,205.8 119.1,205.4 118.8,205.0 118.5,204.6 118.3,204.1 118.0,203.7 117.6,203.2 117.3,202.7 116.9,202.2 116.6,201.7 116.2,201.2 115.9,200.7 115.5,200.2 115.1,199.7 114.7,199.3 114.3,198.8 113.9,198.4 113.5,197.9 113.0,197.5 112.6,197.0 112.2,196.6 111.8,196.3 111.4,195.9 111.0,195.6 110.6,195.2 110.1,194.9 109.8,194.6 109.4,194.4 109.0,194.1 108.6,193.9 108.3,193.7 107.9,193.5 107.5,193.4 107.2,193.2 106.9,193.1 106.6,193.1 106.3,193.0 106.0,193.0 105.8,192.9 105.5,192.9 105.3,193.0 105.0,193.0 104.8,193.1 104.6,193.2 104.5,193.3 104.3,193.4 104.2,193.5 104.0,193.6 103.9,193.8 103.8,193.9 103.7,194.1 103.7,194.3 103.6,194.5 103.6,194.7 103.6,194.9 103.6,195.2 103.6,195.4 103.6,195.6 103.7,195.9 103.7,196.1 103.8,196.3 103.9,196.6 103.9,196.8 104.1,197.1 104.2,197.3 104.3,197.6 104.4,197.8 104.6,198.1 104.8,198.3 104.9,198.5 105.1,198.8 105.3,199.0 105.5,199.2 105.6,199.4 105.8,199.6 106.0,199.8 106.2,200.0 106.4,200.2 106.6,200.4 106.9,200.6 107.1,200.7 107.3,200.9 107.5,201.0 107.7,201.1 107.9,201.3 108.1,201.4 108.3,201.5" fill="none" stroke="#2196F3" stroke-width="1.5"/>
  <circle cx="180.5140326685324" cy="320.8333333333333" r="4" fill="#4CAF50"/>
  <text x="186.5140326685324" y="316.8333333333333" class="tick" fill="#4CAF50">start</text>
  <circle cx="108.31778802602429" cy="201.50831825318528" r="4" fill="#F44336"/>
  <text x="114.31778802602429" y="197.50831825318528" class="tick" fill="#F44336">end</text>
  <circle cx="298.2407867552602" cy="320.8333333333333" r="5" fill="none" stroke="#FF9800" stroke-width="2"/>
  <text x="305.2407867552602" y="323.8333333333333" class="tick" fill="#FF9800">WP1</text>
  <circle cx="298.2407867552602" cy="203.1065792466055" r="5" fill="none" stroke="#FF9800" stroke-width="2"/>
  <text x="305.2407867552602" y="206.1065792466055" class="tick" fill="#FF9800">WP2</text>
  <circle cx="180.5140326685324" cy="203.1065792466055" r="5" fill="none" stroke="#FF9800" stroke-width="2"/>
  <text x="187.5140326685324" y="206.1065792466055" class="tick" fill="#FF9800">WP3</text>
  <circle cx="180.5140326685324" cy="320.8333333333333" r="5" fill="none" stroke="#FF9800" stroke-width="2"/>
  <text x="187.5140326685324" y="323.8333333333333" class="tick" fill="#FF9800">WP4</text>
</svg>
