<svg xmlns="http://www.w3.org/2000/svg" viewBox="0 0 700 350" width="700" height="350">
  <style>
    text { font-family: monospace; font-size: 11px; fill: #333; }
    .title { font-size: 13px; font-weight: bold; }
    .axis-label { font-size: 11px; }
    .grid { stroke: #e0e0e0; stroke-width: 0.5; }
    .tick { font-size: 9px; fill: #666; }
  </style>
  <rect width="700" height="350" fill="white"/>
  <text x="350" y="13" text-anchor="middle" class="title">Takeoff — Altitude Tracking</text>
  <line x1="55" y1="305.0" x2="670" y2="305.0" class="grid"/>
  <text x="50" y="308.0" text-anchor="end" class="tick">0.92</text>
  <line x1="55" y1="246.99999999999997" x2="670" y2="246.99999999999997" class="grid"/>
  <text x="50" y="249.99999999999997" text-anchor="end" class="tick">1.15</text>
  <line x1="55" y1="189.0" x2="670" y2="189.0" class="grid"/>
  <text x="50" y="192.0" text-anchor="end" class="tick">1.38</text>
  <line x1="55" y1="130.99999999999997" x2="670" y2="130.99999999999997" class="grid"/>
  <text x="50" y="133.99999999999997" text-anchor="end" class="tick">1.62</text>
  <line x1="55" y1="73.00000000000003" x2="670" y2="73.00000000000003" class="grid"/>
  <text x="50" y="76.00000000000003" text-anchor="end" class="tick">1.85</text>
  <line x1="55" y1="15.0" x2="670" y2="15.0" class="grid"/>
  <text x="50" y="18.0" text-anchor="end" class="tick">2.08</text>
  <line x1="55.0" y1="15" x2="55.0" y2="305" class="grid"/>
  <text x="55.0" y="319" text-anchor="middle" class="tick">0</text>
  <line x1="157.5" y1="15" x2="157.5" y2="305" class="grid"/>
  <text x="157.5" y="319" text-anchor="middle" class="tick">2.5</text>
  <line x1="260.0" y1="15" x2="260.0" y2="305" class="grid"/>
  <text x="260.0" y="319" text-anchor="middle" class="tick">5</text>
  <line x1="362.5" y1="15" x2="362.5" y2="305" class="grid"/>
  <text x="362.5" y="319" text-anchor="middle" class="tick">7.5</text>
  <line x1="465.0" y1="15" x2="465.0" y2="305" class="grid"/>
  <text x="465.0" y="319" text-anchor="middle" class="tick">10</text>
  <line x1="567.5" y1="15" x2="567.5" y2="305" class="grid"/>
  <text x="567.5" y="319" text-anchor="middle" class="tick">12.5</text>
  <line x1="670.0" y1="15" x2="670.0" y2="305" class="grid"/>
  <text x="670.0" y="319" text-anchor="middle" class="tick">15</text>
  <line x1="55" y1="15" x2="55" y2="305" stroke="#333" stroke-width="1"/>
  <line x1="55" y1="305" x2="670" y2="305" stroke="#333" stroke-width="1"/>
  <text x="362" y="345" text-anchor="middle" class="axis-label">time [s]</text>
  <text x="12" y="160" text-anchor="middle" class="axis-label" transform="rotate(-90,12,160)">z [m]</text>
  <polyline points="55.0,285.0 56.2,285.0 57.9,285.0 59.5,285.0 61.1,285.0 62.8,285.0 64.4,285.0 66.1,285.0 67.7,285.0 69.4,285.0 71.0,285.0 72.6,285.0 74.3,285.0 75.9,285.0 77.6,285.0 79.2,285.0 80.8,285.0 82.5,285.0 84.1,285.0 85.8,285.0 87.4,285.0 89.0,285.0 90.7,285.0 92.3,285.0 94.0,285.0 95.6,285.0 97.2,285.0 98.9,285.0 100.1,285.0 101.1,285.0 102.4,285.0 103.4,285.0 104.4,285.0 105.6,285.0 106.7,285.0 107.7,285.0 108.9,285.0 109.9,285.0 111.0,285.0 112.2,285.0 113.2,285.0 114.2,285.0 115.5,285.0 116.5,285.0 117.3,285.0 118.3,285.0 119.4,285.0 120.4,285.0 121.4,285.0 122.4,285.0 123.5,285.0 124.5,285.0 125.5,285.0 126.5,285.0 127.6,285.0 128.6,285.0 129.6,285.0 130.4,285.0 131.5,285.0 132.5,285.0 133.5,285.0 134.5,285.0 135.6,285.0 136.6,285.0 137.6,285.0 138.6,285.0 139.7,285.0 140.7,285.0 141.7,285.0 142.7,285.0 143.6,285.0 144.6,285.0 145.6,285.0 146.6,285.0 147.7,285.0 148.7,285.0 149.7,285.0 150.7,285.0 151.8,285.0 152.8,285.0 153.8,285.0 154.8,285.0 155.9,285.0 156.7,285.0 157.7,285.0 158.7,285.0 159.8,285.0 160.8,285.0 161.8,285.0 162.8,285.0 163.9,285.0 164.9,285.0 165.9,285.0 166.9,285.0 168.0,285.0 169.0,285.0 169.8,285.0 170.8,285.0 171.8,285.0 172.9,285.0 173.9,285.0 174.9,285.0 175.9,285.0 177.0,285.0 178.0,285.0 179.0,285.0 180.0,285.0 181.1,285.0 182.1,285.0 182.9,285.0 183.9,285.0 185.0,285.0 186.0,285.0 187.0,285.0 188.0,285.0 189.1,285.0 190.1,285.0 191.1,285.0 192.1,285.0 193.2,285.0 194.2,285.0 195.2,285.0 196.0,285.0 197.1,285.0 198.1,285.0 199.1,285.0 200.1,285.0 201.2,285.0 202.2,285.0 203.2,285.0 204.2,285.0 205.3,285.0 206.3,285.0 207.3,285.0 208.3,285.0 209.2,285.0 210.2,285.0 211.2,285.0 212.2,285.0 213.3,285.0 214.3,285.0 215.3,285.0 216.3,285.0 217.4,285.0 218.4,285.0 219.4,285.0 220.4,285.0 221.5,285.0 222.3,285.0 223.3,285.0 224.3,285.0 225.4,285.0 226.4,285.0 227.4,285.0 228.2,285.0 229.2,285.0 230.3,285.0 231.1,285.0 232.1,285.0 232.9,285.0 234.0,285.0 234.8,285.0 235.8,285.0 236.8,285.0 237.7,285.0 238.7,285.0 239.5,285.0 240.5,285.0 241.3,285.0 242.4,285.0 243.4,285.0 244.2,285.0 245.2,285.0 246.1,285.0 247.1,285.0 247.9,285.0 248.9,285.0 250.0,285.0 250.8,285.0 251.8,285.0 252.6,285.0 253.6,285.0 254.5,285.0 255.5,285.0 256.5,285.0 257.3,285.0 258.4,285.0 259.2,285.0 260.0,285.0 261.0,285.0 261.8,285.0 262.9,285.0 263.9,284.9 264.7,284.8 265.7,284.7 266.6,284.6 267.6,284.4 268.4,284.2 269.4,283.9 270.5,283.5 271.3,283.2 272.3,282.8 273.1,282.4 274.1,281.9 275.0,281.5 276.0,280.9 277.0,280.3 277.8,279.8 278.9,279.1 279.7,278.6 280.7,277.8 281.5,277.2 282.5,276.4 283.6,275.6 284.4,274.9 285.4,274.0 286.2,273.3 287.3,272.3 288.1,271.6 289.1,270.6 290.1,269.7 291.0,268.9 292.0,267.8 292.8,267.0 293.8,266.0 294.6,265.1 295.7,264.1 296.7,263.0 297.5,262.1 298.5,261.0 299.4,260.1 300.4,259.0 301.2,258.1 302.2,257.0 303.3,255.8 304.1,254.9 305.1,253.8 305.9,252.8 306.9,251.7 307.8,250.7 308.8,249.6 309.8,248.4 310.6,247.4 311.7,246.2 312.5,245.3 313.5,244.1 314.3,243.1 315.3,241.9 316.4,240.7 317.2,239.7 318.2,238.5 319.0,237.5 320.1,236.3 320.9,235.4 321.9,234.1 322.9,232.9 323.8,231.9 324.8,230.7 325.6,229.7 326.6,228.5 327.4,227.5 328.5,226.3 329.5,225.0 330.3,224.0 331.3,222.8 332.2,221.8 333.2,220.6 334.0,219.6 335.0,218.4 336.1,217.1 336.9,216.1 337.9,214.9 338.7,213.9 339.7,212.6 340.6,211.7 341.6,210.4 342.6,209.2 343.4,208.2 344.5,206.9 345.3,205.9 346.3,204.7 347.1,203.7 348.1,202.4 349.2,201.2 350.0,200.2 351.0,199.0 351.8,198.0 352.9,196.7 353.7,195.7 354.7,194.5 355.7,193.2 356.6,192.2 357.6,191.0 358.4,190.0 359.4,188.7 360.2,187.7 361.3,186.5 362.3,185.2 363.1,184.2 364.1,183.0 365.0,182.0 366.0,180.7 366.8,179.7 367.8,178.5 368.9,177.2 369.7,176.2 370.7,175.0 371.5,174.0 372.5,172.7 373.4,171.7 374.4,170.5 375.4,169.2 376.2,168.2 377.3,167.0 378.1,166.0 379.1,164.7 379.9,163.7 380.9,162.5 382.0,161.2 382.8,160.2 383.8,159.0 384.6,158.0 385.7,156.7 386.5,155.7 387.5,154.5 388.5,153.2 389.4,152.2 390.4,151.0 391.2,150.0 392.2,148.7 393.0,147.7 394.1,146.5 395.1,145.2 395.9,144.2 397.1,142.7 398.2,141.5 399.2,140.2 400.4,138.7 401.4,137.5 402.5,136.2 403.3,135.2 404.3,134.0 405.1,133.0 406.2,131.7 407.0,130.7 408.0,129.5 409.0,128.2 409.9,127.2 410.9,126.0 411.7,125.0 412.7,123.7 413.5,122.7 414.6,121.5 415.6,120.2 416.4,119.2 417.4,118.0 418.3,117.0 419.3,115.7 420.1,114.7 421.1,113.5 422.2,112.2 423.4,110.7 424.8,109.0 425.8,107.7 426.7,106.7 427.7,105.5 428.7,104.2 429.5,103.2 430.6,102.0 431.4,101.0 432.4,99.7 433.2,98.7 434.3,97.5 435.3,96.2 436.1,95.2 437.1,94.0 437.9,93.0 439.0,91.7 439.8,90.7 440.8,89.5 441.8,88.2 442.7,87.2 443.7,86.0 444.5,85.0 445.5,83.7 446.3,82.7 447.4,81.5 448.4,80.2 449.2,79.2 450.2,78.0 451.1,77.0 452.1,75.7 452.9,74.7 453.9,73.5 455.0,72.2 455.8,71.2 456.8,70.0 457.6,69.0 458.6,67.7 459.5,66.7 460.5,65.5 461.5,64.2 462.3,63.2 463.4,62.0 464.2,61.0 465.0,60.0 466.0,58.8 466.8,57.8 467.9,56.5 468.9,55.4 469.7,54.4 470.7,53.3 471.6,52.4 472.6,51.4 473.4,50.6 474.4,49.6 475.5,48.7 476.3,48.0 477.3,47.2 478.1,46.6 479.1,45.8 480.0,45.2 481.0,44.6 482.0,43.9 482.8,43.4 483.9,42.9 484.7,42.4 485.7,41.9 486.5,41.6 487.6,41.1 488.6,40.7 489.4,40.4 490.4,40.0 491.2,39.7 492.3,39.4 493.1,39.2 494.1,38.9 495.1,38.6 496.0,38.4 497.0,38.2 497.8,38.0 498.8,37.8 499.6,37.6 500.7,37.4 501.7,37.3 502.5,37.1 503.5,37.0 504.4,36.9 505.4,36.7 506.2,36.6 507.2,36.5 508.3,36.4 509.1,36.3 510.1,36.2 510.9,36.2 511.9,36.1 512.8,36.0 513.8,35.9 514.8,35.9 515.6,35.8 516.7,35.8 517.5,35.7 518.5,35.7 519.3,35.6 520.4,35.6 521.4,35.5 522.2,35.5 523.2,35.5 524.0,35.5 525.1,35.4 525.9,35.4 526.9,35.4 527.9,35.3 528.8,35.3 529.8,35.3 530.6,35.3 531.6,35.3 532.4,35.2 533.5,35.2 534.5,35.2 535.3,35.2 536.3,35.2 537.2,35.2 538.2,35.2 539.0,35.2 540.0,35.1 541.1,35.1 541.9,35.1 542.9,35.1 543.7,35.1 544.7,35.1 545.6,35.1 546.6,35.1 547.6,35.1 548.4,35.1 549.5,35.1 550.3,35.1 551.3,35.1 552.1,35.1 553.2,35.1 554.2,35.1 555.0,35.0 556.0,35.0 556.8,35.0 557.9,35.0 558.7,35.0 559.7,35.0 560.7,35.0 561.6,35.0 562.6,35.0 563.4,35.0 564.4,35.0 565.2,35.0 566.3,35.0 567.3,35.0 568.1,35.0 569.1,35.0 570.0,35.0 571.0,35.0 571.8,35.0 572.8,35.0 573.9,35.0 574.7,35.0 575.7,35.0 576.5,35.0 577.5,35.0 578.4,35.0 579.4,35.0 580.4,35.0 581.2,35.0 582.3,35.0 583.1,35.0 584.1,35.0 584.9,35.0 586.0,35.0 587.0,35.0 587.8,35.0 588.8,35.0 589.6,35.0 590.7,35.0 591.5,35.0 592.5,35.0 593.5,35.0 594.4,35.0 595.4,35.0 596.2,35.0 597.2,35.0 598.0,35.0 599.1,35.0 600.1,35.0 600.9,35.0 601.9,35.0 602.8,35.0 603.8,35.0 604.6,35.0 605.6,35.0 606.7,35.0 607.5,35.0 608.5,35.0 609.3,35.0 610.3,35.0 611.2,35.0 612.2,35.0 613.2,35.0 614.0,35.0 615.1,35.0 615.9,35.0 616.9,35.0 617.7,35.0 618.8,35.0 619.8,35.0 620.6,35.0 621.6,35.0 622.4,35.0 623.5,35.0 624.3,35.0 625.3,35.0 626.3,35.0 627.2,35.0 628.2,35.0 629.0,35.0 630.0,35.0 630.8,35.0 631.9,35.0 632.9,35.0 633.7,35.0 634.7,35.0 635.6,35.0 636.6,35.0 637.4,35.0 638.4,35.0 639.5,35.0 640.3,35.0 641.3,35.0 642.1,35.0 643.1,35.0 644.0,35.0 645.0,35.0 646.0,35.0 646.8,35.0 647.9,35.0 648.7,35.0 649.7,35.0 650.5,35.0 651.6,35.0 652.6,35.0 653.4,35.0 654.4,35.0 655.2,35.0 656.3,35.0 657.1,35.0 658.1,35.0 659.1,35.0 660.0,35.0 661.0,35.0 661.8,35.0 662.8,35.0 663.6,35.0 664.7,35.0 665.7,35.0 666.5,35.0 667.5,35.0 668.4,35.0 669.4,35.0" fill="none" stroke="#2196F3" stroke-width="1.5" opacity="0.9"/>
  <polyline points="55.0,285.0 56.2,285.0 57.9,285.0 59.5,285.0 61.1,285.0 62.8,285.0 64.4,285.0 66.1,285.0 67.7,285.0 69.4,285.0 71.0,285.0 72.6,285.0 74.3,285.0 75.9,285.0 77.6,285.0 79.2,285.0 80.8,285.0 82.5,285.0 84.1,285.0 85.8,285.0 87.4,285.0 89.0,285.0 90.7,285.0 92.3,285.0 94.0,285.0 95.6,285.0 97.2,285.0 98.9,285.0 100.1,285.0 101.1,285.0 102.4,285.0 103.4,285.0 104.4,285.0 105.6,285.0 106.7,285.0 107.7,285.0 108.9,285.0 109.9,285.0 111.0,285.0 112.2,285.0 113.2,285.0 114.2,285.0 115.5,285.0 116.5,285.0 117.3,285.0 118.3,285.0 119.4,285.0 120.4,285.0 121.4,285.0 122.4,285.0 123.5,285.0 124.5,285.0 125.5,285.0 126.5,285.0 127.6,285.0 128.6,285.0 129.6,285.0 130.4,285.0 131.5,285.0 132.5,285.0 133.5,285.0 134.5,285.0 135.6,285.0 136.6,285.0 137.6,285.0 138.6,285.0 139.7,285.0 140.7,285.0 141.7,285.0 142.7,285.0 143.6,285.0 144.6,285.0 145.6,285.0 146.6,285.0 147.7,285.0 148.7,285.0 149.7,285.0 150.7,285.0 151.8,285.0 152.8,285.0 153.8,285.0 154.8,285.0 155.9,285.0 156.7,285.0 157.7,285.0 158.7,285.0 159.8,285.0 160.8,285.0 161.8,285.0 162.8,285.0 163.9,285.0 164.9,285.0 165.9,285.0 166.9,285.0 168.0,285.0 169.0,285.0 169.8,285.0 170.8,285.0 171.8,285.0 172.9,285.0 173.9,285.0 174.9,285.0 175.9,285.0 177.0,285.0 178.0,285.0 179.0,285.0 180.0,285.0 181.1,285.0 182.1,285.0 182.9,285.0 183.9,285.0 185.0,285.0 186.0,285.0 187.0,285.0 188.0,285.0 189.1,285.0 190.1,285.0 191.1,285.0 192.1,285.0 193.2,285.0 194.2,285.0 195.2,285.0 196.0,285.0 197.1,285.0 198.1,285.0 199.1,285.0 200.1,285.0 201.2,285.0 202.2,285.0 203.2,285.0 204.2,285.0 205.3,285.0 206.3,285.0 207.3,285.0 208.3,285.0 209.2,285.0 210.2,285.0 211.2,285.0 212.2,285.0 213.3,285.0 214.3,285.0 215.3,285.0 216.3,285.0 217.4,285.0 218.4,285.0 219.4,285.0 220.4,285.0 221.5,285.0 222.3,285.0 223.3,285.0 224.3,285.0 225.4,285.0 226.4,285.0 227.4,285.0 228.2,285.0 229.2,285.0 230.3,285.0 231.1,285.0 232.1,285.0 232.9,285.0 234.0,285.0 234.8,285.0 235.8,285.0 236.8,285.0 237.7,285.0 238.7,285.0 239.5,285.0 240.5,285.0 241.3,285.0 242.4,285.0 243.4,285.0 244.2,285.0 245.2,285.0 246.1,285.0 247.1,285.0 247.9,285.0 248.9,285.0 250.0,285.0 250.8,285.0 251.8,285.0 252.6,285.0 253.6,285.0 254.5,285.0 255.5,285.0 256.5,285.0 257.3,285.0 258.4,285.0 259.2,285.0 260.0,285.0 261.0,283.7 261.8,282.7 262.9,281.5 263.9,280.2 264.7,279.2 265.7,278.0 266.6,277.0 267.6,275.7 268.4,274.7 269.4,273.5 270.5,272.2 271.3,271.2 272.3,270.0 273.1,269.0 274.1,267.7 275.0,266.7 276.0,265.5 277.0,264.2 277.8,263.2 278.9,262.0 279.7,261.0 280.7,259.7 281.5,258.7 282.5,257.5 283.6,256.2 284.4,255.2 285.4,254.0 286.2,253.0 287.3,251.7 288.1,250.7 289.1,249.5 290.1,248.2 291.0,247.2 292.0,246.0 292.8,245.0 293.8,243.7 294.6,242.7 295.7,241.5 296.7,240.2 297.5,239.2 298.5,238.0 299.4,237.0 300.4,235.7 301.2,234.7 302.2,233.5 303.3,232.2 304.1,231.2 305.1,230.0 305.9,229.0 306.9,227.7 307.8,226.7 308.8,225.5 309.8,224.2 310.6,223.2 311.7,222.0 312.5,221.0 313.5,219.7 314.3,218.7 315.3,217.5 316.4,216.2 317.2,215.2 318.2,214.0 319.0,213.0 320.1,211.7 320.9,210.7 321.9,209.5 322.9,208.2 323.8,207.2 324.8,206.0 325.6,205.0 326.6,203.7 327.4,202.7 328.5,201.5 329.5,200.2 330.3,199.2 331.3,198.0 332.2,197.0 333.2,195.7 334.0,194.7 335.0,193.5 336.1,192.2 336.9,191.2 337.9,190.0 338.7,189.0 339.7,187.7 340.6,186.7 341.6,185.5 342.6,184.2 343.4,183.2 344.5,182.0 345.3,181.0 346.3,179.7 347.1,178.7 348.1,177.5 349.2,176.2 350.0,175.2 351.0,174.0 351.8,173.0 352.9,171.7 353.7,170.7 354.7,169.5 355.7,168.2 356.6,167.2 357.6,166.0 358.4,165.0 359.4,163.7 360.2,162.7 361.3,161.5 362.3,160.2 363.1,159.2 364.1,158.0 365.0,157.0 366.0,155.7 366.8,154.7 367.8,153.5 368.9,152.2 369.7,151.2 370.7,150.0 371.5,149.0 372.5,147.7 373.4,146.7 374.4,145.5 375.4,144.2 376.2,143.2 377.3,142.0 378.1,141.0 379.1,139.7 379.9,138.7 380.9,137.5 382.0,136.2 382.8,135.2 383.8,134.0 384.6,133.0 385.7,131.7 386.5,130.7 387.5,129.5 388.5,128.2 389.4,127.2 390.4,126.0 391.2,125.0 392.2,123.7 393.0,122.7 394.1,121.5 395.1,120.2 395.9,119.2 397.1,117.7 398.2,116.5 399.2,115.2 400.4,113.7 401.4,112.5 402.5,111.2 403.3,110.2 404.3,109.0 405.1,108.0 406.2,106.7 407.0,105.7 408.0,104.5 409.0,103.2 409.9,102.2 410.9,101.0 411.7,100.0 412.7,98.7 413.5,97.7 414.6,96.5 415.6,95.2 416.4,94.2 417.4,93.0 418.3,92.0 419.3,90.7 420.1,89.7 421.1,88.5 422.2,87.2 423.4,85.7 424.8,84.0 425.8,82.7 426.7,81.7 427.7,80.5 428.7,79.2 429.5,78.2 430.6,77.0 431.4,76.0 432.4,74.7 433.2,73.7 434.3,72.5 435.3,71.2 436.1,70.2 437.1,69.0 437.9,68.0 439.0,66.7 439.8,65.7 440.8,64.5 441.8,63.2 442.7,62.2 443.7,61.0 444.5,60.0 445.5,58.7 446.3,57.7 447.4,56.5 448.4,55.2 449.2,54.2 450.2,53.0 451.1,52.0 452.1,50.7 452.9,49.7 453.9,48.5 455.0,47.2 455.8,46.2 456.8,45.0 457.6,44.0 458.6,42.7 459.5,41.7 460.5,40.5 461.5,39.2 462.3,38.2 463.4,37.0 464.2,36.0 465.0,35.0 466.0,35.0 466.8,35.0 467.9,35.0 468.9,35.0 469.7,35.0 470.7,35.0 471.6,35.0 472.6,35.0 473.4,35.0 474.4,35.0 475.5,35.0 476.3,35.0 477.3,35.0 478.1,35.0 479.1,35.0 480.0,35.0 481.0,35.0 482.0,35.0 482.8,35.0 483.9,35.0 484.7,35.0 485.7,35.0 486.5,35.0 487.6,35.0 488.6,35.0 489.4,35.0 490.4,35.0 491.2,35.0 492.3,35.0 493.1,35.0 494.1,35.0 495.1,35.0 496.0,35.0 497.0,35.0 497.8,35.0 498.8,35.0 499.6,35.0 500.7,35.0 501.7,35.0 502.5,35.0 503.5,35.0 504.4,35.0 505.4,35.0 506.2,35.0 507.2,35.0 508.3,35.0 509.1,35.0 510.1,35.0 510.9,35.0 511.9,35.0 512.8,35.0 513.8,35.0 514.8,35.0 515.6,35.0 516.7,35.0 517.5,35.0 518.5,35.0 519.3,35.0 520.4,35.0 521.4,35.0 522.2,35.0 523.2,35.0 524.0,35.0 525.1,35.0 525.9,35.0 526.9,35.0 527.9,35.0 528.8,35.0 529.8,35.0 530.6,35.0 531.6,35.0 532.4,35.0 533.5,35.0 534.5,35.0 535.3,35.0 536.3,35.0 537.2,35.0 538.2,35.0 539.0,35.0 540.0,35.0 541.1,35.0 541.9,35.0 542.9,35.0 543.7,35.0 544.7,35.0 545.6,35.0 546.6,35.0 547.6,35.0 548.4,35.0 549.5,35.0 550.3,35.0 551.3,35.0 552.1,35.0 553.2,35.0 554.2,35.0 555.0,35.0 556.0,35.0 556.8,35.0 557.9,35.0 558.7,35.0 559.7,35.0 560.7,35.0 561.6,35.0 562.6,35.0 563.4,35.0 564.4,35.0 565.2,35.0 566.3,35.0 567.3,35.0 568.1,35.0 569.1,35.0 570.0,35.0 571.0,35.0 571.8,35.0 572.8,35.0 573.9,35.0 574.7,35.0 575.7,35.0 576.5,35.0 577.5,35.0 578.4,35.0 579.4,35.0 580.4,35.0 581.2,35.0 582.3,35.0 583.1,35.0 584.1,35.0 584.9,35.0 586.0,35.0 587.0,35.0 587.8,35.0 588.8,35.0 589.6,35.0 590.7,35.0 591.5,35.0 592.5,35.0 593.5,35.0 594.4,35.0 595.4,35.0 596.2,35.0 597.2,35.0 598.0,35.0 599.1,35.0 600.1,35.0 600.9,35.0 601.9,35.0 602.8,35.0 603.8,35.0 604.6,35.0 605.6,35.0 606.7,35.0 607.5,35.0 608.5,35.0 609.3,35.0 610.3,35.0 611.2,35.0 612.2,35.0 613.2,35.0 614.0,35.0 615.1,35.0 615.9,35.0 616.9,35.0 617.7,35.0 618.8,35.0 619.8,35.0 620.6,35.0 621.6,35.0 622.4,35.0 623.5,35.0 624.3,35.0 625.3,35.0 626.3,35.0 627.2,35.0 628.2,35.0 629.0,35.0 630.0,35.0 630.8,35.0 631.9,35.0 632.9,35.0 633.7,35.0 634.7,35.0 635.6,35.0 636.6,35.0 637.4,35.0 638.4,35.0 639.5,35.0 640.3,35.0 641.3,35.0 642.1,35.0 643.1,35.0 644.0,35.0 645.0,35.0 646.0,35.0 646.8,35.0 647.9,35.0 648.7,35.0 649.7,35.0 650.5,35.0 651.6,35.0 652.6,35.0 653.4,35.0 654.4,35.0 655.2,35.0 656.3,35.0 657.1,35.0 658.1,35.0 659.1,35.0 660.0,35.0 661.0,35.0 661.8,35.0 662.8,35.0 663.6,35.0 664.7,35.0 665.7,35.0 666.5,35.0 667.5,35.0 668.4,35.0 669.4,35.0" fill="none" stroke="#F44336" stroke-width="1.5" opacity="0.9"/>
  <polyline points="55.0,285.0 56.2,285.0 57.9,285.0 59.5,285.0 61.1,285.0 62.8,285.0 64.4,285.0 66.1,285.0 67.7,285.0 69.4,285.0 71.0,285.0 72.6,285.0 74.3,285.0 75.9,285.0 77.6,285.0 79.2,285.0 80.8,285.0 82.5,285.0 84.1,285.0 85.8,285.0 87.4,285.0 89.0,285.0 90.7,285.0 92.3,285.0 94.0,285.0 95.6,285.0 97.2,285.0 98.9,285.0 100.1,285.0 101.1,285.0 102.4,285.0 103.4,285.0 104.4,285.0 105.6,285.0 106.7,285.0 107.7,285.0 108.9,285.0 109.9,285.0 111.0,285.0 112.2,285.0 113.2,285.0 114.2,285.0 115.5,285.0 116.5,285.0 117.3,285.0 118.3,285.0 119.4,285.0 120.4,285.0 121.4,285.0 122.4,285.0 123.5,285.0 124.5,285.0 125.5,285.0 126.5,285.0 127.6,285.0 128.6,285.0 129.6,285.0 130.4,285.0 131.5,285.0 132.5,285.0 133.5,285.0 134.5,285.0 135.6,285.0 136.6,285.0 137.6,285.0 138.6,285.0 139.7,285.0 140.7,285.0 141.7,285.0 142.7,285.0 143.6,285.0 144.6,285.0 145.6,285.0 146.6,285.0 147.7,285.0 148.7,285.0 149.7,285.0 150.7,285.0 151.8,285.0 152.8,285.0 153.8,285.0 154.8,285.0 155.9,285.0 156.7,285.0 157.7,285.0 158.7,285.0 159.8,285.0 160.8,285.0 161.8,285.0 162.8,285.0 163.9,285.0 164.9,285.0 165.9,285.0 166.9,285.0 168.0,285.0 169.0,285.0 169.8,285.0 170.8,285.0 171.8,285.0 172.9,285.0 173.9,285.0 174.9,285.0 175.9,285.0 177.0,285.0 178.0,285.0 179.0,285.0 180.0,285.0 181.1,285.0 182.1,285.0 182.9,285.0 183.9,285.0 185.0,285.0 186.0,285.0 187.0,285.0 188.0,285.0 189.1,285.0 190.1,285.0 191.1,285.0 192.1,285.0 193.2,285.0 194.2,285.0 195.2,285.0 196.0,285.0 197.1,285.0 198.1,285.0 199.1,285.0 200.1,285.0 201.2,285.0 202.2,285.0 203.2,285.0 204.2,285.0 205.3,285.0 206.3,285.0 207.3,285.0 208.3,285.0 209.2,285.0 210.2,285.0 211.2,285.0 212.2,285.0 213.3,285.0 214.3,285.0 215.3,285.0 216.3,285.0 217.4,285.0 218.4,285.0 219.4,285.0 220.4,285.0 221.5,285.0 222.3,285.0 223.3,285.0 224.3,285.0 225.4,285.0 226.4,285.0 227.4,285.0 228.2,285.0 229.2,285.0 230.3,285.0 231.1,285.0 232.1,285.0 232.9,285.0 234.0,285.0 234.8,285.0 235.8,285.0 236.8,285.0 237.7,285.0 238.7,285.0 239.5,285.0 240.5,285.0 241.3,285.0 242.4,285.0 243.4,285.0 244.2,285.0 245.2,285.0 246.1,285.0 247.1,285.0 247.9,285.0 248.9,285.0 250.0,285.0 250.8,285.0 251.8,285.0 252.6,285.0 253.6,285.0 254.5,285.0 255.5,285.0 256.5,285.0 257.3,285.0 258.4,285.0 259.2,285.0 260.0,285.0 261.0,285.0 261.8,285.0 262.9,285.0 263.9,284.9 264.7,284.8 265.7,284.7 266.6,284.6 267.6,284.4 268.4,284.2 269.4,283.9 270.5,283.5 271.3,283.2 272.3,282.8 273.1,282.4 274.1,281.9 275.0,281.5 276.0,280.9 277.0,280.3 277.8,279.8 278.9,279.1 279.7,278.6 280.7,277.8 281.5,277.2 282.5,276.4 283.6,275.6 284.4,274.9 285.4,274.0 286.2,273.3 287.3,272.3 288.1,271.6 289.1,270.6 290.1,269.7 291.0,268.9 292.0,267.8 292.8,267.0 293.8,266.0 294.6,265.1 295.7,264.1 296.7,263.0 297.5,262.1 298.5,261.0 299.4,260.1 300.4,259.0 301.2,258.1 302.2,257.0 303.3,255.8 304.1,254.9 305.1,253.8 305.9,252.8 306.9,251.7 307.8,250.7 308.8,249.6 309.8,248.4 310.6,247.4 311.7,246.2 312.5,245.3 313.5,244.1 314.3,243.1 315.3,241.9 316.4,240.7 317.2,239.7 318.2,238.5 319.0,237.5 320.1,236.3 320.9,235.4 321.9,234.1 322.9,232.9 323.8,231.9 324.8,230.7 325.6,229.7 326.6,228.5 327.4,227.5 328.5,226.3 329.5,225.0 330.3,224.0 331.3,222.8 332.2,221.8 333.2,220.6 334.0,219.6 335.0,218.4 336.1,217.1 336.9,216.1 337.9,214.9 338.7,213.9 339.7,212.6 340.6,211.7 341.6,210.4 342.6,209.2 343.4,208.2 344.5,206.9 345.3,205.9 346.3,204.7 347.1,203.7 348.1,202.4 349.2,201.2 350.0,200.2 351.0,199.0 351.8,198.0 352.9,196.7 353.7,195.7 354.7,194.5 355.7,193.2 356.6,192.2 357.6,191.0 358.4,190.0 359.4,188.7 360.2,187.7 361.3,186.5 362.3,185.2 363.1,184.2 364.1,183.0 365.0,182.0 366.0,180.7 366.8,179.7 367.8,178.5 368.9,177.2 369.7,176.2 370.7,175.0 371.5,174.0 372.5,172.7 373.4,171.7 374.4,170.5 375.4,169.2 376.2,168.2 377.3,167.0 378.1,166.0 379.1,164.7 379.9,163.7 380.9,162.5 382.0,161.2 382.8,160.2 383.8,159.0 384.6,158.0 385.7,156.7 386.5,155.7 387.5,154.5 388.5,153.2 389.4,152.2 390.4,151.0 391.2,150.0 392.2,148.7 393.0,147.7 394.1,146.5 395.1,145.2 395.9,144.2 397.1,142.7 398.2,141.5 399.2,140.2 400.4,138.7 401.4,137.5 402.5,136.2 403.3,135.2 404.3,134.0 405.1,133.0 406.2,131.7 407.0,130.7 408.0,129.5 409.0,128.2 409.9,127.2 410.9,126.0 411.7,125.0 412.7,123.7 413.5,122.7 414.6,121.5 415.6,120.2 416.4,119.2 417.4,118.0 418.3,117.0 419.3,115.7 420.1,114.7 421.1,113.5 422.2,112.2 423.4,110.7 424.8,109.0 425.8,107.7 426.7,106.7 427.7,105.5 428.7,104.2 429.5,103.2 430.6,102.0 431.4,101.0 432.4,99.7 433.2,98.7 434.3,97.5 435.3,96.2 436.1,95.2 437.1,94.0 437.9,93.0 439.0,91.7 439.8,90.7 440.8,89.5 441.8,88.2 442.7,87.2 443.7,86.0 444.5,85.0 445.5,83.7 446.3,82.7 447.4,81.5 448.4,80.2 449.2,79.2 450.2,78.0 451.1,77.0 452.1,75.7 452.9,74.7 453.9,73.5 455.0,72.2 455.8,71.2 456.8,70.0 457.6,69.0 458.6,67.7 459.5,66.7 460.5,65.5 461.5,64.2 462.3,63.2 463.4,62.0 464.2,61.0 465.0,60.0 466.0,58.8 466.8,57.8 467.9,56.5 468.9,55.4 469.7,54.4 470.7,53.3 471.6,52.4 472.6,51.4 473.4,50.6 474.4,49.6 475.5,48.7 476.3,48.0 477.3,47.2 478.1,46.6 479.1,45.8 480.0,45.2 481.0,44.6 482.0,43.9 482.8,43.4 483.9,42.9 484.7,42.4 485.7,41.9 486.5,41.6 487.6,41.1 488.6,40.7 489.4,40.4 490.4,40.0 491.2,39.7 492.3,39.4 493.1,39.2 494.1,38.9 495.1,38.6 496.0,38.4 497.0,38.2 497.8,38.0 498.8,37.8 499.6,37.6 500.7,37.4 501.7,37.3 502.5,37.1 503.5,37.0 504.4,36.9 505.4,36.7 506.2,36.6 507.2,36.5 508.3,36.4 509.1,36.3 510.1,36.2 510.9,36.2 511.9,36.1 512.8,36.0 513.8,35.9 514.8,35.9 515.6,35.8 516.7,35.8 517.5,35.7 518.5,35.7 519.3,35.6 520.4,35.6 521.4,35.5 522.2,35.5 523.2,35.5 524.0,35.5 525.1,35.4 525.9,35.4 526.9,35.4 527.9,35.3 528.8,35.3 529.8,35.3 530.6,35.3 531.6,35.3 532.4,35.2 533.5,35.2 534.5,35.2 535.3,35.2 536.3,35.2 537.2,35.2 538.2,35.2 539.0,35.2 540.0,35.1 541.1,35.1 541.9,35.1 542.9,35.1 543.7,35.1 544.7,35.1 545.6,35.1 546.6,35.1 547.6,35.1 548.4,35.1 549.5,35.1 550.3,35.1 551.3,35.1 552.1,35.1 553.2,35.1 554.2,35.1 555.0,35.0 556.0,35.0 556.8,35.0 557.9,35.0 558.7,35.0 559.7,35.0 560.7,35.0 561.6,35.0 562.6,35.0 563.4,35.0 564.4,35.0 565.2,35.0 566.3,35.0 567.3,35.0 568.1,35.0 569.1,35.0 570.0,35.0 571.0,35.0 571.8,35.0 572.8,35.0 573.9,35.0 574.7,35.0 575.7,35.0 576.5,35.0 577.5,35.0 578.4,35.0 579.4,35.0 580.4,35.0 581.2,35.0 582.3,35.0 583.1,35.0 584.1,35.0 584.9,35.0 586.0,35.0 587.0,35.0 587.8,35.0 588.8,35.0 589.6,35.0 590.7,35.0 591.5,35.0 592.5,35.0 593.5,35.0 594.4,35.0 595.4,35.0 596.2,35.0 597.2,35.0 598.0,35.0 599.1,35.0 600.1,35.0 600.9,35.0 601.9,35.0 602.8,35.0 603.8,35.0 604.6,35.0 605.6,35.0 606.7,35.0 607.5,35.0 608.5,35.0 609.3,35.0 610.3,35.0 611.2,35.0 612.2,35.0 613.2,35.0 614.0,35.0 615.1,35.0 615.9,35.0 616.9,35.0 617.7,35.0 618.8,35.0 619.8,35.0 620.6,35.0 621.6,35.0 622.4,35.0 623.5,35.0 624.3,35.0 625.3,35.0 626.3,35.0 627.2,35.0 628.2,35.0 629.0,35.0 630.0,35.0 630.8,35.0 631.9,35.0 632.9,35.0 633.7,35.0 634.7,35.0 635.6,35.0 636.6,35.0 637.4,35.0 638.4,35.0 639.5,35.0 640.3,35.0 641.3,35.0 642.1,35.0 643.1,35.0 644.0,35.0 645.0,35.0 646.0,35.0 646.8,35.0 647.9,35.0 648.7,35.0 649.7,35.0 650.5,35.0 651.6,35.0 652.6,35.0 653.4,35.0 654.4,35.0 655.2,35.0 656.3,35.0 657.1,35.0 658.1,35.0 659.1,35.0 660.0,35.0 661.0,35.0 661.8,35.0 662.8,35.0 663.6,35.0 664.7,35.0 665.7,35.0 666.5,35.0 667.5,35.0 668.4,35.0 669.4,35.0" fill="none" stroke="#4CAF50" stroke-width="1.5" opacity="0.9"/>
  <line x1="70" y1="30" x2="85" y2="30" stroke="#2196F3" stroke-width="2"/>
  <text x="90" y="34" class="tick">z actual</text>
  <line x1="70" y1="46" x2="85" y2="46" stroke="#F44336" stroke-width="2"/>
  <text x="90" y="50" class="tick">z_ref</text>
  <line x1="70" y1="62" x2="85" y2="62" stroke="#4CAF50" stroke-width="2"/>
  <text x="90" y="66" class="tick">z_est</text>
</svg>
