<svg xmlns="http://www.w3.org/2000/svg" viewBox="0 0 700 350" width="700" height="350">
  <style>
    text { font-family: monospace; font-size: 11px; fill: #333; }
    .title { font-size: 13px; font-weight: bold; }
    .axis-label { font-size: 11px; }
    .grid { stroke: #e0e0e0; stroke-width: 0.5; }
    .tick { font-size: 9px; fill: #666; }
  </style>
  <rect width="700" height="350" fill="white"/>
  <text x="350" y="13" text-anchor="middle" class="title">Wind Disturbance -- Wind Force Profile</text>
  <line x1="55" y1="305.0" x2="670" y2="305.0" class="grid"/>
  <text x="50" y="308.0" text-anchor="end" class="tick">-0.324</text>
  <line x1="55" y1="247.0" x2="670" y2="247.0" class="grid"/>
  <text x="50" y="250.0" text-anchor="end" class="tick">-0.254</text>
  <line x1="55" y1="189.0" x2="670" y2="189.0" class="grid"/>
  <text x="50" y="192.0" text-anchor="end" class="tick">-0.185</text>
  <line x1="55" y1="131.0" x2="670" y2="131.0" class="grid"/>
  <text x="50" y="134.0" text-anchor="end" class="tick">-0.115</text>
  <line x1="55" y1="73.0" x2="670" y2="73.0" class="grid"/>
  <text x="50" y="76.0" text-anchor="end" class="tick">-0.0456</text>
  <line x1="55" y1="15.0" x2="670" y2="15.0" class="grid"/>
  <text x="50" y="18.0" text-anchor="end" class="tick">0.024</text>
  <line x1="55.0" y1="15" x2="55.0" y2="305" class="grid"/>
  <text x="55.0" y="319" text-anchor="middle" class="tick">0</text>
  <line x1="157.5" y1="15" x2="157.5" y2="305" class="grid"/>
  <text x="157.5" y="319" text-anchor="middle" class="tick">3.33</text>
  <line x1="260.0" y1="15" x2="260.0" y2="305" class="grid"/>
  <text x="260.0" y="319" text-anchor="middle" class="tick">6.67</text>
  <line x1="362.5" y1="15" x2="362.5" y2="305" class="grid"/>
  <text x="362.5" y="319" text-anchor="middle" class="tick">10</text>
  <line x1="465.00000000000006" y1="15" x2="465.00000000000006" y2="305" class="grid"/>
  <text x="465.00000000000006" y="319" text-anchor="middle" class="tick">13.3</text>
  <line x1="567.5" y1="15" x2="567.5" y2="305" class="grid"/>
  <text x="567.5" y="319" text-anchor="middle" class="tick">16.7</text>
  <line x1="670.0" y1="15" x2="670.0" y2="305" class="grid"/>
  <text x="670.0" y="319" text-anchor="middle" class="tick">20</text>
  <line x1="55" y1="15" x2="55" y2="305" stroke="#333" stroke-width="1"/>
  <line x1="55" y1="305" x2="670" y2="305" stroke="#333" stroke-width="1"/>
  <text x="362" y="345" text-anchor="middle" class="axis-label">time [s]</text>
  <text x="12" y="160" text-anchor="middle" class="axis-label" transform="rotate(-90,12,160)">Fz [N]</text>
  <polyline points="55.0,35.0 56.4,35.0 58.1,35.0 59.8,35.0 61.5,35.0 63.1,35.0 64.8,35.0 66.5,35.0 68.2,35.0 69.9,35.0 71.6,35.0 73.3,35.0 75.0,35.0 76.7,35.0 78.4,35.0 80.1,35.0 81.8,35.0 83.4,35.0 85.1,35.0 86.8,35.0 88.4,35.0 89.6,35.0 90.7,35.0 91.7,35.0 93.0,35.0 94.1,35.0 95.1,35.0 96.4,35.0 97.4,35.0 98.5,35.0 99.7,35.0 100.8,35.0 101.7,35.0 102.8,35.0 103.9,35.0 105.0,35.0 106.0,35.0 107.0,35.0 108.0,35.0 109.1,35.0 110.2,35.0 111.1,35.0 112.2,35.0 113.3,35.0 114.3,35.0 115.3,35.0 116.3,35.0 117.4,35.0 118.5,35.0 119.6,35.0 120.5,35.0 121.6,35.0 122.6,35.0 123.7,35.0 124.6,35.0 125.7,35.0 126.8,35.0 127.9,35.0 128.8,35.0 129.9,35.0 131.0,35.0 132.0,35.0 133.1,35.0 134.0,35.0 135.1,35.0 136.2,35.0 137.3,35.0 138.2,35.0 139.3,35.0 140.3,35.0 141.4,35.0 142.3,35.0 143.4,35.0 144.5,35.0 145.6,35.0 146.6,35.0 147.6,35.0 148.6,35.0 149.7,35.0 150.8,35.0 151.7,35.0 152.8,35.0 153.9,35.0 154.9,35.0 155.9,35.0 156.9,35.0 158.0,35.0 159.1,35.0 160.2,35.0 161.1,35.0 162.2,35.0 163.2,35.0 164.3,35.0 165.2,35.0 166.3,35.0 167.4,35.0 168.5,35.0 169.4,35.0 170.5,35.0 171.5,35.0 172.6,35.0 173.7,35.0 174.6,35.0 175.7,35.0 176.8,35.0 177.8,35.0 178.8,35.0 179.8,35.0 180.9,35.0 182.0,35.0 182.9,35.0 184.0,35.0 184.9,35.0 186.0,35.0 186.9,35.0 187.8,35.0 188.9,35.0 189.8,35.0 190.8,35.0 191.7,35.0 192.8,35.0 193.7,35.0 194.6,35.0 195.7,35.0 196.6,35.0 197.5,35.0 198.4,35.0 199.5,35.0 200.4,35.0 201.4,35.0 202.4,35.0 203.4,35.0 204.3,35.0 205.2,35.0 206.3,35.0 207.2,35.0 208.1,35.0 209.2,35.0 210.1,35.0 211.1,35.0 212.0,35.0 213.1,35.0 214.0,35.0 214.9,35.0 216.0,35.0 216.9,35.0 217.8,35.0 218.7,35.0 219.8,35.0 220.7,35.0 221.7,35.0 222.7,35.0 223.7,35.0 224.6,35.0 225.5,35.0 226.6,35.0 227.5,35.0 228.4,35.0 229.5,35.0 230.4,35.0 231.4,35.0 232.3,35.0 233.3,35.0 234.3,35.0 235.2,35.0 236.3,35.0 237.2,35.0 238.1,35.0 239.0,35.0 240.1,35.0 241.0,35.0 242.0,35.0 243.0,35.0 244.0,35.0 244.9,35.0 245.8,35.0 246.9,35.0 247.8,35.0 248.7,35.0 249.8,35.0 250.7,35.0 251.6,35.0 252.6,35.0 253.6,35.0 254.6,35.0 255.5,35.0 256.6,35.0 257.5,35.0 258.4,35.0 259.3,35.0 260.4,35.0 261.3,35.0 262.3,35.0 263.3,35.0 264.3,35.0 265.2,35.0 266.1,35.0 267.2,35.0 268.1,35.0 269.0,35.0 270.1,35.0 271.0,35.0 271.9,35.0 272.9,35.0 273.9,35.0 274.9,35.0 275.8,35.0 276.9,35.0 277.8,35.0 278.7,35.0 279.6,35.0 280.7,35.0 281.6,35.0 282.5,35.0 283.6,35.0 284.5,35.0 285.5,35.0 286.4,35.0 287.5,35.0 288.4,35.0 289.3,35.0 290.4,35.0 291.3,35.0 292.2,35.0 293.2,35.0 294.2,35.0 295.2,35.0 296.1,35.0 297.2,35.0 298.1,35.0 299.0,35.0 299.9,35.0 301.0,35.0 301.9,35.0 302.8,35.0 303.9,35.0 304.8,35.0 305.8,35.0 306.7,35.0 307.8,35.0 308.7,35.0 309.6,35.0 310.7,35.0 311.8,35.0 312.8,35.0 314.1,35.0 315.1,35.0 316.1,35.0 317.0,35.0 318.1,35.0 319.0,35.0 319.9,35.0 320.8,35.0 321.9,35.0 322.8,35.0 323.8,35.0 324.8,35.0 325.8,35.0 326.7,35.0 327.6,35.0 328.7,35.0 329.6,35.0 330.7,35.0 332.1,35.0 333.1,35.0 334.2,35.0 335.1,35.0 336.1,35.0 337.1,35.0 338.1,35.0 339.0,35.0 339.9,35.0 341.0,35.0 341.9,35.0 342.8,35.0 343.9,35.0 344.8,35.0 345.7,35.0 346.7,35.0 347.7,35.0 348.7,35.0 349.6,35.0 350.7,35.0 351.6,35.0 352.5,35.0 353.4,35.0 354.5,35.0 355.4,35.0 356.4,35.0 357.4,35.0 358.3,35.0 359.3,35.0 360.2,35.0 361.3,35.0 362.2,35.0 363.1,285.0 364.0,285.0 365.0,285.0 366.0,285.0 367.0,285.0 367.9,285.0 368.8,285.0 369.9,285.0 370.8,285.0 371.7,285.0 372.8,285.0 373.7,285.0 374.6,285.0 375.6,285.0 376.6,285.0 377.6,285.0 378.5,285.0 379.6,285.0 380.5,285.0 381.4,285.0 382.3,285.0 383.4,285.0 384.3,285.0 385.3,285.0 386.3,285.0 387.3,285.0 388.2,285.0 389.1,285.0 390.2,285.0 391.1,285.0 392.0,285.0 393.1,285.0 394.0,285.0 394.9,285.0 395.9,285.0 396.9,285.0 397.9,285.0 398.8,285.0 399.9,285.0 400.8,285.0 401.7,285.0 402.6,285.0 403.7,285.0 404.6,285.0 405.6,285.0 406.6,285.0 407.5,285.0 408.5,285.0 409.4,285.0 410.5,285.0 411.4,285.0 412.3,285.0 413.4,285.0 414.3,285.0 415.2,285.0 416.2,285.0 417.2,285.0 418.2,285.0 419.1,285.0 420.2,285.0 421.1,285.0 422.0,285.0 422.9,285.0 424.0,285.0 424.9,285.0 425.8,285.0 426.9,285.0 427.8,285.0 428.8,285.0 429.7,285.0 430.8,285.0 431.7,285.0 432.6,285.0 433.7,285.0 434.6,285.0 435.5,285.0 436.5,285.0 437.5,285.0 438.5,285.0 439.4,285.0 440.5,285.0 441.4,285.0 442.3,285.0 443.2,285.0 444.3,285.0 445.2,285.0 446.1,285.0 447.2,285.0 448.1,285.0 449.1,285.0 450.0,285.0 451.1,285.0 452.0,285.0 452.9,285.0 454.0,285.0 454.9,285.0 455.8,285.0 456.7,285.0 457.8,285.0 458.7,285.0 459.7,285.0 460.7,285.0 461.7,285.0 462.6,285.0 463.5,285.0 464.6,285.0 465.5,285.0 466.4,285.0 467.5,285.0 468.4,285.0 469.4,285.0 470.3,285.0 471.4,285.0 472.3,285.0 473.2,285.0 474.3,285.0 475.2,285.0 476.1,285.0 477.0,285.0 478.1,285.0 479.0,285.0 480.0,285.0 481.0,285.0 482.0,285.0 482.9,285.0 483.8,285.0 484.9,285.0 485.8,285.0 486.7,285.0 487.8,285.0 488.7,285.0 489.7,285.0 490.6,285.0 491.6,285.0 492.6,285.0 493.5,285.0 494.6,285.0 495.5,285.0 496.4,285.0 497.3,285.0 498.4,285.0 499.3,285.0 500.3,285.0 501.3,285.0 502.3,285.0 503.2,285.0 504.1,285.0 505.2,285.0 506.1,285.0 507.0,285.0 508.1,285.0 509.0,285.0 509.9,285.0 510.9,285.0 511.9,285.0 512.9,285.0 513.8,285.0 514.9,285.0 515.8,285.0 516.7,35.0 517.6,35.0 518.6,35.0 519.5,35.0 520.6,35.0 521.5,35.0 522.4,35.0 523.5,35.0 524.4,35.0 525.3,35.0 526.2,35.0 527.3,35.0 528.2,35.0 529.2,35.0 530.2,35.0 531.2,35.0 532.1,35.0 533.0,35.0 534.1,35.0 535.0,35.0 535.9,35.0 537.0,35.0 537.9,35.0 538.9,35.0 539.8,35.0 540.8,35.0 541.8,35.0 542.7,35.0 543.8,35.0 544.7,35.0 545.6,35.0 546.5,35.0 547.6,35.0 548.5,35.0 549.5,35.0 550.5,35.0 551.5,35.0 552.4,35.0 553.3,35.0 554.4,35.0 555.3,35.0 556.2,35.0 557.3,35.0 558.2,35.0 559.1,35.0 560.1,35.0 561.1,35.0 562.1,35.0 563.0,35.0 564.1,35.0 565.0,35.0 565.9,35.0 566.8,35.0 567.9,35.0 568.8,35.0 569.8,35.0 570.8,35.0 571.8,35.0 572.7,35.0 573.6,35.0 574.7,35.0 575.6,35.0 576.5,35.0 577.6,35.0 578.5,35.0 579.4,35.0 580.4,35.0 581.4,35.0 582.4,35.0 583.3,35.0 584.4,35.0 585.3,35.0 586.2,35.0 587.1,35.0 588.2,35.0 589.1,35.0 590.1,35.0 591.1,35.0 592.0,35.0 593.0,35.0 593.9,35.0 595.0,35.0 595.9,35.0 596.8,35.0 597.9,35.0 598.8,35.0 599.7,35.0 600.7,35.0 601.7,35.0 602.7,35.0 603.6,35.0 604.7,35.0 605.6,35.0 606.5,35.0 607.4,35.0 608.5,35.0 609.4,35.0 610.3,35.0 611.4,35.0 612.3,35.0 613.3,35.0 614.2,35.0 615.3,35.0 616.2,35.0 617.1,35.0 618.2,35.0 619.1,35.0 620.0,35.0 621.0,35.0 622.0,35.0 623.0,35.0 623.9,35.0 625.0,35.0 625.9,35.0 626.8,35.0 627.7,35.0 628.8,35.0 629.7,35.0 630.6,35.0 631.7,35.0 632.6,35.0 633.6,35.0 634.5,35.0 635.6,35.0 636.5,35.0 637.4,35.0 638.5,35.0 639.4,35.0 640.3,35.0 641.2,35.0 642.3,35.0 643.2,35.0 644.2,35.0 645.2,35.0 646.2,35.0 647.1,35.0 648.0,35.0 649.1,35.0 650.0,35.0 650.9,35.0 652.0,35.0 652.9,35.0 653.9,35.0 654.8,35.0 655.9,35.0 656.8,35.0 657.7,35.0 658.8,35.0 659.7,35.0 660.6,35.0 661.5,35.0 662.6,35.0 663.5,35.0 664.5,35.0 665.5,35.0 666.5,35.0 667.4,35.0 668.3,35.0 669.4,35.0" fill="none" stroke="#2196F3" stroke-width="1.5" opacity="0.9"/>
  <line x1="610" y1="30" x2="625" y2="30" stroke="#2196F3" stroke-width="2"/>
  <text x="630" y="34" class="tick">wind Fz</text>
</svg>
