<svg xmlns="http://www.w3.org/2000/svg" viewBox="0 0 700 350" width="700" height="350">
  <style>
    text { font-family: monospace; font-size: 11px; fill: #333; }
    .title { font-size: 13px; font-weight: bold; }
    .axis-label { font-size: 11px; }
    .grid { stroke: #e0e0e0; stroke-width: 0.5; }
    .tick { font-size: 9px; fill: #666; }
  </style>
  <rect width="700" height="350" fill="white"/>
  <text x="350" y="13" text-anchor="middle" class="title">Wind Disturbance -- Altitude Response</text>
  <line x1="55" y1="305.0" x2="670" y2="305.0" class="grid"/>
  <text x="50" y="308.0" text-anchor="end" class="tick">0.849</text>
  <line x1="55" y1="247.0" x2="670" y2="247.0" class="grid"/>
  <text x="50" y="250.0" text-anchor="end" class="tick">0.897</text>
  <line x1="55" y1="189.0" x2="670" y2="189.0" class="grid"/>
  <text x="50" y="192.0" text-anchor="end" class="tick">0.945</text>
  <line x1="55" y1="131.0" x2="670" y2="131.0" class="grid"/>
  <text x="50" y="134.0" text-anchor="end" class="tick">0.993</text>
  <line x1="55" y1="73.0" x2="670" y2="73.0" class="grid"/>
  <text x="50" y="76.0" text-anchor="end" class="tick">1.04</text>
  <line x1="55" y1="15.0" x2="670" y2="15.0" class="grid"/>
  <text x="50" y="18.0" text-anchor="end" class="tick">1.09</text>
  <line x1="55.0" y1="15" x2="55.0" y2="305" class="grid"/>
  <text x="55.0" y="319" text-anchor="middle" class="tick">0</text>
  <line x1="157.5" y1="15" x2="157.5" y2="305" class="grid"/>
  <text x="157.5" y="319" text-anchor="middle" class="tick">3.33</text>
  <line x1="260.0" y1="15" x2="260.0" y2="305" class="grid"/>
  <text x="260.0" y="319" text-anchor="middle" class="tick">6.67</text>
  <line x1="362.5" y1="15" x2="362.5" y2="305" class="grid"/>
  <text x="362.5" y="319" text-anchor="middle" class="tick">10</text>
  <line x1="465.00000000000006" y1="15" x2="465.00000000000006" y2="305" class="grid"/>
  <text x="465.00000000000006" y="319" text-anchor="middle" class="tick">13.3</text>
  <line x1="567.5" y1="15" x2="567.5" y2="305" class="grid"/>
  <text x="567.5" y="319" text-anchor="middle" class="tick">16.7</text>
  <line x1="670.0" y1="15" x2="670.0" y2="305" class="grid"/>
  <text x="670.0" y="319" text-anchor="middle" class="tick">20</text>
  <line x1="55" y1="15" x2="55" y2="305" stroke="#333" stroke-width="1"/>
  <line x1="55" y1="305" x2="670" y2="305" stroke="#333" stroke-width="1"/>
  <text x="362" y="345" text-anchor="middle" class="axis-label">time [s]</text>
  <text x="12" y="160" text-anchor="middle" class="axis-label" transform="rotate(-90,12,160)">z [m]</text>
  <line x1="55" y1="122.30962358780098" x2="670" y2="122.30962358780098" stroke="#888" stroke-width="1" stroke-dasharray="6,3"/>
  <text x="672" y="125.30962358780098" class="tick" fill="#888">z_ref=1.0</text>
  <polyline points="55.0,122.3 56.4,122.3 58.1,122.3 59.8,122.3 61.5,122.3 63.1,122.3 64.8,122.3 66.5,122.3 68.2,122.3 69.9,122.3 71.6,122.3 73.3,122.3 75.0,122.3 76.7,122.3 78.4,122.3 80.1,122.3 81.8,122.3 83.4,122.3 85.1,122.3 86.8,122.3 88.4,122.3 89.6,122.3 90.7,122.3 91.7,122.3 93.0,122.3 94.1,122.3 95.1,122.3 96.4,122.3 97.4,122.3 98.5,122.3 99.7,122.3 100.8,122.3 101.7,122.3 102.8,122.3 103.9,122.3 105.0,122.3 106.0,122.3 107.0,122.3 108.0,122.3 109.1,122.3 110.2,122.3 111.1,122.3 112.2,122.3 113.3,122.3 114.3,122.3 115.3,122.3 116.3,122.3 117.4,122.3 118.5,122.3 119.6,122.3 120.5,122.3 121.6,122.3 122.6,122.3 123.7,122.3 124.6,122.3 125.7,122.3 126.8,122.3 127.9,122.3 128.8,122.3 129.9,122.3 131.0,122.3 132.0,122.3 133.1,122.3 134.0,122.3 135.1,122.3 136.2,122.3 137.3,122.3 138.2,122.3 139.3,122.3 140.3,122.3 141.4,122.3 142.3,122.3 143.4,122.3 144.5,122.3 145.6,122.3 146.6,122.3 147.6,122.3 148.6,122.3 149.7,122.3 150.8,122.3 151.7,122.3 152.8,122.3 153.9,122.3 154.9,122.3 155.9,122.3 156.9,122.3 158.0,122.3 159.1,122.3 160.2,122.3 161.1,122.3 162.2,122.3 163.2,122.3 164.3,122.3 165.2,122.3 166.3,122.3 167.4,122.3 168.5,122.3 169.4,122.3 170.5,122.3 171.5,122.3 172.6,122.3 173.7,122.3 174.6,122.3 175.7,122.3 176.8,122.3 177.8,122.3 178.8,122.3 179.8,122.3 180.9,122.3 182.0,122.3 182.9,122.3 184.0,122.3 184.9,122.3 186.0,122.3 186.9,122.3 187.8,122.3 188.9,122.3 189.8,122.3 190.8,122.3 191.7,122.3 192.8,122.3 193.7,122.3 194.6,122.3 195.7,122.3 196.6,122.3 197.5,122.3 198.4,122.3 199.5,122.3 200.4,122.3 201.4,122.3 202.4,122.3 203.4,122.3 204.3,122.3 205.2,122.3 206.3,122.3 207.2,122.3 208.1,122.3 209.2,122.3 210.1,122.3 211.1,122.3 212.0,122.3 213.1,122.3 214.0,122.3 214.9,122.3 216.0,122.3 216.9,122.3 217.8,122.3 218.7,122.3 219.8,122.3 220.7,122.3 221.7,122.3 222.7,122.3 223.7,122.3 224.6,122.3 225.5,122.3 226.6,122.3 227.5,122.3 228.4,122.3 229.5,122.3 230.4,122.3 231.4,122.3 232.3,122.3 233.3,122.3 234.3,122.3 235.2,122.3 236.3,122.3 237.2,122.3 238.1,122.3 239.0,122.3 240.1,122.3 241.0,122.3 242.0,122.3 243.0,122.3 244.0,122.3 244.9,122.3 245.8,122.3 246.9,122.3 247.8,122.3 248.7,122.3 249.8,122.3 250.7,122.3 251.6,122.3 252.6,122.3 253.6,122.3 254.6,122.3 255.5,122.3 256.6,122.3 257.5,122.3 258.4,122.3 259.3,122.3 260.4,122.3 261.3,122.3 262.3,122.3 263.3,122.3 264.3,122.3 265.2,122.3 266.1,122.3 267.2,122.3 268.1,122.3 269.0,122.3 270.1,122.3 271.0,122.3 271.9,122.3 272.9,122.3 273.9,122.3 274.9,122.3 275.8,122.3 276.9,122.3 277.8,122.3 278.7,122.3 279.6,122.3 280.7,122.3 281.6,122.3 282.5,122.3 283.6,122.3 284.5,122.3 285.5,122.3 286.4,122.3 287.5,122.3 288.4,122.3 289.3,122.3 290.4,122.3 291.3,122.3 292.2,122.3 293.2,122.3 294.2,122.3 295.2,122.3 296.1,122.3 297.2,122.3 298.1,122.3 299.0,122.3 299.9,122.3 301.0,122.3 301.9,122.3 302.8,122.3 303.9,122.3 304.8,122.3 305.8,122.3 306.7,122.3 307.8,122.3 308.7,122.3 309.6,122.3 310.7,122.3 311.8,122.3 312.8,122.3 314.1,122.3 315.1,122.3 316.1,122.3 317.0,122.3 318.1,122.3 319.0,122.3 319.9,122.3 320.8,122.3 321.9,122.3 322.8,122.3 323.8,122.3 324.8,122.3 325.8,122.3 326.7,122.3 327.6,122.3 328.7,122.3 329.6,122.3 330.7,122.3 332.1,122.3 333.1,122.3 334.2,122.3 335.1,122.3 336.1,122.3 337.1,122.3 338.1,122.3 339.0,122.3 339.9,122.3 341.0,122.3 341.9,122.3 342.8,122.3 343.9,122.3 344.8,122.3 345.7,122.3 346.7,122.3 347.7,122.3 348.7,122.3 349.6,122.3 350.7,122.3 351.6,122.3 352.5,122.3 353.4,122.3 354.5,122.3 355.4,122.3 356.4,122.3 357.4,122.3 358.3,122.3 359.3,122.3 360.2,122.3 361.3,122.3 362.2,122.3 363.1,122.9 364.0,125.8 365.0,130.6 366.0,137.8 367.0,145.0 367.9,152.6 368.8,160.7 369.9,170.1 370.8,178.2 371.7,186.2 372.8,195.1 373.7,202.4 374.6,209.5 375.6,216.1 376.6,223.4 377.6,229.2 378.5,234.6 379.6,240.5 380.5,245.1 381.4,249.4 382.3,253.3 383.4,257.5 384.3,260.8 385.3,263.8 386.3,266.9 387.3,269.4 388.2,271.5 389.1,273.5 390.2,275.6 391.1,277.1 392.0,278.5 393.1,279.9 394.0,280.9 394.9,281.8 395.9,282.5 396.9,283.3 397.9,283.8 398.8,284.2 399.9,284.6 400.8,284.8 401.7,284.9 402.6,285.0 403.7,285.0 404.6,284.9 405.6,284.8 406.6,284.6 407.5,284.4 408.5,284.1 409.4,283.8 410.5,283.4 411.4,283.0 412.3,282.6 413.4,282.1 414.3,281.6 415.2,281.1 416.2,280.6 417.2,280.0 418.2,279.5 419.1,278.9 420.2,278.2 421.1,277.7 422.0,277.1 422.9,276.5 424.0,275.7 424.9,275.1 425.8,274.5 426.9,273.7 427.8,273.1 428.8,272.5 429.7,271.8 430.8,271.0 431.7,270.4 432.6,269.7 433.7,269.0 434.6,268.3 435.5,267.6 436.5,267.0 437.5,266.2 438.5,265.5 439.4,264.9 440.5,264.1 441.4,263.4 442.3,262.8 443.2,262.1 444.3,261.4 445.2,260.7 446.1,260.0 447.2,259.3 448.1,258.6 449.1,258.0 450.0,257.3 451.1,256.6 452.0,255.9 452.9,255.3 454.0,254.5 454.9,253.9 455.8,253.3 456.7,252.6 457.8,251.9 458.7,251.3 459.7,250.7 460.7,249.9 461.7,249.3 462.6,248.7 463.5,248.1 464.6,247.4 465.5,246.8 466.4,246.2 467.5,245.5 468.4,244.9 469.4,244.3 470.3,243.7 471.4,243.0 472.3,242.4 473.2,241.8 474.3,241.1 475.2,240.6 476.1,240.0 477.0,239.4 478.1,238.8 479.0,238.2 480.0,237.6 481.0,237.0 482.0,236.4 482.9,235.9 483.8,235.3 484.9,234.7 485.8,234.1 486.7,233.6 487.8,232.9 488.7,232.4 489.7,231.9 490.6,231.3 491.6,230.7 492.6,230.2 493.5,229.6 494.6,229.0 495.5,228.5 496.4,228.0 497.3,227.5 498.4,226.9 499.3,226.4 500.3,225.9 501.3,225.3 502.3,224.8 503.2,224.3 504.1,223.8 505.2,223.2 506.1,222.7 507.0,222.2 508.1,221.7 509.0,221.2 509.9,220.7 510.9,220.2 511.9,219.6 512.9,219.2 513.8,218.7 514.9,218.2 515.8,217.7 516.7,216.9 517.6,213.8 518.6,208.9 519.5,202.5 520.6,193.9 521.5,185.8 522.4,177.4 523.5,167.4 524.4,158.9 525.3,150.4 526.2,142.3 527.3,133.1 528.2,125.6 529.2,118.4 530.2,110.6 531.2,104.3 532.1,98.4 533.0,92.8 534.1,86.8 535.0,82.0 535.9,77.6 537.0,72.9 537.9,69.1 538.9,65.7 539.8,62.5 540.8,59.2 541.8,56.5 542.7,54.1 543.8,51.6 544.7,49.6 545.6,47.8 546.5,46.2 547.6,44.5 548.5,43.2 549.5,42.0 550.5,40.8 551.5,39.9 552.4,39.0 553.3,38.3 554.4,37.6 555.3,37.1 556.2,36.6 557.3,36.2 558.2,35.8 559.1,35.6 560.1,35.4 561.1,35.2 562.1,35.1 563.0,35.0 564.1,35.0 565.0,35.0 565.9,35.1 566.8,35.1 567.9,35.3 568.8,35.4 569.8,35.5 570.8,35.7 571.8,35.9 572.7,36.1 573.6,36.4 574.7,36.7 575.6,36.9 576.5,37.2 577.6,37.5 578.5,37.8 579.4,38.1 580.4,38.4 581.4,38.7 582.4,39.1 583.3,39.4 584.4,39.8 585.3,40.1 586.2,40.4 587.1,40.8 588.2,41.2 589.1,41.5 590.1,41.9 591.1,42.3 592.0,42.6 593.0,43.0 593.9,43.3 595.0,43.7 595.9,44.1 596.8,44.5 597.9,44.9 598.8,45.2 599.7,45.6 600.7,45.9 601.7,46.4 602.7,46.7 603.6,47.1 604.7,47.5 605.6,47.8 606.5,48.2 607.4,48.5 608.5,48.9 609.4,49.3 610.3,49.6 611.4,50.0 612.3,50.4 613.3,50.7 614.2,51.1 615.3,51.5 616.2,51.8 617.1,52.2 618.2,52.6 619.1,52.9 620.0,53.2 621.0,53.6 622.0,53.9 623.0,54.3 623.9,54.6 625.0,55.0 625.9,55.3 626.8,55.6 627.7,56.0 628.8,56.3 629.7,56.7 630.6,57.0 631.7,57.3 632.6,57.7 633.6,58.0 634.5,58.3 635.6,58.7 636.5,59.0 637.4,59.3 638.5,59.6 639.4,59.9 640.3,60.2 641.2,60.5 642.3,60.9 643.2,61.2 644.2,61.5 645.2,61.8 646.2,62.1 647.1,62.4 648.0,62.7 649.1,63.1 650.0,63.3 650.9,63.6 652.0,64.0 652.9,64.2 653.9,64.5 654.8,64.8 655.9,65.1 656.8,65.4 657.7,65.7 658.8,66.0 659.7,66.3 660.6,66.6 661.5,66.8 662.6,67.2 663.5,67.4 664.5,67.7 665.5,68.0 666.5,68.3 667.4,68.5 668.3,68.8 669.4,69.1" fill="none" stroke="#2196F3" stroke-width="1.5" opacity="0.9"/>
  <line x1="610" y1="30" x2="625" y2="30" stroke="#2196F3" stroke-width="2"/>
  <text x="630" y="34" class="tick">altitude</text>
</svg>
