<svg xmlns="http://www.w3.org/2000/svg" viewBox="0 0 700 350" width="700" height="350">
  <style>
    text { font-family: monospace; font-size: 11px; fill: #333; }
    .title { font-size: 13px; font-weight: bold; }
    .axis-label { font-size: 11px; }
    .grid { stroke: #e0e0e0; stroke-width: 0.5; }
    .tick { font-size: 9px; fill: #666; }
  </style>
  <rect width="700" height="350" fill="white"/>
  <text x="350" y="13" text-anchor="middle" class="title">Yaw Step — Heading Response</text>
  <line x1="55" y1="305.0" x2="670" y2="305.0" class="grid"/>
  <text x="50" y="308.0" text-anchor="end" class="tick">-11.7</text>
  <line x1="55" y1="247.0" x2="670" y2="247.0" class="grid"/>
  <text x="50" y="250.0" text-anchor="end" class="tick">22.2</text>
  <line x1="55" y1="189.0" x2="670" y2="189.0" class="grid"/>
  <text x="50" y="192.0" text-anchor="end" class="tick">56.2</text>
  <line x1="55" y1="131.0" x2="670" y2="131.0" class="grid"/>
  <text x="50" y="134.0" text-anchor="end" class="tick">90.2</text>
  <line x1="55" y1="73.0" x2="670" y2="73.0" class="grid"/>
  <text x="50" y="76.0" text-anchor="end" class="tick">124</text>
  <line x1="55" y1="15.0" x2="670" y2="15.0" class="grid"/>
  <text x="50" y="18.0" text-anchor="end" class="tick">158</text>
  <line x1="55.0" y1="15" x2="55.0" y2="305" class="grid"/>
  <text x="55.0" y="319" text-anchor="middle" class="tick">0</text>
  <line x1="157.5" y1="15" x2="157.5" y2="305" class="grid"/>
  <text x="157.5" y="319" text-anchor="middle" class="tick">3.33</text>
  <line x1="260.0" y1="15" x2="260.0" y2="305" class="grid"/>
  <text x="260.0" y="319" text-anchor="middle" class="tick">6.67</text>
  <line x1="362.5" y1="15" x2="362.5" y2="305" class="grid"/>
  <text x="362.5" y="319" text-anchor="middle" class="tick">10</text>
  <line x1="465.00000000000006" y1="15" x2="465.00000000000006" y2="305" class="grid"/>
  <text x="465.00000000000006" y="319" text-anchor="middle" class="tick">13.3</text>
  <line x1="567.5" y1="15" x2="567.5" y2="305" class="grid"/>
  <text x="567.5" y="319" text-anchor="middle" class="tick">16.7</text>
  <line x1="670.0" y1="15" x2="670.0" y2="305" class="grid"/>
  <text x="670.0" y="319" text-anchor="middle" class="tick">20</text>
  <line x1="55" y1="15" x2="55" y2="305" stroke="#333" stroke-width="1"/>
  <line x1="55" y1="305" x2="670" y2="305" stroke="#333" stroke-width="1"/>
  <text x="362" y="345" text-anchor="middle" class="axis-label">time [s]</text>
  <text x="12" y="160" text-anchor="middle" class="axis-label" transform="rotate(-90,12,160)">psi [deg]</text>
  <line x1="55" y1="131.29050949643172" x2="670" y2="131.29050949643172" stroke="#888" stroke-width="1" stroke-dasharray="6,3"/>
  <text x="672" y="134.29050949643172" class="tick" fill="#888">psi_ref=90</text>
  <polyline points="55.0,285.0 56.4,285.0 58.1,285.0 59.8,285.0 61.5,285.0 63.1,285.0 64.8,285.0 66.5,285.0 68.2,285.0 69.9,285.0 71.6,285.0 73.3,285.0 75.0,285.0 76.7,285.0 78.4,285.0 80.1,285.0 81.8,285.0 83.4,285.0 85.1,285.0 86.8,285.0 88.4,285.0 89.6,285.0 90.7,285.0 91.7,285.0 93.0,285.0 94.1,285.0 95.1,285.0 96.4,285.0 97.4,285.0 98.5,285.0 99.7,285.0 100.8,285.0 101.7,285.0 102.8,285.0 103.9,285.0 105.0,285.0 106.0,285.0 107.0,285.0 108.0,285.0 109.1,285.0 110.2,285.0 111.1,285.0 112.2,285.0 113.3,285.0 114.3,285.0 115.3,285.0 116.3,285.0 117.4,285.0 118.5,285.0 119.6,285.0 120.5,285.0 121.6,285.0 122.6,285.0 123.7,285.0 124.6,285.0 125.7,285.0 126.8,285.0 127.9,285.0 128.8,285.0 129.9,285.0 131.0,285.0 132.0,285.0 133.1,285.0 134.0,285.0 135.1,285.0 136.2,285.0 137.3,285.0 138.2,285.0 139.3,285.0 140.3,285.0 141.4,285.0 142.3,285.0 143.4,285.0 144.5,285.0 145.6,285.0 146.6,285.0 147.6,285.0 148.6,285.0 149.7,285.0 150.8,285.0 151.7,285.0 152.8,285.0 153.9,285.0 154.9,285.0 155.9,285.0 156.9,285.0 158.0,285.0 159.1,285.0 160.2,285.0 161.1,285.0 162.2,285.0 163.2,285.0 164.3,285.0 165.2,285.0 166.3,285.0 167.4,285.0 168.5,285.0 169.4,285.0 170.5,285.0 171.5,285.0 172.6,285.0 173.7,285.0 174.6,285.0 175.7,285.0 176.8,285.0 177.8,285.0 178.8,285.0 179.8,285.0 180.9,285.0 182.0,285.0 182.9,285.0 184.0,285.0 184.9,285.0 186.0,285.0 186.9,285.0 187.8,285.0 188.9,285.0 189.8,285.0 190.8,285.0 191.7,285.0 192.8,285.0 193.7,285.0 194.6,285.0 195.7,285.0 196.6,285.0 197.5,285.0 198.4,285.0 199.5,285.0 200.4,285.0 201.4,285.0 202.4,285.0 203.4,285.0 204.3,285.0 205.2,285.0 206.3,285.0 207.2,285.0 208.1,285.0 209.2,285.0 210.1,285.0 211.1,285.0 212.0,285.0 213.1,285.0 214.0,285.0 214.9,285.0 216.0,285.0 216.9,285.0 217.8,285.0 218.7,285.0 219.8,285.0 220.7,285.0 221.7,285.0 222.7,285.0 223.7,285.0 224.6,285.0 225.5,285.0 226.6,285.0 227.5,285.0 228.4,285.0 229.5,285.0 230.4,285.0 231.4,285.0 232.3,285.0 233.3,285.0 234.3,285.0 235.2,285.0 236.3,285.0 237.2,285.0 238.1,285.0 239.0,285.0 240.1,285.0 241.0,285.0 242.0,285.0 243.0,285.0 244.0,285.0 244.9,285.0 245.8,285.0 246.9,285.0 247.8,285.0 248.7,285.0 249.8,285.0 250.7,285.0 251.6,285.0 252.6,285.0 253.6,285.0 254.6,285.0 255.5,285.0 256.6,285.0 257.5,285.0 258.4,285.0 259.3,285.0 260.4,285.0 261.3,285.0 262.3,285.0 263.3,285.0 264.3,285.0 265.2,285.0 266.1,285.0 267.2,285.0 268.1,285.0 269.0,285.0 270.1,285.0 271.0,285.0 271.9,285.0 272.9,285.0 273.9,285.0 274.9,285.0 275.8,285.0 276.9,285.0 277.8,285.0 278.7,285.0 279.6,285.0 280.7,285.0 281.6,285.0 282.5,285.0 283.6,285.0 284.5,285.0 285.5,285.0 286.4,285.0 287.5,285.0 288.4,285.0 289.3,285.0 290.4,285.0 291.3,285.0 292.2,285.0 293.2,285.0 294.2,285.0 295.2,285.0 296.1,285.0 297.2,285.0 298.1,285.0 299.0,285.0 299.9,285.0 301.0,285.0 301.9,285.0 302.8,285.0 303.9,285.0 304.8,285.0 305.8,285.0 306.7,285.0 307.8,285.0 308.7,285.0 309.6,285.0 310.7,285.0 311.8,285.0 312.8,285.0 314.1,285.0 315.1,285.0 316.1,285.0 317.0,285.0 318.1,285.0 319.0,285.0 319.9,285.0 320.8,285.0 321.9,285.0 322.8,285.0 323.8,285.0 324.8,285.0 325.8,285.0 326.7,285.0 327.6,285.0 328.7,285.0 329.6,285.0 330.7,285.0 332.1,285.0 333.1,285.0 334.2,285.0 335.1,285.0 336.1,285.0 337.1,285.0 338.1,285.0 339.0,285.0 339.9,285.0 341.0,285.0 341.9,285.0 342.8,285.0 343.9,285.0 344.8,285.0 345.7,285.0 346.7,285.0 347.7,285.0 348.7,285.0 349.6,285.0 350.7,285.0 351.6,285.0 352.5,285.0 353.4,285.0 354.5,285.0 355.4,285.0 356.4,285.0 357.4,285.0 358.3,285.0 359.3,285.0 360.2,285.0 361.3,285.0 362.2,285.0 363.1,284.6 364.0,282.3 365.0,278.0 366.0,270.6 367.0,262.1 367.9,251.7 368.8,239.3 369.9,222.4 370.8,205.7 371.7,187.1 372.8,163.0 373.7,141.7 374.6,122.3 375.6,104.8 376.6,86.8 377.6,73.6 378.5,62.3 379.6,51.5 380.5,44.5 381.4,39.4 382.3,36.2 383.4,35.0 384.3,36.1 385.3,39.1 386.3,45.2 387.3,52.4 388.2,61.7 389.1,72.9 390.2,88.4 391.1,103.9 392.0,120.2 393.1,137.3 394.0,149.9 394.9,160.5 395.9,169.1 396.9,176.7 397.9,181.1 398.8,183.5 399.9,183.9 400.8,182.1 401.7,178.4 402.6,172.6 403.7,163.5 404.6,153.6 405.6,142.3 406.6,130.2 407.5,121.9 408.5,115.5 409.4,111.1 410.5,108.4 411.4,108.2 412.3,110.0 413.4,114.6 414.3,120.3 415.2,126.7 416.2,132.3 417.2,137.0 418.2,138.9 419.1,139.1 420.2,137.6 421.1,135.5 422.0,133.1 422.9,131.0 424.0,129.2 424.9,128.4 425.8,128.3 426.9,128.9 427.8,129.7 428.8,130.6 429.7,131.4 430.8,132.1 431.7,132.4 432.6,132.4 433.7,132.2 434.6,131.9 435.5,131.6 436.5,131.3 437.5,131.0 438.5,130.9 439.4,130.9 440.5,130.9 441.4,131.1 442.3,131.2 443.2,131.3 444.3,131.4 445.2,131.4 446.1,131.4 447.2,131.4 448.1,131.4 449.1,131.3 450.0,131.3 451.1,131.3 452.0,131.2 452.9,131.2 454.0,131.2 454.9,131.3 455.8,131.3 456.7,131.3 457.8,131.3 458.7,131.3 459.7,131.3 460.7,131.3 461.7,131.3 462.6,131.3 463.5,131.3 464.6,131.3 465.5,131.3 466.4,131.3 467.5,131.3 468.4,131.3 469.4,131.3 470.3,131.3 471.4,131.3 472.3,131.3 473.2,131.3 474.3,131.3 475.2,131.3 476.1,131.3 477.0,131.3 478.1,131.3 479.0,131.3 480.0,131.3 481.0,131.3 482.0,131.3 482.9,131.3 483.8,131.3 484.9,131.3 485.8,131.3 486.7,131.3 487.8,131.3 488.7,131.3 489.7,131.3 490.6,131.3 491.6,131.3 492.6,131.3 493.5,131.3 494.6,131.3 495.5,131.3 496.4,131.3 497.3,131.3 498.4,131.3 499.3,131.3 500.3,131.3 501.3,131.3 502.3,131.3 503.2,131.3 504.1,131.3 505.2,131.3 506.1,131.3 507.0,131.3 508.1,131.3 509.0,131.3 509.9,131.3 510.9,131.3 511.9,131.3 512.9,131.3 513.8,131.3 514.9,131.3 515.8,131.3 516.7,131.3 517.6,131.3 518.7,131.3 519.6,131.3 520.6,131.3 521.6,131.3 522.6,131.3 523.5,131.3 524.4,131.3 525.5,131.3 526.4,131.3 527.3,131.3 528.4,131.3 529.3,131.3 530.2,131.3 531.2,131.3 532.2,131.3 533.2,131.3 534.1,131.3 535.2,131.3 536.1,131.3 537.0,131.3 537.9,131.3 539.0,131.3 539.9,131.3 540.9,131.3 541.9,131.3 542.8,131.3 543.8,131.3 544.7,131.3 545.8,131.3 546.7,131.3 547.6,131.3 548.7,131.3 549.6,131.3 550.5,131.3 551.5,131.3 552.5,131.3 553.5,131.3 554.4,131.3 555.5,131.3 556.4,131.3 557.3,131.3 558.2,131.3 559.3,131.3 560.2,131.3 561.1,131.3 562.2,131.3 563.1,131.3 564.1,131.3 565.0,131.3 566.1,131.3 567.0,131.3 567.9,131.3 569.0,131.3 569.9,131.3 570.8,131.3 571.8,131.3 572.8,131.3 573.8,131.3 574.7,131.3 575.8,131.3 576.7,131.3 577.6,131.3 578.5,131.3 579.6,131.3 580.5,131.3 581.4,131.3 582.5,131.3 583.4,131.3 584.4,131.3 585.3,131.3 586.4,131.3 587.3,131.3 588.2,131.3 589.3,131.3 590.2,131.3 591.1,131.3 592.0,131.3 593.1,131.3 594.0,131.3 595.0,131.3 596.0,131.3 597.0,131.3 597.9,131.3 598.8,131.3 599.9,131.3 600.8,131.3 601.7,131.3 602.8,131.3 603.7,131.3 604.7,131.3 605.6,131.3 606.7,131.3 607.6,131.3 608.5,131.3 609.6,131.3 610.5,131.3 611.4,131.3 612.3,131.3 613.4,131.3 614.3,131.3 615.3,131.3 616.3,131.3 617.3,131.3 618.2,131.3 619.1,131.3 620.2,131.3 621.1,131.3 622.0,131.3 623.1,131.3 624.0,131.3 625.0,131.3 625.9,131.3 626.9,131.3 627.9,131.3 628.8,131.3 629.9,131.3 630.8,131.3 631.7,131.3 632.6,131.3 633.7,131.3 634.6,131.3 635.6,131.3 636.6,131.3 637.6,131.3 638.5,131.3 639.4,131.3 640.5,131.3 641.4,131.3 642.3,131.3 643.4,131.3 644.3,131.3 645.2,131.3 646.2,131.3 647.2,131.3 648.2,131.3 649.1,131.3 650.2,131.3 651.1,131.3 652.0,131.3 652.9,131.3 654.0,131.3 654.9,131.3 655.9,131.3 656.9,131.3 657.9,131.3 658.8,131.3 659.7,131.3 660.8,131.3 661.7,131.3 662.6,131.3 663.7,131.3 664.6,131.3 665.5,131.3 666.5,131.3 667.5,131.3 668.5,131.3 669.4,131.3" fill="none" stroke="#2196F3" stroke-width="1.5" opacity="0.9"/>
  <line x1="70" y1="30" x2="85" y2="30" stroke="#2196F3" stroke-width="2"/>
  <text x="90" y="34" class="tick">psi_est</text>
</svg>
