<svg xmlns="http://www.w3.org/2000/svg" viewBox="0 0 700 350" width="700" height="350">
  <style>
    text { font-family: monospace; font-size: 11px; fill: #333; }
    .title { font-size: 13px; font-weight: bold; }
    .axis-label { font-size: 11px; }
    .grid { stroke: #e0e0e0; stroke-width: 0.5; }
    .tick { font-size: 9px; fill: #666; }
  </style>
  <rect width="700" height="350" fill="white"/>
  <text x="350" y="13" text-anchor="middle" class="title">Yaw Step — Rotor Forces</text>
  <line x1="55" y1="305.0" x2="670" y2="305.0" class="grid"/>
  <text x="50" y="308.0" text-anchor="end" class="tick">-0.0256</text>
  <line x1="55" y1="247.0" x2="670" y2="247.0" class="grid"/>
  <text x="50" y="250.0" text-anchor="end" class="tick">0.0486</text>
  <line x1="55" y1="189.0" x2="670" y2="189.0" class="grid"/>
  <text x="50" y="192.0" text-anchor="end" class="tick">0.123</text>
  <line x1="55" y1="131.0" x2="670" y2="131.0" class="grid"/>
  <text x="50" y="134.0" text-anchor="end" class="tick">0.197</text>
  <line x1="55" y1="73.00000000000003" x2="670" y2="73.00000000000003" class="grid"/>
  <text x="50" y="76.00000000000003" text-anchor="end" class="tick">0.271</text>
  <line x1="55" y1="15.0" x2="670" y2="15.0" class="grid"/>
  <text x="50" y="18.0" text-anchor="end" class="tick">0.345</text>
  <line x1="55.0" y1="15" x2="55.0" y2="305" class="grid"/>
  <text x="55.0" y="319" text-anchor="middle" class="tick">0</text>
  <line x1="157.5" y1="15" x2="157.5" y2="305" class="grid"/>
  <text x="157.5" y="319" text-anchor="middle" class="tick">3.33</text>
  <line x1="260.0" y1="15" x2="260.0" y2="305" class="grid"/>
  <text x="260.0" y="319" text-anchor="middle" class="tick">6.67</text>
  <line x1="362.5" y1="15" x2="362.5" y2="305" class="grid"/>
  <text x="362.5" y="319" text-anchor="middle" class="tick">10</text>
  <line x1="465.00000000000006" y1="15" x2="465.00000000000006" y2="305" class="grid"/>
  <text x="465.00000000000006" y="319" text-anchor="middle" class="tick">13.3</text>
  <line x1="567.5" y1="15" x2="567.5" y2="305" class="grid"/>
  <text x="567.5" y="319" text-anchor="middle" class="tick">16.7</text>
  <line x1="670.0" y1="15" x2="670.0" y2="305" class="grid"/>
  <text x="670.0" y="319" text-anchor="middle" class="tick">20</text>
  <line x1="55" y1="15" x2="55" y2="305" stroke="#333" stroke-width="1"/>
  <line x1="55" y1="305" x2="670" y2="305" stroke="#333" stroke-width="1"/>
  <text x="362" y="345" text-anchor="middle" class="axis-label">time [s]</text>
  <text x="12" y="160" text-anchor="middle" class="axis-label" transform="rotate(-90,12,160)">force [N]</text>
  <line x1="55" y1="74.07044015323305" x2="670" y2="74.07044015323305" stroke="#888" stroke-width="1" stroke-dasharray="6,3"/>
  <text x="672" y="77.07044015323305" class="tick" fill="#888">mg/4</text>
  <polyline points="55.0,285.0 56.4,74.1 58.1,74.1 59.8,74.1 61.5,74.1 63.1,74.1 64.8,74.1 66.5,74.1 68.2,74.1 69.9,74.1 71.6,74.1 73.3,74.1 75.0,74.1 76.7,74.1 78.4,74.1 80.1,74.1 81.8,74.1 83.4,74.1 85.1,74.1 86.8,74.1 88.4,74.1 89.6,74.1 90.7,74.1 91.7,74.1 93.0,74.1 94.1,74.1 95.1,74.1 96.4,74.1 97.4,74.1 98.5,74.1 99.7,74.1 100.8,74.1 101.7,74.1 102.8,74.1 103.9,74.1 105.0,74.1 106.0,74.1 107.0,74.1 108.0,74.1 109.1,74.1 110.2,74.1 111.1,74.1 112.2,74.1 113.3,74.1 114.3,74.1 115.3,74.1 116.3,74.1 117.4,74.1 118.5,74.1 119.6,74.1 120.5,74.1 121.6,74.1 122.6,74.1 123.7,74.1 124.6,74.1 125.7,74.1 126.8,74.1 127.9,74.1 128.8,74.1 129.9,74.1 131.0,74.1 132.0,74.1 133.1,74.1 134.0,74.1 135.1,74.1 136.2,74.1 137.3,74.1 138.2,74.1 139.3,74.1 140.3,74.1 141.4,74.1 142.3,74.1 143.4,74.1 144.5,74.1 145.6,74.1 146.6,74.1 147.6,74.1 148.6,74.1 149.7,74.1 150.8,74.1 151.7,74.1 152.8,74.1 153.9,74.1 154.9,74.1 155.9,74.1 156.9,74.1 158.0,74.1 159.1,74.1 160.2,74.1 161.1,74.1 162.2,74.1 163.2,74.1 164.3,74.1 165.2,74.1 166.3,74.1 167.4,74.1 168.5,74.1 169.4,74.1 170.5,74.1 171.5,74.1 172.6,74.1 173.7,74.1 174.6,74.1 175.7,74.1 176.8,74.1 177.8,74.1 178.8,74.1 179.8,74.1 180.9,74.1 182.0,74.1 182.9,74.1 184.0,74.1 184.9,74.1 186.0,74.1 186.9,74.1 187.8,74.1 188.9,74.1 189.8,74.1 190.8,74.1 191.7,74.1 192.8,74.1 193.7,74.1 194.6,74.1 195.7,74.1 196.6,74.1 197.5,74.1 198.4,74.1 199.5,74.1 200.4,74.1 201.4,74.1 202.4,74.1 203.4,74.1 204.3,74.1 205.2,74.1 206.3,74.1 207.2,74.1 208.1,74.1 209.2,74.1 210.1,74.1 211.1,74.1 212.0,74.1 213.1,74.1 214.0,74.1 214.9,74.1 216.0,74.1 216.9,74.1 217.8,74.1 218.7,74.1 219.8,74.1 220.7,74.1 221.7,74.1 222.7,74.1 223.7,74.1 224.6,74.1 225.5,74.1 226.6,74.1 227.5,74.1 228.4,74.1 229.5,74.1 230.4,74.1 231.4,74.1 232.3,74.1 233.3,74.1 234.3,74.1 235.2,74.1 236.3,74.1 237.2,74.1 238.1,74.1 239.0,74.1 240.1,74.1 241.0,74.1 242.0,74.1 243.0,74.1 244.0,74.1 244.9,74.1 245.8,74.1 246.9,74.1 247.8,74.1 248.7,74.1 249.8,74.1 250.7,74.1 251.6,74.1 252.6,74.1 253.6,74.1 254.6,74.1 255.5,74.1 256.6,74.1 257.5,74.1 258.4,74.1 259.3,74.1 260.4,74.1 261.3,74.1 262.3,74.1 263.3,74.1 264.3,74.1 265.2,74.1 266.1,74.1 267.2,74.1 268.1,74.1 269.0,74.1 270.1,74.1 271.0,74.1 271.9,74.1 272.9,74.1 273.9,74.1 274.9,74.1 275.8,74.1 276.9,74.1 277.8,74.1 278.7,74.1 279.6,74.1 280.7,74.1 281.6,74.1 282.5,74.1 283.6,74.1 284.5,74.1 285.5,74.1 286.4,74.1 287.5,74.1 288.4,74.1 289.3,74.1 290.4,74.1 291.3,74.1 292.2,74.1 293.2,74.1 294.2,74.1 295.2,74.1 296.1,74.1 297.2,74.1 298.1,74.1 299.0,74.1 299.9,74.1 301.0,74.1 301.9,74.1 302.8,74.1 303.9,74.1 304.8,74.1 305.8,74.1 306.7,74.1 307.8,74.1 308.7,74.1 309.6,74.1 310.7,74.1 311.8,74.1 312.8,74.1 314.1,74.1 315.1,74.1 316.1,74.1 317.0,74.1 318.1,74.1 319.0,74.1 319.9,74.1 320.8,74.1 321.9,74.1 322.8,74.1 323.8,74.1 324.8,74.1 325.8,74.1 326.7,74.1 327.6,74.1 328.7,74.1 329.6,74.1 330.7,74.1 332.1,74.1 333.1,74.1 334.2,74.1 335.1,74.1 336.1,74.1 337.1,74.1 338.1,74.1 339.0,74.1 339.9,74.1 341.0,74.1 341.9,74.1 342.8,74.1 343.9,74.1 344.8,74.1 345.7,74.1 346.7,74.1 347.7,74.1 348.7,74.1 349.6,74.1 350.7,74.1 351.6,74.1 352.5,74.1 353.4,74.1 354.5,74.1 355.4,74.1 356.4,74.1 357.4,74.1 358.3,74.1 359.3,74.1 360.2,74.1 361.3,74.1 362.2,74.1 363.1,35.0 364.0,35.0 365.0,35.0 366.0,35.0 367.0,35.0 367.9,35.0 368.8,35.0 369.9,35.0 370.8,35.0 371.7,35.0 372.8,62.7 373.7,113.2 374.6,113.2 375.6,113.2 376.6,113.2 377.6,113.2 378.5,113.2 379.6,113.2 380.5,113.2 381.4,113.2 382.3,113.2 383.4,113.2 384.3,113.2 385.3,113.2 386.3,113.2 387.3,113.2 388.2,113.2 389.1,113.2 390.2,113.2 391.1,96.7 392.0,35.0 393.1,35.0 394.0,35.0 394.9,35.0 395.9,35.0 396.9,35.0 397.9,35.0 398.8,35.0 399.9,35.0 400.8,35.0 401.7,35.0 402.6,35.0 403.7,35.0 404.6,43.2 405.6,89.9 406.6,113.2 407.5,113.2 408.5,113.2 409.4,113.2 410.5,113.2 411.4,113.2 412.3,113.2 413.4,113.2 414.3,84.3 415.2,59.8 416.2,43.4 417.2,35.8 418.2,38.0 419.1,46.0 420.2,58.8 421.1,70.0 422.0,79.3 422.9,85.5 424.0,88.4 424.9,87.7 425.8,84.7 426.9,79.9 427.8,75.7 428.8,72.2 429.7,69.9 430.8,68.7 431.7,69.0 432.6,70.1 433.7,71.9 434.6,73.4 435.5,74.8 436.5,75.7 437.5,76.1 438.5,76.0 439.4,75.6 440.5,74.9 441.4,74.4 442.3,73.9 443.2,73.5 444.3,73.3 445.2,73.4 446.1,73.5 447.2,73.8 448.1,74.0 449.1,74.2 450.0,74.3 451.1,74.4 452.0,74.4 452.9,74.3 454.0,74.2 454.9,74.1 455.8,74.1 456.7,74.0 457.8,74.0 458.7,74.0 459.7,74.0 460.7,74.0 461.7,74.1 462.6,74.1 463.5,74.1 464.6,74.1 465.5,74.1 466.4,74.1 467.5,74.1 468.4,74.1 469.4,74.1 470.3,74.1 471.4,74.1 472.3,74.1 473.2,74.1 474.3,74.1 475.2,74.1 476.1,74.1 477.0,74.1 478.1,74.1 479.0,74.1 480.0,74.1 481.0,74.1 482.0,74.1 482.9,74.1 483.8,74.1 484.9,74.1 485.8,74.1 486.7,74.1 487.8,74.1 488.7,74.1 489.7,74.1 490.6,74.1 491.6,74.1 492.6,74.1 493.5,74.1 494.6,74.1 495.5,74.1 496.4,74.1 497.3,74.1 498.4,74.1 499.3,74.1 500.3,74.1 501.3,74.1 502.3,74.1 503.2,74.1 504.1,74.1 505.2,74.1 506.1,74.1 507.0,74.1 508.1,74.1 509.0,74.1 509.9,74.1 510.9,74.1 511.9,74.1 512.9,74.1 513.8,74.1 514.9,74.1 515.8,74.1 516.7,74.1 517.6,74.1 518.7,74.1 519.6,74.1 520.6,74.1 521.6,74.1 522.6,74.1 523.5,74.1 524.4,74.1 525.5,74.1 526.4,74.1 527.3,74.1 528.4,74.1 529.3,74.1 530.2,74.1 531.2,74.1 532.2,74.1 533.2,74.1 534.1,74.1 535.2,74.1 536.1,74.1 537.0,74.1 537.9,74.1 539.0,74.1 539.9,74.1 540.9,74.1 541.9,74.1 542.8,74.1 543.8,74.1 544.7,74.1 545.8,74.1 546.7,74.1 547.6,74.1 548.7,74.1 549.6,74.1 550.5,74.1 551.5,74.1 552.5,74.1 553.5,74.1 554.4,74.1 555.5,74.1 556.4,74.1 557.3,74.1 558.2,74.1 559.3,74.1 560.2,74.1 561.1,74.1 562.2,74.1 563.1,74.1 564.1,74.1 565.0,74.1 566.1,74.1 567.0,74.1 567.9,74.1 569.0,74.1 569.9,74.1 570.8,74.1 571.8,74.1 572.8,74.1 573.8,74.1 574.7,74.1 575.8,74.1 576.7,74.1 577.6,74.1 578.5,74.1 579.6,74.1 580.5,74.1 581.4,74.1 582.5,74.1 583.4,74.1 584.4,74.1 585.3,74.1 586.4,74.1 587.3,74.1 588.2,74.1 589.3,74.1 590.2,74.1 591.1,74.1 592.0,74.1 593.1,74.1 594.0,74.1 595.0,74.1 596.0,74.1 597.0,74.1 597.9,74.1 598.8,74.1 599.9,74.1 600.8,74.1 601.7,74.1 602.8,74.1 603.7,74.1 604.7,74.1 605.6,74.1 606.7,74.1 607.6,74.1 608.5,74.1 609.6,74.1 610.5,74.1 611.4,74.1 612.3,74.1 613.4,74.1 614.3,74.1 615.3,74.1 616.3,74.1 617.3,74.1 618.2,74.1 619.1,74.1 620.2,74.1 621.1,74.1 622.0,74.1 623.1,74.1 624.0,74.1 625.0,74.1 625.9,74.1 626.9,74.1 627.9,74.1 628.8,74.1 629.9,74.1 630.8,74.1 631.7,74.1 632.6,74.1 633.7,74.1 634.6,74.1 635.6,74.1 636.6,74.1 637.6,74.1 638.5,74.1 639.4,74.1 640.5,74.1 641.4,74.1 642.3,74.1 643.4,74.1 644.3,74.1 645.2,74.1 646.2,74.1 647.2,74.1 648.2,74.1 649.1,74.1 650.2,74.1 651.1,74.1 652.0,74.1 652.9,74.1 654.0,74.1 654.9,74.1 655.9,74.1 656.9,74.1 657.9,74.1 658.8,74.1 659.7,74.1 660.8,74.1 661.7,74.1 662.6,74.1 663.7,74.1 664.6,74.1 665.5,74.1 666.5,74.1 667.5,74.1 668.5,74.1 669.4,74.1" fill="none" stroke="#2196F3" stroke-width="1.5" opacity="0.9"/>
  <polyline points="55.0,285.0 56.4,74.1 58.1,74.1 59.8,74.1 61.5,74.1 63.1,74.1 64.8,74.1 66.5,74.1 68.2,74.1 69.9,74.1 71.6,74.1 73.3,74.1 75.0,74.1 76.7,74.1 78.4,74.1 80.1,74.1 81.8,74.1 83.4,74.1 85.1,74.1 86.8,74.1 88.4,74.1 89.6,74.1 90.7,74.1 91.7,74.1 93.0,74.1 94.1,74.1 95.1,74.1 96.4,74.1 97.4,74.1 98.5,74.1 99.7,74.1 100.8,74.1 101.7,74.1 102.8,74.1 103.9,74.1 105.0,74.1 106.0,74.1 107.0,74.1 108.0,74.1 109.1,74.1 110.2,74.1 111.1,74.1 112.2,74.1 113.3,74.1 114.3,74.1 115.3,74.1 116.3,74.1 117.4,74.1 118.5,74.1 119.6,74.1 120.5,74.1 121.6,74.1 122.6,74.1 123.7,74.1 124.6,74.1 125.7,74.1 126.8,74.1 127.9,74.1 128.8,74.1 129.9,74.1 131.0,74.1 132.0,74.1 133.1,74.1 134.0,74.1 135.1,74.1 136.2,74.1 137.3,74.1 138.2,74.1 139.3,74.1 140.3,74.1 141.4,74.1 142.3,74.1 143.4,74.1 144.5,74.1 145.6,74.1 146.6,74.1 147.6,74.1 148.6,74.1 149.7,74.1 150.8,74.1 151.7,74.1 152.8,74.1 153.9,74.1 154.9,74.1 155.9,74.1 156.9,74.1 158.0,74.1 159.1,74.1 160.2,74.1 161.1,74.1 162.2,74.1 163.2,74.1 164.3,74.1 165.2,74.1 166.3,74.1 167.4,74.1 168.5,74.1 169.4,74.1 170.5,74.1 171.5,74.1 172.6,74.1 173.7,74.1 174.6,74.1 175.7,74.1 176.8,74.1 177.8,74.1 178.8,74.1 179.8,74.1 180.9,74.1 182.0,74.1 182.9,74.1 184.0,74.1 184.9,74.1 186.0,74.1 186.9,74.1 187.8,74.1 188.9,74.1 189.8,74.1 190.8,74.1 191.7,74.1 192.8,74.1 193.7,74.1 194.6,74.1 195.7,74.1 196.6,74.1 197.5,74.1 198.4,74.1 199.5,74.1 200.4,74.1 201.4,74.1 202.4,74.1 203.4,74.1 204.3,74.1 205.2,74.1 206.3,74.1 207.2,74.1 208.1,74.1 209.2,74.1 210.1,74.1 211.1,74.1 212.0,74.1 213.1,74.1 214.0,74.1 214.9,74.1 216.0,74.1 216.9,74.1 217.8,74.1 218.7,74.1 219.8,74.1 220.7,74.1 221.7,74.1 222.7,74.1 223.7,74.1 224.6,74.1 225.5,74.1 226.6,74.1 227.5,74.1 228.4,74.1 229.5,74.1 230.4,74.1 231.4,74.1 232.3,74.1 233.3,74.1 234.3,74.1 235.2,74.1 236.3,74.1 237.2,74.1 238.1,74.1 239.0,74.1 240.1,74.1 241.0,74.1 242.0,74.1 243.0,74.1 244.0,74.1 244.9,74.1 245.8,74.1 246.9,74.1 247.8,74.1 248.7,74.1 249.8,74.1 250.7,74.1 251.6,74.1 252.6,74.1 253.6,74.1 254.6,74.1 255.5,74.1 256.6,74.1 257.5,74.1 258.4,74.1 259.3,74.1 260.4,74.1 261.3,74.1 262.3,74.1 263.3,74.1 264.3,74.1 265.2,74.1 266.1,74.1 267.2,74.1 268.1,74.1 269.0,74.1 270.1,74.1 271.0,74.1 271.9,74.1 272.9,74.1 273.9,74.1 274.9,74.1 275.8,74.1 276.9,74.1 277.8,74.1 278.7,74.1 279.6,74.1 280.7,74.1 281.6,74.1 282.5,74.1 283.6,74.1 284.5,74.1 285.5,74.1 286.4,74.1 287.5,74.1 288.4,74.1 289.3,74.1 290.4,74.1 291.3,74.1 292.2,74.1 293.2,74.1 294.2,74.1 295.2,74.1 296.1,74.1 297.2,74.1 298.1,74.1 299.0,74.1 299.9,74.1 301.0,74.1 301.9,74.1 302.8,74.1 303.9,74.1 304.8,74.1 305.8,74.1 306.7,74.1 307.8,74.1 308.7,74.1 309.6,74.1 310.7,74.1 311.8,74.1 312.8,74.1 314.1,74.1 315.1,74.1 316.1,74.1 317.0,74.1 318.1,74.1 319.0,74.1 319.9,74.1 320.8,74.1 321.9,74.1 322.8,74.1 323.8,74.1 324.8,74.1 325.8,74.1 326.7,74.1 327.6,74.1 328.7,74.1 329.6,74.1 330.7,74.1 332.1,74.1 333.1,74.1 334.2,74.1 335.1,74.1 336.1,74.1 337.1,74.1 338.1,74.1 339.0,74.1 339.9,74.1 341.0,74.1 341.9,74.1 342.8,74.1 343.9,74.1 344.8,74.1 345.7,74.1 346.7,74.1 347.7,74.1 348.7,74.1 349.6,74.1 350.7,74.1 351.6,74.1 352.5,74.1 353.4,74.1 354.5,74.1 355.4,74.1 356.4,74.1 357.4,74.1 358.3,74.1 359.3,74.1 360.2,74.1 361.3,74.1 362.2,74.1 363.1,113.2 364.0,113.2 365.0,113.2 366.0,113.2 367.0,113.2 367.9,113.2 368.8,113.2 369.9,113.2 370.8,113.2 371.7,113.2 372.8,85.5 373.7,35.0 374.6,35.0 375.6,35.0 376.6,35.0 377.6,35.0 378.5,35.0 379.6,35.0 380.5,35.0 381.4,35.0 382.3,35.0 383.4,35.0 384.3,35.0 385.3,35.0 386.3,35.0 387.3,35.0 388.2,35.0 389.1,35.0 390.2,35.0 391.1,51.5 392.0,113.2 393.1,113.2 394.0,113.2 394.9,113.2 395.9,113.2 396.9,113.2 397.9,113.2 398.8,113.2 399.9,113.2 400.8,113.2 401.7,113.2 402.6,113.2 403.7,113.2 404.6,105.0 405.6,58.3 406.6,35.0 407.5,35.0 408.5,35.0 409.4,35.0 410.5,35.0 411.4,35.0 412.3,35.0 413.4,35.0 414.3,63.9 415.2,88.4 416.2,104.8 417.2,112.3 418.2,110.1 419.1,102.2 420.2,89.4 421.1,78.2 422.0,68.9 422.9,62.7 424.0,59.8 424.9,60.5 425.8,63.4 426.9,68.2 427.8,72.4 428.8,75.9 429.7,78.3 430.8,79.5 431.7,79.2 432.6,78.1 433.7,76.3 434.6,74.7 435.5,73.4 436.5,72.5 437.5,72.1 438.5,72.2 439.4,72.6 440.5,73.2 441.4,73.8 442.3,74.3 443.2,74.7 444.3,74.8 445.2,74.8 446.1,74.7 447.2,74.4 448.1,74.2 449.1,74.0 450.0,73.9 451.1,73.8 452.0,73.8 452.9,73.9 454.0,74.0 454.9,74.0 455.8,74.1 456.7,74.2 457.8,74.2 458.7,74.2 459.7,74.2 460.7,74.1 461.7,74.1 462.6,74.1 463.5,74.1 464.6,74.1 465.5,74.1 466.4,74.1 467.5,74.1 468.4,74.1 469.4,74.1 470.3,74.1 471.4,74.1 472.3,74.1 473.2,74.1 474.3,74.1 475.2,74.1 476.1,74.1 477.0,74.1 478.1,74.1 479.0,74.1 480.0,74.1 481.0,74.1 482.0,74.1 482.9,74.1 483.8,74.1 484.9,74.1 485.8,74.1 486.7,74.1 487.8,74.1 488.7,74.1 489.7,74.1 490.6,74.1 491.6,74.1 492.6,74.1 493.5,74.1 494.6,74.1 495.5,74.1 496.4,74.1 497.3,74.1 498.4,74.1 499.3,74.1 500.3,74.1 501.3,74.1 502.3,74.1 503.2,74.1 504.1,74.1 505.2,74.1 506.1,74.1 507.0,74.1 508.1,74.1 509.0,74.1 509.9,74.1 510.9,74.1 511.9,74.1 512.9,74.1 513.8,74.1 514.9,74.1 515.8,74.1 516.7,74.1 517.6,74.1 518.7,74.1 519.6,74.1 520.6,74.1 521.6,74.1 522.6,74.1 523.5,74.1 524.4,74.1 525.5,74.1 526.4,74.1 527.3,74.1 528.4,74.1 529.3,74.1 530.2,74.1 531.2,74.1 532.2,74.1 533.2,74.1 534.1,74.1 535.2,74.1 536.1,74.1 537.0,74.1 537.9,74.1 539.0,74.1 539.9,74.1 540.9,74.1 541.9,74.1 542.8,74.1 543.8,74.1 544.7,74.1 545.8,74.1 546.7,74.1 547.6,74.1 548.7,74.1 549.6,74.1 550.5,74.1 551.5,74.1 552.5,74.1 553.5,74.1 554.4,74.1 555.5,74.1 556.4,74.1 557.3,74.1 558.2,74.1 559.3,74.1 560.2,74.1 561.1,74.1 562.2,74.1 563.1,74.1 564.1,74.1 565.0,74.1 566.1,74.1 567.0,74.1 567.9,74.1 569.0,74.1 569.9,74.1 570.8,74.1 571.8,74.1 572.8,74.1 573.8,74.1 574.7,74.1 575.8,74.1 576.7,74.1 577.6,74.1 578.5,74.1 579.6,74.1 580.5,74.1 581.4,74.1 582.5,74.1 583.4,74.1 584.4,74.1 585.3,74.1 586.4,74.1 587.3,74.1 588.2,74.1 589.3,74.1 590.2,74.1 591.1,74.1 592.0,74.1 593.1,74.1 594.0,74.1 595.0,74.1 596.0,74.1 597.0,74.1 597.9,74.1 598.8,74.1 599.9,74.1 600.8,74.1 601.7,74.1 602.8,74.1 603.7,74.1 604.7,74.1 605.6,74.1 606.7,74.1 607.6,74.1 608.5,74.1 609.6,74.1 610.5,74.1 611.4,74.1 612.3,74.1 613.4,74.1 614.3,74.1 615.3,74.1 616.3,74.1 617.3,74.1 618.2,74.1 619.1,74.1 620.2,74.1 621.1,74.1 622.0,74.1 623.1,74.1 624.0,74.1 625.0,74.1 625.9,74.1 626.9,74.1 627.9,74.1 628.8,74.1 629.9,74.1 630.8,74.1 631.7,74.1 632.6,74.1 633.7,74.1 634.6,74.1 635.6,74.1 636.6,74.1 637.6,74.1 638.5,74.1 639.4,74.1 640.5,74.1 641.4,74.1 642.3,74.1 643.4,74.1 644.3,74.1 645.2,74.1 646.2,74.1 647.2,74.1 648.2,74.1 649.1,74.1 650.2,74.1 651.1,74.1 652.0,74.1 652.9,74.1 654.0,74.1 654.9,74.1 655.9,74.1 656.9,74.1 657.9,74.1 658.8,74.1 659.7,74.1 660.8,74.1 661.7,74.1 662.6,74.1 663.7,74.1 664.6,74.1 665.5,74.1 666.5,74.1 667.5,74.1 668.5,74.1 669.4,74.1" fill="none" stroke="#F44336" stroke-width="1.5" opacity="0.9"/>
  <polyline points="55.0,285.0 56.4,74.1 58.1,74.1 59.8,74.1 61.5,74.1 63.1,74.1 64.8,74.1 66.5,74.1 68.2,74.1 69.9,74.1 71.6,74.1 73.3,74.1 75.0,74.1 76.7,74.1 78.4,74.1 80.1,74.1 81.8,74.1 83.4,74.1 85.1,74.1 86.8,74.1 88.4,74.1 89.6,74.1 90.7,74.1 91.7,74.1 93.0,74.1 94.1,74.1 95.1,74.1 96.4,74.1 97.4,74.1 98.5,74.1 99.7,74.1 100.8,74.1 101.7,74.1 102.8,74.1 103.9,74.1 105.0,74.1 106.0,74.1 107.0,74.1 108.0,74.1 109.1,74.1 110.2,74.1 111.1,74.1 112.2,74.1 113.3,74.1 114.3,74.1 115.3,74.1 116.3,74.1 117.4,74.1 118.5,74.1 119.6,74.1 120.5,74.1 121.6,74.1 122.6,74.1 123.7,74.1 124.6,74.1 125.7,74.1 126.8,74.1 127.9,74.1 128.8,74.1 129.9,74.1 131.0,74.1 132.0,74.1 133.1,74.1 134.0,74.1 135.1,74.1 136.2,74.1 137.3,74.1 138.2,74.1 139.3,74.1 140.3,74.1 141.4,74.1 142.3,74.1 143.4,74.1 144.5,74.1 145.6,74.1 146.6,74.1 147.6,74.1 148.6,74.1 149.7,74.1 150.8,74.1 151.7,74.1 152.8,74.1 153.9,74.1 154.9,74.1 155.9,74.1 156.9,74.1 158.0,74.1 159.1,74.1 160.2,74.1 161.1,74.1 162.2,74.1 163.2,74.1 164.3,74.1 165.2,74.1 166.3,74.1 167.4,74.1 168.5,74.1 169.4,74.1 170.5,74.1 171.5,74.1 172.6,74.1 173.7,74.1 174.6,74.1 175.7,74.1 176.8,74.1 177.8,74.1 178.8,74.1 179.8,74.1 180.9,74.1 182.0,74.1 182.9,74.1 184.0,74.1 184.9,74.1 186.0,74.1 186.9,74.1 187.8,74.1 188.9,74.1 189.8,74.1 190.8,74.1 191.7,74.1 192.8,74.1 193.7,74.1 194.6,74.1 195.7,74.1 196.6,74.1 197.5,74.1 198.4,74.1 199.5,74.1 200.4,74.1 201.4,74.1 202.4,74.1 203.4,74.1 204.3,74.1 205.2,74.1 206.3,74.1 207.2,74.1 208.1,74.1 209.2,74.1 210.1,74.1 211.1,74.1 212.0,74.1 213.1,74.1 214.0,74.1 214.9,74.1 216.0,74.1 216.9,74.1 217.8,74.1 218.7,74.1 219.8,74.1 220.7,74.1 221.7,74.1 222.7,74.1 223.7,74.1 224.6,74.1 225.5,74.1 226.6,74.1 227.5,74.1 228.4,74.1 229.5,74.1 230.4,74.1 231.4,74.1 232.3,74.1 233.3,74.1 234.3,74.1 235.2,74.1 236.3,74.1 237.2,74.1 238.1,74.1 239.0,74.1 240.1,74.1 241.0,74.1 242.0,74.1 243.0,74.1 244.0,74.1 244.9,74.1 245.8,74.1 246.9,74.1 247.8,74.1 248.7,74.1 249.8,74.1 250.7,74.1 251.6,74.1 252.6,74.1 253.6,74.1 254.6,74.1 255.5,74.1 256.6,74.1 257.5,74.1 258.4,74.1 259.3,74.1 260.4,74.1 261.3,74.1 262.3,74.1 263.3,74.1 264.3,74.1 265.2,74.1 266.1,74.1 267.2,74.1 268.1,74.1 269.0,74.1 270.1,74.1 271.0,74.1 271.9,74.1 272.9,74.1 273.9,74.1 274.9,74.1 275.8,74.1 276.9,74.1 277.8,74.1 278.7,74.1 279.6,74.1 280.7,74.1 281.6,74.1 282.5,74.1 283.6,74.1 284.5,74.1 285.5,74.1 286.4,74.1 287.5,74.1 288.4,74.1 289.3,74.1 290.4,74.1 291.3,74.1 292.2,74.1 293.2,74.1 294.2,74.1 295.2,74.1 296.1,74.1 297.2,74.1 298.1,74.1 299.0,74.1 299.9,74.1 301.0,74.1 301.9,74.1 302.8,74.1 303.9,74.1 304.8,74.1 305.8,74.1 306.7,74.1 307.8,74.1 308.7,74.1 309.6,74.1 310.7,74.1 311.8,74.1 312.8,74.1 314.1,74.1 315.1,74.1 316.1,74.1 317.0,74.1 318.1,74.1 319.0,74.1 319.9,74.1 320.8,74.1 321.9,74.1 322.8,74.1 323.8,74.1 324.8,74.1 325.8,74.1 326.7,74.1 327.6,74.1 328.7,74.1 329.6,74.1 330.7,74.1 332.1,74.1 333.1,74.1 334.2,74.1 335.1,74.1 336.1,74.1 337.1,74.1 338.1,74.1 339.0,74.1 339.9,74.1 341.0,74.1 341.9,74.1 342.8,74.1 343.9,74.1 344.8,74.1 345.7,74.1 346.7,74.1 347.7,74.1 348.7,74.1 349.6,74.1 350.7,74.1 351.6,74.1 352.5,74.1 353.4,74.1 354.5,74.1 355.4,74.1 356.4,74.1 357.4,74.1 358.3,74.1 359.3,74.1 360.2,74.1 361.3,74.1 362.2,74.1 363.1,113.2 364.0,113.2 365.0,113.2 366.0,113.2 367.0,113.2 367.9,113.2 368.8,113.2 369.9,113.2 370.8,113.2 371.7,113.2 372.8,85.5 373.7,35.0 374.6,35.0 375.6,35.0 376.6,35.0 377.6,35.0 378.5,35.0 379.6,35.0 380.5,35.0 381.4,35.0 382.3,35.0 383.4,35.0 384.3,35.0 385.3,35.0 386.3,35.0 387.3,35.0 388.2,35.0 389.1,35.0 390.2,35.0 391.1,51.5 392.0,113.2 393.1,113.2 394.0,113.2 394.9,113.2 395.9,113.2 396.9,113.2 397.9,113.2 398.8,113.2 399.9,113.2 400.8,113.2 401.7,113.2 402.6,113.2 403.7,113.2 404.6,105.0 405.6,58.3 406.6,35.0 407.5,35.0 408.5,35.0 409.4,35.0 410.5,35.0 411.4,35.0 412.3,35.0 413.4,35.0 414.3,63.9 415.2,88.4 416.2,104.8 417.2,112.3 418.2,110.1 419.1,102.2 420.2,89.4 421.1,78.2 422.0,68.9 422.9,62.7 424.0,59.8 424.9,60.5 425.8,63.4 426.9,68.2 427.8,72.4 428.8,75.9 429.7,78.3 430.8,79.5 431.7,79.2 432.6,78.1 433.7,76.3 434.6,74.7 435.5,73.4 436.5,72.5 437.5,72.1 438.5,72.2 439.4,72.6 440.5,73.2 441.4,73.8 442.3,74.3 443.2,74.7 444.3,74.8 445.2,74.8 446.1,74.7 447.2,74.4 448.1,74.2 449.1,74.0 450.0,73.9 451.1,73.8 452.0,73.8 452.9,73.9 454.0,74.0 454.9,74.0 455.8,74.1 456.7,74.2 457.8,74.2 458.7,74.2 459.7,74.2 460.7,74.1 461.7,74.1 462.6,74.1 463.5,74.1 464.6,74.1 465.5,74.1 466.4,74.1 467.5,74.1 468.4,74.1 469.4,74.1 470.3,74.1 471.4,74.1 472.3,74.1 473.2,74.1 474.3,74.1 475.2,74.1 476.1,74.1 477.0,74.1 478.1,74.1 479.0,74.1 480.0,74.1 481.0,74.1 482.0,74.1 482.9,74.1 483.8,74.1 484.9,74.1 485.8,74.1 486.7,74.1 487.8,74.1 488.7,74.1 489.7,74.1 490.6,74.1 491.6,74.1 492.6,74.1 493.5,74.1 494.6,74.1 495.5,74.1 496.4,74.1 497.3,74.1 498.4,74.1 499.3,74.1 500.3,74.1 501.3,74.1 502.3,74.1 503.2,74.1 504.1,74.1 505.2,74.1 506.1,74.1 507.0,74.1 508.1,74.1 509.0,74.1 509.9,74.1 510.9,74.1 511.9,74.1 512.9,74.1 513.8,74.1 514.9,74.1 515.8,74.1 516.7,74.1 517.6,74.1 518.7,74.1 519.6,74.1 520.6,74.1 521.6,74.1 522.6,74.1 523.5,74.1 524.4,74.1 525.5,74.1 526.4,74.1 527.3,74.1 528.4,74.1 529.3,74.1 530.2,74.1 531.2,74.1 532.2,74.1 533.2,74.1 534.1,74.1 535.2,74.1 536.1,74.1 537.0,74.1 537.9,74.1 539.0,74.1 539.9,74.1 540.9,74.1 541.9,74.1 542.8,74.1 543.8,74.1 544.7,74.1 545.8,74.1 546.7,74.1 547.6,74.1 548.7,74.1 549.6,74.1 550.5,74.1 551.5,74.1 552.5,74.1 553.5,74.1 554.4,74.1 555.5,74.1 556.4,74.1 557.3,74.1 558.2,74.1 559.3,74.1 560.2,74.1 561.1,74.1 562.2,74.1 563.1,74.1 564.1,74.1 565.0,74.1 566.1,74.1 567.0,74.1 567.9,74.1 569.0,74.1 569.9,74.1 570.8,74.1 571.8,74.1 572.8,74.1 573.8,74.1 574.7,74.1 575.8,74.1 576.7,74.1 577.6,74.1 578.5,74.1 579.6,74.1 580.5,74.1 581.4,74.1 582.5,74.1 583.4,74.1 584.4,74.1 585.3,74.1 586.4,74.1 587.3,74.1 588.2,74.1 589.3,74.1 590.2,74.1 591.1,74.1 592.0,74.1 593.1,74.1 594.0,74.1 595.0,74.1 596.0,74.1 597.0,74.1 597.9,74.1 598.8,74.1 599.9,74.1 600.8,74.1 601.7,74.1 602.8,74.1 603.7,74.1 604.7,74.1 605.6,74.1 606.7,74.1 607.6,74.1 608.5,74.1 609.6,74.1 610.5,74.1 611.4,74.1 612.3,74.1 613.4,74.1 614.3,74.1 615.3,74.1 616.3,74.1 617.3,74.1 618.2,74.1 619.1,74.1 620.2,74.1 621.1,74.1 622.0,74.1 623.1,74.1 624.0,74.1 625.0,74.1 625.9,74.1 626.9,74.1 627.9,74.1 628.8,74.1 629.9,74.1 630.8,74.1 631.7,74.1 632.6,74.1 633.7,74.1 634.6,74.1 635.6,74.1 636.6,74.1 637.6,74.1 638.5,74.1 639.4,74.1 640.5,74.1 641.4,74.1 642.3,74.1 643.4,74.1 644.3,74.1 645.2,74.1 646.2,74.1 647.2,74.1 648.2,74.1 649.1,74.1 650.2,74.1 651.1,74.1 652.0,74.1 652.9,74.1 654.0,74.1 654.9,74.1 655.9,74.1 656.9,74.1 657.9,74.1 658.8,74.1 659.7,74.1 660.8,74.1 661.7,74.1 662.6,74.1 663.7,74.1 664.6,74.1 665.5,74.1 666.5,74.1 667.5,74.1 668.5,74.1 669.4,74.1" fill="none" stroke="#4CAF50" stroke-width="1.5" opacity="0.9"/>
  <polyline points="55.0,285.0 56.4,74.1 58.1,74.1 59.8,74.1 61.5,74.1 63.1,74.1 64.8,74.1 66.5,74.1 68.2,74.1 69.9,74.1 71.6,74.1 73.3,74.1 75.0,74.1 76.7,74.1 78.4,74.1 80.1,74.1 81.8,74.1 83.4,74.1 85.1,74.1 86.8,74.1 88.4,74.1 89.6,74.1 90.7,74.1 91.7,74.1 93.0,74.1 94.1,74.1 95.1,74.1 96.4,74.1 97.4,74.1 98.5,74.1 99.7,74.1 100.8,74.1 101.7,74.1 102.8,74.1 103.9,74.1 105.0,74.1 106.0,74.1 107.0,74.1 108.0,74.1 109.1,74.1 110.2,74.1 111.1,74.1 112.2,74.1 113.3,74.1 114.3,74.1 115.3,74.1 116.3,74.1 117.4,74.1 118.5,74.1 119.6,74.1 120.5,74.1 121.6,74.1 122.6,74.1 123.7,74.1 124.6,74.1 125.7,74.1 126.8,74.1 127.9,74.1 128.8,74.1 129.9,74.1 131.0,74.1 132.0,74.1 133.1,74.1 134.0,74.1 135.1,74.1 136.2,74.1 137.3,74.1 138.2,74.1 139.3,74.1 140.3,74.1 141.4,74.1 142.3,74.1 143.4,74.1 144.5,74.1 145.6,74.1 146.6,74.1 147.6,74.1 148.6,74.1 149.7,74.1 150.8,74.1 151.7,74.1 152.8,74.1 153.9,74.1 154.9,74.1 155.9,74.1 156.9,74.1 158.0,74.1 159.1,74.1 160.2,74.1 161.1,74.1 162.2,74.1 163.2,74.1 164.3,74.1 165.2,74.1 166.3,74.1 167.4,74.1 168.5,74.1 169.4,74.1 170.5,74.1 171.5,74.1 172.6,74.1 173.7,74.1 174.6,74.1 175.7,74.1 176.8,74.1 177.8,74.1 178.8,74.1 179.8,74.1 180.9,74.1 182.0,74.1 182.9,74.1 184.0,74.1 184.9,74.1 186.0,74.1 186.9,74.1 187.8,74.1 188.9,74.1 189.8,74.1 190.8,74.1 191.7,74.1 192.8,74.1 193.7,74.1 194.6,74.1 195.7,74.1 196.6,74.1 197.5,74.1 198.4,74.1 199.5,74.1 200.4,74.1 201.4,74.1 202.4,74.1 203.4,74.1 204.3,74.1 205.2,74.1 206.3,74.1 207.2,74.1 208.1,74.1 209.2,74.1 210.1,74.1 211.1,74.1 212.0,74.1 213.1,74.1 214.0,74.1 214.9,74.1 216.0,74.1 216.9,74.1 217.8,74.1 218.7,74.1 219.8,74.1 220.7,74.1 221.7,74.1 222.7,74.1 223.7,74.1 224.6,74.1 225.5,74.1 226.6,74.1 227.5,74.1 228.4,74.1 229.5,74.1 230.4,74.1 231.4,74.1 232.3,74.1 233.3,74.1 234.3,74.1 235.2,74.1 236.3,74.1 237.2,74.1 238.1,74.1 239.0,74.1 240.1,74.1 241.0,74.1 242.0,74.1 243.0,74.1 244.0,74.1 244.9,74.1 245.8,74.1 246.9,74.1 247.8,74.1 248.7,74.1 249.8,74.1 250.7,74.1 251.6,74.1 252.6,74.1 253.6,74.1 254.6,74.1 255.5,74.1 256.6,74.1 257.5,74.1 258.4,74.1 259.3,74.1 260.4,74.1 261.3,74.1 262.3,74.1 263.3,74.1 264.3,74.1 265.2,74.1 266.1,74.1 267.2,74.1 268.1,74.1 269.0,74.1 270.1,74.1 271.0,74.1 271.9,74.1 272.9,74.1 273.9,74.1 274.9,74.1 275.8,74.1 276.9,74.1 277.8,74.1 278.7,74.1 279.6,74.1 280.7,74.1 281.6,74.1 282.5,74.1 283.6,74.1 284.5,74.1 285.5,74.1 286.4,74.1 287.5,74.1 288.4,74.1 289.3,74.1 290.4,74.1 291.3,74.1 292.2,74.1 293.2,74.1 294.2,74.1 295.2,74.1 296.1,74.1 297.2,74.1 298.1,74.1 299.0,74.1 299.9,74.1 301.0,74.1 301.9,74.1 302.8,74.1 303.9,74.1 304.8,74.1 305.8,74.1 306.7,74.1 307.8,74.1 308.7,74.1 309.6,74.1 310.7,74.1 311.8,74.1 312.8,74.1 314.1,74.1 315.1,74.1 316.1,74.1 317.0,74.1 318.1,74.1 319.0,74.1 319.9,74.1 320.8,74.1 321.9,74.1 322.8,74.1 323.8,74.1 324.8,74.1 325.8,74.1 326.7,74.1 327.6,74.1 328.7,74.1 329.6,74.1 330.7,74.1 332.1,74.1 333.1,74.1 334.2,74.1 335.1,74.1 336.1,74.1 337.1,74.1 338.1,74.1 339.0,74.1 339.9,74.1 341.0,74.1 341.9,74.1 342.8,74.1 343.9,74.1 344.8,74.1 345.7,74.1 346.7,74.1 347.7,74.1 348.7,74.1 349.6,74.1 350.7,74.1 351.6,74.1 352.5,74.1 353.4,74.1 354.5,74.1 355.4,74.1 356.4,74.1 357.4,74.1 358.3,74.1 359.3,74.1 360.2,74.1 361.3,74.1 362.2,74.1 363.1,35.0 364.0,35.0 365.0,35.0 366.0,35.0 367.0,35.0 367.9,35.0 368.8,35.0 369.9,35.0 370.8,35.0 371.7,35.0 372.8,62.7 373.7,113.2 374.6,113.2 375.6,113.2 376.6,113.2 377.6,113.2 378.5,113.2 379.6,113.2 380.5,113.2 381.4,113.2 382.3,113.2 383.4,113.2 384.3,113.2 385.3,113.2 386.3,113.2 387.3,113.2 388.2,113.2 389.1,113.2 390.2,113.2 391.1,96.7 392.0,35.0 393.1,35.0 394.0,35.0 394.9,35.0 395.9,35.0 396.9,35.0 397.9,35.0 398.8,35.0 399.9,35.0 400.8,35.0 401.7,35.0 402.6,35.0 403.7,35.0 404.6,43.2 405.6,89.9 406.6,113.2 407.5,113.2 408.5,113.2 409.4,113.2 410.5,113.2 411.4,113.2 412.3,113.2 413.4,113.2 414.3,84.3 415.2,59.8 416.2,43.4 417.2,35.8 418.2,38.0 419.1,46.0 420.2,58.8 421.1,70.0 422.0,79.3 422.9,85.5 424.0,88.4 424.9,87.7 425.8,84.7 426.9,79.9 427.8,75.7 428.8,72.2 429.7,69.9 430.8,68.7 431.7,69.0 432.6,70.1 433.7,71.9 434.6,73.4 435.5,74.8 436.5,75.7 437.5,76.1 438.5,76.0 439.4,75.6 440.5,74.9 441.4,74.4 442.3,73.9 443.2,73.5 444.3,73.3 445.2,73.4 446.1,73.5 447.2,73.8 448.1,74.0 449.1,74.2 450.0,74.3 451.1,74.4 452.0,74.4 452.9,74.3 454.0,74.2 454.9,74.1 455.8,74.1 456.7,74.0 457.8,74.0 458.7,74.0 459.7,74.0 460.7,74.0 461.7,74.1 462.6,74.1 463.5,74.1 464.6,74.1 465.5,74.1 466.4,74.1 467.5,74.1 468.4,74.1 469.4,74.1 470.3,74.1 471.4,74.1 472.3,74.1 473.2,74.1 474.3,74.1 475.2,74.1 476.1,74.1 477.0,74.1 478.1,74.1 479.0,74.1 480.0,74.1 481.0,74.1 482.0,74.1 482.9,74.1 483.8,74.1 484.9,74.1 485.8,74.1 486.7,74.1 487.8,74.1 488.7,74.1 489.7,74.1 490.6,74.1 491.6,74.1 492.6,74.1 493.5,74.1 494.6,74.1 495.5,74.1 496.4,74.1 497.3,74.1 498.4,74.1 499.3,74.1 500.3,74.1 501.3,74.1 502.3,74.1 503.2,74.1 504.1,74.1 505.2,74.1 506.1,74.1 507.0,74.1 508.1,74.1 509.0,74.1 509.9,74.1 510.9,74.1 511.9,74.1 512.9,74.1 513.8,74.1 514.9,74.1 515.8,74.1 516.7,74.1 517.6,74.1 518.7,74.1 519.6,74.1 520.6,74.1 521.6,74.1 522.6,74.1 523.5,74.1 524.4,74.1 525.5,74.1 526.4,74.1 527.3,74.1 528.4,74.1 529.3,74.1 530.2,74.1 531.2,74.1 532.2,74.1 533.2,74.1 534.1,74.1 535.2,74.1 536.1,74.1 537.0,74.1 537.9,74.1 539.0,74.1 539.9,74.1 540.9,74.1 541.9,74.1 542.8,74.1 543.8,74.1 544.7,74.1 545.8,74.1 546.7,74.1 547.6,74.1 548.7,74.1 549.6,74.1 550.5,74.1 551.5,74.1 552.5,74.1 553.5,74.1 554.4,74.1 555.5,74.1 556.4,74.1 557.3,74.1 558.2,74.1 559.3,74.1 560.2,74.1 561.1,74.1 562.2,74.1 563.1,74.1 564.1,74.1 565.0,74.1 566.1,74.1 567.0,74.1 567.9,74.1 569.0,74.1 569.9,74.1 570.8,74.1 571.8,74.1 572.8,74.1 573.8,74.1 574.7,74.1 575.8,74.1 576.7,74.1 577.6,74.1 578.5,74.1 579.6,74.1 580.5,74.1 581.4,74.1 582.5,74.1 583.4,74.1 584.4,74.1 585.3,74.1 586.4,74.1 587.3,74.1 588.2,74.1 589.3,74.1 590.2,74.1 591.1,74.1 592.0,74.1 593.1,74.1 594.0,74.1 595.0,74.1 596.0,74.1 597.0,74.1 597.9,74.1 598.8,74.1 599.9,74.1 600.8,74.1 601.7,74.1 602.8,74.1 603.7,74.1 604.7,74.1 605.6,74.1 606.7,74.1 607.6,74.1 608.5,74.1 609.6,74.1 610.5,74.1 611.4,74.1 612.3,74.1 613.4,74.1 614.3,74.1 615.3,74.1 616.3,74.1 617.3,74.1 618.2,74.1 619.1,74.1 620.2,74.1 621.1,74.1 622.0,74.1 623.1,74.1 624.0,74.1 625.0,74.1 625.9,74.1 626.9,74.1 627.9,74.1 628.8,74.1 629.9,74.1 630.8,74.1 631.7,74.1 632.6,74.1 633.7,74.1 634.6,74.1 635.6,74.1 636.6,74.1 637.6,74.1 638.5,74.1 639.4,74.1 640.5,74.1 641.4,74.1 642.3,74.1 643.4,74.1 644.3,74.1 645.2,74.1 646.2,74.1 647.2,74.1 648.2,74.1 649.1,74.1 650.2,74.1 651.1,74.1 652.0,74.1 652.9,74.1 654.0,74.1 654.9,74.1 655.9,74.1 656.9,74.1 657.9,74.1 658.8,74.1 659.7,74.1 660.8,74.1 661.7,74.1 662.6,74.1 663.7,74.1 664.6,74.1 665.5,74.1 666.5,74.1 667.5,74.1 668.5,74.1 669.4,74.1" fill="none" stroke="#FF9800" stroke-width="1.5" opacity="0.9"/>
  <line x1="610" y1="30" x2="625" y2="30" stroke="#2196F3" stroke-width="2"/>
  <text x="630" y="34" class="tick">f1 CCW</text>
  <line x1="610" y1="46" x2="625" y2="46" stroke="#F44336" stroke-width="2"/>
  <text x="630" y="50" class="tick">f2 CW</text>
  <line x1="610" y1="62" x2="625" y2="62" stroke="#4CAF50" stroke-width="2"/>
  <text x="630" y="66" class="tick">f3 CW</text>
  <line x1="610" y1="78" x2="625" y2="78" stroke="#FF9800" stroke-width="2"/>
  <text x="630" y="82" class="tick">f4 CCW</text>
</svg>
